<?xml version="1.0" encoding="UTF-8"?>
<svg width="363px" height="359px" viewBox="0 0 363 359" version="1.1" xmlns="http://www.w3.org/2000/svg" xmlns:xlink="http://www.w3.org/1999/xlink">
    <!-- Generator: Sketch 55.2 (78181) - https://sketchapp.com -->
    <title>Fill 3</title>
    <desc>Created with Sketch.</desc>
    <defs>
        <linearGradient x1="-0.782004734%" y1="72.1996991%" x2="101.164114%" y2="14.4507442%" id="linearGradient-1">
            <stop stop-color="#34CDFA" offset="0%"></stop>
            <stop stop-color="#E8D9F1" offset="100%"></stop>
        </linearGradient>
    </defs>
    <g id="Page-1" stroke="none" stroke-width="1" fill="none" fill-rule="evenodd">
        <path d="M362.145,60.57 L361.065,59.963 L360.671,59.658 L360.527,59.334 L360.462,58.937 L360.433,58.121 L359.515,58.467 L359.198,58.517 L358.943,58.506 L358.105,58.363 L357.832,58.219 L357.737,58.049 L357.798,57.97 L357.905,57.916 L357.934,57.81 L357.884,57.669 L357.843,57.591 L356.771,56.393 L356.449,56.19 L355.745,56.188 L355.433,56.706 L355.165,57.315 L354.622,57.577 L354.302,57.433 L353.944,57.118 L353.638,56.746 L353.44,56.436 L353.391,56.158 L353.396,55.872 L353.35,55.643 L353.164,55.534 L351.833,55.522 L351.558,55.439 L351.506,55.115 L351.68,54.722 L351.915,54.336 L352.063,54.033 L352.078,53.694 L352.012,52.996 L352.031,52.646 L352.11,52.452 L352.481,51.876 L352.528,51.727 L352.58,51.41 L353.218,49.71 L353.239,49.61 L353.246,49.424 L353.296,49.317 L353.378,49.265 L353.604,49.222 L353.677,49.185 L353.811,48.995 L354.28,47.724 L354.308,46.971 L354.099,46.224 L353.664,45.461 L353.332,45.16 L352.447,44.548 L352.221,44.265 L352.192,43.904 L352.271,43.5 L353.337,40.301 L353.682,39.63 L353.746,39.588 L353.985,39.536 L354.069,39.49 L354.129,39.394 L354.148,39.195 L354.186,39.102 L354.56,38.458 L355.107,37.86 L355.353,37.511 L355.474,37.106 L355.438,36.886 L355.245,36.491 L355.217,36.276 L355.347,35.74 L355.338,35.572 L355.092,35.122 L354.788,35.227 L354.427,35.533 L354.011,35.684 L353.791,35.288 L353.977,34.313 L353.703,33.976 L353.11,33.744 L352.862,33.558 L352.735,33.274 L352.678,32.625 L352.634,32.53 L352.602,32.436 L352.253,32.187 L351.956,32.403 L351.642,32.775 L351.231,33 L350.704,32.996 L350.48,33.026 L350.15,33.148 L349.554,33.477 L349.319,33.536 L348.936,33.584 L348.742,33.579 L348.574,33.52 L348.38,33.362 L348.387,33.267 L348.494,33.148 L348.6,32.917 L348.744,32.18 L348.757,31.81 L348.303,29.036 L348.175,28.79 L348.042,28.544 L347.858,28.483 L347.663,28.503 L347.478,28.553 L347.294,28.582 L346.911,28.573 L346.74,28.544 L346.021,28.313 L345.248,27.86 L344.487,27.405 L343.21,26.996 L341.976,26.978 L341.661,26.872 L341.521,26.694 L341.491,26.501 L341.484,26.302 L341.446,26.097 L341.316,25.887 L340.86,25.347 L340.694,24.913 L340.586,24.473 L340.391,24.103 L339.955,23.863 L339.156,23.702 L338.876,23.523 L338.594,23.117 L338.147,22.27 L337.853,21.92 L337.411,21.655 L337.189,21.617 L336.963,21.617 L336.763,21.572 L336.614,21.392 L336.597,21.162 L336.711,20.961 L336.857,20.772 L336.918,20.583 L336.73,20.196 L336.314,19.808 L335.823,19.526 L335.408,19.465 L334.537,19.474 L334.019,19.058 L333.801,18.363 L333.808,17.533 L333.978,16.965 L334.006,16.77 L333.978,16.603 L333.844,16.29 L333.829,16.125 L333.945,15.935 L334.126,15.717 L334.19,15.517 L333.954,15.378 L333.769,15.298 L333.331,15.037 L333.208,14.988 L332.784,15.094 L332.638,15.067 L332.364,14.903 L331.814,14.415 L331.591,14.262 L330.798,13.895 L330.578,13.849 L330.001,13.84 L329.43,13.594 L329.356,13.573 L329.21,13.53 L329.094,13.547 L328.801,13.693 L328.706,13.633 L328.513,13.438 L328.431,13.388 L328.03,13.314 L327.739,13.364 L327.577,13.601 L327.532,14.262 L327.479,14.593 L327.493,14.787 L327.457,14.995 L327.104,15.324 L326.975,15.523 L326.856,15.964 L326.692,16.347 L326.46,16.694 L325.486,17.529 L325.299,17.805 L325.104,18.258 L324.822,18.71 L324.506,18.776 L324.125,18.695 L323.663,18.705 L323.446,18.93 L323.396,19.285 L323.252,19.589 L322.771,19.657 L322.339,19.451 L321.133,18.232 L320.917,18.077 L320.167,17.753 L320.116,17.778 L320.06,17.505 L319.853,17.421 L318.934,16.811 L318.86,16.731 L318.787,16.651 L317.634,16.937 L317.216,16.978 L316.318,16.905 L315.734,16.984 L315.538,16.984 L315.054,16.788 L314.963,16.421 L314.936,15.997 L314.659,15.63 L314.532,15.589 L314.398,15.55 L314.235,15.639 L314.071,15.799 L313.817,15.93 L313.427,15.93 L313.262,15.957 L312.469,17.469 L312.183,17.86 L311.9,18.045 L311.113,18.229 L310.883,18.371 L310.816,18.58 L310.771,18.8 L310.636,18.97 L310.463,19.02 L310.282,19.002 L310.093,18.963 L309.914,18.954 L309.491,19.055 L309.214,19.244 L308.483,20.201 L308.128,20.536 L307.726,20.781 L307.297,20.829 L306.842,20.687 L306.679,20.507 L306.62,20.242 L306.452,19.844 L305.812,19.375 L305.011,19.411 L304.173,19.567 L303.421,19.469 L303.068,19.212 L302.719,18.862 L302.189,18.191 L302.109,17.825 L301.989,17.672 L301.834,17.658 L301.681,17.649 L301.507,17.756 L301.189,18.089 L300.996,18.109 L300.414,17.283 L300.326,17.103 L300.266,16.953 L300.237,16.798 L300.225,16.596 L300.285,16.167 L300.38,15.841 L300.319,15.632 L299.339,15.492 L299.124,15.521 L298.997,15.495 L298.803,15.288 L298.71,15.256 L298.54,15.346 L298.46,15.405 L298.497,15.43 L298.474,15.476 L298.467,15.569 L298.422,15.652 L298.306,15.663 L297.982,15.526 L297.877,15.512 L297.334,15.591 L297.186,15.577 L296.97,15.448 L296.621,15.078 L296.429,14.92 L296.278,14.87 L296.091,14.832 L295.809,14.774 L295.729,14.774 L295.587,14.466 L295.505,14.012 L295.466,13.235 L295.619,12.131 L295.555,11.722 L295.473,11.548 L295.352,11.333 L295.192,11.138 L295.012,11.039 L294.846,11.047 L294.476,11.148 L294.331,11.148 L294.088,10.952 L293.967,10.637 L293.816,9.854 L293.57,9.404 L293.232,9.191 L291.555,9.009 L291.403,8.954 L291.167,8.873 L290.824,8.591 L290.723,8.403 L290.644,7.997 L290.574,7.818 L290.417,7.633 L289.818,7.181 L289.683,7.127 L289.562,7.059 L289.441,6.973 L289.34,6.874 L289.469,6.027 L289.435,5.782 L288.931,5.59 L288.752,5.55 L288.489,5.372 L288.273,5.329 L287.912,5.311 L287.725,5.275 L287.564,5.214 L287.296,5.019 L287.05,4.8 L286.792,4.617 L286.462,4.541 L286.044,4.495 L285.606,4.373 L284.043,3.605 L283.266,3.322 L282.453,3.265 L281.574,3.517 L280.89,3.872 L280.32,4.252 L279.791,4.718 L279.227,5.327 L279.134,5.486 L278.95,5.939 L278.852,6.104 L278.63,6.324 L278.521,6.405 L278.186,6.374 L278.164,6.332 L278.106,6.237 L277.998,6.144 L277.869,6.102 L277.742,6.151 L277.548,6.35 L277.406,6.371 L277.288,6.27 L276.501,5.444 L276.363,5.363 L276.097,5.322 L275.189,5.322 L274.987,5.422 L274.729,5.627 L274.543,5.725 L274.285,5.627 L274.128,5.642 L274.011,5.841 L273.891,5.841 L273.742,5.629 L273.412,5.586 L273.063,5.704 L272.842,5.983 L272.706,5.841 L272.572,5.979 L272.329,6.106 L272.085,6.201 L271.922,6.241 L271.595,6.212 L271.071,6.025 L270.834,5.981 L270.791,5.86 L270.437,5.133 L270.203,4.953 L269.914,4.785 L269.645,4.579 L269.466,4.287 L269.063,4.446 L268.937,4.534 L268.753,4.309 L268.432,4.296 L268.068,4.335 L267.585,4.249 L267.22,4.097 L266.872,3.844 L266.73,3.509 L266.642,3.547 L266.425,3.601 L266.341,3.639 L266.334,3.339 L266.341,3.239 L266.097,3.336 L265.977,3.176 L265.809,2.593 L265.75,2.661 L265.55,2.84 L265.496,2.759 L265.375,2.681 L265.287,2.591 L265.033,2.701 L264.912,2.56 L264.783,2.335 L264.516,2.2 L264.421,2.397 L264.313,2.532 L264.18,2.591 L264.029,2.588 L263.91,2.569 L263.813,2.534 L263.724,2.474 L263.783,2.957 L263.846,3.109 L263.674,3.031 L263.508,3.009 L263.381,3.088 L263.329,3.303 L263.229,3.318 L263.008,3.315 L262.747,3.36 L262.554,3.509 L262.306,3.334 L261.974,2.955 L261.773,2.84 L261.507,2.795 L261.334,2.853 L261.252,3.038 L261.252,3.37 L260.964,3.242 L260.63,3.286 L260.382,3.502 L260.348,3.888 L260.003,3.601 L259.833,3.256 L259.613,3 L259.178,2.986 L259.111,3.101 L258.933,3.324 L258.738,3.424 L258.599,3.048 L258.506,2.912 L258.456,2.738 L258.515,2.48 L258.433,2.514 L258.226,2.564 L258.138,2.598 L258.09,2.134 L257.829,2.015 L257.657,2.092 L257.886,2.209 L257.704,2.463 L257.441,2.482 L257.175,2.365 L256.968,2.209 L256.436,1.627 L256.178,1.433 L255.753,1.313 L255.728,1.29 L255.639,1.256 L255.496,1.091 L255.389,1.046 L255.158,1.09 L255.024,1.206 L254.885,1.242 L254.609,1.046 L254.609,0.926 L254.708,0.863 L254.762,0.793 L254.815,0.723 L254.865,0.657 L254.443,0.661 L254.29,0.495 L254.224,0.246 L254.075,0.007 L253.959,0.007 L253.709,0.043 L253.364,0 L253.157,0.065 L253.311,0.402 L253.08,0.453 L252.618,0.635 L252.453,0.592 L252.253,0.388 L252.192,0.359 L252.151,0.429 L251.298,0.893 L250.889,0.992 L250.555,0.796 L250.351,1.032 L250.077,1.121 L249.941,1.239 L250.185,1.572 L249.797,1.696 L249.56,1.97 L249.437,2.354 L249.404,2.795 L249.284,3.031 L249.041,3.291 L248.879,3.614 L249.011,4.03 L249.145,4.109 L249.513,4.177 L249.652,4.302 L249.668,4.441 L249.566,4.818 L249.54,5.014 L249.482,5.133 L249.206,5.458 L249.152,5.665 L249.134,6.138 L249.052,6.327 L248.879,6.515 L248.591,6.591 L247.757,6.67 L247.585,6.833 L247.354,6.946 L246.142,7.02 L245.974,6.951 L245.838,6.86 L245.695,6.785 L245.493,6.774 L245.347,6.966 L245.202,7.093 L245.032,7.15 L244.95,7.231 L244.75,7.612 L244.64,7.994 L244.48,8.044 L243.804,7.847 L243.153,7.491 L242.449,7.292 L242.233,7.292 L242.101,7.361 L241.745,7.612 L241.642,7.667 L241.215,7.757 L240.529,8.18 L240.146,8.326 L239.931,8.308 L239.759,8.227 L239.605,8.177 L239.444,8.254 L239.235,8.473 L239.03,8.645 L238.821,8.667 L238.591,8.452 L238.274,8.663 L237.912,8.687 L236.652,8.557 L236.467,8.462 L236.525,8.265 L236.771,7.933 L236.51,7.745 L235.954,7.562 L235.726,7.406 L235.618,7.186 L235.625,6.806 L235.452,6.63 L235.216,6.534 L234.73,6.462 L234.546,6.381 L234.432,6.241 L234.262,5.879 L234.155,5.733 L233.789,5.467 L233.283,5.209 L232.76,5.084 L232.322,5.214 L232.256,5.426 L232.265,5.69 L232.213,5.843 L231.95,5.733 L231.849,5.57 L231.661,5.008 L231.562,4.802 L231.3,5.077 L231.02,5.519 L230.896,5.929 L231.099,6.111 L231.573,6.21 L231.607,6.44 L231.368,6.698 L231.03,6.887 L229.669,7.061 L229.475,7.217 L229.44,7.266 L229.219,7.807 L229.151,8.024 L229.151,8.199 L229.117,8.342 L228.96,8.45 L228.835,8.45 L228.708,7.992 L228.394,7.859 L228.012,7.953 L227.657,8.18 L227.125,8.871 L226.929,8.968 L226.675,8.916 L226.309,8.66 L226.095,8.582 L225.733,8.637 L225.41,8.826 L224.921,9.229 L223.947,9.681 L223.609,9.887 L223.327,9.609 L223.215,9.569 L223.092,9.627 L223.015,9.742 L222.948,9.932 L222.941,10.143 L223.025,10.332 L223.049,10.576 L222.593,10.573 L221.787,10.4 L221.649,10.438 L221.448,10.607 L221.276,10.661 L221.141,10.646 L220.764,10.545 L220.544,10.522 L220.201,10.63 L219.467,11.148 L219.047,11.308 L218.186,11.414 L217.804,11.531 L217.071,11.949 L216.199,12.159 L215.79,12.34 L214.638,13.248 L214.301,13.374 L213.855,13.425 L213.541,13.573 L213.327,13.817 L213.191,14.153 L213.155,14.371 L213.155,14.536 L213.145,14.674 L213.05,14.811 L212.896,14.873 L212.548,14.859 L212.401,14.938 L212.069,14.75 L211.74,14.631 L211.396,14.57 L211.031,14.554 L210.969,14.505 L210.756,14.287 L210.706,14.224 L210.626,14.177 L210.211,14.093 L210.051,14.036 L209.802,13.506 L209.278,13.183 L209.211,13.117 L208.982,12.986 L208.507,12.327 L208.227,12.085 L207.376,12.509 L206.906,12.586 L206.49,12.405 L206.29,12.232 L206.066,12.09 L205.831,11.992 L205.575,11.954 L205.349,11.85 L205.226,11.601 L205.152,11.32 L204.943,10.922 L204.743,10.412 L204.588,10.263 L204.354,10.244 L204.125,10.33 L203.905,10.446 L203.682,10.524 L203.41,10.513 L203.229,10.455 L203.085,10.467 L202.901,10.663 L202.79,10.9 L202.781,11.132 L202.863,11.357 L203.031,11.57 L202.878,11.757 L202.453,12.076 L202.238,12.595 L201.924,12.539 L201.56,12.342 L201.271,12.228 L200.95,12.342 L200.767,12.616 L200.556,13.262 L200.405,13.551 L200.237,13.789 L200.028,13.988 L199.763,14.155 L199.77,14.378 L199.884,14.764 L199.903,14.941 L199.857,15.073 L199.675,15.405 L199.632,15.523 L199.575,15.623 L199.321,15.815 L199.264,15.916 L199.264,16.363 L199.218,16.563 L199.112,16.749 L198.852,16.879 L198.447,16.917 L197.611,16.892 L197.272,17.091 L197.165,17.55 L197.208,18.071 L197.301,18.442 L197.628,18.83 L197.678,18.972 L197.592,19.181 L197.415,19.384 L197.188,19.543 L196.965,19.605 L196.818,19.78 L196.261,20.791 L196.267,21.003 L196.384,21.399 L196.388,21.565 L196.28,21.751 L195.933,22.053 L195.859,22.137 L195.714,22.431 L195.373,22.759 L194.703,23.231 L194.225,23.43 L194.051,23.502 L191.775,23.617 L189.949,23.208 L189.527,22.937 L189.087,22.775 L188.894,22.656 L188.538,22.293 L188.445,22.209 L188.077,22.081 L187.11,21.898 L186.184,21.466 L186.043,21.421 L185.813,21.427 L185.718,21.451 L185.643,21.496 L185.46,21.563 L185.057,21.634 L183.948,21.563 L183.5,21.48 L183.198,21.288 L182.937,21.071 L182.591,20.904 L182.423,20.881 L181.874,20.904 L181.665,20.876 L181.57,20.804 L181.52,20.719 L181.426,20.646 L181.023,20.497 L180.753,20.464 L180.105,20.514 L179.386,20.454 L179.065,20.484 L177.238,21.421 L177.044,21.333 L176.671,21.331 L176.465,21.293 L176.32,21.2 L176.179,21.071 L176.004,20.954 L175.757,20.904 L174.938,20.94 L174.569,20.911 L174.141,20.786 L173.824,20.646 L172.913,20.066 L172.818,19.933 L172.688,19.799 L172.495,19.739 L172.247,19.757 L172.066,19.803 L171.926,19.879 L171.775,19.986 L171.662,20.112 L171.553,20.265 L171.424,20.414 L171.26,20.514 L171.015,20.531 L170.866,20.433 L170.726,20.315 L170.539,20.256 L170.157,20.237 L170.013,20.181 L169.861,19.867 L169.632,19.754 L169.171,19.6 L168.976,19.363 L168.608,18.703 L168.454,18.566 L168.144,18.507 L166.319,17.841 L164.57,17.469 L163.823,17.52 L163.563,17.654 L163.342,17.83 L163.055,17.981 L162.598,18.045 L161.089,18.045 L159.47,18.29 L159.033,18.191 L158.644,17.94 L156.605,16.034 L156.411,15.627 L156.505,15.265 L156.692,14.948 L156.806,14.674 L156.679,14.285 L156.369,13.857 L156.001,13.511 L155.679,13.368 L155.525,13.232 L155.109,12.334 L154.732,11.746 L154.443,11.435 L154.136,11.298 L153.741,11.247 L152.848,10.954 L152.507,10.78 L152.136,10.474 L151.271,9.416 L150.908,9.181 L149.65,8.696 L149.045,8.288 L148.597,7.908 L148.085,7.595 L146.403,7.242 L145.934,7.072 L145.741,6.818 L145.645,6.526 L145.161,5.715 L144.939,5.455 L144.679,5.275 L143.817,4.875 L143.237,4.757 L142.856,4.579 L142.682,4.539 L140.515,4.495 L139.817,4.175 L139.436,4.247 L138.839,4.539 L138.441,4.579 L137.209,4.539 L136.779,4.642 L136.497,4.897 L136.102,5.455 L134.401,6.502 L133.509,6.908 L133.376,7.072 L133.088,7.565 L132.726,8.055 L132.411,8.128 L131.538,8.118 L131.215,8.242 L130.591,8.83 L130.317,9.174 L130.108,9.619 L129.942,10.211 L129.848,10.393 L129.686,10.561 L129.522,10.685 L129.385,10.841 L129.232,11.565 L128.971,11.837 L128.644,12.051 L128.294,12.334 L127.645,13.434 L127.564,13.502 L127.196,13.634 L127.115,13.705 L127.075,13.734 L126.854,14.287 L126.211,14.812 L125.749,15.458 L124.778,17.855 L124.329,18.475 L123.719,18.916 L122.827,19.218 L122.443,19.296 L122.062,19.321 L121.685,19.249 L121.341,19.032 L120.97,19.004 L120.6,19.357 L120.313,19.854 L120.226,20.265 L120.376,20.59 L120.898,21.032 L121.011,21.236 L121.115,21.595 L121.797,22.851 L122.041,23.591 L122.308,25.189 L122.282,26.391 L122.216,26.848 L122.08,27.275 L121.685,27.921 L121.643,28.345 L121.664,29.202 L121.287,31.548 L121.928,35.953 L122.08,36.477 L122.23,38.846 L122.015,41.585 L121.839,42.007 L121.797,42.231 L121.67,42.544 L121.368,42.8 L120.706,43.138 L120.309,43.401 L120.062,43.744 L119.428,45.61 L119.135,46.075 L119.063,46.27 L118.989,46.685 L118.9,46.882 L118.559,47.37 L118.103,48.332 L118.037,48.583 L117.972,49.094 L117.496,50.38 L116.046,52.825 L115.986,52.981 L115.792,53.046 L114.704,54.058 L114.451,54.366 L114.302,54.669 L114.094,55.78 L113.972,56.152 L113.806,56.509 L113.597,56.853 L113.33,57.508 L113.138,57.795 L112.812,57.891 L112.737,58.085 L112.278,58.628 L112.134,58.847 L111.397,60.837 L111.397,61.118 L111.511,61.691 L111.561,62.271 L111.473,64.077 L111.579,64.948 L111.572,65.247 L111.513,65.573 L111.318,66.197 L111.286,66.525 L111.428,71.94 L111.386,72.335 L110.258,74.78 L110.148,75.15 L110.06,75.841 L109.399,77.957 L109.332,79.134 L109.189,79.508 L108.408,80.822 L107.983,81.288 L107.615,82.002 L107.492,82.437 L107.709,83.747 L107.709,85.243 L108.272,87.647 L108.272,88.168 L107.983,89.622 L107.996,90.156 L108.111,90.616 L108.472,91.522 L108.754,91.675 L108.955,91.98 L109.075,92.345 L109.111,92.669 L108.99,94.502 L108.881,94.804 L107.255,97.073 L105.756,101.125 L105.407,101.803 L104.636,105.322 L104.586,105.795 L104.636,106.277 L105.099,108.163 L105.269,111.506 L105.125,111.696 L104.86,112.068 L103.641,113.194 L103.541,113.328 L103.46,113.475 L103.418,113.75 L103.393,113.829 L103.326,113.899 L103.104,114.058 L102.861,114.338 L102.459,114.629 L98.837,118.966 L98.349,119.421 L97.958,119.888 L97.807,120.009 L97.3,120.254 L97.247,120.351 L96.872,120.79 L96.677,120.908 L95.686,121.188 L94.726,121.322 L94.356,121.421 L93.088,121.937 L92.17,122.193 L91.564,122.293 L91.45,122.343 L91.249,122.481 L91.134,122.529 L91.083,122.644 L90.632,123.157 L89.89,123.809 L89.299,124.497 L88.415,125.211 L87.976,125.467 L87.849,125.59 L87.767,125.728 L87.56,126.256 L87.119,127.037 L86.83,127.733 L86.515,128.178 L85.8,129.577 L85.175,130.389 L84.738,131.265 L84.101,132.238 L83.967,132.549 L83.865,132.861 L83.846,133.073 L83.851,133.714 L83.745,134.273 L83.498,134.751 L81.939,136.786 L81.841,137.012 L81.783,137.268 L81.664,137.324 L81.328,137.576 L81.035,137.699 L80.947,137.75 L80.771,137.903 L80.487,138.275 L79.282,139.438 L78.479,140.043 L77.416,141.05 L76.882,141.412 L76.405,141.832 L75.945,142.436 L75.714,142.834 L75.572,143.257 L75.601,143.696 L75.628,143.844 L75.621,143.964 L75.374,144.813 L75.34,145.12 L75.398,145.411 L75.572,145.672 L75.621,145.772 L75.656,145.948 L75.669,146.86 L76.3,151.397 L75.905,154.182 L75.456,155.533 L75.403,155.796 L75.383,156.069 L75.598,157.844 L75.523,158.783 L75.626,159.847 L75.544,160.868 L75.626,161.182 L75.805,161.538 L75.805,161.971 L75.693,162.797 L75.792,163.195 L76.014,163.413 L76.236,163.564 L76.345,163.767 L76.303,164.211 L76.214,164.562 L75.97,165.132 L75.028,166.745 L74.64,167.758 L74.217,168.578 L73.033,170.009 L72.259,171.568 L72.118,171.993 L71.85,172.261 L71.529,173.158 L70.937,174.187 L70.8,174.333 L70.695,174.526 L70.349,175.635 L69.797,176.165 L69.061,176.55 L68.22,176.801 L67.37,176.929 L66.532,177.052 L63.787,177.921 L63.451,178.073 L63.163,178.3 L62.917,178.656 L62.336,180.517 L62.236,180.68 L61.812,181.119 L61.739,181.25 L61.571,181.313 L61.103,181.559 L60.363,181.827 L58.249,182.887 L57.872,183.126 L57.357,183.351 L56.895,183.617 L56.691,183.991 L56.584,184.245 L54.875,186.664 L54.458,187.048 L53.446,187.558 L53.29,187.764 L53.167,188.009 L51.698,189.444 L50.142,192.037 L50.001,192.346 L49.807,192.628 L49.506,192.874 L48.614,193.258 L47.351,194.043 L46.794,194.238 L46.072,194.31 L45.858,194.231 L45.262,193.872 L45.025,193.793 L44.938,193.743 L44.786,193.495 L44.697,193.406 L44.536,193.394 L44.133,193.412 L44.046,193.336 L43.892,193.13 L43.543,193.118 L43.167,193.218 L42.948,193.336 L42.552,193.747 L42.326,193.868 L41.962,193.923 L41.628,193.984 L41.546,193.406 L41.854,191.935 L41.781,191.738 L41.685,191.568 L41.604,191.39 L41.6,191.162 L41.645,190.988 L41.787,190.652 L41.822,190.472 L41.749,189.998 L41.54,189.697 L41.249,189.434 L40.962,189.076 L40.806,188.351 L40.666,187.931 L40.68,187.783 L40.832,187.508 L41.138,187.237 L41.854,186.937 L42.08,186.709 L42.298,186.411 L42.612,186.058 L42.88,185.679 L42.941,185.324 L42.811,185.198 L42.154,184.778 L41.785,184.346 L41.477,183.874 L41.35,183.599 L41.346,183.497 L41.41,183.395 L41.492,183.122 L41.526,182.88 L41.526,182.678 L41.477,182.527 L41.372,182.438 L41.017,182.466 L40.196,182.91 L39.329,183.113 L38.946,183.381 L38.235,184.005 L37.52,184.341 L36.796,184.574 L35.123,184.778 L34.414,185.058 L33.857,185.808 L33.823,185.864 L33.776,185.905 L33.475,186.12 L33.159,186.504 L32.958,186.622 L32.768,186.629 L32.197,186.465 L31.659,186.502 L31.488,186.455 L31.279,186.276 L31.009,185.776 L30.835,185.545 L30.405,185.268 L30.015,185.231 L28.815,185.649 L28.593,185.768 L28.519,185.985 L28.72,187.814 L28.653,188.181 L28.357,188.944 L28.293,189.361 L28.543,190.174 L28.417,190.339 L28.274,190.321 L28.122,190.277 L27.96,190.358 L27.886,190.565 L27.938,190.913 L27.839,191.047 L27.671,191.064 L27.234,190.944 L27.053,190.932 L26.65,191.186 L26.239,191.946 L25.847,192.07 L25.621,191.965 L25.241,191.579 L25.001,191.47 L24.785,191.5 L24.168,191.858 L24.358,192.023 L24.436,192.185 L24.385,192.327 L24.168,192.44 L23.188,193.156 L22.666,193.791 L22.467,193.95 L22.062,193.123 L21.922,192.462 L21.822,192.233 L21.639,192.058 L21.357,191.906 L20.21,191.495 L19.864,191.269 L18.971,190.498 L18.47,190.174 L18.28,189.987 L18.047,189.366 L17.702,188.873 L17.557,188.59 L17.14,188.107 L16.673,188.157 L16.359,188.576 L16.407,189.216 L16.248,189.758 L15.568,190.002 L11.833,190.869 L11.258,191.196 L10.94,191.547 L10.723,191.945 L10.603,192.369 L10.561,192.812 L10.381,193.039 L9.528,193.533 L9.247,193.766 L9.076,194.168 L9.037,194.469 L8.898,194.687 L8.435,194.844 L7.699,194.897 L7.53,195.024 L7.472,195.409 L7.165,196.124 L6.456,196.576 L4.862,197.123 L4.702,197.145 L4.562,197.123 L4.439,197.162 L4.346,197.347 L4.337,197.507 L4.372,197.71 L4.443,197.891 L4.553,197.992 L5.725,198.404 L5.953,198.563 L6.081,199.198 L6.02,200.655 L5.958,202.274 L5.867,204.539 L5.778,206.902 L5.664,209.888 L4.268,209.874 L2.539,209.857 L0.914,210.085 L0,210.59 L0.741,211.835 L1.073,212.253 L2.353,213.537 L2.751,214.043 L2.825,214.092 L3.057,214.217 L3.153,214.305 L3.218,214.446 L3.315,214.791 L3.413,214.951 L3.413,214.707 L3.445,214.608 L3.427,214.428 L3.45,214.253 L3.606,214.175 L3.778,214.193 L4.134,214.281 L4.323,214.305 L4.61,214.393 L4.73,214.616 L4.693,214.891 L4.518,215.151 L4.067,215.412 L3.974,215.563 L4.192,215.741 L4.467,215.783 L4.744,215.712 L6.815,214.66 L7.435,214.564 L8.737,214.564 L9.234,214.342 L9.645,213.786 L9.964,212.909 L10.119,212.682 L10.5,212.289 L10.644,212.209 L10.998,212.223 L11.153,212.154 L11.628,211.856 L12.317,211.659 L13.03,211.565 L13.568,211.57 L13.884,211.654 L14.547,211.909 L14.805,211.977 L15.882,212.083 L16.114,212.157 L16.382,212.339 L16.717,212.448 L17.061,212.492 L17.348,212.481 L17.954,212.283 L18.254,212.239 L18.513,212.363 L20.118,212.496 L20.908,212.695 L21.506,213.009 L21.715,212.858 L22.104,212.446 L22.224,212.36 L22.854,212.369 L24.371,212.4 L24.927,212.57 L25.162,212.562 L25.504,212.418 L25.687,212.379 L27.193,212.538 L30.336,212.283 L32.925,212.078 L33.665,212.297 L34.119,212.556 L34.401,212.662 L36.662,212.492 L37.096,212.543 L38.224,212.94 L38.595,212.987 L40.581,213.026 L42.298,213.061 L43.164,212.913 L44.375,213.218 L44.961,213.275 L47.379,212.831 L49.15,212.802 L50.888,212.772 L52.618,212.744 L54.347,212.714 L56.086,212.687 L57.817,212.656 L59.552,212.628 L61.282,212.598 L63.021,212.57 L64.748,212.543 L66.487,212.516 L68.216,212.488 L69.952,212.455 L71.682,212.426 L73.414,212.396 L75.147,212.365 L76.879,212.339 L78,212.321 L78.482,212.418 L78.814,212.616 L79.114,212.858 L79.523,213.07 L79.84,213.121 L80.122,213.079 L80.733,212.9 L81.107,212.844 L81.449,212.856 L81.787,212.936 L82.505,213.228 L82.646,213.301 L83.354,213.648 L83.291,213.81 L83.039,214.111 L83.039,214.231 L83.22,214.472 L83.32,214.67 L83.357,214.846 L83.426,216.038 L83.488,216.251 L83.594,216.238 L83.775,216.149 L83.943,216.124 L84.014,216.314 L83.613,216.78 L83.995,216.815 L84.223,216.986 L84.547,217.431 L84.768,217.546 L85.021,217.623 L85.225,217.752 L85.31,218.002 L85.647,218.379 L85.815,218.667 L85.766,218.919 L85.632,219.159 L85.583,219.472 L85.597,220.865 L85.625,221.025 L85.682,221.203 L85.727,221.389 L85.703,221.577 L85.589,221.648 L85.414,221.661 L85.257,221.722 L85.182,221.912 L85.169,222.646 L85.204,222.717 L85.31,222.892 L85.438,222.969 L85.566,222.941 L85.68,222.969 L85.719,223.214 L85.606,223.461 L85.43,223.723 L85.43,223.912 L85.845,223.926 L85.719,224.203 L85.733,224.416 L85.845,224.594 L86.048,224.776 L86.216,224.989 L86.209,225.173 L85.974,225.568 L85.901,225.901 L85.959,226.205 L86.242,226.844 L86.32,227.181 L86.375,227.88 L86.461,228.222 L86.609,228.531 L87.657,229.992 L87.728,230.273 L87.756,230.548 L87.841,230.805 L88.06,231.01 L88.267,231.079 L88.72,231.125 L88.937,231.176 L89.397,231.497 L89.628,231.964 L89.769,233.051 L89.729,233.13 L89.663,233.309 L89.663,233.488 L89.83,233.571 L90.051,233.617 L90.165,233.733 L90.246,233.886 L90.348,234.032 L90.505,234.367 L90.433,234.662 L90.297,234.987 L90.276,235.403 L89.665,235.238 L89.626,235.715 L90.011,236.961 L89.98,237.978 L90.078,238.139 L90.261,238.253 L90.495,238.5 L90.804,238.931 L90.854,239.231 L90.854,239.527 L90.942,239.754 L91.45,239.905 L92.088,240.362 L92.585,240.601 L92.788,240.789 L92.874,241.075 L92.878,241.742 L92.991,242.005 L93.262,242.181 L93.413,241.914 L93.526,241.88 L93.639,241.958 L93.794,242.042 L94.197,242.147 L94.373,242.237 L94.437,242.375 L94.335,242.49 L94.113,242.57 L93.893,242.676 L93.792,242.904 L93.839,243.082 L93.96,243.208 L94.121,243.322 L94.296,243.487 L94.548,243.914 L94.871,244.831 L95.151,245.242 L96.082,245.703 L96.456,245.987 L96.389,246.345 L96.476,246.653 L96.456,247.101 L96.504,247.401 L96.784,247.266 L96.825,247.415 L96.875,247.447 L96.875,247.457 L96.786,247.54 L97.103,247.671 L97.109,247.84 L96.986,248.02 L96.919,248.192 L97.021,248.434 L97.366,248.738 L97.44,248.911 L97.528,249.013 L97.962,249.075 L98.149,249.167 L98.184,249.348 L98.164,249.583 L98.258,249.76 L98.622,249.764 L98.622,249.893 L98.447,250.065 L98.573,250.107 L98.831,250.109 L99.009,250.153 L99.067,250.369 L99.054,250.613 L99.121,250.758 L99.394,250.674 L99.612,250.92 L99.544,251.088 L99.363,251.267 L99.261,251.525 L99.335,251.65 L99.504,251.776 L99.914,251.976 L99.826,252.117 L99.812,252.172 L99.858,252.223 L99.914,252.365 L99.966,252.281 L100.084,252.184 L100.172,252.093 L100.34,252.697 L100.44,252.883 L100.636,253.06 L101.051,253.274 L101.213,253.412 L101.28,253.736 L101.049,254.28 L101.21,254.572 L101.357,254.741 L102.417,255.003 L102.957,254.993 L104.568,254.43 L105.135,254.474 L105.778,254.716 L106.014,254.689 L107.197,254.039 L107.506,253.974 L108.142,254.043 L108.698,254.309 L109.672,255.134 L110.183,255.247 L111.88,255.211 L111.759,254.733 L111.779,254.202 L111.959,253.761 L112.302,253.555 L112.597,253.479 L113.376,253.112 L113.677,253.068 L115.103,253.12 L116.028,253.157 L116.74,253.43 L116.986,253.445 L117.276,253.359 L117.692,253.134 L118.006,253.09 L119.174,253.071 L119.289,253.09 L119.663,253.077 L119.565,252.365 L119.604,251.994 L119.835,251.835 L124.052,251.835 L124.219,251.942 L124.313,252.478 L124.427,252.714 L124.723,253.164 L135.775,253.164 L135.366,251.684 L135.306,251.193 L135.36,250.597 L135.642,249.722 L135.821,249.152 L136.196,247.979 L136.26,247.48 L136.254,247.022 L136.108,246.528 L135.891,246.018 L135.739,245.511 L135.773,245.011 L137.088,245.117 L137.449,245.03 L137.724,244.742 L137.919,243.998 L138.18,243.665 L138.192,243.652 L138.214,243.642 L138.228,243.638 L138.768,243.208 L138.781,242.615 L138.276,241.351 L138.126,240.696 L138.07,240.095 L138.276,237.009 L138.464,236.396 L138.679,236.044 L139.209,235.384 L139.33,235.074 L139.283,234.875 L138.934,234.118 L153.618,234.118 L153.618,233.844 L153.7,233.216 L153.785,232.943 L153.939,232.656 L154.092,232.534 L154.314,232.498 L155.315,232.498 L156.905,232.494 L158.547,232.49 L159.64,232.486 L158.385,235.768 L157.991,236.805 L157.867,237.694 L157.895,238.596 L157.916,239.533 L158.802,239.527 L160.184,239.527 L161.566,239.523 L162.947,239.517 L164.329,239.517 L165.711,239.513 L167.094,239.508 L168.476,239.503 L169.857,239.503 L171.239,239.498 L172.622,239.498 L174.005,239.494 L175.386,239.488 L176.766,239.487 L178.149,239.483 L179.532,239.481 L180.914,239.476 L181.555,239.473 L181.942,239.485 L181.936,239.552 L182.007,239.645 L182.13,239.69 L182.279,239.781 L182.398,239.924 L182.83,240.835 L182.937,240.956 L183.039,241.134 L182.991,241.288 L182.896,241.424 L182.855,241.529 L182.97,241.742 L183.097,241.875 L183.211,242.019 L183.26,242.255 L183.239,242.37 L183.138,242.544 L183.118,242.638 L183.159,242.749 L183.347,242.924 L183.388,243.031 L183.353,243.277 L183.179,243.661 L183.121,243.878 L183.107,244.115 L183.146,244.234 L183.215,244.34 L183.263,244.53 L183.263,245.242 L183.205,245.39 L182.922,245.669 L182.862,245.78 L182.828,246.134 L182.604,246.759 L182.382,247.401 L182.142,248.105 L181.777,249.135 L181.67,249.447 L181.562,250.281 L181.678,250.777 L181.703,250.998 L181.645,251.22 L181.37,251.597 L181.303,251.781 L181.355,253.079 L181.444,253.416 L181.63,253.571 L182.23,253.911 L182.356,254.128 L182.396,254.59 L182.526,254.975 L182.726,255.312 L183.208,255.864 L183.325,256.12 L183.377,256.442 L183.424,257.258 L183.626,258.165 L183.78,258.51 L184.335,259.054 L184.523,259.405 L184.234,259.561 L184.135,259.783 L184.357,260.269 L184.818,261.008 L184.971,261.827 L184.893,262.668 L184.443,264.136 L184.538,264.171 L184.596,264.213 L184.676,264.245 L184.818,264.259 L184.469,264.868 L184.269,265.447 L184.04,266.848 L183.844,268.062 L183.71,268.195 L183.56,268.826 L183.375,269.284 L183.215,270.807 L183.263,271.799 L182.989,273.99 L183.224,275.91 L183.217,276.693 L183.015,277.497 L182.433,278.691 L182.313,279.356 L182.109,279.753 L182.082,279.993 L182.162,280.205 L182.483,280.595 L182.614,280.791 L182.849,281.571 L183.069,283.252 L183.265,284.049 L183.734,284.799 L184.94,286.06 L185.21,286.804 L185.331,286.74 L185.625,286.62 L185.74,286.554 L185.783,287.173 L186.011,287.713 L187.105,288.985 L187.293,289.093 L187.426,289.052 L187.562,288.91 L187.771,289.015 L188.085,289.287 L188.829,289.754 L189.079,290.057 L189.229,290.483 L189.38,291.157 L189.77,292.204 L189.938,293.013 L190.024,293.252 L189.896,293.874 L190.244,294.753 L190.707,295.613 L191.05,296.514 L191.493,297.3 L191.653,297.88 L191.935,298.221 L191.995,298.442 L191.972,298.66 L191.873,299.039 L191.851,299.236 L191.759,299.527 L191.336,300.218 L191.2,300.616 L191.248,301.025 L191.436,301.281 L191.67,301.535 L191.851,301.938 L191.92,302.752 L191.886,303.532 L191.931,304.208 L192.241,304.708 L192.14,304.823 L192.105,304.88 L192.165,305.618 L192.105,305.985 L191.924,306.147 L191.562,306.2 L191.089,306.342 L190.296,306.672 L189.953,306.917 L189.507,307.313 L189.18,307.734 L189.187,308.05 L189.361,308.345 L189.764,309.69 L189.764,310.422 L189.824,310.52 L190.096,310.722 L190.164,310.815 L190.225,311.148 L190.546,311.712 L190.666,312.078 L190.888,313.774 L190.821,314.583 L190.555,315.374 L191.039,315.346 L191.395,315.125 L192.226,314.233 L192.502,314.036 L194.406,313.395 L194.957,312.924 L195.552,311.385 L196.25,311.282 L197.699,311.867 L198.404,312.152 L199.13,312.355 L199.868,312.429 L200.558,312.303 L200.963,312.075 L201.372,311.779 L201.794,311.569 L202.251,311.585 L202.641,311.787 L203.352,312.263 L203.735,312.424 L204.466,312.536 L205.316,312.536 L207.223,312.206 L208.78,311.946 L210.863,310.787 L212.134,310.084 L212.937,309.858 L213.704,309.812 L214.441,309.875 L215.63,310.203 L217.233,310.648 L217.864,310.695 L218.616,310.634 L219.34,310.718 L220.126,310.968 L220.884,311.112 L221.524,310.875 L221.653,310.692 L221.802,310.265 L221.918,310.069 L222.091,309.915 L222.5,309.678 L222.677,309.508 L222.834,309.12 L222.913,308.666 L223.068,308.281 L223.422,308.106 L224.072,308.126 L224.958,308.298 L225.782,308.596 L226.216,309.008 L226.216,309.173 L226.11,309.518 L226.093,309.696 L226.141,309.905 L226.276,310.292 L226.317,310.512 L226.282,311.155 L226.403,311.392 L226.786,311.338 L227.168,311.213 L227.488,311.222 L228.195,311.43 L228.57,311.483 L229.274,311.481 L229.63,311.527 L230.061,311.717 L230.61,312.067 L231.086,312.489 L231.302,312.883 L231.234,313.104 L231.075,313.271 L230.931,313.458 L230.918,313.731 L231.025,313.952 L231.349,314.241 L231.484,314.408 L231.586,314.746 L231.604,315.148 L231.571,315.56 L231.497,315.932 L231.349,316.243 L230.743,317.199 L230.5,317.45 L229.71,317.693 L229.466,317.897 L229.628,318.241 L229.937,318.387 L230.729,318.393 L231.077,318.453 L231.5,318.707 L232.144,319.3 L232.525,319.485 L232.969,319.521 L233.372,319.446 L234.164,319.15 L234.35,319.133 L234.573,319.152 L234.774,319.119 L234.895,318.963 L234.961,318.744 L235.034,318.56 L235.148,318.401 L235.316,318.253 L235.484,318.177 L235.913,318.082 L236.116,317.986 L236.297,317.797 L236.644,317.33 L236.851,317.136 L237.585,316.834 L239.014,316.83 L239.752,316.669 L241.167,315.971 L241.96,315.725 L242.692,315.79 L245.406,315.543 L246.542,315.302 L248.35,314.404 L248.946,314.301 L249.172,314.507 L249.215,314.937 L249.195,315.43 L249.236,315.825 L249.222,316.012 L249.073,316.147 L248.677,316.297 L248.455,316.465 L248.561,316.632 L248.77,316.798 L248.87,316.965 L248.711,317.316 L248.487,317.494 L248.33,317.707 L248.352,318.179 L248.498,318.57 L248.929,319.319 L249.071,319.655 L249.043,319.842 L248.789,320.147 L248.709,320.33 L248.709,320.512 L248.763,320.853 L249.271,322.428 L249.452,322.754 L249.607,322.918 L249.741,322.993 L249.902,323.015 L250.144,323.013 L250.392,323.063 L250.519,323.194 L250.606,323.354 L250.772,323.512 L251.86,324.034 L252.196,324.325 L252.225,324.428 L252.237,324.53 L252.225,324.636 L252.062,325.116 L252.186,325.38 L252.472,325.509 L252.843,325.495 L253.021,325.403 L253.138,325.274 L253.273,325.16 L253.513,325.126 L253.715,325.064 L253.788,324.882 L253.842,324.687 L253.995,324.562 L254.859,324.592 L255.512,325.007 L256.115,325.553 L256.841,325.972 L257.187,326.036 L258.279,326.04 L258.495,326.018 L258.872,325.842 L259.015,325.805 L259.221,325.842 L259.313,325.907 L259.387,326 L260.421,326.84 L260.832,326.993 L261.1,327.192 L261.36,327.793 L261.694,327.946 L261.943,327.978 L265.218,327.934 L265.649,328.099 L266.03,328.343 L266.42,328.529 L267.103,328.482 L267.493,328.672 L267.721,328.682 L267.93,328.594 L268.305,328.336 L268.499,328.251 L269.205,328.136 L269.937,328.113 L270.388,328.253 L270.709,328.501 L271.004,328.792 L271.349,329.062 L272.029,329.278 L273.571,329.384 L274.282,329.532 L274.651,329.745 L274.972,329.996 L275.304,330.147 L275.691,330.064 L275.974,329.778 L276.195,329.446 L276.482,329.205 L276.971,329.199 L277.856,329.296 L278.668,329.122 L279.403,328.699 L280.066,328.057 L280.435,327.308 L280.515,325.731 L280.697,324.969 L280.993,324.543 L281.272,324.277 L281.469,323.982 L281.501,323.466 L281.267,322.652 L281.253,322.282 L281.505,322.01 L281.674,321.987 L282.087,322.046 L282.276,322.04 L282.994,321.801 L283.814,321.735 L284.355,321.529 L284.479,321.512 L284.801,321.977 L285.004,322.856 L285.081,323.799 L285.047,324.446 L285.506,326.128 L289.054,328.308 L289.938,329.842 L290.017,330.614 L290.944,333.278 L291.24,333.673 L292.366,334.585 L293.187,335.479 L293.719,335.653 L294.563,335.725 L295.432,335.685 L296.037,335.536 L296.399,335.241 L296.605,334.979 L296.855,334.829 L297.332,334.876 L297.72,335.023 L298.799,335.667 L299.074,336.014 L299.147,336.499 L299.266,336.911 L299.699,337.041 L300.042,336.981 L300.323,336.963 L301.724,337.102 L301.9,337.205 L301.968,337.369 L302.006,337.554 L302.095,337.73 L302.549,338.098 L302.829,337.98 L303.111,337.701 L303.587,337.578 L303.951,337.739 L304.24,338.021 L304.569,338.247 L305.071,338.247 L305.446,338.191 L305.827,338.215 L306.181,338.326 L306.513,338.507 L308.089,339.877 L308.35,340.293 L308.719,341.246 L308.953,341.684 L309.593,342.359 L309.795,342.724 L309.782,343.228 L309.561,343.547 L309.246,343.763 L309.063,344.042 L309.196,344.535 L309.589,345.045 L310.009,345.468 L310.304,345.928 L310.37,346.927 L310.573,347.108 L310.861,347.121 L311.157,346.987 L311.338,346.756 L311.609,346.196 L311.859,346.033 L312.742,346.223 L313.507,347.009 L314.795,348.688 L315.131,348.98 L315.269,349.188 L315.433,349.885 L315.515,349.974 L315.769,350.066 L315.84,350.147 L315.827,350.246 L315.743,350.459 L315.734,350.547 L315.747,350.632 L315.722,350.833 L315.747,350.943 L315.82,351.027 L315.928,351.059 L316.029,351.083 L316.096,351.127 L316.271,351.801 L316.458,351.91 L316.826,351.927 L316.999,351.998 L317.214,352.289 L317.796,355.148 L318.106,355.95 L318.689,356.516 L318.939,356.822 L319.245,356.891 L319.595,356.816 L319.939,356.688 L320.441,356.683 L320.917,356.609 L321.372,356.604 L321.796,356.798 L321.962,357.043 L322.1,357.336 L322.257,357.565 L322.552,357.625 L322.752,357.511 L323.116,357.07 L323.37,356.923 L323.808,356.742 L324.908,356.007 L327.591,354.969 L327.98,354.727 L329.088,353.684 L329.525,353.492 L329.971,353.515 L330.317,353.713 L330.639,353.985 L331.007,354.218 L331.235,354.24 L331.396,354.188 L331.548,354.191 L331.718,354.405 L331.768,354.6 L331.739,354.811 L331.668,354.999 L331.573,355.15 L331.429,355.249 L331.096,355.332 L330.96,355.476 L330.925,355.642 L330.968,356.03 L330.93,356.211 L330.811,356.271 L330.63,356.309 L330.481,356.409 L330.481,356.683 L330.555,356.905 L330.656,357.119 L330.785,357.318 L330.942,357.483 L331.237,357.651 L331.648,357.816 L332.405,358.024 L333.629,358.037 L333.915,357.986 L334.204,357.376 L334.21,355.23 L334.21,352.336 L334.215,349.589 L334.226,346.687 L334.226,343.303 L334.238,337.191 L334.238,334.939 L334.244,332.885 L334.238,332.782 L333.42,332.85 L333.017,332.988 L332.373,333.454 L331.382,333.915 L331.059,333.976 L330.85,333.863 L330.507,333.527 L330.262,333.437 L330.01,333.437 L329.837,333.504 L329.555,333.765 L329.185,333.989 L328.354,334.274 L328.058,334.488 L327.937,334.735 L327.709,335.488 L327.636,335.941 L327.562,336.113 L327.534,336.274 L327.607,336.423 L328.177,337.152 L328.47,337.262 L328.767,337.281 L328.997,337.383 L329.081,337.73 L329.017,338.092 L328.829,338.377 L328.54,338.554 L328.179,338.59 L328.038,338.544 L327.957,338.465 L327.89,338.383 L327.789,338.326 L327.661,338.317 L327.393,338.34 L327.268,338.326 L326.764,338.141 L325.971,337.707 L325.822,337.677 L325.058,337.655 L324.838,337.62 L324.663,337.549 L324.424,337.346 L324.084,336.967 L323.888,336.874 L322.339,336.903 L321.878,337.02 L321.479,337.196 L321.158,337.403 L320.949,337.025 L320.65,337.07 L320.318,337.232 L320.047,337.213 L319.857,337.115 L319.706,337.117 L319.622,337.064 L319.586,336.812 L319.541,336.618 L317.992,333.777 L317.501,333.164 L316.372,332.533 L316.199,332.307 L316.118,331.946 L315.911,331.578 L315.65,331.262 L315.413,331.043 L314.743,330.686 L314.482,330.48 L314.373,330.189 L314.314,329.648 L314.143,329.494 L313.475,329.595 L313.08,329.492 L312.146,328.982 L311.902,328.792 L311.56,328.067 L311.304,327.877 L310.861,328.133 L310.802,327.955 L310.573,327.58 L310.484,327.475 L310.318,327.328 L310.145,327.22 L309.95,327.205 L309.696,327.345 L309.496,327.047 L309.332,326.111 L309.104,325.907 L308.798,325.814 L308.643,325.57 L308.453,324.238 L308.403,324.039 L308.128,323.781 L308.001,323.605 L308.067,323.523 L308.078,323.329 L307.749,322.18 L307.637,322.007 L307.361,321.721 L307.213,321.524 L306.991,320.955 L306.892,320.802 L306.804,320.506 L306.773,319.475 L306.829,319.133 L307.808,317.697 L307.865,317.621 L308.29,317.288 L308.399,317.233 L308.249,316.514 L308.331,316.092 L308.51,315.812 L308.684,315.604 L309.037,314.87 L309.018,314.223 L309.037,314.017 L309.089,313.906 L309.255,313.663 L309.3,313.483 L309.296,313.24 L309.089,312.216 L309.1,312.027 L309.371,311.657 L309.614,311.19 L309.689,310.984 L309.703,310.787 L309.668,310.375 L309.689,310.185 L309.802,310.006 L310.14,309.663 L310.205,309.461 L310.257,309.262 L310.436,308.868 L310.482,308.66 L310.482,307.81 L310.577,307.357 L310.75,306.915 L310.993,306.506 L311.314,306.161 L311.465,305.975 L311.599,305.556 L311.89,305.087 L311.969,304.985 L312.081,304.933 L312.324,304.95 L312.435,304.92 L312.699,304.712 L312.996,304.411 L313.237,304.056 L313.339,303.667 L313.237,303.542 L312.792,303.202 L312.692,303.007 L312.723,302.786 L312.828,302.379 L312.822,302.151 L312.358,301.642 L312.108,301.29 L312.104,301.027 L312.185,300.847 L312.027,300.556 L312.104,300.375 L312.221,300.201 L312.292,299.978 L312.32,299.736 L312.299,299.508 L312.165,299.133 L311.988,298.828 L311.842,298.488 L311.781,298.008 L311.842,297.605 L311.949,297.3 L312.001,297.004 L311.902,296.63 L311.867,296.62 L311.699,296.518 L311.652,296.484 L311.599,296.383 L311.56,296.179 L311.515,296.09 L310.875,295.539 L311.049,295.186 L311.515,294.642 L311.818,294.05 L311.984,293.301 L312.036,291.771 L311.9,290.392 L311.971,289.976 L312.557,288.737 L312.742,287.91 L312.925,287.567 L313.27,287.429 L313.315,287.34 L312.817,286.832 L312.769,286.554 L312.649,286.444 L312.486,286.384 L312.292,286.255 L312.033,285.88 L311.915,285.496 L311.897,284.604 L311.856,284.4 L311.688,284.002 L311.647,283.818 L311.56,283.559 L311.206,283.154 L311.124,282.973 L311.226,282.869 L311.65,282.731 L311.777,282.58 L311.181,282.596 L310.952,282.504 L310.859,282.249 L310.845,281.926 L310.808,281.677 L310.734,281.466 L310.595,281.268 L310.138,280.933 L309.912,280.714 L309.817,280.417 L309.85,280.142 L309.886,279.795 L309.845,279.427 L309.455,278.949 L308.794,278.6 L307.858,278.405 L307.04,278.093 L306.736,277.391 L307.111,276.689 L307.926,276.151 L309.653,275.332 L311.417,274.034 L314.575,270.932 L317.005,267.717 L317.716,266.076 L317.811,264.375 L316.999,262.678 L316.932,262.317 L317.43,262.123 L319.702,261.776 L322.991,261.277 L325.992,260.819 L330.301,260.167 L335.35,259.395 L340.395,258.628 L344.218,258.04 L349.098,257.298 L352.337,256.805 L351.883,255.09 L350.491,251.72 L346.435,245.412 L345.922,243.617 L345.737,242.362 L345.067,239.968 L343.643,236.909 L342.501,235.153 L339.774,231.974 L338.283,230.742 L335.636,229.393 L333.077,227.459 L332.482,226.83 L332.043,226.109 L331.093,223.552 L329.799,221.892 L329.258,220.998 L329.023,220.25 L328.709,217.983 L328.138,215.859 L328.088,215.107 L328.463,213.903 L329.892,211.992 L330.501,210.925 L330.682,209.457 L330.317,207.864 L328.472,203.527 L327.702,200.462 L326.219,197.762 L325.581,196.217 L325.193,194.588 L325.14,193.003 L325.517,191.402 L326.669,188.278 L326.85,186.679 L326.783,185.927 L326.725,185.684 L326.126,181.111 L325.494,178.938 L324.32,176.964 L323.597,176.187 L323.309,175.784 L323.125,175.28 L322.966,173.047 L323.282,170.874 L323.325,169.395 L322.968,164.588 L323.011,164.036 L323.097,163.786 L323.62,163.301 L323.3,163.041 L323.162,162.672 L323.112,161.413 L323.179,161.03 L323.321,160.711 L323.561,160.575 L323.648,160.36 L323.506,159.146 L323.327,158.866 L323.062,158.665 L322.741,158.543 L322.389,158.498 L322.026,158.352 L321.867,158.015 L321.792,157.627 L321.678,157.324 L321.389,157.133 L321.049,157.017 L320.751,156.864 L320.631,156.564 L320.594,156.259 L320.525,156.069 L320.243,155.657 L320.066,155.152 L319.978,155.003 L319.691,154.876 L319.295,154.84 L318.952,154.74 L318.802,154.424 L318.834,154.021 L318.961,153.697 L319.204,153.489 L319.595,153.44 L319.34,152.982 L319.052,152.661 L318.664,152.469 L318.1,152.412 L317.848,152.31 L317.135,151.85 L316.985,151.7 L317.113,150.256 L316.985,149.819 L316.792,149.621 L316.576,149.519 L316.411,149.404 L316.342,149.161 L316.411,148.914 L316.738,148.621 L316.674,148.388 L316.479,148.047 L316.413,147.672 L316.367,147.27 L316.512,146.776 L316.779,146.544 L317.29,146.369 L317.686,146.253 L318.016,146.058 L318.289,145.786 L318.505,145.444 L318.655,145.162 L318.72,144.96 L318.743,144.795 L318.936,144.615 L319.097,144.558 L319.644,144.574 L320.488,144.353 L321.139,143.839 L321.615,143.102 L321.91,142.207 L322.024,141.418 L321.981,140.739 L321.479,137.773 L321.438,137.082 L321.533,136.407 L321.887,135.572 L323.082,133.672 L323.482,132.919 L323.713,132.584 L324.633,131.829 L324.827,131.579 L325.342,130.514 L325.567,130.232 L325.863,130.107 L327.314,130.047 L327.364,130.038 L327.405,130.009 L327.446,129.966 L327.877,129.293 L328.534,128.616 L329.29,128.072 L330.035,127.811 L330.217,126.704 L330.21,126.343 L330.135,126.13 L329.913,125.751 L329.902,125.553 L330.081,125.076 L330.103,124.914 L329.983,124.507 L329.79,124.22 L329.637,123.916 L329.633,123.462 L329.867,122.295 L329.889,121.955 L329.81,121.59 L329.527,120.864 L329.474,120.531 L329.533,120.306 L329.628,120.143 L329.699,119.957 L329.68,119.68 L329.606,119.325 L329.592,119.137 L329.622,118.964 L329.831,118.633 L330.391,118.443 L330.606,118.192 L330.66,117.919 L330.71,116.783 L330.664,116.386 L330.501,115.651 L330.514,115.256 L330.746,113.767 L330.815,113.67 L330.923,113.591 L331.009,113.493 L331.037,113.346 L330.989,113.233 L330.848,113.032 L330.813,112.918 L330.887,112.712 L331.067,112.661 L331.27,112.648 L331.421,112.546 L331.466,112.282 L331.396,111.126 L331.309,110.835 L331.062,110.313 L331.014,109.957 L331.479,107.248 L331.905,104.723 L332.241,102.8 L332.523,102.105 L332.625,101.749 L332.611,101.389 L332.381,100.566 L332.409,100.238 L332.577,99.729 L333.413,98.569 L333.515,98.356 L333.745,98.443 L333.878,98.564 L334.012,98.613 L334.201,98.494 L334.269,98.351 L334.871,95.244 L335.005,94.84 L335.231,94.486 L336.593,92.919 L336.927,92.199 L336.879,91.462 L336.523,89.936 L336.539,89.548 L336.773,87.955 L336.666,86.977 L336.693,86.785 L337.054,86.038 L337.302,85.895 L337.986,85.37 L338.788,85.012 L340.814,84.554 L340.995,84.452 L341.204,84.209 L341.549,83.574 L341.609,83.505 L341.693,83.202 L342.127,82.753 L342.254,82.404 L342.154,81.637 L342.148,81.271 L342.387,81.047 L342.454,80.881 L342.506,80.684 L342.542,80.28 L342.594,80.157 L343.171,79.568 L343.339,79.484 L343.499,79.434 L343.671,79.466 L343.878,79.631 L344.21,79.782 L344.437,79.536 L344.675,79.156 L344.991,78.908 L345.214,78.89 L345.645,78.938 L345.898,78.908 L346.261,78.818 L346.525,78.707 L346.769,78.54 L347.146,78.22 L351.01,73.277 L353.584,71.215 L356.195,69.115 L357.55,68.03 L359.323,65.818 L360.542,64.291 L361.677,62.874 L362.22,61.896 L362.388,60.943 L362.145,60.57 Z M14.075,212.265 L13.439,212.356 L12.205,212.214 L11.628,212.365 L10.915,212.748 L10.304,213.237 L10.052,213.715 L10.158,213.946 L10.426,214.087 L10.75,214.111 L11.023,213.977 L11.682,213.204 L11.996,213.005 L12.609,212.856 L13.842,212.758 L14.356,212.472 L14.47,212.472 L14.356,212.277 L14.075,212.265 L14.075,212.265 Z" id="Fill-3" fill="url(#linearGradient-1)" fill-rule="nonzero"></path>
    </g>
</svg>