<?xml version="1.0" encoding="UTF-8"?>
<svg width="801px" height="497px" viewBox="0 0 801 497" version="1.1" xmlns="http://www.w3.org/2000/svg" xmlns:xlink="http://www.w3.org/1999/xlink">
    <!-- Generator: Sketch 59.1 (86144) - https://sketch.com -->
    <title>Combined Shape</title>
    <desc>Created with Sketch.</desc>
    <defs>
        <linearGradient x1="4.87118063%" y1="58.7498537%" x2="95.4683915%" y2="35.9885134%" id="linearGradient-1">
            <stop stop-color="#34CDFA" offset="0%"></stop>
            <stop stop-color="#E8D9F1" offset="100%"></stop>
        </linearGradient>
    </defs>
    <g id="Page-1" stroke="none" stroke-width="1" fill="none" fill-rule="evenodd">
        <g id="singapore" fill="url(#linearGradient-1)" fill-rule="nonzero">
            <path d="M181.40042,480.19 L182.42042,480.53 L183.94042,480.92 L184.90042,481.65 L185.46042,482.33 L184.90042,482.72 L184.84042,483.45 L185.57042,484.07 L186.24042,484.79 L186.24042,485.58 L185.34042,485.47 L184.04042,485.64 L183.93042,486.26 L184.04042,486.99 L185.17042,487.33 L186.64042,487.89 L187.43042,489.07 L186.31042,490.87 L184.96042,490.93 L182.99042,491.27 L181.80042,491.66 L180.05042,491.83 L177.74042,492.62 L177.18042,492.96 L175.99042,493.98 L174.52042,495.05 L173.05042,496.46 L172.37042,496.46 L171.92042,495.39 L171.52042,494.37 L171.58042,492 L171.58042,489.97 L170.95042,489.25 L171.35042,488.35 L172.20042,487.73 L173.27042,487.79 L175.13042,487.51 L177.10042,487.17 L178.17042,486.61 L179.02042,485.71 L179.70042,484.81 L180.38042,483.79 L180.21042,483.06 L179.87042,482.5 L179.87042,481.48 L180.21042,480.3 L181.40042,480.19 Z M299.16042,444.69 L299.96042,445.29 L300.56042,445.99 L301.36042,447.09 L302.16042,447.79 L303.46042,448.89 L304.96042,449.79 L306.77042,451.29 L307.17042,452.69 L308.57042,454.19 L309.17042,455.09 L310.88042,456.49 L311.98042,458.1 L312.48042,459.3 L313.28042,460 L313.50042,460.82 L313.50042,460.82 L313.30042,461.32 L312.00042,461.02 L309.99042,460.62 L308.79042,459.82 L307.99042,459.22 L305.68042,458.12 L303.27042,456.82 L301.56042,455.41 L300.86042,454.21 L299.86042,452.4 L299.16042,451.4 L298.76042,450.2 L298.26042,449.1 L298.26042,446.89 L298.36042,445.49 L299.16042,444.69 Z M244.77042,441.67 L244.94042,442.13 L244.69042,442.51 L243.72042,442.68 L243.34042,442.89 L243.09042,443.52 L242.75042,444.37 L243.05042,444.88 L243.13042,445.98 L243.34042,446.95 L243.85042,447.68 L244.44042,448.74 L245.50042,448.61 L246.22042,448.44 L246.81042,448.57 L247.23042,449.37 L247.86042,449.88 L248.58042,450.73 L249.30042,451.75 L249.47042,452.81 L249.34042,454.25 L248.71042,454.5 L248.08042,454.97 L247.45042,455.82 L246.69042,456.96 L246.35042,458.69 L245.93042,459.2 L245.51042,459.33 L245.34042,458.61 L243.94042,458.48 L243.43042,459.03 L242.75042,460 L242.03042,460.42 L241.44042,459.66 L241.23042,458.73 L240.76042,457.12 L240.17042,455 L239.49042,453.31 L239.36042,451.57 L239.83042,450.26 L239.96042,448.78 L240.34042,447.51 L240.97042,445.86 L241.65042,445.01 L242.24042,444.29 L242.32042,443.7 L242.57042,442.77 L242.99042,441.8 L244.77042,441.67 Z M177.15042,441.07 L178.73042,441.41 L179.24042,442.54 L179.35042,443.16 L179.69042,444.51 L180.93042,445.92 L182.15042,447.27 L183.56042,447.72 L184.52042,447.1 L185.65042,446.25 L186.72042,445.63 L187.51042,445.01 L188.19042,444.78 L188.81042,445.4 L189.60042,446.25 L189.60042,446.76 L188.98042,447.27 L188.08042,447.27 L187.06042,447.61 L186.38042,448.91 L186.15042,450.26 L186.77042,451.28 L187.84042,452.13 L189.65042,452.36 L190.78042,452.7 L191.57042,453.43 L192.64042,454.45 L192.13042,455.18 L190.32042,455.35 L189.98042,456.76 L189.25042,458.62 L187.56042,458.85 L185.87042,459.19 L184.57042,458.96 L183.27042,458.51 L181.75042,458.17 L179.15042,458.23 L174.07042,458.23 L173.28042,458.57 L171.36042,459.25 L169.61042,459.02 L166.68042,458.23 L163.29042,457.72 L160.64042,457.44 L158.83042,456.88 L156.18042,456.65 L153.87042,456.37 L152.68042,455.75 L152.51042,454.51 L153.30042,453.38 L154.09042,452.48 L156.01042,452.25 L157.08042,451.85 L158.04042,451.17 L159.39042,450.1 L160.46042,448.86 L161.42042,447.45 L162.49042,446.38 L164.52042,445.08 L166.10042,444.12 L167.62042,443.39 L171.29042,442.88 L172.70042,442.54 L174.05042,442.09 L175.80042,441.3 L177.15042,441.07 Z M194.62042,455.12 L195.18042,455.23 L195.58042,456.02 L196.19042,456.88 L195.64042,457.54 L194.96042,457.37 L194.79042,456.81 L194.51042,456.19 L193.83042,455.91 L193.83042,455.12 L194.62042,455.12 Z M272.21042,448.83 L273.18042,448.96 L274.20042,449.26 L275.55042,449.64 L275.47042,450.1 L275.22042,450.52 L274.96042,450.69 L273.99042,450.82 L273.91042,450.27 L273.19042,449.89 L272.43042,449.81 L272.13042,449.3 L272.21042,448.83 Z M373.13042,435.71 L373.25042,436.3 L373.60042,436.59 L373.36042,437.06 L373.12042,437.18 L372.83042,437.65 L372.01042,438.47 L371.65042,438.95 L371.24042,439.01 L370.59042,438.72 L370.59042,438.25 L371.00042,438.07 L371.24042,437.83 L371.65042,437.54 L371.83042,437.07 L372.24042,436.48 L372.54042,435.89 L373.13042,435.71 Z M389.83042,421.66 L390.30042,422.13 L390.83042,423.13 L392.01042,423.54 L393.48042,423.96 L394.25042,424.61 L395.19042,424.55 L396.19042,425.55 L397.02042,426.08 L398.02042,426.32 L398.91042,426.97 L398.97042,427.56 L398.62042,428.8 L398.91042,430.98 L399.26042,432.34 L399.44042,434.35 L399.56042,436.06 L398.97042,436.53 L398.50042,436.24 L397.67042,435.53 L397.14042,434.88 L396.73042,434.23 L396.26042,433.52 L396.44042,432.69 L396.25042,431.75 L395.42042,431.46 L394.48042,430.69 L392.89042,429.39 L391.95042,428.21 L390.59042,427.03 L389.53042,425.73 L388.41042,425.02 L387.53042,424.43 L387.47042,423.37 L388.06042,422.66 L388.59042,421.95 L389.83042,421.66 Z M367.99042,433.41 L368.76042,433.47 L369.05042,434.12 L368.76042,434.65 L368.23042,434.94 L367.64042,435 L367.46042,434.41 L367.58042,433.88 L367.99042,433.41 Z M403.28042,417.15 L404.28042,417.21 L404.52042,417.8 L405.40042,418.33 L406.17042,419.1 L407.35042,420.22 L408.35042,421.28 L408.94042,422.22 L410.06042,422.63 L410.94042,423.34 L411.41042,424.05 L411.23042,425.17 L410.76042,425.76 L410.29042,426.88 L410.12042,427.63 L409.53042,427.98 L408.59042,427.45 L407.94042,426.8 L406.94042,426.27 L405.82042,425.21 L404.88042,424.09 L404.11042,423.15 L403.40042,422.27 L403.34042,420.56 L403.22042,419.56 L402.51042,418.62 L402.69042,417.44 L403.28042,417.15 Z M222.63042,414.55 L224.23042,415.15 L226.34042,415.95 L227.94042,416.65 L229.24042,417.55 L231.05042,418.75 L232.25042,419.95 L232.65042,420.85 L231.85042,421.85 L230.44042,422.06 L230.44042,422.06 L229.24042,422.56 L227.03042,422.46 L225.43042,422.66 L224.03042,422.96 L222.63042,421.96 L222.03042,421.36 L221.03042,420.46 L220.73042,419.06 L220.93042,417.96 L221.03042,416.55 L220.73042,415.65 L221.33042,414.65 L222.63042,414.55 Z M245.98042,393.86 L247.08042,394.06 L249.29042,394.46 L250.49042,394.86 L252.30042,395.46 L253.00042,396.26 L253.70042,397.36 L254.60042,398.06 L255.70042,399.16 L257.10042,399.76 L258.50042,400.56 L259.50042,401.56 L260.20042,402.46 L260.73042,403.41 L260.73042,403.41 L261.33042,404.41 L262.63042,404.21 L263.23042,404.01 L263.63042,404.61 L263.93042,405.11 L265.53042,406.01 L265.93042,407.01 L266.93042,407.91 L268.94042,409.62 L270.65042,411.12 L271.85042,412.52 L272.65042,413.62 L272.15042,414.12 L272.05042,414.92 L273.25042,416.12 L273.85042,416.92 L274.65042,418.22 L274.85042,419.32 L273.85042,419.92 L272.25042,419.82 L270.14042,419.72 L269.74042,418.62 L268.74042,418.82 L268.04042,419.42 L266.74042,419.32 L265.94042,418.32 L265.64042,417.12 L265.34042,415.31 L264.74042,414.31 L264.14042,413.51 L261.53042,411.7 L260.63042,411 L259.73042,410.6 L258.23042,410.2 L257.23042,409.7 L256.03042,409.7 L255.53042,410.6 L255.73042,411.4 L256.53042,411.6 L257.63042,412.3 L258.73042,412.9 L259.73042,413.7 L260.63042,414.4 L260.43042,415.1 L259.63042,415.4 L259.23042,416.2 L257.83042,416.5 L257.23042,417.5 L256.43042,418.3 L254.32042,418.4 L252.41042,418.7 L249.30042,418.4 L247.29042,417.9 L245.79042,417.5 L243.98042,417.3 L242.78042,416.8 L241.98042,415.8 L241.88042,414.4 L242.48042,413.1 L242.98042,412.2 L244.58042,410.6 L244.78042,409.9 L245.78042,409.8 L246.88042,410.5 L248.79042,411.3 L250.50042,411.4 L251.90042,411 L252.50042,409.39 L251.50042,408.39 L249.19042,408.39 L247.59042,407.69 L245.68042,406.49 L245.08042,405.09 L244.68042,403.18 L243.88042,401.27 L243.38042,400.17 L243.18042,398.77 L243.28042,396.76 L243.28042,395.96 L243.98042,395.16 L244.48042,394.26 L245.98042,393.86 Z M237.88042,400.01 L238.68042,400.51 L239.18042,400.91 L239.68042,402.41 L240.28042,404.01 L240.68042,405.21 L241.28042,406.71 L241.18042,408.21 L240.48042,409.61 L239.78042,411.11 L239.17042,412.53 L238.07042,412.73 L237.17042,411.73 L237.17042,410.73 L236.47042,409.93 L235.47042,408.93 L234.87042,408.23 L233.67042,407.33 L233.37042,406.03 L233.57042,404.32 L234.57042,402.31 L235.57042,400.71 L237.88042,400.01 Z M402.25042,408.11 L402.84042,408.29 L402.84042,409.41 L402.31042,409.76 L402.15042,410.52 L401.50042,411.4 L400.67042,411.93 L399.67042,412.05 L398.73042,411.52 L397.90042,411.11 L398.19042,410.64 L399.07042,410.52 L399.54042,410.76 L400.25042,410.82 L400.78042,410.7 L401.25042,409.82 L401.90042,409.05 L402.25042,408.11 Z M376.02042,406.09 L376.90042,406.8 L377.25042,407.33 L377.84042,407.86 L378.55042,408.45 L379.55042,409.39 L380.14042,410.16 L380.61042,410.93 L380.61042,411.76 L380.62042,411.76 L380.09042,411.88 L379.44042,411.29 L378.85042,410.64 L378.20042,409.81 L377.55042,409.16 L377.02042,408.33 L376.31042,407.27 L376.02042,406.09 Z M410.54042,407.12 L410.89042,407.89 L410.65042,408.77 L410.12042,409.42 L409.53042,410.01 L409.00042,410.52 L409.00042,410.52 L407.94042,410.64 L407.59042,410.35 L407.71042,409.88 L408.30042,409.59 L408.77042,409.3 L409.30042,409.01 L409.54042,407.95 L409.83042,407.3 L410.54042,407.12 Z M221.31042,398.42 L223.12042,398.82 L224.62042,399.72 L225.42042,401.13 L226.12042,402.13 L225.82042,403.23 L225.12042,404.03 L224.02042,404.73 L221.91042,405.63 L219.00042,407.13 L216.50042,407.72 L214.49042,408.42 L212.78042,408.12 L211.18042,407.52 L210.38042,407.12 L209.48042,406.22 L209.58042,405.32 L209.08042,404.12 L209.98042,402.92 L211.58042,402.32 L212.68042,401.32 L214.59042,400.42 L216.50042,399.42 L217.60042,398.92 L219.10042,398.42 L221.31042,398.42 Z M167.29042,301.45 L170.50042,301.85 L173.11042,302.45 L175.22042,303.35 L177.83042,304.35 L179.84042,306.26 L181.44042,307.6 L183.04042,309.1 L183.94042,310.1 L184.78042,311.9 L185.48042,314.71 L185.68042,319.83 L186.48042,320.43 L187.58042,321.93 L189.39042,323.84 L191.70042,326.55 L193.71042,327.45 L195.21042,328.05 L201.13042,328.45 L204.14042,328.75 L206.65042,330.15 L209.16042,331.76 L210.56042,334.47 L210.76042,337.28 L210.26042,338.38 L207.95042,340.29 L205.24042,342.6 L202.73042,344.41 L201.23042,345.21 L198.320416,345.51 L196.01042,344.91 L194.71042,343.91 L192.40042,342.71 L188.69042,340.9 L186.18042,340.2 L183.77042,339.9 L182.27042,340.1 L180.97042,341 L179.26042,342.1 L177.35042,343.6 L175.75042,345.21 L175.45042,346.92 L176.85042,348.42 L179.06042,348.82 L180.26042,349.32 L181.76042,349.32 L182.36042,348.52 L183.26042,348.32 L183.06042,349.52 L182.56042,350.32 L183.46042,350.82 L183.56042,352.02 L183.06042,352.62 L182.36042,353.82 L180.55042,355.53 L178.84042,356.83 L178.34042,357.93 L175.83042,358.23 L173.72042,356.93 L172.01042,355.32 L170.30042,355.22 L169.60042,354.12 L168.00042,352.92 L163.19042,350.31 L159.68042,348.81 L159.58042,345 L158.78042,344 L157.68042,344.5 L156.68042,344.94 L156.08042,346.35 L155.08042,346.25 L153.58042,345.85 L152.28042,345.65 L151.58042,346.15 L150.48042,347.25 L149.68042,348.86 L149.48042,350.36 L150.18042,350.76 L152.39042,351.76 L155.60042,353.67 L158.61042,355.78 L162.42042,357.69 L164.73042,359.09 L166.33042,360.19 L166.73042,361.09 L165.93042,361.89 L164.73042,362.19 L162.42042,363.29 L160.61042,364.09 L159.00042,365.05 L156.89042,365.09 L154.68042,366.39 L151.07042,369.4 L147.06042,372.31 L141.54042,375.42 L138.33042,377.83 L136.83042,377.93 L136.33042,375.92 L134.52042,372.01 L132.71042,367.32 L131.21042,364.01 L130.41042,361.58 L128.60042,357.97 L127.30042,357.97 L126.20042,358.47 L124.09042,359.97 L122.28042,361.17 L120.47042,362.47 L120.77042,363.77 L121.77042,367.08 L123.37042,371.29 L125.38042,377.41 L127.09042,382.22 L126.99042,383.93 L126.09042,384.83 L123.98042,386.23 L121.67042,387.84 L120.17042,388.34 L120.07042,386.84 L117.66042,381.12 L114.75042,373.5 L112.64042,367.98 L111.64042,367.48 L110.94042,367.98 L107.93042,370.19 L105.62042,372 L104.62042,373.2 L104.72042,375.81 L108.63042,385.84 L110.74042,392.96 L110.64042,394.56 L109.94042,395.16 L106.33042,396.66 L102.12042,398.57 L98.210416,399.37 L94.700416,399.77 L91.090416,398.36 L88.180416,396.56 L85.770416,393.85 L83.260416,390.64 L81.760416,388.14 L79.150416,384.23 L76.040416,378.91 L73.630416,374.5 L71.520416,369.89 L69.920416,366.08 L69.220416,363.57 L68.720416,362.37 L67.420416,359.16 L66.420416,355.53 L65.720416,352.62 L65.320416,350.51 L66.320416,349.01 L67.420416,346.9 L69.930416,344.79 L72.540416,342.48 L75.650416,340.07 L79.660416,336.66 L82.570416,333.85 L84.880416,331.14 L87.590416,329.23 L90.100416,327.32 L94.310416,324.81 L99.070416,321 L101.58042,319.09 L104.49042,317.28 L106.80042,315.47 L109.11042,314.07 L111.62042,312.36 L113.73042,310.65 L116.84042,309.75 L119.65042,309.35 L120.65042,308.75 L121.90042,308.93 L122.60042,309.53 L125.71042,309.63 L126.81042,308.83 L127.21042,307.12 L128.51042,306.12 L130.820416,305.82 L132.83042,305.82 L133.73042,306.42 L133.43042,308.53 L132.03042,309.43 L131.13042,310.03 L129.320416,311.64 L126.61042,313.75 L125.31042,314.95 L124.21042,316.96 L123.81042,319.07 L123.31042,319.77 L121.81042,321.48 L120.21042,323.89 L117.70042,326.6 L115.29042,328.81 L113.38042,330.52 L113.48042,332.33 L113.98042,332.93 L115.38042,334.43 L117.49042,336.14 L119.30042,337.24 L119.80042,336.34 L121.20042,335.44 L123.01042,334.34 L124.31042,333.34 L125.41042,332.14 L126.11042,331.54 L126.71042,331.84 L127.21042,332.54 L128.51042,333.14 L129.31042,332.54 L130.21042,331.74 L131.41042,331.74 L132.61042,331.54 L133.11042,330 L132.11042,328.8 L131.91042,327.4 L132.11042,325.9 L133.01042,324.09 L134.41042,322.28 L136.42042,320.27 L138.02042,319.07 L139.02042,318.07 L140.320416,317.77 L141.12042,318.07 L141.820416,318.77 L143.12042,318.57 L144.22042,317.47 L144.62042,316.47 L144.52042,315.47 L143.92042,314.67 L143.820416,313.37 L144.22042,312.87 L144.72042,313.47 L145.22042,313.97 L146.12042,314.47 L147.52042,314.47 L148.42042,313.07 L149.42042,311.87 L148.820416,310.57 L147.62042,309.57 L146.72042,309.17 L146.72042,308.25 L147.320416,307.55 L148.820416,306.65 L150.73042,305.45 L152.64042,304.45 L154.14042,304.25 L156.15042,304.15 L158.56042,303.05 L160.67042,302.65 L163.48042,302.05 L167.29042,301.45 Z M327.75042,360.05 L329.64042,360.36 L331.76042,360.99 L333.34042,361.59 L335.46042,362.14 L337.82042,361.98 L339.08042,362.53 L340.34042,362.77 L341.28042,362.53 L342.22042,361.98 L343.01042,361.51 L343.48042,360.64 L344.19042,360.25 L344.27042,361.19 L345.14042,362.37 L347.18042,363 L349.46042,364.57 L353.08042,365.83 L355.05042,367.72 L356.94042,368.35 L358.98042,369.22 L361.34042,369.53 L363.70042,369.45 L365.90042,369.14 L367.55042,369.14 L369.20042,370.01 L370.14042,370.4 L371.16042,371.11 L372.89042,371.9 L374.78042,372.14 L375.88042,371.51 L377.14042,370.64 L379.03042,370.4 L380.60042,370.4 L382.09042,370.71 L383.58042,370.87 L384.21042,371.58 L384.45042,373.23 L383.98042,374.33 L385.00042,374.96 L386.18042,374.8 L386.57042,373.93 L387.28042,373.77 L388.62042,372.83 L389.64042,372.44 L390.98042,371.89 L393.18042,371.58 L394.52042,372.13 L395.54042,372.76 L395.54042,373.86 L394.99042,374.8 L394.60042,376.14 L393.42042,377.63 L392.16042,378.97 L391.22042,380.54 L390.04042,382.11 L389.41042,383.45 L387.92042,385.49 L387.09042,386.04 L386.30042,386.59 L385.99042,387.85 L385.44042,387.69 L385.44042,386.75 L385.36042,385.73 L385.20042,385.02 L384.26042,384.23 L383.55042,383.6 L382.92042,383.21 L382.13042,382.66 L381.26042,382.66 L380.95042,383.84 L381.11042,384.86 L381.11042,387.46 L380.56042,388.56 L380.32042,389.74 L381.19042,390.92 L381.90042,391.63 L381.90042,392.1 L381.27042,392.26 L380.72042,392.97 L379.62042,393.91 L378.99042,394.3 L377.65042,394.93 L376.86042,395.4 L376.39042,395.87 L375.68042,395.32 L374.89042,395.08 L374.10042,395.55 L372.61042,395.86 L371.43042,396.25 L370.41042,396.49 L369.47042,397.12 L369.00042,398.06 L367.62042,398.22 L366.13042,397.75 L365.42042,397.28 L364.48042,396.49 L364.17042,395 L363.70042,393.27 L362.60042,392.56 L361.50042,391.93 L361.42042,390.99 L360.63042,390.6 L358.98042,389.66 L357.64042,388.48 L356.70042,387.14 L355.44042,386.04 L354.50042,384.62 L353.71042,382.89 L352.92042,381.71 L351.90042,380.92 L351.98042,381.39 L350.56042,380.76 L349.93042,380.52 L349.46042,379.34 L348.91042,378.71 L347.89042,378 L345.61042,377.92 L345.22042,378.23 L344.91042,378.7 L343.73042,378.46 L343.02042,377.91 L342.00042,377.2 L340.26042,375.16 L339.08042,373.59 L337.90042,372.96 L336.48042,371.94 L335.30042,371.31 L335.06042,370.21 L334.04042,369.58 L332.55042,368.48 L331.45042,367.22 L330.11042,366.51 L328.30042,366.12 L327.67042,365.25 L327.12042,364.07 L326.73042,363.13 L325.94042,361.87 L325.47042,361.24 L325.71042,360.45 L326.73042,360.29 L327.75042,360.05 Z M372.66042,354.66 L374.23042,355.13 L375.72042,356.15 L376.98042,357.49 L378.40042,358.83 L379.03042,359.46 L380.13042,360.64 L381.31042,362.13 L382.81042,363.48 L382.81042,363.48 L383.05042,364.42 L382.50042,364.74 L381.87042,365.29 L379.59042,365.29 L378.65042,365.68 L377.86042,366.23 L377.07042,366.86 L375.65042,367.33 L374.78042,367.96 L374.07042,368.59 L373.52042,368.83 L372.65042,368.36 L371.94042,368.28 L370.92042,367.73 L369.43042,367.49 L368.41042,367.02 L367.23042,367.02 L366.92042,366.47 L367.16042,366.08 L367.32042,365.53 L366.77042,364.82 L365.59042,364.27 L364.65042,364.11 L363.78042,365.05 L363.15042,365.52 L361.97042,365.68 L361.34042,365.21 L360.47042,364.74 L359.21042,364.19 L358.11042,363.95 L357.01042,363.64 L356.07042,362.93 L355.28042,361.91 L354.49042,361.04 L355.36042,359.23 L356.93042,358.52 L358.35042,357.65 L360.39042,356.78 L362.43042,355.91 L364.48042,355.52 L366.52042,354.97 L370.38042,354.97 L372.66042,354.66 Z M342.66042,0.25 L345.43042,0.5 L347.11042,0.92 L348.71042,1.93 L350.39042,2.6 L350.69042,3.33 L350.91042,3.68 L350.32042,3.89 L349.19042,4.27 L347.69042,4.74 L346.08042,5.77 L344.86042,7.08 L344.20042,8.49 L343.45042,10.18 L344.67042,11.59 L345.89042,11.03 L347.11042,10.19 L347.77042,9.06 L348.99042,7.37 L349.31042,7.2 L350.12042,6.9 L351.06042,7.09 L351.16042,8.02 L351.25042,8.4 L351.53042,9.62 L351.91042,10.46 L352.85042,10.84 L352.85042,11.03 L352.83042,11.08 L352.84042,11.37 L352.85042,11.35 L352.85042,11.88 L352.29042,12.72 L351.35042,13.94 L350.41042,15.07 L351.25042,15.82 L352.75042,15.73 L353.41042,14.04 L354.63042,12.26 L356.04042,11.7 L356.89042,10.76 L357.83042,8.69 L359.52042,6.16 L360.65042,4.28 L362.25042,4.03 L363.73042,4.84 L368.02042,7.34 L370.74042,9.31 L370.46042,10.25 L369.80042,11.28 L368.86042,12.88 L368.48042,14.01 L367.82042,14.85 L367.44042,15.88 L367.53042,16.63 L368.09042,17.29 L369.12042,17.85 L370.43042,17.38 L371.46042,16.07 L372.02042,14.66 L372.86042,13.53 L373.33042,12.5 L373.80042,11.09 L376.33042,11.09 L377.53042,11.84 L379.21042,12.68 L380.55042,13.52 L381.89042,14.86 L384.20042,16.25 L385.41042,17.21 L386.74042,17.84 L388.61042,19.64 L390.46042,20.98 L392.73042,22.66 L394.74042,23.5 L396.17042,24.17 L397.92042,24.79 L399.19042,26.1 L399.77042,27.36 L400.86042,28.7 L401.67042,30.32 L401.49042,32.73 L401.67042,32.86 L402.14042,33.99 L402.99042,35.3 L403.93042,36.14 L404.77042,37.08 L405.59042,38.04 L405.89042,38.11 L406.45042,39.24 L406.92042,40.18 L407.39042,41.59 L407.77042,43.37 L408.80042,45.9 L408.75042,45.93 L409.55042,46.65 L410.30042,47.4 L410.68042,48.15 L411.15042,49.27 L411.25042,49.28 L412.47042,50.31 L413.60042,52 L414.05042,53.71 L414.97042,54.63 L416.98042,56.89 L418.24042,58.93 L418.42042,60.92 L418.89042,61.95 L418.38042,64.38 L417.86042,65.05 L416.73042,65.89 L415.51042,66.92 L414.38042,67.3 L414.10042,67.77 L414.48042,68.33 L414.76042,68.89 L415.42042,69.08 L414.76042,69.83 L413.73042,70.02 L412.70042,70.11 L411.86042,71.14 L411.39042,73.11 L410.83042,74.05 L410.17042,75.55 L408.86042,75.83 L407.83042,76.58 L407.83042,77.89 L407.64042,79.67 L407.26042,82.11 L406.42042,83.33 L405.95042,84.64 L405.01042,85.39 L404.41042,85.93 L404.45042,86.38 L403.61042,87.41 L402.95042,88.25 L402.48042,89 L402.20042,90.6 L401.64042,92.01 L400.78042,93.7 L399.20042,93.68 L399.193416,93.681 L400.64042,93.7 L400.17042,95.01 L399.79042,96.04 L398.95042,97.45 L397.54042,99.51 L396.04042,100.82 L393.60042,102.98 L391.07042,104.29 L389.47042,104.85 L387.22042,106.26 L383.75042,107.1 L380.28042,108.41 L377.46042,108.97 L374.38042,109.63 L370.05042,110.1 L368.55042,111.23 L366.77042,112.08 L366.30042,114.24 L364.42042,115.46 L363.76042,116.59 L364.60042,118.28 L365.16042,119.59 L365.25042,121.47 L365.44042,122.41 L366.28042,122.88 L367.41042,122.41 L368.93042,120.75 L370.09042,119.38 L371.57042,117.22 L372.31042,114.69 L372.86042,113.5 L375.25042,113.5 L380.88042,113.69 L386.61042,113.22 L389.71042,111.91 L391.77042,110.22 L392.15042,110.06 L395.38042,108.68 L398.86042,107.95 L400.17042,106.36 L402.49042,105.52 L403.41042,104.39 L404.53042,102.65 L405.30042,101.35 L406.44042,100.38 L407.19042,99.71 L408.34042,98.27 L409.82042,96.93 L410.31042,95.38 L410.52042,93.2 L411.15042,91.51 L412.07042,90.31 L413.27042,88.97 L414.47042,88.34 L415.03042,88.06 L415.03042,86.86 L416.09042,85.1 L417.15042,82.11 L418.91042,80.14 L419.83042,79.72 L421.55042,79.15 L422.14042,78.83 L423.40042,78.83 L423.45042,78.74 L424.26042,78.17 L425.82042,77.86 L426.99042,77.7 L428.69042,77.89 L430.01042,77.44 L431.09042,77.54 L431.09042,77.54 L432.27042,77.96 L434.19042,78.47 L435.63042,80.06 L437.48042,81.4 L438.57042,82.99 L439.32042,84.36 L439.41042,85.64 L440.40042,87.19 L442.44042,89.23 L443.71042,90.43 L445.13042,91.13 L446.39042,92.12 L448.07042,92.64 L448.99042,92.72 L449.32042,93.47 L450.24042,93.89 L451.37042,93.98 L452.04042,92.72 L453.47042,91.38 L454.48042,91.38 L456.49042,91.46 L457.83042,91.79 L460.10042,93.3 L461.69042,94.31 L463.31042,94.86 L464.89042,95.33 L466.80042,95.8 L469.59042,95.83 L471.55042,96.27 L472.81042,96.36 L473.92042,96.98 L474.80042,97.77 L475.83042,98.68 L476.89042,99.33 L478.418416,100.626 L479.50042,99.64 L479.89042,97.88 L482.93042,96.36 L487.49042,94.95 L488.53042,93.9 L490.29042,93.98 L490.50042,92.67 L491.30042,91.88 L492.73042,91.54 L492.37042,89.85 L493.33042,88.87 L494.17042,88.02 L494.92042,87.25 L495.23042,85.71 L496.09042,84.81 L497.10042,84.81 L499.84042,84.63 L501.46042,83.05 L502.64042,82.8 L503.90042,83.39 L504.65042,84.06 L504.73042,85.49 L504.14042,86.33 L503.47042,86.92 L503.38042,88.01 L504.47042,88.09 L504.80042,88.85 L505.13042,90.02 L505.89042,90.94 L506.16042,92.64 L506.58042,94.83 L506.42042,96.51 L506.00042,98.1 L506.00042,99.61 L506.50042,100.87 L509.04042,102.06 L513.22042,105.86 L519.10042,111.56 L522.71042,114.21 L527.65042,117.63 L526.51042,120.28 L521.19042,123.51 L521.57042,125.79 L522.89042,127.39 L525.37042,125.6 L530.12042,122.94 L533.35042,121.42 L536.58042,121.04 L539.24042,122.94 L541.71042,125.41 L543.99042,129.01 L545.89042,133.19 L548.17042,136.99 L551.02042,138.13 L554.63042,139.84 L557.82042,142.95 L559.25042,144.46 L561.10042,145.88 L562.86042,145.96 L564.29042,147.22 L565.55042,147.72 L566.47042,148.56 L567.65042,149.31 L569.16042,149.39 L571.01042,150.4 L572.94042,150.32 L574.37042,150.74 L574.95042,152.25 L574.70042,153.43 L575.79042,154.01 L575.87042,153.26 L576.63042,151.67 L578.55042,151.67 L579.22042,152.67 L580.31042,152.08 L581.06042,151.83 L582.15042,152.42 L583.66042,152.67 L586.01042,152.67 L587.10042,151.75 L588.78042,151.5 L590.29042,151.08 L591.63042,150.66 L592.89042,150.41 L594.40042,150.92 L595.91042,152.09 L596.88042,152.36 L598.54042,152.6 L599.03042,150.79 L599.03042,149.34 L599.70042,147.77 L601.04042,147.32 L601.59042,146.36 L602.60042,145.66 L603.06042,148.66 L604.01042,151.51 L606.29042,154.36 L609.33042,157.02 L609.398416,157.06 L606.38042,154.42 L604.10042,151.57 L603.15042,148.72 L602.69042,145.72 L604.35042,144.29 L605.37042,142.55 L605.93042,142.01 L606.48042,141.7 L608.65042,139.31 L610.43042,137.78 L611.00042,135.84 L612.68042,135.06 L613.46042,133.83 L614.69042,133.38 L616.70042,132.82 L619.49042,132.43 L621.08042,132.82 L623.75042,132.04 L625.97042,133.07 L627.34042,133.07 L629.25042,132.22 L630.55042,131.9 L632.05042,131.75 L633.52042,131.77 L633.52042,131.77 L635.73042,132.49 L637.04042,132.42 L640.19042,133.81 L642.69042,134.47 L645.15042,135.25 L647.84042,135.59 L649.07042,136.37 L650.86042,136.71 L650.96042,136.88 L653.22042,137.97 L654.77042,139.06 L656.77042,140.15 L659.23042,142.52 L661.78042,144.71 L664.24042,148.36 L665.79042,151 L666.34042,153.46 L667.43042,155.92 L668.25042,158.2 L668.71042,164.67 L668.44042,168.5 L668.07042,171.42 L668.16042,171.49 L668.07042,182 L670.71042,182.18 L673.54042,183.36 L676.00042,184.91 L674.00042,190.01 L670.72042,197.57 L666.27042,208.25 L662.53042,216.93 L659.80042,223.58 L655.52042,232.69 L651.69042,241.99 L650.32042,245.27 L650.05042,247.09 L649.41042,249.28 L650.78042,251.38 L653.06042,251.93 L655.16042,252.11 L657.44042,251.75 L660.81042,251.11 L663.09042,250.93 L664.46042,250.57 L666.10042,250.3 L667.83042,249.57 L670.75042,248.84 L672.39042,249.02 L674.21042,249.57 L676.40042,250.3 L678.13042,251.21 L679.41042,252.03 L680.87042,253.12 L682.24042,253.58 L684.24042,253.94 L685.52042,254.76 L687.71042,255.4 L689.62042,256.77 L689.66042,257.96 L689.76042,260.71 L689.33042,262.65 L688.68042,263.51 L688.66042,263.54 L688.61042,263.54 L687.56042,264.5 L685.11042,265.15 L683.02042,265.8 L681.11042,266.23 L678.59042,267.06 L676.18042,268.25 L674.24042,269.26 L672.37042,269.73 L670.61042,270.45 L668.52042,271.17 L666.90042,271.82 L665.82042,272.18 L662.73042,272.49 L657.57042,273.1 L653.80042,272.9 L650.62042,271.13 L646.66042,269.22 L640.30042,266.91 L633.99042,268.3 L630.17042,269.64 L628.90042,263.29 L628.11042,261.92 L633.84042,249.11 L632.64042,248.9 L630.38042,254.42 L628.26042,258.24 L627.23042,261.95 L625.11042,262.45 L620.44042,262.17 L617.86042,262.99 L616.87042,263.49 L615.88042,264.06 L615.24042,263.78 L615.09042,262.4 L613.86042,262.32 L613.01042,263.88 L611.68042,263.47 L607.68042,263.57 L606.31042,263.57 L605.63042,264.25 L604.38042,263.68 L603.58042,263.68 L602.44042,264.14 L601.87042,264.71 L599.59042,264.71 L598.91042,265.51 L597.66042,265.85 L596.52042,265.85 L595.15042,266.53 L592.54042,266.53 L592.48042,266.74 L590.74042,266.5 L589.39042,266.82 L588.76042,267.61 L587.49042,267.61 L586.21042,268.28 L585.26042,268.99 L583.99042,269.15 L583.75042,269.86 L582.24042,269.78 L580.10042,270.34 L578.83042,271.45 L576.82042,272.66 L573.52042,273.23 L571.24042,273.69 L569.08042,274.49 L567.60042,275.4 L565.55042,275.63 L564.07042,276.09 L562.25042,276.55 L559.63042,277.12 L558.49042,277.69 L556.78042,278.94 L555.53042,279.62 L552.34042,279.96 L548.93042,280.64 L546.37042,280.03 L545.06042,282.01 L543.45042,281.26 L543.35042,281.25 L541.87042,280.94 L540.42042,281.89 L538.67042,281.81 L536.45042,282.37 L535.26042,283.56 L533.75042,283.4 L532.56042,283.48 L530.60042,283.11 L529.35042,283.68 L527.98042,284.14 L526.39042,284.48 L525.10042,285.69 L522.73042,286.19 L521.54042,286.35 L519.79042,286.35 L518.60042,286.75 L517.65042,287.7 L516.62042,287.62 L514.69042,287.41 L514.40042,288.1 L512.50042,288.5 L510.63042,288.71 L508.70042,289.28 L507.50042,290.73 L505.91042,291.05 L504.57042,291.63 L503.69042,292.87 L501.63042,292.95 L499.81042,293.51 L498.38042,293.75 L495.92042,293.83 L494.19042,294.09 L491.62042,294.52 L488.55042,295.89 L486.05042,296.46 L483.09042,297.37 L480.78042,298.95 L479.19042,300.74 L476.81042,302.33 L473.40042,303.78 L471.78042,304.89 L470.16042,305.66 L468.62042,306.6 L466.42042,307.44 L465.29042,306.67 L464.52042,306.75 L462.81042,307.6 L460.59042,309.82 L459.57042,311.1 L458.38042,311.61 L457.53042,311.61 L456.59042,311.52 L455.31042,312.12 L454.92042,313.14 L453.57042,314.41 L452.38042,315.68 L450.24042,317.58 L448.48042,317.15 L447.28042,317.15 L446.09042,318 L443.61042,320.48 L442.91042,321.78 L441.57042,322.36 L441.07042,323.68 L440.03042,323.3 L438.66042,321.93 L437.67042,320.27 L435.84042,318.94 L434.42042,316.94 L433.31042,315.43 L432.28042,313.84 L431.01042,311.86 L430.06042,310.75 L429.36042,308.36 L427.91042,305.03 L426.12042,301.87 L426.05042,296.83 L426.36042,295.82 L427.58042,295.64 L428.43042,296.41 L431.93042,296.58 L433.21042,296.15 L434.23042,295.81 L435.68042,295.47 L438.58042,295.47 L439.86042,296.07 L442.51042,296.33 L443.53042,295.22 L443.26042,293.88 L442.76042,293.17 L441.32042,292.35 L439.50042,292.19 L437.91042,290.6 L436.40042,289.01 L436.19042,284.9 L434.66042,283.55 L432.43042,283.61 L433.18042,282.18 L433.72042,280.62 L433.92042,279.53 L433.78042,277.98 L433.69042,277.23 L434.19042,276.15 L433.48042,273.43 L432.77042,271.86 L431.77042,270.14 L431.34042,268.71 L432.34042,265.28 L434.34042,263.71 L436.06042,262.28 L437.35042,259.99 L438.78042,259.13 L441.21042,258.13 L442.07042,255.13 L441.641416,254.487 L442.04042,255.09 L441.66042,256.44 L441.18042,258.1 L438.75042,259.1 L437.32042,259.96 L436.03042,262.25 L432.31042,265.25 L431.31042,268.68 L431.74042,270.11 L432.74042,271.83 L433.45042,273.4 L434.16042,276.12 L433.66042,277.2 L433.75042,277.95 L433.89042,279.5 L433.69042,280.59 L433.15042,282.15 L432.40042,283.58 L430.90042,284.96 L429.12042,286.35 L428.06042,286.97 L427.29042,287.43 L427.15042,288.02 L426.44042,289.61 L425.26042,290.25 L423.56042,292.12 L421.92042,293.7 L421.59042,295.7 L421.20042,298.96 L421.56042,301.98 L422.04042,304.15 L422.87042,306.83 L422.80042,308.6 L422.73042,310.84 L420.49042,311.45 L418.86042,311.4 L416.48042,311.33 L413.90042,311.19 L411.86042,310.85 L409.89042,310.99 L406.29042,310.72 L405.34042,314.12 L404.85042,315.19 L404.52042,317.59 L404.32042,319.08 L404.58042,322.43 L405.23042,323.02 L406.49042,326.2 L408.53042,326.4 L409.67042,323.73 L411.39042,321.16 L412.67042,318.73 L413.55042,317.3 L413.89042,315.47 L415.38042,315.4 L417.35042,315.54 L418.78042,316.08 L420.07042,316.83 L422.13042,317.41 L425.39042,318.86 L428.77042,321.03 L431.31042,323.32 L433.73042,326.1 L434.94042,327.79 L434.70042,329.72 L417.70042,343.09 L415.80042,343.09 L414.29042,342.62 L411.91042,341.9 L409.29042,340.95 L408.53042,340.31 L407.85042,340.04 L407.92042,339.09 L408.53042,338.68 L408.53042,337.66 L407.65042,337.12 L406.11042,337.26 L405.81042,337.07 L404.46042,336.35 L403.03042,335.95 L401.60042,335.31 L399.07042,337.34 L399.26042,338.33 L399.29042,353.82 L398.20042,354.7 L398.40042,355.99 L400.24042,357.92 L399.68042,358.32 L398.81042,357.53 L397.38042,355.86 L395.71042,354.11 L394.13042,352.53 L392.30042,350.47 L390.39042,348.72 L389.28042,348.8 L388.65042,349.36 L388.06042,350.66 L386.98042,351.65 L388.41042,353.28 L389.56042,354.71 L390.51042,355.93 L390.65042,356.95 L389.97042,356.95 L387.14042,353.72 L385.63042,352.54 L384.20042,351.59 L383.38042,350.3 L382.36042,349.28 L381.48042,348.6 L380.41042,347.43 L376.52042,347.18 L367.02042,347.06 L366.35042,347.55 L364.60042,348.51 L362.54042,349.7 L358.81042,352 L357.13042,353.17 L355.65042,353.41 L353.89042,354.46 L345.80042,354.46 L345.56042,353.27 L344.68042,353.19 L344.05042,352.72 L342.61042,352.59 L342.32042,353.22 L341.75042,353.1 L341.72042,352.53 L342.89042,351.67 L340.77042,350.27 L340.34042,351.5 L339.19042,353.19 L338.18042,352.8 L336.99042,351.69 L336.04042,350.74 L336.45042,350.04 L337.71042,348.64 L336.62042,347.91 L335.84042,347.84 L335.462416,347.655 L334.15042,349.76 L331.43042,349.67 L330.21042,350.22 L329.71042,351.12 L328.80042,351.93 L327.35042,351.84 L325.99042,351.66 L324.81042,350.48 L323.22042,349.26 L318.79042,344.88 L317.31042,344.78 L317.46042,346.46 L322.04042,350.89 L322.11042,352.7 L321.53042,353.23 L320.76042,353.74 L319.23042,353.69 L318.36042,353.18 L317.24042,351.96 L316.27042,350.79 L315.46042,350.38 L315.05042,348.9 L313.83042,347.68 L312.45042,346.66 L312.09042,345.59 L311.07042,344.93 L309.64042,344.73 L308.88042,344.07 L308.63042,343.2 L308.17042,342.03 L307.51042,341.22 L306.08042,340.56 L304.50042,340.56 L303.69042,340.1 L303.34042,339.57 L302.01042,339.43 L301.65042,340.09 L301.14042,340.7 L300.73042,341.21 L299.66042,341.21 L298.85042,340.6 L297.07042,339.73 L294.98042,338.51 L293.81042,338.15 L292.30042,336.84 L289.14042,335.01 L286.44042,333.58 L282.67042,331.34 L278.95042,329.05 L276.250416,327.62 L275.54042,327.37 L275.37042,327.74 L272.74042,332.06 L270.04042,336.64 L266.68042,341.84 L264.49042,346.02 L261.43042,351.37 L260.41042,351.42 L253.18042,346.79 L246.46042,342.31 L235.71042,335.38 L227.71042,330.24 L225.62042,328.66 L224.35042,327.59 L221.750416,326.57 L219.92042,325.45 L218.90042,324.79 L219.31042,323.77 L220.84042,321.68 L226.29042,312.79 L227.05042,311.72 L229.34042,311.36 L231.33042,311.67 L233.32042,312.69 L240.45042,317.68 L240.44042,318.38 L239.94042,318.44 L240.09042,320.27 L240.90042,320.93 L241.97042,321.49 L243.65042,322.46 L246.09042,322.51 L246.86042,322.18 L247.77042,321.34 L248.38042,320.27 L249.30042,320.02 L250.27042,320.43 L250.27042,323.84 L252.29042,325.3 L253.250416,325.85 L254.90042,325.72 L255.46042,325.06 L256.53042,325.11 L257.60042,325.82 L258.52042,326.13 L260.30042,326.08 L261.42042,323.63 L262.49042,321.34 L263.15042,320.22 L263.35042,319.04 L252.63042,312.26 L245.38042,307.48 L247.26042,304.02 L247.62042,301.33 L247.93042,299.55 L247.57042,299.17 L246.38042,298.46 L245.42042,298.14 L244.23042,296.95 L243.12042,295.21 L240.76042,292.23 L238.85042,290.83 L238.70042,288.46 L237.40042,286.63 L236.10042,284.18 L235.64042,281.5 L234.49042,279.13 L233.50042,278.44 L232.28042,277.14 L230.83042,275.76 L229.08042,274.65 L227.50042,274.1 L224.80042,273.78 L222.19042,273.78 L220.20042,273.93 L217.83042,273.85 L215.92042,274.31 L216.07042,275.23 L216.53042,275.92 L218.750416,276.53 L220.11042,276.13 L223.93042,276.39 L225.93042,277.21 L227.77042,277.61 L228.15042,278.74 L230.51042,280.36 L230.99042,281.55 L230.37042,282.57 L230.45042,283.95 L231.44042,284.41 L231.29042,284.87 L231.06042,286.09 L232.82042,286.85 L233.58042,288.84 L234.27042,291.13 L235.56042,293.25 L235.80042,295.11 L231.750416,295.19 L228.31042,295.65 L223.65042,295.73 L218.83042,294.43 L213.63042,292.9 L209.12042,292.06 L203.54042,290.84 L199.26042,289.62 L195.13042,288.24 L192.76042,287.32 L189.85042,287.24 L189.39042,287.93 L188.01042,287.93 L187.32042,288.77 L186.78042,289.23 L186.78042,287.55 L187.54042,281.28 L188.15042,274.78 L188.53042,272.1 L189.14042,268.12 L190.36042,265.75 L193.46042,262.83 L195.86042,259.51 L196.37042,257.79 L195.47042,257.21 L194.17042,257.06 L192.34042,257.21 L191.04042,257.97 L190.32042,259.66 L188.65042,263 L185.46042,265.78 L184.77042,266.77 L184.16042,269.37 L183.55042,273.65 L183.09042,275.64 L182.94042,278.23 L182.86042,279.24 L182.40042,280.23 L182.36042,283.59 L182.09042,285.1 L181.55042,286.48 L181.32042,287.19 L179.02042,285.82 L175.89042,283.68 L172.37042,280.55 L169.01042,277.87 L166.79042,276.26 L164.34042,276.03 L162.43042,275.72 L160.52042,275.57 L158.23042,275.65 L157.24042,277.1 L156.09042,277.64 L153.87042,277.87 L153.26042,279.02 L153.03042,281.01 L152.42042,282.62 L152.24042,285.78 L152.20042,286.16 L152.18042,286.36 L151.20042,287.34 L144.70042,287.34 L144.55042,284.51 L143.48042,283.29 L141.19042,282.91 L139.51042,281.69 L137.60042,280.01 L136.64042,278.42 L135.62042,277.56 L132.56042,277.02 L131.41042,277.78 L129.96042,278.24 L128.74042,279.69 L128.20042,281.6 L127.66042,283.21 L127.74042,284.59 L127.97042,286.04 L128.80042,286.95 L128.71042,290.15 L126.67042,290.4 L125.14042,290.78 L121.97042,291.49 L119.64042,291.46 L117.29042,292.2 L113.06042,292.07 L112.52042,286.95 L111.60042,282.82 L111.37042,279.23 L110.99042,276.78 L110.07042,275.86 L109.54042,275.09 L108.55042,274.1 L107.250416,274.56 L106.79042,275.94 L106.03042,276.93 L106.03042,279.38 L106.49042,281.9 L106.72042,286.72 L107.33042,294.75 L106.11042,295.59 L104.61042,295.93 L103.82042,296.43 L102.21042,296.12 L94.560416,287.63 L94.020416,283.27 L93.170416,279.82 L90.200416,279.75 L86.510416,280.53 L85.690416,281.58 L86.000416,286.01 L86.760416,291.52 L93.790416,299.24 L93.790416,300.31 L91.100416,302.58 L89.120416,304.5 L85.140416,307.56 L82.080416,310.54 L79.940416,307.94 L78.490416,306.18 L77.340416,305.95 L75.500416,307.33 L71.980416,310.39 L71.220416,308.56 L68.190416,304.95 L67.100416,304.28 L64.910416,302 L63.480416,299.98 L62.380416,298.8 L62.040416,297.54 L63.300416,296.53 L64.140416,295.52 L64.220416,294.51 L63.840416,293.42 L62.200416,291.64 L60.850416,289.7 L59.2504164,289.7 L58.410416,290.46 L57.150416,291.3 L56.310416,291.22 L54.470416,290.02 L53.900416,288.88 L55.130416,288.34 L59.090416,283.96 L62.460416,279.74 L64.990416,277.46 L66.090416,276.36 L67.100416,275.1 L67.440416,272.82 L66.260416,271.81 L65.000416,271.47 L63.740416,271.72 L62.640416,272.14 L61.040416,273.66 L59.270416,275.35 L57.500416,277.71 L56.070416,278.72 L54.890416,280.24 L54.220416,281.08 L53.550416,281.67 L52.540416,281.67 L51.360416,280.57 L50.180416,279.14 L48.920416,278.04 L48.670416,276.78 L49.430416,275.09 L50.360416,274.16 L52.130416,272.64 L54.070416,270.62 L56.940416,266.88 L57.100416,265.69 L55.990416,264.5 L54.560416,263 L52.980416,262.28 L51.050416,263.67 L48.760416,265.91 L45.560416,268.86 L42.270416,272.36 L40.690416,271.01 L38.860416,269.27 L37.030416,268.16 L35.520416,266.49 L33.460416,265.14 L27.000416,270.71 L26.070416,271.64 L27.420416,272.74 L32.550416,277.28 L32.880416,278.4 L41.490416,293.99 L41.920416,296.43 L48.330416,307.73 L51.700416,314.19 L54.140416,318.83 L54.990416,320.42 L55.160416,322.78 L54.400416,324.38 L52.570416,325.1 L49.510416,325.56 L35.350416,325.81 L21.860416,325.58 L15.370416,325.14 L10.410416,323.33 L5.7604164,320.33 L2.6404164,317.55 L0.87041643,313.92 L0.45041643,309.96 L0.25041643,305.81 L0.67041643,299.74 L1.6604164,296.6 L1.7804164,295.69 L2.9604164,293.15 L3.9904164,289.9 L5.0204164,286.48 L6.5304164,282.99 L7.8804164,279.34 L9.3104164,275.37 L10.660416,271.25 L11.920416,268.32 L12.680416,265.36 L20.310416,245.26 L23.600416,236.15 L26.380416,229.57 L26.550416,227.43 L28.570416,222.54 L29.580416,218.83 L30.840416,215.54 L30.330416,213.52 L29.490416,210.4 L29.830416,207.7 L30.930416,206.18 L32.280416,205.25 L34.310416,203.61 L35.740416,203.73 L36.2504164,201.29 L37.650416,198.36 L38.700416,195.26 L39.090416,194.43 L39.620416,193.45 L41.030416,192.58 L42.280416,191.37 L44.030416,188.32 L45.180416,186.3 L46.340416,184.09 L47.590416,181.87 L49.220416,179.09 L50.280416,176.59 L51.920416,173.42 L53.070416,171.69 L53.260416,170.44 L54.130416,169.38 L55.090416,169.48 L56.190416,169.48 L56.2504164,168.42 L58.130416,167.71 L59.230416,167.17 L60.020416,167.03 L60.020416,165.86 L60.830416,165.1 L61.460416,162.51 L62.420416,161.07 L62.900416,159.15 L63.960416,157.32 L66.850416,151.93 L67.100416,150.79 L67.150416,148.76 L67.800416,147.79 L68.470416,147.12 L69.530416,146.83 L70.690416,146.65 L71.360416,145.98 L71.440416,144.8 L72.220416,143.66 L72.450416,142.69 L73.880416,142.52 L74.710416,141.06 L74.550416,140.08 L74.720416,138.23 L75.190416,137.32 L75.140416,136.29 L75.220416,127.52 L75.730416,126.51 L75.980416,124.4 L76.440416,124.34 L76.440416,122.99 L76.820416,121.64 L76.990416,120.18 L77.240416,118.92 L77.580416,118.67 L77.500416,116.73 L76.990416,116.14 L76.570416,114.96 L76.650416,113.27 L77.410416,112.85 L78.840416,112.51 L79.940416,110.66 L80.670416,110.34 L80.860416,109.19 L80.770416,107.56 L80.370416,106.64 L80.620416,105.63 L82.900416,105.38 L84.000416,105.13 L84.400416,106.55 L83.330416,106.9 L82.990416,108.75 L83.500416,109.76 L85.350416,109.68 L86.260416,108.62 L86.360416,107.66 L86.470416,106.81 L87.680416,106.82 L88.350416,107.58 L89.450416,107.16 L90.210416,106.49 L91.000416,105.61 L91.060416,104.98 L90.720416,103.88 L90.210416,102.62 L89.790416,101.36 L88.950416,100.94 L89.200416,100.18 L90.130416,99.84 L93.590416,99.5 L93.510416,97.98 L92.670416,97.73 L91.830416,97.14 L91.960416,95.85 L91.860416,94.89 L91.960416,93.93 L91.990416,93.1 L93.510416,93.02 L94.070416,92.01 L94.550416,91.44 L94.020416,90.64 L93.180416,90.05 L93.600416,89.54 L94.270416,89.62 L94.860416,90.04 L96.630416,89.87 L96.880416,88.02 L97.550416,85.83 L96.710416,84.99 L95.320416,85.76 L95.320416,83.65 L96.120416,83.14 L96.090416,81.15 L96.370416,80.1 L97.210416,79.43 L98.900416,79.18 L99.570416,78.34 L100.22042,77.4 L100.67042,76.48 L100.750416,75.38 L101.51042,74.87 L102.35042,73.94 L103.28042,74.02 L104.21042,74.86 L105.90042,74.27 L106.83042,74.1 L108.09042,73.09 L108.97042,71.61 L109.74042,70.36 L111.12042,69.72 L112.05042,69.55 L112.89042,69.72 L114.24042,70.39 L116.35042,70.9 L116.35042,68.35 L118.04042,68.1 L118.97042,68.77 L120.66042,68.85 L121.250416,67.08 L121.77042,66.1 L123.02042,65.81 L124.12042,66.23 L125.81042,65.56 L127.66042,65.56 L129.21042,64.58 L131.78042,63.34 L134.02042,61.44 L136.48042,59.42 L140.06042,56.4 L141.74042,54.05 L143.98042,53.04 L146.17042,52.7 L147.18042,50.51 L148.70042,50.09 L148.62042,47.9 L149.81042,46.22 L153.17042,43.87 L155.96042,42.34 L158.91042,39.98 L161.58042,37.95 L163.93042,37.39 L166.92042,36.95 L170.80042,35.85 L172.99042,34.84 L177.04042,34.59 L178.05042,35.35 L177.97042,37.37 L178.12042,39.19 L179.63042,39.99 L181.37042,39.52 L184.51042,38.96 L186.19042,37.51 L188.50042,36.62 L190.00042,36.84 L191.28042,36.79 L191.90042,38.4 L191.85042,39.56 L192.88042,40.16 L194.48042,40.75 L195.24042,41.68 L195.41042,42.94 L196.00042,44.37 L197.18042,45.38 L198.90042,45.91 L200.56042,46.39 L201.74042,47.65 L202.84042,48.24 L202.76042,49.59 L201.33042,50.77 L201.08042,52.88 L202.53042,54.22 L204.96042,54.31 L206.56042,54.23 L214.32042,53.84 L216.16042,52.72 L216.53042,52.61 L218.21042,53.28 L220.67042,54.07 L223.24042,55.75 L224.58042,57.54 L225.92042,57.76 L226.86042,57.69 L229.24042,57.53 L230.67042,57.61 L231.59042,56.6 L232.51042,55.93 L233.77042,55.85 L235.86042,55.37 L236.71042,55.44 L237.48042,55.73 L238.33042,55.63 L239.13042,55.75 L239.85042,55.79 L240.47042,55.58 L241.73042,55.28 L242.69042,55.28 L243.062416,55.435 L243.06042,55.42 L244.52042,55.36 L245.58042,55.13 L245.84042,55.6 L245.99042,55.07 L246.74042,54.41 L247.77042,53.75 L248.43042,53.28 L248.81042,52.44 L249.37042,51.03 L249.93042,50.47 L250.68042,49.44 L251.24042,47.75 L251.71042,46.81 L252.27042,45.87 L253.58042,45.4 L256.49042,45.21 L256.58042,44.18 L256.11042,43.52 L256.20042,42.39 L256.76042,41.08 L257.51042,40.05 L259.20042,39.02 L260.33042,38.18 L260.99042,37.34 L262.77042,36.59 L264.41042,36.1 L264.51042,35.93 L264.98042,35.93 L265.46042,35.56 L266.11042,35.03 L266.91042,34.59 L267.94042,34.47 L268.99042,34.22 L269.84042,33.65 L270.13042,33.45 L271.90042,33.33 L274.17042,31.91 L274.19042,31.77 L274.40042,31.8 L275.53042,31.14 L277.59042,29.92 L280.88042,27.57 L283.04042,25.51 L285.29042,23.73 L287.82042,22.51 L289.70042,21.01 L293.36042,18.29 L294.77042,17.82 L296.65042,16.79 L299.65042,14.91 L302.56042,12.56 L305.09042,10.96 L306.26042,10.14 L307.09042,9.87 L307.53042,9.24 L307.90042,8.98 L309.50042,8.23 L311.10042,7.67 L312.63042,6.77 L312.64042,6.76 L312.69042,6.73 L312.71042,6.69 L313.81042,5.67 L315.15042,3.74 L316.72042,3.02 L319.07042,2.93 L320.25042,2.51 L322.89042,2.11 L324.39042,1.64 L326.45042,1.64 L328.81042,1.42 L331.25042,0.8 L334.94042,0.75 L337.79042,0.33 L340.56042,0.25 L342.66042,0.25 Z M331.91042,353.34 L332.59042,353.49 L332.84042,353.74 L333.30042,354.2 L333.66042,354.75 L332.95042,355.16 L331.78042,355.01 L330.51042,354.96 L330.56042,354.35 L331.17042,354.05 L331.53042,353.54 L331.91042,353.34 Z M319.51042,320.79 L317.254416,322.294 L317.43042,322.35 L319.71042,320.83 L323.777416,321.015 L323.69042,320.98 L319.51042,320.79 Z M335.09042,322.12 L330.53042,322.31 L326.654416,322.125 L326.74042,322.16 L330.73042,322.35 L335.121416,322.167 L335.09042,322.12 Z M132.73042,280.61 L133.69042,280.83 L134.36042,281.64 L135.10042,282.67 L136.87042,284.52 L137.61042,285.63 L137.98042,286.44 L137.83042,287.4 L137.68042,288.29 L137.53042,291.02 L136.86042,291.62 L134.64042,291.62 L133.46042,290.88 L133.02042,289.85 L133.02042,288.37 L132.80042,286.45 L132.36042,285.27 L131.99042,283.79 L131.62042,282.75 L131.47042,281.64 L131.69042,280.68 L132.73042,280.61 Z M303.369416,281.156 L303.353416,281.252 L305.47042,282.89 L307.42042,284.6 L308.89042,286.07 L309.013416,286.053 L307.56042,284.6 L305.61042,282.89 L303.369416,281.156 Z M288.141416,271.259 L288.17042,271.28 L292.54042,273.94 L297.67042,276.79 L302.368416,277.72 L302.36042,277.69 L297.61042,276.75 L292.48042,273.9 L288.141416,271.259 Z M276.14042,265.92 L271.802416,263.468 L271.83042,263.49 L276.20042,265.96 L281.877416,265.96 L281.84042,265.92 L276.14042,265.92 Z M538.222416,220.708 L539.09042,221.41 L540.51042,223.01 L540.71042,224.54 L541.28042,225 L541.31042,226.2 L539.80042,228.09 L536.95042,228.85 L532.39042,228.85 L529.54042,230.56 L526.69042,233.03 L524.22042,233.79 L522.13042,234.17 L519.85042,236.64 L521.18042,239.49 L519.28042,241.01 L517.19042,244.05 L519.09042,246.14 L520.80042,247.28 L520.80042,250.13 L520.42042,252.03 L518.90042,253.55 L513.39042,253.36 L508.26042,253.93 L502.56042,254.69 L497.24042,255.45 L494.250416,255.076 L494.29042,255.13 L497.33042,255.51 L502.65042,254.75 L508.35042,253.99 L513.48042,253.42 L518.99042,253.61 L520.51042,252.09 L520.89042,250.19 L520.89042,247.34 L519.18042,246.2 L517.28042,244.11 L519.37042,241.07 L521.27042,239.55 L519.94042,236.7 L522.22042,234.23 L524.31042,233.85 L526.78042,233.09 L529.63042,230.62 L532.48042,228.91 L537.04042,228.91 L539.89042,228.15 L541.40042,226.26 L541.37042,225.06 L540.80042,224.6 L540.60042,223.07 L539.18042,221.47 L538.24042,220.71 L538.222416,220.708 Z M256.055416,250.565 L256.06042,250.57 L262.272416,254.522 L262.27042,254.52 L256.055416,250.565 Z M439.766416,247.689 L440.33042,252.51 L440.347416,252.536 L439.78042,247.7 L439.766416,247.689 Z M490.300416,241.068 L490.30042,241.07 L493.440416,243.101 L493.44042,243.1 L490.300416,241.068 Z M470.495416,221.077 L470.54042,221.12 L474.470416,222.616 L474.44042,222.58 L470.495416,221.077 Z M536.289416,218.547 L536.69042,220.56 L536.769416,220.565 L536.37042,218.56 L536.289416,218.547 Z M534.657416,216.03 L534.62042,216.69 L535.04042,218.31 L535.118416,218.322 L534.71042,216.75 L534.75042,216.04 L534.657416,216.03 Z M611.613416,158.358 L612.75042,161.58 L611.99042,165.19 L608.95042,166.71 L607.62042,168.23 L605.34042,172.03 L601.73042,175.64 L599.64042,178.11 L596.98042,180.2 L593.56042,182.86 L592.04042,183.81 L592.61042,186.66 L594.32042,188.56 L595.46042,192.55 L595.84042,196.73 L595.46042,201.1 L592.04042,202.43 L586.53042,203.57 L583.68042,204.9 L580.45042,207.18 L577.03042,210.41 L573.80042,212.88 L570.38042,215.92 L566.20042,217.06 L563.186416,217.06 L563.25042,217.12 L566.29042,217.12 L570.47042,215.98 L573.89042,212.94 L577.12042,210.47 L580.54042,207.24 L583.77042,204.96 L586.62042,203.63 L592.13042,202.49 L595.55042,201.16 L595.93042,196.79 L595.55042,192.61 L594.41042,188.62 L592.70042,186.72 L592.13042,183.87 L593.65042,182.92 L597.07042,180.26 L599.73042,178.17 L601.82042,175.7 L605.43042,172.09 L607.71042,168.29 L609.04042,166.77 L612.08042,165.25 L612.84042,161.64 L611.70042,158.41 L611.613416,158.358 Z M415.588416,212.182 L413.73042,214.04 L408.58042,214.33 L405.29042,215.75 L405.29042,215.81 L408.58042,214.38 L413.73042,214.09 L415.59042,212.23 L415.588416,212.182 Z M531.63042,212.31 L530.59042,215.28 L530.690416,215.31 L531.72042,212.37 L535.14042,212.75 L538.75042,213.51 L542.74042,214.46 L548.06042,213.89 L554.89042,213.32 L558.119416,213.129 L558.03042,213.07 L554.80042,213.26 L547.97042,213.83 L542.65042,214.4 L538.66042,213.45 L535.05042,212.69 L531.63042,212.31 Z M269.354416,211.42 L269.37042,211.44 L272.22042,212.77 L274.831416,214.261 L274.82042,214.25 L272.16042,212.73 L269.354416,211.42 Z M447.134416,203.212 L447.17042,203.26 L450.59042,204.02 L453.63042,205.16 L456.86042,206.3 L463.472416,206.677 L463.42042,206.62 L456.77042,206.24 L453.54042,205.1 L450.50042,203.96 L447.134416,203.212 Z M424.88042,167.56 L421.59042,169.13 L419.02042,173.27 L417.30042,177.71 L415.73042,183.86 L413.16042,188.43 L410.44042,192.87 L410.30042,198.74 L410.301416,198.741 L410.44042,192.93 L413.16042,188.5 L415.74042,183.92 L417.31042,177.77 L419.03042,173.34 L421.60042,169.19 L424.89042,167.62 L428.47042,167.91 L431.76042,168.48 L436.34042,169.34 L439.694416,169.541 L439.727416,169.485 L436.33042,169.28 L431.75042,168.42 L428.46042,167.85 L424.88042,167.56 Z M752.67042,65.83 L754.88042,66.13 L756.08042,66.33 L757.18042,67.23 L758.99042,67.83 L761.40042,68.33 L763.31042,69.03 L766.02042,69.63 L767.93042,70.63 L771.46042,72.36 L771.46042,72.36 L774.97042,73.66 L776.98042,75.37 L778.79042,76.57 L780.50042,77.77 L782.61042,79.37 L784.62042,81.68 L786.22042,82.48 L788.13042,83.18 L789.53042,84.38 L790.83042,85.68 L792.33042,86.48 L793.43042,86.88 L794.53042,88.28 L794.63042,90.29 L795.93042,91.89 L797.33042,93.49 L797.83042,94.82 L799.54042,97.23 L800.14042,99.04 L800.24042,102.95 L799.44042,105.06 L798.54042,106.56 L798.44042,108.47 L797.34042,110.18 L796.94042,111.58 L796.54042,114.29 L796.04042,115.39 L795.44042,116.89 L795.14042,119.1 L794.94042,121.91 L794.14042,122.81 L793.74042,125.32 L792.84042,127.93 L792.14042,129.94 L791.04042,131.24 L790.44042,132.14 L787.53042,133.14 L785.52042,134.04 L783.81042,134.64 L782.81042,134.04 L780.50042,133.04 L778.39042,132.04 L776.89042,131.34 L775.29042,131.74 L773.68042,132.64 L770.97042,133.44 L767.36042,135.15 L764.45042,136.75 L761.44042,138.56 L758.63042,139.86 L757.73042,140.36 L754.62042,141.16 L752.51042,142.26 L752.11042,143.86 L751.01042,144.66 L750.21042,145.26 L749.31042,145.96 L747.70042,147.77 L745.99042,149.17 L744.79042,149.37 L743.38042,150.27 L741.98042,150.77 L740.78042,149.87 L740.38042,148.57 L739.38042,147.77 L738.38042,147.47 L737.78042,145.86 L736.58042,145.36 L736.08042,144.56 L735.48042,143.16 L734.18042,141.55 L733.08042,140.65 L732.88042,138.44 L731.68042,138.04 L731.68042,136.54 L730.08042,135.44 L728.17042,133.33 L726.16042,130.82 L724.96042,129.11 L723.76042,127.4 L722.66042,126.3 L720.95042,126.3 L720.05042,125.3 L720.25042,124.3 L720.35042,122.44 L719.45042,120.53 L718.65042,119.23 L717.95042,118.13 L717.15042,116.83 L715.34042,115.02 L713.84042,114.02 L711.73042,113.42 L710.83042,111.31 L708.42042,110.71 L706.61042,110.11 L706.11042,108.91 L705.41042,107.2 L704.61042,106.6 L703.91042,106 L705.51042,104.9 L705.81042,104 L706.31042,102.6 L707.11042,100.59 L708.21042,98.78 L708.91042,97.48 L709.71042,94.17 L709.01042,91.76 L708.21042,90.86 L707.21042,89.05 L706.41042,87.04 L705.91042,84.53 L705.51042,82.42 L705.21042,80.01 L704.61042,76.7 L705.71042,75.5 L706.81042,75.3 L708.21042,76.3 L709.31042,76.6 L710.71042,77.2 L712.12042,77.4 L715.33042,77.4 L716.73042,78.1 L718.13042,77.9 L719.63042,77.5 L720.73042,77.2 L722.13042,76.6 L723.23042,75.3 L725.14042,73.49 L726.29042,72.81 L727.09042,71.81 L727.09042,70.25 L727.99042,69.35 L728.79042,68.65 L729.29042,67.75 L729.69042,66.55 L730.59042,66.35 L731.49042,66.75 L732.09042,67.65 L733.09042,68.85 L734.24042,69.75 L737.05042,69.95 L738.05042,69.25 L739.35042,69.55 L740.65042,70.85 L741.75042,71.05 L743.56042,71.35 L744.56042,72.65 L745.76042,72.85 L746.76042,72.15 L747.76042,70.34 L748.56042,69.54 L750.47042,68.54 L750.87042,66.63 L752.67042,65.83 Z M568.63042,113.18 L569.61042,113.93 L570.59042,114.08 L571.49042,114.53 L572.54042,114.98 L573.59042,115.36 L573.51042,116.19 L573.66042,116.79 L574.11042,117.17 L574.56042,117.85 L574.26042,118.38 L574.26042,118.98 L574.79042,119.58 L574.88042,119.88 L574.35042,120.03 L573.75042,119.95 L573.00042,119.5 L571.12042,117.54 L569.01042,115.66 L568.93042,114.61 L567.95042,113.33 L568.63042,113.18 Z M543.09042,72.55 L545.30042,73.15 L546.90042,74.35 L548.91042,74.95 L551.62042,76.35 L555.03042,77.65 L558.44042,78.65 L562.05042,79.35 L563.96042,80.35 L565.16042,81.25 L567.17042,81.95 L567.57042,82.75 L567.57042,84.35 L569.48042,86.06 L571.79042,87.06 L573.29042,87.46 L577.10042,87.96 L578.56042,89.2 L579.26042,89.8 L590.80042,89.8 L592.41042,89.1 L593.81042,88.4 L595.01042,88 L602.53042,88.1 L603.73042,87.7 L607.25042,87.7 L610.36042,88.2 L613.37042,88.7 L615.68042,89.4 L617.69042,89.8 L618.89042,90.2 L620.49042,90.3 L621.49042,89.1 L623.40042,89.4 L625.41042,89.8 L627.32042,89.8 L629.82042,88.8 L630.82042,88.9 L631.22042,90.4 L631.52042,91 L632.82042,90.8 L633.72042,90 L634.32042,89.5 L636.63042,89.2 L637.03042,90.2 L637.83042,90.7 L638.63042,91.7 L638.53042,92.7 L638.83042,94.51 L639.23042,95.51 L639.13042,96.91 L639.43042,98.31 L639.03042,99.21 L638.43042,100.81 L638.63042,102.82 L639.73042,103.72 L640.33042,104.32 L640.93042,104.62 L640.63042,105.32 L639.53042,105.02 L637.82042,104.52 L635.51042,104.82 L634.41042,105.52 L633.01042,104.92 L631.10042,105.52 L629.90042,106.02 L629.10042,106.42 L627.09042,106.42 L626.09042,105.92 L624.48042,105.52 L623.88042,106.12 L622.98042,106.42 L621.38042,106.12 L619.67042,105.72 L618.17042,106.12 L616.26042,106.22 L615.36042,106.72 L614.06042,107.52 L612.96042,107.82 L612.66042,108.62 L611.56042,108.92 L609.96042,109.32 L609.36042,110.72 L609.16042,111.92 L607.36042,112.82 L606.66042,113.72 L605.76042,114.62 L604.26042,114.92 L604.06042,113.82 L602.76042,113.72 L602.06042,114.02 L601.76042,114.72 L600.26042,115.62 L598.35042,115.82 L596.54042,116.42 L594.83042,116.82 L592.52042,117.52 L590.31042,118.32 L587.70042,118.72 L585.49042,118.92 L584.39042,119.72 L582.68042,119.52 L581.88042,118.12 L581.18042,116.41 L579.78042,114.3 L578.38042,113.4 L577.68042,111.59 L576.58042,109.88 L575.28042,109.08 L573.57042,108.78 L570.86042,108.78 L569.76042,107.58 L569.06042,106.18 L568.56042,104.88 L568.06042,102.77 L565.85042,100.76 L563.84042,100.06 L560.53042,99.76 L558.72042,98.76 L556.41042,98.06 L554.80042,97.26 L552.19042,95.05 L551.09042,94.05 L549.79042,93.35 L548.99042,93.35 L547.49042,93.75 L545.58042,93.25 L544.08042,93.25 L542.27042,92.35 L542.07042,91.65 L540.87042,90.05 L540.07042,89.15 L538.77042,89.15 L537.97042,90.05 L536.97042,90.15 L536.07042,89.55 L535.37042,89.05 L534.77042,88.35 L534.17042,87.45 L532.97042,86.95 L531.77042,85.65 L531.57042,84.45 L530.97042,83.05 L530.77042,81.75 L530.37042,80.95 L530.47042,79.55 L531.67042,79.25 L533.98042,78.75 L535.48042,77.85 L536.38042,77.05 L536.98042,75.55 L540.29042,75.25 L540.99042,74.55 L541.39042,73.25 L542.09042,72.55 L543.09042,72.55 Z M511.09042,91.1 L512.03042,91.2 L512.94042,91.97 L513.99042,92.81 L515.04042,94.25 L515.60042,95.79 L516.65042,96.31 L518.79042,97.19 L519.88042,97.65 L521.28042,98.39 L522.29042,99.51 L523.93042,100.99 L525.47042,102.95 L526.73042,104.49 L528.31042,106 L529.53042,107.26 L531.25042,108.98 L532.93042,110.3 L532.93042,110.3 L534.19042,111.35 L535.52042,112.37 L536.01042,113.52 L536.11042,114.92 L535.90042,115.72 L534.96042,115.97 L533.91042,115.66 L533.42042,114.64 L532.41042,113.79 L530.98042,112.36 L530.17042,111.89 L528.99042,111.22 L527.73042,110.5 L526.86042,110.5 L526.12042,111.31 L525.70042,112.3 L525.18042,112.29 L524.51042,111.87 L524.76042,110.89 L525.36042,110.19 L525.43042,109.21 L525.14042,107.8 L523.77042,106.73 L521.52042,104.97 L520.15042,104.45 L519.18042,103.32 L518.86042,101.64 L518.30042,100.38 L517.70042,99.82 L516.93042,98.56 L515.73042,97.88 L515.08042,97.26 L513.89042,96.98 L513.48042,95.95 L512.66042,95.19 L511.41042,94.47 L510.32042,93.47 L509.93042,92.49 L510.00042,91.48 L511.09042,91.1 Z M562.09042,106.42 L562.39042,106.57 L563.37042,106.72 L564.05042,107.17 L564.73042,107.85 L565.11042,108.9 L565.48042,109.65 L565.10042,110.03 L564.27042,109.73 L563.74042,108.9 L562.69042,107.85 L561.41042,106.8 L562.09042,106.42 Z M688.91042,79.84 L689.42042,80.18 L689.59042,81.31 L689.82042,82.38 L690.38042,82.89 L690.89042,83.51 L691.23042,84.36 L692.75042,84.7 L694.27042,84.93 L695.74042,85.49 L697.04042,86 L697.66042,87.41 L698.62042,88.54 L700.03042,90.29 L700.71042,91.93 L700.71042,93.23 L700.37042,94.58 L700.03042,95.76 L699.24042,96.66 L697.89042,96.77 L696.31042,97.11 L694.79042,97.51 L693.71042,97.9 L692.13042,98.13 L690.95042,97.73 L689.65042,96.94 L688.01042,95.59 L686.99042,94.8 L685.92042,93.45 L685.24042,91.98 L684.84042,90.63 L684.33042,89.22 L684.95042,88.37 L685.51042,87.69 L686.19042,86.73 L687.09042,85.54 L687.48042,84.3 L688.10042,83 L688.61042,82.15 L688.67042,81.3 L688.28042,80.85 L688.51042,80.29 L688.91042,79.84 Z M362.78042,84.98 L362.753416,84.992 L368.99042,85.71 L371.92042,86.93 L375.10042,90.35 L377.05042,93.53 L380.23042,97.2 L384.87042,97.69 L384.892416,97.678 L380.37042,97.2 L377.19042,93.53 L375.24042,90.35 L372.06042,86.93 L369.13042,85.71 L362.78042,84.98 Z M466.31042,77.44 L467.71042,78.35 L470.84042,80.16 L472.82042,81.31 L474.88042,82.71 L477.27042,84.28 L478.75042,85.52 L479.57042,86.92 L479.40042,87.83 L478.90042,88.74 L478.57042,90.39 L477.77042,92.01 L476.62042,93 L475.96042,93.08 L475.14042,92.67 L473.49042,92.59 L471.02042,92.76 L467.72042,92.43 L464.92042,92.02 L463.19042,91.28 L461.54042,90.29 L460.39042,89.55 L458.49042,89.14 L456.76042,88.65 L456.59042,87.99 L457.25042,86.75 L458.73042,85.68 L459.88042,84.2 L461.36042,81.89 L463.17042,79.99 L464.74042,77.52 L466.31042,77.44 Z M446.10042,64.88 L448.16042,65.87 L453.02042,68.51 L456.89042,71.4 L461.01042,74.2 L461.92042,75.02 L461.84042,76.17 L458.54042,80.87 L456.40042,83.59 L455.02042,85.99 L453.45042,87.8 L448.42042,87.72 L446.69042,86.57 L444.55042,84.92 L442.98042,83.19 L441.99042,81.95 L441.25042,80.71 L439.93042,79.72 L437.79042,78.15 L434.82042,75.76 L432.84042,74.61 L431.85042,73.95 L431.93042,72.14 L432.92042,70.57 L435.31042,69.17 L438.03042,66.94 L439.84042,65.79 L441.24042,65.13 L446.10042,64.88 Z M412.81042,35.48 L413.84042,36.51 L414.22042,37.64 L414.88042,38.48 L415.63042,39.23 L416.47042,39.7 L416.85042,39.98 L417.88042,40.83 L418.35042,42.24 L418.63042,43.74 L419.19042,44.58 L419.85042,45.61 L420.88042,46.36 L421.44042,47.11 L421.72042,47.95 L422.66042,48.51 L423.50042,49.73 L423.59042,51.51 L424.25042,52.45 L424.72042,53.29 L424.91042,54.42 L424.16042,55.08 L422.85042,54.7 L422.38042,53.67 L421.82042,53.2 L421.35042,52.17 L420.69042,51.42 L419.75042,50.2 L419.00042,49.45 L418.25042,48.51 L417.50042,47.48 L416.84042,47.01 L416.56042,45.79 L415.81042,44.85 L415.43042,43.91 L415.62042,42.78 L416.00042,42.22 L415.62042,41.19 L414.96042,40.53 L414.49042,39.87 L414.68042,39.21 L414.12042,38.74 L413.18042,38.18 L412.90042,36.96 L412.99042,36.12 L411.83042,35.48 L412.81042,35.48 Z M411.49042,35.29 L411.83042,35.48 L411.68042,35.48 L411.49042,35.29 Z" id="Combined-Shape"></path>
        </g>
    </g>
</svg>