<?xml version="1.0" encoding="UTF-8"?>
<svg width="104px" height="120px" viewBox="0 0 104 120" version="1.1" xmlns="http://www.w3.org/2000/svg" xmlns:xlink="http://www.w3.org/1999/xlink">
    <!-- Generator: Sketch 52.1 (67048) - http://www.bohemiancoding.com/sketch -->
    <title>noun_Congo_788997</title>
    <desc>Created with Sketch.</desc>
    <defs>
        <linearGradient x1="12.0998348%" y1="72.7425357%" x2="88.1853453%" y2="13.5814785%" id="linearGradient-1">
            <stop stop-color="#34CDFA" offset="0%"></stop>
            <stop stop-color="#E8D9F1" offset="100%"></stop>
        </linearGradient>
    </defs>
    <g id="Page-1" stroke="none" stroke-width="1" fill="none" fill-rule="evenodd">
        <g id="Home-Copy" transform="translate(-668.000000, -2968.000000)" fill="url(#linearGradient-1)">
            <g id="Offices" transform="translate(-275.000000, 2067.000000)">
                <g id="Reason-Copy-9" transform="translate(810.000000, 851.000000)">
                    <g id="Group-2" transform="translate(20.000000, 20.000000)">
                        <g id="noun_Congo_788997" transform="translate(113.000000, 30.000000)">
                            <path d="M103.333333,2.8 C103.2,2.26666667 102.8,2.53333333 102.533333,2.13333333 C101.466667,0.933333333 100.8,0.8 99.3333333,1.46666667 C98.8,1.6 98,2.66666667 97.3333333,2.53333333 C96.8,2.4 96.4,1.86666667 95.7333333,1.73333333 C95.0666667,1.6 94.4,1.86666667 93.6,1.86666667 C92.4,1.73333333 90.1333333,1.06666667 89.0666667,0.4 C87.7333333,-0.4 86,0.533333333 84.8,1.06666667 C82.5333333,2 79.8666667,1.46666667 77.4666667,2.13333333 C74.6666667,2.93333333 74.6666667,5.86666667 74.4,8.26666667 C74.1333333,11.7333333 72.9333333,14 71.6,17.2 C70.8,18.9333333 70.2666667,19.8666667 68.9333333,21.0666667 C67.7333333,22.1333333 68.8,24.6666667 69.4666667,25.7333333 C69.6,26.2666667 69.3333333,26.9333333 68.9333333,27.3333333 C68.1333333,28 67.7333333,27.0666667 67.2,26.5333333 C66.1333333,25.3333333 64.1333333,24.5333333 62.6666667,24 C60.6666667,23.3333333 58.9333333,24.5333333 57.2,23.2 C56,22.2666667 53.7333333,23.2 52.2666667,23.0666667 C52.8,23.0666667 52.4,21.4666667 51.4666667,22 C50.5333333,22.6666667 48.9333333,20.9333333 48,20.8 C47.0666667,20.6666667 46.5333333,21.0666667 45.6,21.0666667 C44.6666667,20.9333333 30.4,20.9333333 30.4,20.9333333 C30.2666667,23.0666667 28.5333333,24.9333333 28.2666667,27.2 C28,29.3333333 30.2666667,30.9333333 29.2,32.8 C28.2666667,34.8 32.2666667,32.9333333 33.2,32.8 C35.4666667,32.5333333 37.3333333,30.8 39.7333333,31.0666667 C40.6666667,31.2 41.6,31.4666667 42.5333333,31.7333333 C43.7333333,32.1333333 43.7333333,33.3333333 44.1333333,34.2666667 C45.2,36.5333333 47.2,38.1333333 45.4666667,40.5333333 C44.9333333,41.2 44.5333333,42.1333333 43.8666667,42.8 C43.0666667,43.4666667 41.7333333,42.8 40.9333333,43.6 C40.6666667,44 40.6666667,44.2666667 40.6666667,44.8 C40.2666667,45.0666667 39.8666667,45.3333333 39.4666667,45.6 C38.6666667,46.5333333 38.5333333,47.4666667 38.6666667,48.6666667 C38.8,49.3333333 39.0666667,50.2666667 38.8,50.9333333 C38.6666667,51.6 38,52.1333333 38,52.9333333 C38,54.9333333 40.2666667,53.4666667 41.2,54.4 C41.7333333,54.9333333 41.8666667,55.7333333 42.5333333,56.2666667 C43.0666667,56.6666667 44,56.5333333 44.6666667,56.8 C47.2,57.6 46.6666667,60.1333333 46.2666667,62 C45.7333333,64.5333333 46.1333333,66.6666667 46.2666667,69.0666667 C46.2666667,69.8666667 46.4,70.8 46.1333333,71.4666667 C45.6,72.9333333 45.3333333,72.2666667 45.8666667,73.7333333 C45.8666667,74 45.7333333,74.2666667 45.4666667,74.4 C45.6,74.8 45.6,75.2 45.6,75.6 C45.3333333,76.9333333 43.8666667,76.9333333 43.4666667,77.8666667 C43.2,78.4 43.3333333,79.2 43.0666667,79.7333333 C42.5333333,80.6666667 41.8666667,81.7333333 43.0666667,82.5333333 C42,83.2 41.2,85.0666667 39.7333333,84.8 C39.4666667,84.6666667 38.1333333,84.8 38.1333333,84.2666667 C38.1333333,83.2 38.6666667,82.6666667 38,81.6 C37.7333333,81.0666667 37.2,79.8666667 36.6666667,79.7333333 C36.1333333,79.6 35.7333333,80.9333333 35.4666667,81.2 C34,82.9333333 32.6666667,84.2666667 30.2666667,83.6 C29.3333333,83.3333333 26.4,83.0666667 26.2666667,82 C26.1333333,81.0666667 25.3333333,80.4 24.9333333,79.6 C24.4,78.6666667 24.1333333,77.6 23.4666667,76.8 C21.8666667,75.0666667 20.2666667,76 18.6666667,76.9333333 C17.8666667,77.4666667 19.6,79.7333333 19.4666667,80.5333333 C19.2,82.2666667 17.4666667,82.9333333 16,83.2 C14.9333333,83.3333333 14.2666667,83.7333333 13.2,83.3333333 C11.8666667,82.9333333 11.2,82.4 9.86666667,83.2 C8.4,84 6.4,81.4666667 7.06666667,84.4 C7.46666667,86.2666667 7.46666667,87.0666667 6.4,88.8 C5.86666667,89.7333333 7.06666667,89.4666667 7.46666667,89.4666667 C8.26666667,89.4666667 8.53333333,90 8.93333333,90.5333333 C10.2666667,92.1333333 7.2,93.4666667 9.46666667,94.5333333 C10.6666667,95.2 12.5333333,95.7333333 11.3333333,97.2 C10.1333333,98.6666667 11.0666667,99.3333333 11.2,100.8 C8.53333333,102.8 7.73333333,98.2666667 5.6,98.9333333 C2.4,99.8666667 1.73333333,102.533333 0.266666667,105.066667 C0.933333333,105.466667 1.73333333,105.733333 2.53333333,106.266667 C3.6,107.066667 4.26666667,108.4 5.2,109.333333 C7.6,111.866667 9.73333333,113.733333 11.0666667,117.066667 L12.2666667,119.733333 C13.3333333,118.933333 14.4,118.266667 14.9333333,116.933333 C15.3333333,115.866667 16.8,116.533333 17.4666667,115.733333 C18.4,114.666667 17.7333333,113.866667 19.4666667,113.333333 C20.6666667,113.066667 21.4666667,112.933333 22.2666667,112 C24,109.866667 24.6666667,111.2 26.1333333,112.8 C27.0666667,113.733333 28,113.066667 28.5333333,113.866667 C29.0666667,114.8 30.1333333,115.2 30.9333333,115.866667 C32.6666667,117.333333 32,116.533333 33.8666667,115.866667 C35.3333333,115.333333 36.2666667,115.466667 36.4,113.6 C36.6666667,109.866667 38.2666667,112.8 40.1333333,111.466667 C40.9333333,110.933333 41.7333333,110.933333 42.5333333,110.533333 C43.2,110.133333 44,109.6 44.8,109.466667 C45.6,109.333333 46.5333333,110.533333 46.5333333,111.2 C46.5333333,112.133333 45.0666667,112.8 45.4666667,113.6 C46,114.666667 45.4666667,115.733333 46,116.8 C46.1333333,117.2 48.2666667,117.6 48.8,117.6 C51.2,117.6 52.5333333,114.933333 53.8666667,113.466667 C55.0666667,112.133333 56,110.4 57.6,109.6 C59.0666667,108.8 60,109.733333 60.6666667,107.733333 C61.6,104.666667 64.2666667,106.133333 66.1333333,104.266667 C67.8666667,102.533333 69.2,99.6 70.1333333,97.3333333 C70.8,95.8666667 70.2666667,94.2666667 70.1333333,92.8 C70,90.9333333 70.4,89.2 70.5333333,87.3333333 C70.8,83.8666667 68.6666667,80.8 72.2666667,78.4 C74.9333333,76.6666667 76.1333333,73.7333333 77.4666667,70.9333333 C78.2666667,69.2 79.2,67.6 80.6666667,66.4 C82,65.3333333 83.7333333,65.0666667 85.2,64.2666667 C87.2,63.2 90.4,60 91.0666667,57.8666667 C91.7333333,56 91.0666667,54 91.3333333,52.1333333 C91.4666667,50.5333333 92.1333333,49.2 92.8,47.7333333 C93.4666667,46.4 94.5333333,45.2 94.2666667,43.7333333 C93.8666667,42.6666667 93.6,41.3333333 93.3333333,39.8666667 C92.8,36.1333333 94.5333333,33.7333333 95.6,30.2666667 C96.5333333,27.2 95.4666667,24 96.1333333,20.9333333 C96.8,17.4666667 100,15.2 100.933333,11.7333333 C101.733333,8.8 104.533333,6.26666667 103.333333,2.8 Z" id="Path"></path>
                        </g>
                    </g>
                </g>
            </g>
        </g>
    </g>
</svg>