<?xml version="1.0" encoding="UTF-8"?>
<svg width="160px" height="96px" viewBox="0 0 160 96" version="1.1" xmlns="http://www.w3.org/2000/svg" xmlns:xlink="http://www.w3.org/1999/xlink">
    <!-- Generator: Sketch 52.1 (67048) - http://www.bohemiancoding.com/sketch -->
    <title>noun_Cyprus_1970320</title>
    <desc>Created with Sketch.</desc>
    <defs>
        <linearGradient x1="12.0998348%" y1="72.7425357%" x2="88.1853453%" y2="13.5814785%" id="linearGradient-1">
            <stop stop-color="#34CDFA" offset="0%"></stop>
            <stop stop-color="#E8D9F1" offset="100%"></stop>
        </linearGradient>
    </defs>
    <g id="Page-1" stroke="none" stroke-width="1" fill="none" fill-rule="evenodd">
        <g id="Home-Copy" transform="translate(-240.000000, -2390.000000)" fill="url(#linearGradient-1)">
            <g id="Offices" transform="translate(-275.000000, 2067.000000)">
                <g id="Reason-Copy-3" transform="translate(410.000000, 261.000000)">
                    <g id="Group-2" transform="translate(20.000000, 20.000000)">
                        <g id="noun_Cyprus_1970320" transform="translate(85.000000, 42.000000)">
                            <polygon id="Path" points="44.7659574 24.7114894 52.32 28.5531915 58.4391489 27.6697872 82.2059574 30.1531915 95.9897872 27.6697872 102.629787 23.4876596 110.971915 23.4876596 126.730213 16.5855319 130.837447 10.5004255 135.009362 11.1455319 141.217021 8.35744681 144.285957 4.53446809 159.65617 0.0459574468 156.999149 4.53446809 149.07234 8.35744681 147.513191 11.1455319 139.68 17.7242553 129.230638 23.4876596 123.937021 28.5531915 123.559149 31.1693617 116.326809 31.1693617 112.115745 40.4204255 114.068085 46.706383 120.131064 53.933617 123.937021 58.7319149 124.92766 63.5182979 117.32766 60.3114894 110.21617 63.8978723 98.5225532 58.7319149 94.3523404 69.1268085 91.4297872 74.2331915 87.6868085 74.2331915 84.0731915 77.5097872 67.933617 84.107234 60.7489362 82.946383 51.9421277 86.5719149 52.32 95.252766 45.3565957 94.8731915 42.546383 86.6791489 29.3702128 89.0706383 18.9174468 84.107234 10.1157447 80.9957447 7.17957447 72.6944681 1.74468085 65.0502128 2.50212766 59.9319149 0.0629787234 54.692766 0.0629787234 50.0085106 10.1157447 54.692766 15.9234043 50.0085106 18.9174468 44.4085106 25.4178723 42.1412766 37.6068085 46.706383 44.1940426 42.5208511 45.373617 31.1693617"></polygon>
                        </g>
                    </g>
                </g>
            </g>
        </g>
    </g>
</svg>