<?xml version="1.0" encoding="UTF-8"?>
<svg width="99px" height="119px" viewBox="0 0 99 119" version="1.1" xmlns="http://www.w3.org/2000/svg" xmlns:xlink="http://www.w3.org/1999/xlink">
    <!-- Generator: Sketch 52.1 (67048) - http://www.bohemiancoding.com/sketch -->
    <title>noun_France_1508455</title>
    <desc>Created with Sketch.</desc>
    <defs>
        <linearGradient x1="12.0998348%" y1="72.7425357%" x2="88.1853453%" y2="13.5814785%" id="linearGradient-1">
            <stop stop-color="#34CDFA" offset="0%"></stop>
            <stop stop-color="#E8D9F1" offset="100%"></stop>
        </linearGradient>
    </defs>
    <g id="Page-1" stroke="none" stroke-width="1" fill="none" fill-rule="evenodd">
        <g id="Home-Copy" transform="translate(-1070.000000, -2378.000000)" fill="url(#linearGradient-1)">
            <g id="Offices" transform="translate(-275.000000, 2067.000000)">
                <g id="Reason-Copy-7" transform="translate(1210.000000, 261.000000)">
                    <g id="Group-2" transform="translate(20.000000, 20.000000)">
                        <g id="noun_France_1508455" transform="translate(115.000000, 30.000000)">
                            <path d="M83.6072727,89.3369697 C83.5793939,89.1078788 83.5393939,88.7975758 83.5260606,88.6836364 C83.5248485,88.6739394 83.5248485,88.6715152 83.5236364,88.6642424 C83.5212121,88.6448485 83.52,88.6339394 83.52,88.6339394 C83.7660606,87.9733333 86.6339394,86.3236364 85.4218182,85.2836364 C84.92,84.8545455 81.6121212,85.9866667 79.7575758,82.8448485 C79.2969697,82.0678788 79.8763636,81.8218182 80.0036364,81.3515152 C80.110303,80.9587879 79.1127273,80.9115152 79.489697,80.3054545 C80.1769697,79.2024242 82.2690909,78.6109091 81.4024242,76.9721212 C81.0642424,76.3260606 79.7854545,76.1527273 79.4666667,75.4969697 C79.3575758,75.2690909 79.6606061,74.9927273 79.5927273,74.7490909 C79.5163636,74.4739394 78.6581818,73.7127273 78.7236364,73.449697 C78.7587879,73.3078788 79.0084848,73.3721212 79.1515152,73.3333333 C80.2909091,73.0084848 80.0290909,73.5818182 80.6036364,73.5721212 C81.0993939,73.5648485 83.8060606,71.4230303 83.7551515,70.8206061 C83.7163636,70.3539394 82.6581818,69.9139394 82.4933333,69.4642424 L82.550303,68.5769697 C82.5587879,68.430303 82.6339394,68.2690909 82.5769697,68.129697 C81.7454545,66.2121212 79.7127273,66.5454545 83.5175758,64.8278788 C83.5054545,64.7866667 83.4945455,64.7454545 83.4836364,64.7030303 C83.4751515,64.6654545 83.4666667,64.6278788 83.4581818,64.5890909 C83.4412121,64.5115152 83.4254545,64.4327273 83.409697,64.3527273 C83.3648485,64.0993939 83.3248485,63.8509091 83.2642424,63.6460606 C83.2581818,63.6206061 83.2484848,63.6 83.2412121,63.5781818 C83.2193939,63.5115152 83.1939394,63.4521212 83.1660606,63.4 C83.1527273,63.3793939 83.1430303,63.3587879 83.1321212,63.3418182 C83.089697,63.28 83.0412121,63.230303 82.9818182,63.2036364 C82.8121212,63.1284848 82.5721212,63.4278788 82.4315152,63.3042424 C82.1915152,63.0957576 82.8290909,62.6909091 82.7163636,62.3927273 C82.6206061,62.1369697 82.0848485,62.3187879 81.9684848,62.0751515 C81.7478788,61.6060606 82.6654545,61.1612121 82.7054545,60.8533333 C82.7442424,60.5309091 82.1709091,60.129697 82.2133333,59.8109091 C82.3078788,59.1030303 83.36,58.6024242 81.4,58.3272727 C77.6472727,57.8036364 78.5575758,60.2181818 77.9551515,60.6254545 C77.6909091,60.8036364 75.8824242,61.8048485 75.5927273,61.1757576 C75.5284848,61.0363636 75.8909091,60.9987879 75.9187879,60.8472727 C76.1539394,59.5090909 76.390303,60.529697 76.9866667,60.0727273 C77.4218182,59.7418182 77.0460606,57.0218182 77.8,56.1733333 C78.4012121,55.4981818 80.0836364,55.4545455 80.5575758,54.7260606 C80.8533333,54.2678788 80.4145455,53.2642424 80.7466667,52.8351515 C81.1260606,52.350303 82.5030303,52.5539394 82.9781818,52.0581818 C83.3490909,51.6727273 83.7515152,50.9878788 84.2133333,50.5333333 C84.8545455,49.9030303 85.8484848,49.510303 86.1260606,49.2169697 C86.2048485,49.1321212 86.3878788,49.0775758 86.3624242,48.9660606 C86.3309091,48.8278788 86.1490909,48.7551515 86.0121212,48.7175758 C85.8860606,48.6848485 85.1987879,48.9078788 85.2812121,48.4060606 C85.310303,48.2290909 86.0327273,47.7709091 86.0375758,47.7624242 L86.0036364,47.1818182 C87.6654545,46.550303 87.3830303,48.7187879 89.0484848,48.4363636 C89.5660606,48.3515152 90.2860606,47.3115152 90.7030303,46.9733333 C90.6036364,46.8909091 90.3636364,45.9054545 90.3745455,45.7709091 C90.4666667,44.7224242 91.830303,43.3587879 91.6860606,42.3333333 C91.590303,41.6630303 91.3927273,41.4048485 91.8206061,40.6290909 C92.1951515,39.9515152 92.9381818,39.4424242 93.2642424,38.7466667 C93.710303,37.7854545 93.6339394,36.6872727 94.0957576,35.8072727 C94.4412121,35.1490909 98.0121212,32.6242424 97.6860606,32.1369697 C96.5624242,30.4521212 94.0545455,31.5284848 92.96,30.08 C92.7563636,29.8072727 92.96,29.3442424 92.7369697,29.0860606 C92.2448485,28.5151515 89.9139394,29.5381818 89.3321212,29.1163636 L89.4557576,28.369697 C88.7066667,27.2036364 87.8715152,28.5818182 87.5866667,28.2545455 C86.7236364,27.2606061 86.4739394,25.08 86.0424242,24.7345455 C86.04,24.7321212 85.1006061,24.3818182 85.0993939,24.3806061 C84.72,24.2109091 84.1151515,23.8 83.7054545,23.7563636 C83.3769697,23.7212121 82.550303,24.2327273 82.2678788,24.0812121 C82.230303,24.0593939 82.1854545,24.0266667 82.1369697,23.9878788 C82.1260606,23.9781818 82.1127273,23.9672727 82.1030303,23.9587879 C81.8024242,23.710303 81.3248485,23.2072727 80.7660606,22.9321212 C80.6363636,22.8690909 80.5042424,22.8133333 80.3672727,22.7818182 C80.0169697,22.7018182 78.8521212,23.0751515 78.6,22.8460606 C78.3539394,22.6206061 78.6739394,21.7539394 78.4739394,21.4775758 C78.4739394,21.4775758 77.6606061,21.1369697 77.6606061,21.1357576 C77.5987879,20.8169697 78.6339394,20.7721212 77.6775758,20.369697 C77.5151515,20.3006061 77.3272727,20.5272727 77.16,20.4654545 C77.0945455,20.4424242 77.0133333,20.36 76.9175758,20.2448485 C76.6242424,19.9006061 76.1878788,19.2569697 75.6169697,19.0218182 C75.6169697,19.0218182 74.7490909,18.6642424 74.7478788,18.6642424 C74.630303,18.4060606 75.2606061,17.7030303 75.2363636,17.4121212 C75.1672727,16.5490909 74.6654545,16.7563636 75.1587879,15.8569697 C75.2048485,15.7757576 75.7684848,14.8509091 75.7333333,14.8133333 C74.9539394,13.929697 74.1684848,15.9333333 73.8533333,16.1842424 C73.5248485,16.44 69.6763636,16.6036364 70.0957576,15.6375758 C70.2024242,15.3939394 70.929697,14.9006061 70.9187879,14.6460606 C70.9163636,14.6363636 70.310303,13.9563636 70.310303,13.9478788 C70.3066667,13.5309091 71.2666667,12.9890909 71.2048485,12.5842424 C71.1236364,12.0472727 68.6715152,10.9042424 68.1733333,11.0072727 C68.0278788,11.0375758 68.0060606,11.3042424 67.8593939,11.329697 C67.2739394,11.4315152 67.8351515,9.40484848 67.3284848,9.09818182 C66.7806061,8.76969697 65.3951515,9.09575758 65.1551515,8.25939394 C64.9381818,7.52 65.5939394,5.61454545 64.6,5.05333333 C64.1890909,4.82181818 63.2351515,5.9369697 62.830303,5.83272727 C62.7115152,5.80121212 62.6024242,5.76 62.5006061,5.71151515 C62.4363636,5.68242424 62.3830303,5.64242424 62.3248485,5.60727273 C62.289697,5.58424242 62.2484848,5.56727273 62.2145455,5.54060606 C62.169697,5.50787879 62.1321212,5.46909091 62.089697,5.43151515 C62.0509091,5.39636364 62.009697,5.36242424 61.9733333,5.32606061 C61.9430303,5.29454545 61.9187879,5.25575758 61.8921212,5.2230303 C61.8509091,5.17333333 61.8084848,5.12484848 61.7721212,5.07151515 C61.7539394,5.04363636 61.7406061,5.01454545 61.7236364,4.98666667 C61.6836364,4.92 61.6424242,4.85454545 61.6084848,4.78181818 C61.6,4.76363636 61.5927273,4.74545455 61.5854545,4.72848485 C61.5466667,4.64363636 61.5090909,4.55515152 61.4775758,4.4630303 C61.4751515,4.45575758 61.4727273,4.44969697 61.470303,4.44121212 C61.1042424,3.37090909 61.2024242,1.95757576 61.1721212,1.08242424 C59.6957576,1.47878788 57.8884848,0.796363636 56.3163636,0.947878788 C56.3090909,0.947878788 56.3018182,0.947878788 56.2945455,0.95030303 C56.1963636,0.96 56.0993939,0.975757576 56,0.992727273 C55.9745455,0.997575758 55.9490909,1 55.9248485,1.00484848 C55.8375758,1.02181818 55.7490909,1.04727273 55.6618182,1.07151515 C55.6315152,1.08121212 55.5987879,1.08727273 55.5684848,1.0969697 C55.4521212,1.13454545 55.3393939,1.1769697 55.2254545,1.23030303 C53.2630303,2.15030303 53.4993939,4.61212121 52.7163636,6.52242424 C52.4848485,7.08969697 52.4157576,6.86060606 52.7163636,7.23272727 C52.7806061,7.31393939 53.0024242,7.42787879 52.9090909,7.47393939 C52.6024242,7.61333333 52.0072727,7.41575758 52.1030303,8.25454545 C52.16,8.75151515 52.689697,9.28969697 52.7939394,9.57939394 C52.8581818,9.76 52.1066667,8.87757576 51.7684848,9.14666667 C47.3006061,12.7078788 45.9333333,10.5648485 41.2,12.2193939 C39.0254545,12.9793939 39.7866667,15.5309091 41.8109091,15.3612121 C41.9406061,15.3490909 42.1345455,15.2145455 42.2012121,15.3272727 C42.3345455,15.5563636 40.5090909,15.3381818 40.4133333,15.3381818 C39.4,15.3406061 38.5175758,16.2254545 37.3793939,16.2254545 C36.4787879,16.2242424 33.3139394,14.2012121 32.1818182,13.5951515 C31.1830303,13.0606061 30.4412121,13.9127273 30.430303,13.910303 C30.3830303,13.8945455 29.9018182,11.9175758 29.8812121,11.2133333 C29.8642424,10.7393939 30.5321212,10.769697 30.6181818,10.1406061 C30.64,9.98181818 30.7757576,9.79515152 30.6836364,9.66666667 C30.1878788,8.99151515 27.0787879,10.0763636 25.9224242,7.96484848 C25.8763636,7.87878788 25.7915152,8.12484848 25.7878788,8.22060606 C25.7684848,8.77939394 26.4933333,9.20242424 26.1757576,9.80242424 C26.070303,10.0012121 25.7066667,10.0278788 25.6666667,10.2484848 C25.5527273,10.8787879 25.8012121,12.48 26.2484848,12.7648485 C26.5078788,12.929697 26.2509091,13.4545455 26.4945455,14.2048485 C26.5090909,14.2545455 26.7236364,15.2484848 26.7224242,15.2509091 C26.64,15.4084848 26.3442424,15.36 26.2618182,15.5139394 C26.2218182,15.5915152 26.0315152,16.7236364 26.369697,16.5272727 C26.5151515,16.4436364 26.6036364,16.5066667 26.4909091,16.56 C26.4630303,16.5745455 25.5745455,18.44 25.5781818,18.4678788 C25.5890909,18.68 25.5854545,19.8715152 25.8521212,20.3078788 C25.8945455,20.3818182 27.1006061,20.8824242 26.7890909,21.1527273 C26.5830303,21.3321212 26.3006061,20.8412121 26.0290909,20.849697 C25.4206061,20.8642424 24.2072727,20.9090909 23.6630303,20.6860606 C22.7442424,20.3139394 23.7854545,18.7418182 22.7612121,19.2557576 C22.7030303,19.2836364 22.7721212,19.4266667 22.710303,19.4375758 C22.5854545,19.4618182 22.4727273,19.3236364 22.3478788,19.3345455 C21.2945455,19.4278788 22.7163636,21.4048485 21.8351515,21.1587879 C21.7624242,21.1369697 21.9963636,21.0836364 22.0084848,21.009697 C22.0363636,20.8060606 21.8836364,19.7260606 21.7624242,19.5660606 C21.4327273,19.129697 21.0460606,19.8181818 20.3490909,19.9515152 C20.0872727,20.0012121 20.5684848,19.2266667 20.3127273,19.1539394 L19.6072727,19.3466667 C19.5818182,19.3127273 20.7006061,18.6727273 19.9854545,18.470303 C19.8581818,18.4363636 19.8739394,18.7284848 19.7624242,18.8 C19.0690909,19.24 19.0460606,18.4351515 18.6242424,18.670303 C18.5078788,18.7345455 18.7212121,18.9660606 18.64,19.070303 C18.5490909,19.1890909 17.0933333,19.470303 16.9321212,19.56 C16.8133333,19.6242424 16.8327273,19.9272727 16.7030303,19.8884848 C16.6254545,19.8654545 15.8290909,17.0787879 15.6254545,16.4181818 C15.3818182,15.6266667 14.9539394,15.6169697 14.3709091,16.2472727 C14.2715152,16.3551515 15.049697,15.5345455 14.9878788,15.0472727 C14.9818182,15.0048485 14.9090909,15.0145455 14.8666667,15.0121212 C14.470303,14.9818182 14.2739394,14.9454545 14.0133333,15.2509091 C13.9466667,15.3284848 13.7842424,15.5866667 13.8121212,15.4872727 C14.2472727,14.0218182 13.2981818,15.3357576 12.2545455,15.0230303 C11.9054545,14.9175758 12.56,14.1042424 11.6448485,14.4424242 C10.9866667,14.6872727 11.2533333,15.7963636 10.7939394,15.9648485 C10.4024242,16.1078788 9.73575758,14.8727273 9.28121212,14.9090909 C8.97939394,14.9369697 8.75515152,15.3333333 8.73090909,15.6363636 C8.72363636,15.7309091 8.80606061,15.9248485 8.70787879,15.9236364 C8.1030303,15.92 8.30666667,13.7187879 7.43636364,14.9381818 C7.35515152,15.0545455 7.25818182,14.710303 7.13212121,14.6472727 C6.4969697,14.3272727 6.08363636,15.4024242 5.47151515,14.9248485 C5.10424242,14.6387879 6.08,14.52 5.4,14.3090909 C5.09454545,14.2121212 4.7369697,14.6363636 4.63151515,14.6642424 C4.46545455,14.7018182 3.60969697,14.1442424 3.49575758,14.5054545 C3.30909091,15.1018182 1.86181818,14.2593939 1.07878788,16.7163636 C0.784242424,17.64 2.9369697,17.1042424 3.32484848,17.230303 C4.25939394,17.5236364 3.12363636,17.4933333 3.37090909,17.8387879 C3.64363636,18.2169697 4.89090909,17.6254545 4.75151515,18.0715152 C4.69939394,18.2412121 4.38181818,18.1757576 4.27757576,18.3212121 C4.07878788,18.5987879 5.45333333,18.5842424 5.18666667,18.8012121 C5.02787879,18.929697 3.11272727,18.3963636 2.83878788,18.2654545 C2.22060606,17.9709091 3.03151515,17.4921212 2.52727273,17.5733333 C2.27393939,17.6145455 2.2169697,17.9236364 1.99515152,18.0012121 C1.79636364,18.0727273 2.26666667,18.3284848 2.36363636,18.5151515 C2.50909091,18.7963636 1.77818182,19.3224242 2.07878788,19.4193939 C2.37090909,19.510303 2.49090909,18.8509091 2.66787879,18.8084848 C3.24121212,18.6715152 4.00121212,19.8072727 3.95515152,20.2024242 C3.93818182,20.329697 3.90424242,20.4581818 3.84121212,20.5660606 C3.68727273,20.8363636 1.33454545,19.6084848 0.290909091,20.44 C0.166060606,20.5393939 0.592727273,20.5381818 0.744242424,20.5842424 C1.26545455,20.750303 2.00848485,21.3357576 2.24242424,21.8521212 C2.68484848,22.830303 1.56969697,24.5357576 3.49939394,24.230303 C3.93454545,24.1587879 4.08363636,22.9612121 4.2569697,23.0763636 C4.82545455,23.4581818 4.64969697,24.3878788 5.1830303,23.9587879 C5.94787879,23.3381818 5.41090909,24.3430303 5.93575758,24.9818182 C6.17333333,25.2690909 6.78424242,24.9781818 6.96606061,25.0981818 C7.57212121,25.4981818 7.99030303,26.4884848 8.53575758,26.9587879 C8.84484848,27.2242424 9.27272727,26.830303 9.37818182,26.8145455 C9.63151515,26.7842424 10.1030303,26.1745455 10.0290909,26.4169697 C9.85818182,26.990303 9.77454545,27.3284848 9.73575758,27.5272727 C9.75757576,27.5527273 9.76121212,27.6024242 9.75515152,27.6484848 C9.75515152,27.6509091 9.75515152,27.6509091 9.75515152,27.6509091 C9.87636364,27.8036364 10.0860606,28.0157576 10.0860606,28.0157576 C10.1260606,28.0206061 10.1684848,27.9915152 10.209697,27.9490909 C10.2230303,27.8969697 10.2545455,27.8472727 10.3127273,27.8024242 C10.3139394,27.8 10.3139394,27.8 10.3151515,27.7987879 C10.3418182,27.750303 10.3709091,27.6969697 10.3963636,27.6412121 C10.4,27.6351515 10.4024242,27.6290909 10.4060606,27.6230303 C10.4315152,27.569697 10.4557576,27.5175758 10.4812121,27.4630303 C10.5066667,27.4060606 10.5345455,27.3527273 10.5612121,27.2981818 C10.5660606,27.289697 10.569697,27.2812121 10.5745455,27.2727273 C10.6278788,27.1709091 10.6812121,27.0812121 10.7369697,27.0242424 C10.7418182,27.0193939 10.7466667,27.0145455 10.7515152,27.009697 C10.8060606,26.96 10.8606061,26.9454545 10.9175758,26.9818182 C10.9236364,26.9866667 10.9309091,26.9915152 10.9369697,26.9963636 C10.9648485,27.0206061 10.9939394,27.0533333 11.0218182,27.1066667 C11.0836364,27.2169697 10.8775758,27.3515152 10.9151515,27.4715152 C10.9369697,27.5442424 10.6266667,27.6460606 10.4387879,27.7248485 C10.3854545,27.7478788 10.3478788,27.7733333 10.3127273,27.8 C10.2787879,27.8618182 10.2436364,27.9115152 10.2084848,27.950303 C10.1709091,28.1139394 10.3127273,28.2945455 10.4048485,28.4254545 C10.4315152,28.4630303 10.4545455,28.4969697 10.4690909,28.5236364 C10.6921212,28.9963636 9.75636364,29.7939394 10.1054545,30.1939394 C10.68,30.8521212 10.1890909,29.3018182 10.5515152,29.1430303 C10.8121212,29.0266667 11.4363636,29.1781818 11.6569697,29.4690909 C11.7078788,29.5393939 11.8884848,28.8763636 11.870303,28.7430303 C11.8606061,28.6654545 11.7284848,28.5018182 11.8012121,28.5236364 C12.4084848,28.7006061 11.9054545,29.1660606 12.0787879,29.3951515 C12.3345455,29.7345455 12.9612121,28.6666667 13.2739394,28.9563636 C13.6412121,29.2921212 13.0715152,29.7272727 13.7260606,29.6812121 C13.8533333,29.6715152 13.7127273,29.2812121 13.8351515,29.3163636 C13.9612121,29.3539394 13.9090909,29.5951515 13.849697,29.7151515 C13.4448485,30.5575758 13.3757576,30.1684848 14.5539394,30.5115152 C14.7575758,30.5709091 13.8,30.5866667 13.9563636,30.7333333 C13.9587879,30.7333333 14.8690909,30.7987879 14.870303,30.7987879 C15.32,30.990303 15.3163636,31.3224242 15.8739394,31.4824242 C15.9066667,31.4909091 15.9151515,31.4921212 15.8739394,31.4824242 C15.7927273,31.4581818 15.5454545,31.3878788 15.4436364,31.3563636 C15.2206061,31.2933333 14.6121212,31.2812121 14.8557576,31.7806061 C14.910303,31.8909091 14.96,31.9745455 15.0060606,32.0460606 C15.0133333,32.0581818 15.0230303,32.0715152 15.030303,32.0836364 C15.0678788,32.1381818 15.0993939,32.1757576 15.1284848,32.2072727 C15.1442424,32.2242424 15.16,32.24 15.1721212,32.2533333 C15.1733333,32.2533333 15.1721212,32.2533333 15.1745455,32.2533333 C15.2242424,32.2739394 15.2460606,32.289697 15.2412121,32.2969697 L15.2436364,32.2969697 L15.2412121,32.2969697 C15.2387879,32.3018182 15.2157576,32.289697 15.1721212,32.2533333 C15.1551515,32.2472727 15.1345455,32.24 15.110303,32.2351515 C15.0848485,32.2278788 15.0557576,32.2254545 15.0242424,32.2206061 C14.9830303,32.2157576 14.9357576,32.2145455 14.8824242,32.2157576 C14.8581818,32.2181818 14.8339394,32.2181818 14.8084848,32.2206061 C14.7248485,32.230303 14.630303,32.2424242 14.5139394,32.2727273 C14.3927273,32.3042424 14.1733333,32.2436364 14.1539394,32.3672727 C14.0145455,33.1842424 15.4521212,33.7248485 14.0145455,33.310303 C13.7393939,33.2339394 14.3757576,33.809697 14.6509091,33.889697 C15.2957576,34.0751515 15.5236364,34.5333333 15.6618182,34.5721212 C16.4230303,34.7890909 16.5963636,33.5393939 17.9018182,34.2206061 C18.12,34.3345455 19.7587879,35.7054545 19.7030303,35.9054545 C19.6206061,36.2 19.1139394,35.6836364 18.8836364,35.48 C18.5587879,35.1927273 17.6593939,33.6860606 16.6327273,34.4521212 C16.430303,34.6060606 16.4945455,34.9381818 16.4266667,35.1842424 C16.3418182,35.4751515 15.6254545,35.4824242 15.7224242,35.7733333 C15.8763636,36.2327273 17.7187879,36.4569697 17.2763636,37.3927273 C16.8690909,38.2533333 15.830303,38.2351515 15.5381818,39.2642424 C15.4921212,39.4266667 16.7175758,41.1406061 16.7539394,41.1830303 C17.2521212,41.7490909 16.9684848,42.7878788 17.0460606,43.3612121 C17.1284848,43.9781818 17.9187879,44.1624242 18.1260606,44.5139394 C18.190303,44.6230303 17.9478788,44.7818182 18.0266667,44.8812121 L19.0339394,45.1587879 C19.5393939,45.4375758 18.9139394,45.9090909 19.1624242,46.1757576 C19.1624242,46.1781818 19.9684848,46.2 19.969697,46.2 C20.3709091,46.4848485 20.2133333,47.1078788 20.7321212,47.3890909 C20.8581818,47.4606061 20.9236364,46.430303 21.6387879,47.0484848 C22.3466667,47.6569697 20.2327273,48.0472727 20.4351515,48.4884848 C20.7842424,49.2484848 20.8242424,49.2593939 21.1042424,50.0436364 C21.1575758,50.190303 21.4145455,50.4654545 21.2606061,50.4763636 C21.0860606,50.4933333 20.9115152,50.2630303 20.7539394,50.3393939 C20.5127273,50.4581818 20.9151515,50.8957576 20.8109091,51.1418182 C20.7733333,51.2290909 20.8036364,51.3369697 20.8012121,51.430303 C20.7975758,51.5321212 20.8775758,51.6836364 20.7890909,51.7236364 C20.670303,51.7830303 20.0969697,51.8181818 20.0533333,51.92 C19.769697,52.590303 20.5575758,53.0763636 20.6569697,53.5866667 C20.6569697,53.5963636 19.5224242,52.3006061 19.2181818,52.4787879 C18.5333333,52.8787879 18.9915152,53.5139394 19.3042424,53.68 C19.8678788,53.9878788 20.310303,54.8642424 20.4945455,55.3733333 C20.9321212,56.5733333 21.8533333,57.0218182 21.870303,58.4860606 C21.8775758,59.1369697 21.7418182,59.8242424 21.6775758,60.4751515 C21.6206061,61.0654545 21.6339394,60.8060606 21.6218182,61.2630303 C21.6218182,61.3127273 21.6109091,61.3648485 21.6048485,61.4169697 C21.6048485,61.4169697 21.6048485,61.4193939 21.6048485,61.4218182 C21.6048485,61.4230303 21.6060606,61.4230303 21.6060606,61.4254545 C21.6266667,61.4909091 21.6472727,61.5636364 21.6690909,61.630303 C21.6909091,61.7018182 21.7127273,61.7733333 21.7357576,61.8484848 C21.7660606,61.9151515 21.790303,61.9709091 21.8109091,62.0206061 C21.8824242,62.1757576 21.9115152,62.2557576 21.8666667,62.3272727 C21.8957576,62.4484848 21.9260606,62.5842424 21.9551515,62.7369697 C21.9975758,62.8060606 22.0460606,62.8812121 22.0945455,62.9587879 C22.1284848,63.0145455 22.1636364,63.0690909 22.1963636,63.1260606 C22.2060606,63.1418182 22.2157576,63.1575758 22.2242424,63.1757576 C22.249697,63.2206061 22.2739394,63.2654545 22.2957576,63.3078788 C22.3078788,63.3284848 22.3175758,63.3478788 22.3260606,63.3684848 C22.3515152,63.4242424 22.3733333,63.4812121 22.3878788,63.5309091 C22.3890909,63.5369697 22.3890909,63.5454545 22.3915152,63.5551515 C22.4012121,63.5975758 22.4048485,63.6327273 22.4,63.6690909 C22.4,63.6787879 22.3975758,63.6909091 22.3951515,63.6993939 C22.3854545,63.7369697 22.3684848,63.7684848 22.3333333,63.7915152 C22.3309091,63.7915152 22.3284848,63.7915152 22.3260606,63.7939394 C22.2933333,63.8133333 22.2412121,63.8206061 22.1793939,63.8218182 C22.1648485,63.8218182 22.1478788,63.8218182 22.129697,63.8206061 C22.0557576,63.8169697 21.9733333,63.8048485 21.8630303,63.7769697 L21.9721212,62.8278788 C21.9660606,62.7927273 21.96,62.7684848 21.9539394,62.7369697 C21.9018182,62.6557576 21.8593939,62.5818182 21.830303,62.5224242 C21.8278788,62.52 21.8254545,62.5127273 21.8242424,62.510303 C21.7975758,62.4509091 21.7878788,62.4084848 21.8084848,62.3915152 C21.8387879,62.3660606 21.8484848,62.3393939 21.8618182,62.3163636 C21.8157576,62.1345455 21.7733333,61.9830303 21.7309091,61.8448485 C21.7139394,61.8048485 21.6957576,61.7612121 21.6763636,61.7139394 C21.6545455,61.6678788 21.6351515,61.6169697 21.6121212,61.5563636 C21.5963636,61.5163636 21.5975758,61.4666667 21.6024242,61.4218182 L21.6024242,61.4193939 C21.4921212,61.0424242 21.4157576,60.6339394 21.4,59.7357576 C21.3745455,58.1818182 20.3418182,56.8690909 19.8824242,55.6036364 C19.8072727,55.3987879 19.4387879,55.6945455 19.270303,55.8339394 C18.5975758,56.3975758 18.4557576,57.56 18.190303,58.3878788 C17.5042424,60.5309091 15.9769697,62.6218182 15.5866667,64.8509091 C15.4339394,65.72 18.2884848,62.0642424 17.4084848,65.3430303 C17.3284848,65.6460606 16.110303,64.990303 16.1054545,64.9939394 C15.2169697,65.3636364 14.9454545,67.4339394 14.6472727,68.209697 C13.9563636,70.0109091 10.9321212,77.08 9.25818182,77.6630303 C9.18424242,77.6884848 9.11151515,77.7054545 9.03757576,77.7127273 C9.02424242,77.7127273 9.01333333,77.7127273 9.00242424,77.7127273 C8.93939394,77.72 8.87636364,77.7224242 8.81454545,77.72 C8.80484848,77.7175758 8.79515152,77.7151515 8.78666667,77.7151515 C8.72,77.710303 8.65212121,77.7030303 8.58545455,77.689697 C8.28121212,77.630303 7.99515152,77.5054545 7.75515152,77.4387879 L7.83030303,77.6593939 C8.12363636,78.0121212 8.62666667,78.9042424 9.03636364,79.0921212 C9.44969697,79.2860606 10.3818182,79.2860606 10.6715152,79.8169697 C11.1260606,80.6545455 9.66424242,81.2472727 9.53939394,81.8642424 C9.34666667,82.8133333 10.9793939,81.6484848 11.0242424,81.68 C11.1284848,81.7575758 11.0024242,81.9357576 10.9939394,82.0606061 C10.9830303,82.1927273 10.8969697,82.3357576 10.9612121,82.4484848 C11.6848485,83.7127273 14.0763636,83.5781818 15.0048485,84.510303 C15.4678788,84.9745455 15.2327273,86.2436364 15.7345455,86.6593939 C16.6484848,87.4169697 18.2387879,86.3757576 19.150303,87.3454545 C19.6460606,87.8763636 19.28,88.9454545 20.2606061,89.1939394 C20.6654545,89.2933333 21.209697,88.8484848 21.6169697,88.950303 C22.0375758,89.0569697 22.4,89.7951515 22.8315152,89.84 C22.8327273,89.84 23.3721212,89.390303 23.3733333,89.390303 C23.9987879,89.3733333 25.2812121,90.6424242 25.8993939,90.209697 C26.2921212,89.9321212 25.6387879,88.4363636 26.7090909,88.6521212 C27.2921212,88.7684848 28.9321212,89.8145455 29.3272727,90.2618182 C29.329697,90.2618182 29.6921212,91.1236364 29.6945455,91.1284848 C30.08,91.4266667 31.0751515,91.310303 31.4133333,91.729697 C31.44,91.7624242 31.4654545,91.8048485 31.4884848,91.8557576 C31.4909091,91.8606061 31.4933333,91.8678788 31.4957576,91.8751515 C31.64,92.2 31.7042424,92.7890909 31.7733333,93.1090909 C31.910303,92.8860606 32.0751515,92.7018182 32.2242424,92.6072727 C32.2254545,92.6048485 32.2266667,92.6024242 32.2290909,92.6024242 C32.2775758,92.5721212 32.3260606,92.5478788 32.369697,92.5381818 C32.8775758,92.4193939 35.2327273,93.1963636 33.7078788,94.7939394 C34.1478788,95.0521212 35.0363636,95.3648485 35.3551515,95.7551515 C35.6412121,96.1078788 35.3442424,96.7236364 35.9648485,96.8654545 C36.6024242,97.009697 37.4084848,96.4157576 38.0472727,96.5575758 C38.5018182,96.6618182 40.8193939,98.4848485 41.0872727,98.3951515 L41.4266667,97.5030303 C42.4327273,96.6836364 44.6218182,97.8460606 45.5769697,98.1987879 C45.5090909,97.6072727 45.0763636,97.2121212 44.8945455,96.7030303 C44.5066667,95.609697 45.5757576,94.7090909 45.3527273,93.8957576 C45.3272727,93.8084848 44.5866667,93.5854545 44.750303,93.3793939 C45.1648485,92.8533333 45.3781818,93.0121212 45.7260606,92.8109091 C45.8339394,92.7490909 45.8424242,92.5648485 45.8060606,92.4412121 C45.4751515,91.3454545 46.6993939,91.7030303 46.3915152,91.0181818 C46.3030303,90.8218182 45.8751515,90.7272727 46.2387879,90.4048485 C46.6375758,90.0472727 46.1393939,90.9212121 46.5660606,90.8618182 C46.9551515,90.8072727 47.4921212,89.8060606 47.830303,89.5781818 C48.6654545,89.0145455 49.2436364,89.4666667 50.0133333,89.2654545 C50.1163636,89.2375758 50.2169697,89.1963636 50.3163636,89.1466667 C50.3418182,89.1345455 50.3660606,89.1187879 50.3915152,89.1066667 C50.4715152,89.0593939 50.5527273,89.0121212 50.6339394,88.96 C50.6472727,88.950303 50.6618182,88.9381818 50.6751515,88.9321212 C51.1321212,88.6145455 51.5890909,88.1721212 52.1018182,87.8884848 C52.1042424,87.8884848 52.1054545,87.8860606 52.1078788,87.8836364 C52.0193939,87.9115152 51.9490909,87.9309091 51.8969697,87.9381818 C51.8787879,87.9430303 51.8678788,87.9430303 51.8569697,87.9430303 C51.8472727,87.9430303 51.8375758,87.9430303 51.8315152,87.9406061 C51.8206061,87.9357576 51.8193939,87.9260606 51.8460606,87.9030303 C52.2751515,87.5078788 53.3951515,86.8 54.070303,86.809697 C55.7466667,86.8351515 55.2254545,87.8327273 56.3418182,88.36 C56.6824242,88.5212121 59.089697,89.0375758 59.1393939,89.3587879 C59.1393939,89.3612121 58.7612121,89.8654545 58.7612121,89.8654545 C58.7878788,90.1490909 60.3636364,90.6581818 60.5866667,90.6012121 C60.6739394,90.5793939 60.7333333,90.5515152 60.7733333,90.5212121 C60.7757576,90.5187879 60.7806061,90.5163636 60.7830303,90.5163636 C60.8181818,90.4884848 60.8327273,90.4521212 60.8351515,90.4169697 C60.8351515,90.4121212 60.8375758,90.4072727 60.8363636,90.4024242 C60.8351515,90.369697 60.8193939,90.3357576 60.7987879,90.2981818 C60.7927273,90.2884848 60.7866667,90.2763636 60.7793939,90.2678788 C60.7575758,90.2375758 60.7309091,90.2084848 60.7018182,90.1781818 C60.6921212,90.1709091 60.6824242,90.1587879 60.6739394,90.150303 C60.6036364,90.1175758 60.5490909,90.0727273 60.5115152,90.0133333 C60.4860606,89.9939394 60.4593939,89.9757576 60.4327273,89.9539394 C60.430303,89.9515152 60.4290909,89.9515152 60.4254545,89.9490909 C60.3660606,89.9042424 60.3175758,89.8715152 60.2751515,89.8351515 C60.2642424,89.8278788 60.2509091,89.8181818 60.2424242,89.8109091 C60.2145455,89.7866667 60.1939394,89.7684848 60.1878788,89.7563636 C60.08,89.4606061 60.4533333,88.9515152 60.4048485,88.6387879 C60.3793939,88.4848485 60.0509091,88.1842424 60.2060606,88.2145455 C60.2824242,88.2290909 60.3381818,88.2618182 60.3830303,88.3018182 C60.3915152,88.3090909 60.4036364,88.3187879 60.4109091,88.3260606 C60.4472727,88.3684848 60.4727273,88.4181818 60.4884848,88.4751515 C60.4933333,88.4945455 60.4981818,88.5175758 60.5018182,88.5418182 C60.5090909,88.5818182 60.5127273,88.6218182 60.5139394,88.6678788 C60.5260606,89.1127273 60.3006061,89.7527273 60.5575758,90.0484848 C60.5709091,90.0630303 60.5878788,90.0739394 60.6060606,90.0909091 C60.6206061,90.1030303 60.6351515,90.1151515 60.649697,90.1260606 C60.7151515,90.1636364 60.7854545,90.2036364 60.8945455,90.2133333 C61.190303,90.2387879 61.4157576,89.8387879 61.7115152,89.8533333 C61.9430303,89.8654545 62.6642424,90.4739394 62.9309091,90.0848485 C63.2048485,89.6775758 62.4678788,89.5587879 62.5284848,89.2351515 C62.6266667,88.7115152 63.2133333,88.7090909 63.5454545,89.0412121 C63.6339394,89.1333333 63.4206061,89.3018182 63.4751515,89.4157576 C63.8339394,90.1660606 63.8375758,89.3115152 64.2884848,89.5672727 C65.0084848,89.9745455 62.4169697,90.5515152 62.4181818,90.5660606 C62.4254545,90.6981818 62.4630303,90.8339394 62.4836364,90.9636364 C62.5951515,91.6412121 64.5987879,91.110303 64.8254545,91.2072727 C65.5357576,91.5151515 64.710303,92.5163636 64.92,92.9612121 C65.0193939,93.1648485 67.0181818,93.4654545 67.4387879,93.8012121 C68.2472727,94.4545455 68.2145455,95.6315152 68.6715152,95.5624242 C69.7393939,95.3963636 68.4981818,94.5709091 69.3830303,94.7284848 C69.6836364,94.7830303 69.8763636,95.0836364 70.1357576,95.2448485 C70.3333333,95.3660606 70.6945455,95.1709091 70.8181818,95.3660606 C71.2957576,96.1139394 70.3709091,95.4509091 70.4460606,95.8775758 C70.4690909,95.9915152 70.6739394,95.9175758 70.7866667,95.9369697 C71.7672727,96.1078788 70.6012121,95.529697 71.4266667,95.0848485 C72.0363636,94.76 72.4375758,95.84 72.8315152,95.9066667 C73.1563636,95.9612121 72.9539394,95.1272727 73.2654545,95.0193939 C73.5260606,94.9321212 73.8072727,95.1878788 74.0824242,95.1587879 C75.2387879,95.0448485 75.0872727,95.3248485 75.7563636,94.3842424 C75.8169697,94.2993939 76.0084848,94.2048485 75.9381818,94.1260606 C75.9381818,94.1260606 74.9866667,93.969697 74.9854545,93.9672727 C74.8678788,93.7309091 75.5587879,93.9054545 75.7284848,93.7066667 C76.0266667,93.3612121 76.3357576,93.0266667 76.6278788,92.5139394 C76.8084848,92.1915152 77.4181818,92.9115152 77.7139394,92.6933333 C78.1430303,92.3757576 78.2569697,91.7563636 78.6084848,91.4933333 C79.0254545,91.1854545 79.8678788,91.590303 79.9963636,91.5284848 C80.2327273,91.4169697 79.9224242,90.569697 80.3151515,90.4278788 C81.5587879,89.9806061 82.1757576,90.6121212 83.230303,89.5515152 C83.2569697,89.5212121 83.3115152,89.5090909 83.3757576,89.5066667 C83.3818182,89.5066667 83.390303,89.5090909 83.3975758,89.5090909 C83.4630303,89.5090909 83.5381818,89.5163636 83.6254545,89.5333333 C83.6254545,89.4812121 83.6169697,89.4157576 83.6072727,89.3369697 Z" id="Path"></path>
                            <path d="M89.8072727,111.403636 C89.6206061,111.427879 89.3818182,111.192727 89.2484848,111.326061 C89.1381818,111.437576 89.4424242,111.586667 89.4751515,111.740606 C89.6606061,112.587879 91.0860606,111.442424 90.9624242,112.332121 C90.9224242,112.62303 90.1939394,113.707879 89.7563636,113.787879 C89.6581818,113.804848 89.430303,113.745455 89.4630303,113.837576 C89.6678788,114.455758 91.4715152,114.317576 91.6048485,114.907879 C91.6521212,115.121212 90.6133333,115.275152 90.5430303,115.329697 C90.2472727,115.568485 90.4169697,115.980606 90.2690909,116.248485 C90.16,116.449697 90.5939394,116.573333 90.7806061,116.700606 C91.1212121,116.934545 91.5806061,117.455758 92.2545455,117.48 C92.4084848,117.484848 92.5854545,117.246061 92.7030303,117.352727 C92.8036364,117.44 92.4666667,117.578182 92.510303,117.705455 C92.6084848,117.991515 92.8666667,118.500606 93.230303,118.758788 C93.9515152,119.275152 93.8666667,117.556364 94.329697,116.997576 C94.5018182,116.791515 94.8763636,116.886061 95.0848485,116.72 C95.48,116.395152 94.4472727,116.499394 94.5721212,116.267879 C94.7806061,115.88 95.3030303,116.293333 95.4921212,115.815758 C95.8206061,114.986667 95.9406061,113.507879 96.0812121,112.458182 C96.1648485,111.809697 97.8266667,110.547879 97.9466667,109.077576 C98.0218182,108.163636 98.2642424,106.930909 98.0618182,106.04 C97.9733333,105.644848 98.0218182,105.28 97.9733333,105.644848 C97.9272727,105.985455 97.3793939,105.147879 97.3806061,104.804848 C97.3806061,103.774545 98.8254545,101.473939 97.9248485,100.671515 C96.5284848,100.487273 97.6812121,100.803636 97.2509091,101.540606 C97.1745455,101.670303 96.8969697,101.545455 96.8121212,101.670303 C96.4218182,102.25697 97.08,102.901818 96.8375758,103.585455 L96.3478788,104.089697 C95.9454545,103.975758 95.5212121,103.204848 94.9042424,103.324848 C94.3575758,103.429091 94.350303,104.209697 93.92,104.335758 C93.9151515,104.335758 92.8157576,104.184242 92.8121212,104.184242 C92.6351515,104.206061 91.7806061,104.993939 91.7127273,104.984242 C91.5272727,104.956364 91.5357576,104.57697 91.3490909,104.549091 L91.2448485,105.299394 C91.1284848,105.37697 90.9539394,105.180606 90.8278788,105.24 C90.4787879,105.413333 91.0448485,106.804848 89.6424242,106.603636 C89.4630303,106.575758 90.5951515,108.031515 90.5672727,108.071515 C90.36,108.391515 89.5672727,108.113939 89.4072727,109.246061 C89.3672727,109.518788 91.009697,109.904242 90.7806061,110.590303 L90.030303,110.86303 C89.6969697,111.046061 90.1866667,111.358788 89.8072727,111.403636 Z" id="Path"></path>
                        </g>
                    </g>
                </g>
            </g>
        </g>
    </g>
</svg>