<?xml version="1.0" encoding="UTF-8"?>
<svg width="64px" height="63px" viewBox="0 0 64 63" version="1.1" xmlns="http://www.w3.org/2000/svg" xmlns:xlink="http://www.w3.org/1999/xlink">
    <!-- Generator: Sketch 52.1 (67048) - http://www.bohemiancoding.com/sketch -->
    <title>002-pin</title>
    <desc>Created with Sketch.</desc>
    <defs>
        <linearGradient x1="12.0998348%" y1="72.7425357%" x2="88.1853453%" y2="13.5814785%" id="linearGradient-1">
            <stop stop-color="#34CDFA" offset="0%"></stop>
            <stop stop-color="#E8D9F1" offset="100%"></stop>
        </linearGradient>
    </defs>
    <g id="Page-1" stroke="none" stroke-width="1" fill="none" fill-rule="evenodd">
        <g id="Home-Copy" transform="translate(-688.000000, -2128.000000)">
            <g id="Offices" transform="translate(-275.000000, 2067.000000)">
                <g id="Part-title" transform="translate(915.000000, 61.000000)">
                    <g id="002-pin" transform="translate(48.000000, 0.000000)">
                        <path d="M53.8801687,63 C53.0596592,63 52.5126101,62.7333745 51.9656892,62.1999984 L42.9400844,53.3999812 L33.9144795,62.1999984 C32.8205095,63.2666255 31.1794905,63.2666255 30.0853923,62.1999984 L21.0597874,53.3999812 L12.0341826,62.1999984 C10.9402126,63.2666255 9.29919351,63.2666255 8.20509533,62.1999984 L0,54.1999828 L3.82908722,50.4666005 L10.119703,56.5999875 L19.1453079,47.7999703 C20.2392779,46.7333432 21.880297,46.7333432 22.9743951,47.7999703 L32,56.5999875 L41.0256049,47.7999703 C42.1195748,46.7333432 43.7605939,46.7333432 44.8546921,47.7999703 L53.880297,56.5999875 L60.1709128,50.4666005 L64,54.1999828 L55.7949047,62.1999984 C55.2475992,62.7333745 54.7006783,63 53.8801687,63 Z" id="Path" fill="#34CDFA"></path>
                        <path d="M30.9999364,0 C20.4142339,0 12,8.43885185 12,19.0555254 C12,28.8555318 27.2000254,46.2777228 29.0999809,48.1833647 C30.1856516,49.2722118 32.0857343,49.2722118 33.1714049,48.1833647 C34.7999746,46.2778504 50,28.8555318 50,19.0555254 C49.9998728,8.43885185 41.5856389,0 30.9999364,0 Z" id="Path" fill="url(#linearGradient-1)"></path>
                        <circle id="Oval" fill="#FFFFFF" cx="31" cy="19" r="8"></circle>
                    </g>
                </g>
            </g>
        </g>
    </g>
</svg>