<?xml version="1.0" encoding="UTF-8"?>
<svg width="258px" height="23px" viewBox="0 0 258 23" version="1.1" xmlns="http://www.w3.org/2000/svg" xmlns:xlink="http://www.w3.org/1999/xlink">
    <!-- Generator: Sketch 52.1 (67048) - http://www.bohemiancoding.com/sketch -->
    <title>Seven Seas and Co</title>
    <desc>Created with Sketch.</desc>
    <g id="Page-1" stroke="none" stroke-width="1" fill="none" fill-rule="evenodd">
        <g id="Home-Copy" transform="translate(-136.000000, -41.000000)" fill="#FFFFFF">
            <path d="M160.11,44.55 C160.11,43.7899962 159.925002,43.1450027 159.555,42.615 C159.184998,42.0849974 158.590004,41.82 157.77,41.82 C157.009996,41.82 156.390002,42.1049972 155.91,42.675 C155.429998,43.2450029 155.050001,44.0199951 154.77,45 C154.489999,45.9800049 154.295001,47.1249935 154.185,48.435 C154.074999,49.7450065 154.02,51.1499925 154.02,52.65 C154.02,54.3500085 153.785002,55.8699933 153.315,57.21 C152.844998,58.5500067 152.155005,59.6849954 151.245,60.615 C150.334995,61.5450046 149.215007,62.2549975 147.885,62.745 C146.554993,63.2350024 145.030009,63.48 143.31,63.48 C142.369995,63.48 141.470004,63.3600012 140.61,63.12 C139.749996,62.8799988 138.990003,62.5300023 138.33,62.07 C137.669997,61.6099977 137.140002,61.0400034 136.74,60.36 C136.339998,59.6799966 136.14,58.8900045 136.14,57.99 C136.14,57.6099981 136.185,57.220002 136.275,56.82 C136.365,56.419998 136.509999,56.0550016 136.71,55.725 C136.910001,55.3949984 137.169998,55.1250011 137.49,54.915 C137.810002,54.704999 138.189998,54.6 138.63,54.6 C139.190003,54.6 139.654998,54.7749983 140.025,55.125 C140.395002,55.4750017 140.58,55.9199973 140.58,56.46 C140.58,57.0000027 140.430002,57.4549982 140.13,57.825 C139.829999,58.1950018 139.400003,58.3999998 138.84,58.44 C138.78,58.6600011 138.745,58.8499992 138.735,59.01 C138.725,59.1700008 138.72,59.3399991 138.72,59.52 C138.72,59.9000019 138.814999,60.3049978 139.005,60.735 C139.195001,61.1650021 139.474998,61.5599982 139.845,61.92 C140.215002,62.2800018 140.679997,62.5749989 141.24,62.805 C141.800003,63.0350011 142.449996,63.1400001 143.19,63.12 C144.230005,63.0999999 145.119996,62.9200017 145.86,62.58 C146.600004,62.2399983 147.224997,61.7850028 147.735,61.215 C148.245003,60.6449972 148.654998,59.9850038 148.965,59.235 C149.275002,58.4849962 149.514999,57.6950042 149.685,56.865 C149.855001,56.0349959 149.97,55.1850043 150.03,54.315 C150.09,53.4449956 150.12,52.610004 150.12,51.81 C150.12,50.3899929 150.284998,49.0450064 150.615,47.775 C150.945002,46.5049937 151.464996,45.3950047 152.175,44.445 C152.885004,43.4949953 153.794994,42.7400028 154.905,42.18 C156.015006,41.6199972 157.359992,41.34 158.94,41.34 C159.480003,41.34 160.024997,41.3999994 160.575,41.52 C161.125003,41.6400006 161.624998,41.8349987 162.075,42.105 C162.525002,42.3750014 162.889999,42.7249979 163.17,43.155 C163.450001,43.5850022 163.59,44.1099969 163.59,44.73 C163.59,45.3700032 163.425002,45.8849981 163.095,46.275 C162.764998,46.665002 162.350003,46.964999 161.85,47.175 C161.349998,47.385001 160.810003,47.5249996 160.23,47.595 C159.649997,47.6650003 159.110003,47.7 158.61,47.7 C159.090002,47.2799979 159.459999,46.8100026 159.72,46.29 C159.980001,45.7699974 160.11,45.1900032 160.11,44.55 Z M172.56,55.29 C172.099998,55.9500033 171.585003,56.6149967 171.015,57.285 C170.444997,57.9550033 169.800004,58.6399965 169.08,59.34 C167.699993,60.6600066 166.360006,61.6599966 165.06,62.34 C163.759994,63.0200034 162.310008,63.36 160.71,63.36 C159.329993,63.36 158.280004,63.0400032 157.56,62.4 C156.839996,61.7599968 156.48,60.8300061 156.48,59.61 C156.48,58.5499947 156.779997,57.5500047 157.38,56.61 C157.980003,55.6699953 158.734995,54.8500035 159.645,54.15 C160.555005,53.4499965 161.544995,52.8900021 162.615,52.47 C163.685005,52.0499979 164.699995,51.84 165.66,51.84 C166.620005,51.84 167.409997,51.9949984 168.03,52.305 C168.650003,52.6150016 168.96,53.1199965 168.96,53.82 C168.96,54.5200035 168.620003,55.1299974 167.94,55.65 C167.259997,56.1700026 166.455005,56.6149981 165.525,56.985 C164.594995,57.3550019 163.660005,57.6549988 162.72,57.885 C161.779995,58.1150011 161.040003,58.2899994 160.5,58.41 C160.46,58.610001 160.43,58.809999 160.41,59.01 C160.39,59.210001 160.38,59.409999 160.38,59.61 C160.38,59.9700018 160.42,60.3249983 160.5,60.675 C160.58,61.0250018 160.714999,61.3299987 160.905,61.59 C161.095001,61.8500013 161.344998,62.0599992 161.655,62.22 C161.965002,62.3800008 162.349998,62.46 162.81,62.46 C163.750005,62.46 164.759995,62.1150035 165.84,61.425 C166.920005,60.7349966 168.009995,59.8700052 169.11,58.83 C169.810003,58.1499966 170.424997,57.4900032 170.955,56.85 C171.485003,56.2099968 171.929998,55.6300026 172.29,55.11 L172.56,55.29 Z M165.96,53.04 C165.96,52.4799972 165.680003,52.2 165.12,52.2 C164.679998,52.2 164.205003,52.4249978 163.695,52.875 C163.184997,53.3250022 162.715002,53.8649968 162.285,54.495 C161.854998,55.1250031 161.480002,55.7699967 161.16,56.43 C160.839998,57.0900033 160.64,57.6399978 160.56,58.08 C161.400004,57.8999991 162.154997,57.6250019 162.825,57.255 C163.495003,56.8849982 164.064998,56.4700023 164.535,56.01 C165.005002,55.5499977 165.359999,55.0600026 165.6,54.54 C165.840001,54.0199974 165.96,53.5200024 165.96,53.04 Z M177.18,52.2 C176.879998,52.7400027 176.450003,53.4249959 175.89,54.255 C175.329997,55.0850042 174.770003,55.9399956 174.21,56.82 C173.649997,57.7000044 173.165002,58.5699957 172.755,59.43 C172.344998,60.2900043 172.14,61.019997 172.14,61.62 C172.14,62.020002 172.239999,62.3499987 172.44,62.61 C172.640001,62.8700013 172.949998,63 173.37,63 C173.990003,63 174.619997,62.7700023 175.26,62.31 C175.900003,61.8499977 176.509997,61.2500037 177.09,60.51 C177.670003,59.7699963 178.194998,58.9300047 178.665,57.99 C179.135002,57.0499953 179.509999,56.1000048 179.79,55.14 C179.71,54.9599991 179.655,54.7600011 179.625,54.54 C179.595,54.3199989 179.58,54.1000011 179.58,53.88 C179.58,53.3599974 179.739998,52.8900021 180.06,52.47 C180.380002,52.0499979 180.809997,51.84 181.35,51.84 C182.110004,51.84 182.654998,52.0649978 182.985,52.515 C183.315002,52.9650022 183.48,53.5599963 183.48,54.3 C183.48,54.8000025 183.420001,55.2799977 183.3,55.74 C183.660002,56.1000018 184.024998,56.3399994 184.395,56.46 C184.765002,56.5800006 185.119998,56.64 185.46,56.64 C186.120003,56.64 186.689998,56.4700017 187.17,56.13 C187.650002,55.7899983 188.059998,55.4000022 188.4,54.96 L188.67,55.14 C188.529999,55.340001 188.350001,55.5499989 188.13,55.77 C187.909999,55.9900011 187.665001,56.1899991 187.395,56.37 C187.124999,56.5500009 186.830002,56.6999994 186.51,56.82 C186.189998,56.9400006 185.840002,57 185.46,57 C184.639996,57 183.890003,56.7200028 183.21,56.16 C182.929999,57.2000052 182.445003,58.1649956 181.755,59.055 C181.064997,59.9450044 180.260005,60.7049969 179.34,61.335 C178.419995,61.9650032 177.425005,62.4599982 176.355,62.82 C175.284995,63.1800018 174.220005,63.36 173.16,63.36 C171.939994,63.36 171.005003,63.0300033 170.355,62.37 C169.704997,61.7099967 169.38,60.8200056 169.38,59.7 C169.38,59.1999975 169.469999,58.6850027 169.65,58.155 C169.830001,57.6249974 170.079998,57.060003 170.4,56.46 C170.720002,55.859997 171.094998,55.2150034 171.525,54.525 C171.955002,53.8349965 172.419997,53.1000039 172.92,52.32 L177.18,52.2 Z M201.45,55.29 C200.989998,55.9500033 200.475003,56.6149967 199.905,57.285 C199.334997,57.9550033 198.690004,58.6399965 197.97,59.34 C196.589993,60.6600066 195.250006,61.6599966 193.95,62.34 C192.649993,63.0200034 191.200008,63.36 189.6,63.36 C188.219993,63.36 187.170004,63.0400032 186.45,62.4 C185.729996,61.7599968 185.37,60.8300061 185.37,59.61 C185.37,58.5499947 185.669997,57.5500047 186.27,56.61 C186.870003,55.6699953 187.624995,54.8500035 188.535,54.15 C189.445005,53.4499965 190.434995,52.8900021 191.505,52.47 C192.575005,52.0499979 193.589995,51.84 194.55,51.84 C195.510005,51.84 196.299997,51.9949984 196.92,52.305 C197.540003,52.6150016 197.85,53.1199965 197.85,53.82 C197.85,54.5200035 197.510003,55.1299974 196.83,55.65 C196.149997,56.1700026 195.345005,56.6149981 194.415,56.985 C193.484995,57.3550019 192.550005,57.6549988 191.61,57.885 C190.669995,58.1150011 189.930003,58.2899994 189.39,58.41 C189.35,58.610001 189.32,58.809999 189.3,59.01 C189.28,59.210001 189.27,59.409999 189.27,59.61 C189.27,59.9700018 189.31,60.3249983 189.39,60.675 C189.47,61.0250018 189.604999,61.3299987 189.795,61.59 C189.985001,61.8500013 190.234998,62.0599992 190.545,62.22 C190.855002,62.3800008 191.239998,62.46 191.7,62.46 C192.640005,62.46 193.649995,62.1150035 194.73,61.425 C195.810005,60.7349966 196.899994,59.8700052 198,58.83 C198.700003,58.1499966 199.314997,57.4900032 199.845,56.85 C200.375003,56.2099968 200.819998,55.6300026 201.18,55.11 L201.45,55.29 Z M194.85,53.04 C194.85,52.4799972 194.570003,52.2 194.01,52.2 C193.569998,52.2 193.095003,52.4249978 192.585,52.875 C192.074997,53.3250022 191.605002,53.8649968 191.175,54.495 C190.744998,55.1250031 190.370002,55.7699967 190.05,56.43 C189.729998,57.0900033 189.53,57.6399978 189.45,58.08 C190.290004,57.8999991 191.044997,57.6250019 191.715,57.255 C192.385003,56.8849982 192.954998,56.4700023 193.425,56.01 C193.895002,55.5499977 194.249999,55.0600026 194.49,54.54 C194.730001,54.0199974 194.85,53.5200024 194.85,53.04 Z M195.6,63 L201.81,52.38 L206.07,52.2 C204.629993,54.20001 203.250007,56.2399896 201.93,58.32 L201.99,58.38 C202.510003,57.7199967 203.089997,57.0100038 203.73,56.25 C204.370003,55.4899962 205.044996,54.7850033 205.755,54.135 C206.465004,53.4849968 207.194996,52.9400022 207.945,52.5 C208.695004,52.0599978 209.439996,51.84 210.18,51.84 C210.940004,51.84 211.574997,52.034998 212.085,52.425 C212.595003,52.8150019 212.85,53.409996 212.85,54.21 C212.85,54.8700033 212.645002,55.5499965 212.235,56.25 C211.824998,56.9500035 211.370002,57.6349967 210.87,58.305 C210.369998,58.9750034 209.915002,59.6149969 209.505,60.225 C209.094998,60.835003 208.89,61.3699977 208.89,61.83 C208.89,62.030001 208.944999,62.2049993 209.055,62.355 C209.165001,62.5050008 209.339999,62.58 209.58,62.58 C210.020002,62.58 210.519997,62.375002 211.08,61.965 C211.640003,61.554998 212.219997,61.050003 212.82,60.45 C213.280002,59.9899977 213.739998,59.4950027 214.2,58.965 C214.660002,58.4349974 215.089998,57.9250025 215.49,57.435 C215.890002,56.9449975 216.249998,56.495002 216.57,56.085 C216.890002,55.6749979 217.139999,55.3500012 217.32,55.11 L217.59,55.26 C216.909997,56.1600045 216.185004,57.0899952 215.415,58.05 C214.644996,59.0100048 213.870004,59.889996 213.09,60.69 C212.269996,61.5300042 211.475004,62.1849976 210.705,62.655 C209.934996,63.1250024 209.150004,63.36 208.35,63.36 C207.449995,63.36 206.775002,63.0950026 206.325,62.565 C205.874998,62.0349973 205.65,61.3500042 205.65,60.51 C205.65,59.7899964 205.844998,59.1050032 206.235,58.455 C206.625002,57.8049968 207.059998,57.1950029 207.54,56.625 C208.020002,56.0549971 208.454998,55.5300024 208.845,55.05 C209.235002,54.5699976 209.43,54.1200021 209.43,53.7 C209.43,53.1399972 209.160003,52.86 208.62,52.86 C208.259998,52.86 207.820003,53.0449981 207.3,53.415 C206.779997,53.7850019 206.220003,54.269997 205.62,54.87 C205.019997,55.470003 204.410003,56.1399963 203.79,56.88 C203.169997,57.6200037 202.585003,58.3599963 202.035,59.1 C201.484997,59.8400037 201.005002,60.5399967 200.595,61.2 C200.184998,61.8600033 199.880001,62.3999979 199.68,62.82 L195.6,63 Z M247.62,44.55 C247.62,43.7899962 247.435002,43.1450027 247.065,42.615 C246.694998,42.0849974 246.100004,41.82 245.28,41.82 C244.519996,41.82 243.900002,42.1049972 243.42,42.675 C242.939998,43.2450029 242.560001,44.0199951 242.28,45 C241.999999,45.9800049 241.805001,47.1249935 241.695,48.435 C241.584999,49.7450065 241.53,51.1499925 241.53,52.65 C241.53,54.3500085 241.295002,55.8699933 240.825,57.21 C240.354998,58.5500067 239.665005,59.6849954 238.755,60.615 C237.844995,61.5450046 236.725007,62.2549975 235.395,62.745 C234.064993,63.2350024 232.540009,63.48 230.82,63.48 C229.879995,63.48 228.980004,63.3600012 228.12,63.12 C227.259996,62.8799988 226.500003,62.5300023 225.84,62.07 C225.179997,61.6099977 224.650002,61.0400034 224.25,60.36 C223.849998,59.6799966 223.65,58.8900045 223.65,57.99 C223.65,57.6099981 223.695,57.220002 223.785,56.82 C223.875,56.419998 224.019999,56.0550016 224.22,55.725 C224.420001,55.3949984 224.679998,55.1250011 225,54.915 C225.320002,54.704999 225.699998,54.6 226.14,54.6 C226.700003,54.6 227.164998,54.7749983 227.535,55.125 C227.905002,55.4750017 228.09,55.9199973 228.09,56.46 C228.09,57.0000027 227.940001,57.4549982 227.64,57.825 C227.339999,58.1950018 226.910003,58.3999998 226.35,58.44 C226.29,58.6600011 226.255,58.8499992 226.245,59.01 C226.235,59.1700008 226.23,59.3399991 226.23,59.52 C226.23,59.9000019 226.324999,60.3049978 226.515,60.735 C226.705001,61.1650021 226.984998,61.5599982 227.355,61.92 C227.725002,62.2800018 228.189997,62.5749989 228.75,62.805 C229.310003,63.0350011 229.959996,63.1400001 230.7,63.12 C231.740005,63.0999999 232.629996,62.9200017 233.37,62.58 C234.110004,62.2399983 234.734997,61.7850028 235.245,61.215 C235.755003,60.6449972 236.164998,59.9850038 236.475,59.235 C236.785002,58.4849962 237.024999,57.6950042 237.195,56.865 C237.365001,56.0349959 237.48,55.1850043 237.54,54.315 C237.6,53.4449956 237.63,52.610004 237.63,51.81 C237.63,50.3899929 237.794998,49.0450064 238.125,47.775 C238.455002,46.5049937 238.974996,45.3950047 239.685,44.445 C240.395004,43.4949953 241.304994,42.7400028 242.415,42.18 C243.525006,41.6199972 244.869992,41.34 246.45,41.34 C246.990003,41.34 247.534997,41.3999994 248.085,41.52 C248.635003,41.6400006 249.134998,41.8349987 249.585,42.105 C250.035002,42.3750014 250.399999,42.7249979 250.68,43.155 C250.960001,43.5850022 251.1,44.1099969 251.1,44.73 C251.1,45.3700032 250.935002,45.8849981 250.605,46.275 C250.274998,46.665002 249.860003,46.964999 249.36,47.175 C248.859998,47.385001 248.320003,47.5249996 247.74,47.595 C247.159997,47.6650003 246.620002,47.7 246.12,47.7 C246.600002,47.2799979 246.969999,46.8100026 247.23,46.29 C247.490001,45.7699974 247.62,45.1900032 247.62,44.55 Z M260.07,55.29 C259.609998,55.9500033 259.095003,56.6149967 258.525,57.285 C257.954997,57.9550033 257.310004,58.6399965 256.59,59.34 C255.209993,60.6600066 253.870006,61.6599966 252.57,62.34 C251.269993,63.0200034 249.820008,63.36 248.22,63.36 C246.839993,63.36 245.790004,63.0400032 245.07,62.4 C244.349996,61.7599968 243.99,60.8300061 243.99,59.61 C243.99,58.5499947 244.289997,57.5500047 244.89,56.61 C245.490003,55.6699953 246.244995,54.8500035 247.155,54.15 C248.065005,53.4499965 249.054995,52.8900021 250.125,52.47 C251.195005,52.0499979 252.209995,51.84 253.17,51.84 C254.130005,51.84 254.919997,51.9949984 255.54,52.305 C256.160003,52.6150016 256.47,53.1199965 256.47,53.82 C256.47,54.5200035 256.130003,55.1299974 255.45,55.65 C254.769997,56.1700026 253.965005,56.6149981 253.035,56.985 C252.104995,57.3550019 251.170005,57.6549988 250.23,57.885 C249.289995,58.1150011 248.550003,58.2899994 248.01,58.41 C247.97,58.610001 247.94,58.809999 247.92,59.01 C247.9,59.210001 247.89,59.409999 247.89,59.61 C247.89,59.9700018 247.93,60.3249983 248.01,60.675 C248.09,61.0250018 248.224999,61.3299987 248.415,61.59 C248.605001,61.8500013 248.854998,62.0599992 249.165,62.22 C249.475002,62.3800008 249.859998,62.46 250.32,62.46 C251.260005,62.46 252.269995,62.1150035 253.35,61.425 C254.430005,60.7349966 255.519994,59.8700052 256.62,58.83 C257.320003,58.1499966 257.934997,57.4900032 258.465,56.85 C258.995003,56.2099968 259.439998,55.6300026 259.8,55.11 L260.07,55.29 Z M253.47,53.04 C253.47,52.4799972 253.190003,52.2 252.63,52.2 C252.189998,52.2 251.715003,52.4249978 251.205,52.875 C250.694997,53.3250022 250.225002,53.8649968 249.795,54.495 C249.364998,55.1250031 248.990002,55.7699967 248.67,56.43 C248.349998,57.0900033 248.15,57.6399978 248.07,58.08 C248.910004,57.8999991 249.664997,57.6250019 250.335,57.255 C251.005003,56.8849982 251.574998,56.4700023 252.045,56.01 C252.515002,55.5499977 252.869999,55.0600026 253.11,54.54 C253.350001,54.0199974 253.47,53.5200024 253.47,53.04 Z M273.39,52.2 C273.169999,52.5200016 272.885002,52.9299975 272.535,53.43 C272.184998,53.9300025 271.810002,54.4699971 271.41,55.05 C271.009998,55.6300029 270.610002,56.2349969 270.21,56.865 C269.809998,57.4950032 269.445002,58.109997 269.115,58.71 C268.784998,59.310003 268.515001,59.8699974 268.305,60.39 C268.094999,60.9100026 267.99,61.3499982 267.99,61.71 C267.99,62.2900029 268.219998,62.58 268.68,62.58 C269.100002,62.58 269.594997,62.380002 270.165,61.98 C270.735003,61.579998 271.359997,61.0450034 272.04,60.375 C272.720003,59.7049966 273.429996,58.9200045 274.17,58.02 C274.910004,57.1199955 275.659996,56.170005 276.42,55.17 L276.6,55.29 C275.799996,56.3100051 275.020004,57.3049951 274.26,58.275 C273.499996,59.2450049 272.745004,60.1049962 271.995,60.855 C271.244996,61.6050038 270.495004,62.2099977 269.745,62.67 C268.994996,63.1300023 268.230004,63.36 267.45,63.36 C266.769997,63.36 266.250002,63.2500011 265.89,63.03 C265.529998,62.8099989 265.265001,62.5350016 265.095,62.205 C264.924999,61.8749983 264.825,61.5300018 264.795,61.17 C264.765,60.8099982 264.75,60.4900014 264.75,60.21 L264.66,60.15 C264.339998,60.5300019 263.995002,60.9099981 263.625,61.29 C263.254998,61.6700019 262.850002,62.0149985 262.41,62.325 C261.969998,62.6350015 261.510002,62.884999 261.03,63.075 C260.549998,63.265001 260.040003,63.36 259.5,63.36 C258.539995,63.36 257.815002,63.0750029 257.325,62.505 C256.834998,61.9349972 256.59,61.0200063 256.59,59.76 C256.59,58.8799956 256.809998,57.9750047 257.25,57.045 C257.690002,56.1149954 258.314996,55.2650038 259.125,54.495 C259.935004,53.7249961 260.899994,53.0900025 262.02,52.59 C263.140006,52.0899975 264.369993,51.84 265.71,51.84 C266.490004,51.84 267.084998,52.034998 267.495,52.425 C267.905002,52.8150019 268.169999,53.2999971 268.29,53.88 L268.35,53.88 L269.13,52.32 L273.39,52.2 Z M261.48,62.04 C261.900002,62.04 262.439997,61.7700027 263.1,61.23 C263.760003,60.6899973 264.409997,60.0000042 265.05,59.16 C265.690003,58.3199958 266.239998,57.4050049 266.7,56.415 C267.160002,55.424995 267.39,54.4800045 267.39,53.58 C267.39,53.1199977 267.255001,52.7750012 266.985,52.545 C266.714999,52.3149989 266.410002,52.2 266.07,52.2 C265.649998,52.2 265.225002,52.3399986 264.795,52.62 C264.364998,52.9000014 263.945002,53.2749977 263.535,53.745 C263.124998,54.2150024 262.735002,54.7449971 262.365,55.335 C261.994998,55.9250029 261.670001,56.524997 261.39,57.135 C261.109999,57.7450031 260.890001,58.349997 260.73,58.95 C260.569999,59.550003 260.49,60.0799977 260.49,60.54 C260.49,60.8800017 260.554999,61.2149984 260.685,61.545 C260.815001,61.8750017 261.079998,62.04 261.48,62.04 Z M288.9,55.26 C288.159996,56.3600055 287.375004,57.3999951 286.545,58.38 C285.714996,59.3600049 284.790005,60.2199963 283.77,60.96 C282.749995,61.7000037 281.610006,62.2849978 280.35,62.715 C279.089994,63.1450021 277.650008,63.36 276.03,63.36 C275.429997,63.36 274.865003,63.3000006 274.335,63.18 C273.804997,63.0599994 273.350002,62.8700013 272.97,62.61 C272.589998,62.3499987 272.290001,62.015002 272.07,61.605 C271.849999,61.194998 271.74,60.7100028 271.74,60.15 C271.74,59.4099963 271.974998,58.8250022 272.445,58.395 C272.915002,57.9649979 273.459997,57.75 274.08,57.75 C274.500002,57.75 274.859999,57.8699988 275.16,58.11 C275.460001,58.3500012 275.61,58.7099976 275.61,59.19 C275.61,59.6300022 275.480001,59.9599989 275.22,60.18 C274.959999,60.4000011 274.670002,60.51 274.35,60.51 C274.109999,60.51 273.910001,60.4800003 273.75,60.42 C273.649999,60.5800008 273.6,60.7699989 273.6,60.99 C273.6,61.6300032 273.769998,62.1249982 274.11,62.475 C274.450002,62.8250017 274.949997,63 275.61,63 C276.470004,63 277.109998,62.7500025 277.53,62.25 C277.950002,61.7499975 278.16,61.1500035 278.16,60.45 C278.16,60.0299979 278.030001,59.620002 277.77,59.22 C277.509999,58.819998 277.225002,58.415002 276.915,58.005 C276.604998,57.5949979 276.320001,57.1850021 276.06,56.775 C275.799999,56.364998 275.67,55.9500021 275.67,55.53 C275.67,55.0499976 275.779999,54.5900022 276,54.15 C276.220001,53.7099978 276.544998,53.3150018 276.975,52.965 C277.405002,52.6149982 277.929997,52.340001 278.55,52.14 C279.170003,51.939999 279.879996,51.84 280.68,51.84 C281.840006,51.84 282.784996,52.034998 283.515,52.425 C284.245004,52.8150019 284.61,53.3799963 284.61,54.12 C284.61,54.6800028 284.420002,55.1349983 284.04,55.485 C283.659998,55.8350018 283.210003,56.01 282.69,56.01 C282.229998,56.01 281.800002,55.8900012 281.4,55.65 C281.540001,55.4299989 281.65,55.2000012 281.73,54.96 C281.81,54.7199988 281.85,54.4500015 281.85,54.15 C281.85,53.6499975 281.735001,53.200002 281.505,52.8 C281.274999,52.399998 280.900003,52.2 280.38,52.2 C279.919998,52.2 279.560001,52.3599984 279.3,52.68 C279.039999,53.0000016 278.91,53.4199974 278.91,53.94 C278.91,54.4400025 279.059999,54.9049979 279.36,55.335 C279.660002,55.7650022 279.984998,56.1899979 280.335,56.61 C280.685002,57.0300021 281.009998,57.4699977 281.31,57.93 C281.610002,58.3900023 281.76,58.9099971 281.76,59.49 C281.76,60.1700034 281.605002,60.7449977 281.295,61.215 C280.984998,61.6850023 280.510003,62.0999982 279.87,62.46 L279.93,62.52 C280.790004,62.2799988 281.634996,61.9050025 282.465,61.395 C283.295004,60.8849975 284.089996,60.2900034 284.85,59.61 C285.610004,58.9299966 286.314997,58.195004 286.965,57.405 C287.615003,56.6149961 288.189998,55.820004 288.69,55.02 L288.9,55.26 Z M310.89,52.2 C310.669999,52.5200016 310.385002,52.9299975 310.035,53.43 C309.684998,53.9300025 309.310002,54.4699971 308.91,55.05 C308.509998,55.6300029 308.110002,56.2349969 307.71,56.865 C307.309998,57.4950032 306.945002,58.109997 306.615,58.71 C306.284998,59.310003 306.015001,59.8699974 305.805,60.39 C305.594999,60.9100026 305.49,61.3499982 305.49,61.71 C305.49,62.2900029 305.719998,62.58 306.18,62.58 C306.600002,62.58 307.094997,62.380002 307.665,61.98 C308.235003,61.579998 308.859997,61.0450034 309.54,60.375 C310.220003,59.7049966 310.929996,58.9200045 311.67,58.02 C312.410004,57.1199955 313.159996,56.170005 313.92,55.17 L314.1,55.29 C313.299996,56.3100051 312.520004,57.3049951 311.76,58.275 C310.999996,59.2450049 310.245004,60.1049962 309.495,60.855 C308.744996,61.6050038 307.995004,62.2099977 307.245,62.67 C306.494996,63.1300023 305.730004,63.36 304.95,63.36 C304.269997,63.36 303.750002,63.2500011 303.39,63.03 C303.029998,62.8099989 302.765001,62.5350016 302.595,62.205 C302.424999,61.8749983 302.325,61.5300018 302.295,61.17 C302.265,60.8099982 302.25,60.4900014 302.25,60.21 L302.16,60.15 C301.839998,60.5300019 301.495002,60.9099981 301.125,61.29 C300.754998,61.6700019 300.350002,62.0149985 299.91,62.325 C299.469998,62.6350015 299.010002,62.884999 298.53,63.075 C298.049998,63.265001 297.540003,63.36 297,63.36 C296.039995,63.36 295.315002,63.0750029 294.825,62.505 C294.334998,61.9349972 294.09,61.0200063 294.09,59.76 C294.09,58.8799956 294.309998,57.9750047 294.75,57.045 C295.190002,56.1149954 295.814996,55.2650038 296.625,54.495 C297.435004,53.7249961 298.399994,53.0900025 299.52,52.59 C300.640006,52.0899975 301.869993,51.84 303.21,51.84 C303.990004,51.84 304.584998,52.034998 304.995,52.425 C305.405002,52.8150019 305.669999,53.2999971 305.79,53.88 L305.85,53.88 L306.63,52.32 L310.89,52.2 Z M298.98,62.04 C299.400002,62.04 299.939997,61.7700027 300.6,61.23 C301.260003,60.6899973 301.909997,60.0000042 302.55,59.16 C303.190003,58.3199958 303.739998,57.4050049 304.2,56.415 C304.660002,55.424995 304.89,54.4800045 304.89,53.58 C304.89,53.1199977 304.755001,52.7750012 304.485,52.545 C304.214999,52.3149989 303.910002,52.2 303.57,52.2 C303.149998,52.2 302.725002,52.3399986 302.295,52.62 C301.864998,52.9000014 301.445002,53.2749977 301.035,53.745 C300.624998,54.2150024 300.235002,54.7449971 299.865,55.335 C299.494998,55.9250029 299.170001,56.524997 298.89,57.135 C298.609999,57.7450031 298.390001,58.349997 298.23,58.95 C298.069999,59.550003 297.99,60.0799977 297.99,60.54 C297.99,60.8800017 298.054999,61.2149984 298.185,61.545 C298.315001,61.8750017 298.579998,62.04 298.98,62.04 Z M308.4,63 L314.61,52.38 L318.87,52.2 C317.429993,54.20001 316.050007,56.2399896 314.73,58.32 L314.79,58.38 C315.310003,57.7199967 315.889997,57.0100038 316.53,56.25 C317.170003,55.4899962 317.844996,54.7850033 318.555,54.135 C319.265004,53.4849968 319.994996,52.9400022 320.745,52.5 C321.495004,52.0599978 322.239996,51.84 322.98,51.84 C323.740004,51.84 324.374997,52.034998 324.885,52.425 C325.395003,52.8150019 325.65,53.409996 325.65,54.21 C325.65,54.8700033 325.445002,55.5499965 325.035,56.25 C324.624998,56.9500035 324.170003,57.6349967 323.67,58.305 C323.169998,58.9750034 322.715002,59.6149969 322.305,60.225 C321.894998,60.835003 321.69,61.3699977 321.69,61.83 C321.69,62.030001 321.744999,62.2049993 321.855,62.355 C321.965001,62.5050008 322.139999,62.58 322.38,62.58 C322.820002,62.58 323.319997,62.375002 323.88,61.965 C324.440003,61.554998 325.019997,61.050003 325.62,60.45 C326.080002,59.9899977 326.539998,59.4950027 327,58.965 C327.460002,58.4349974 327.889998,57.9250025 328.29,57.435 C328.690002,56.9449975 329.049998,56.495002 329.37,56.085 C329.690002,55.6749979 329.939999,55.3500012 330.12,55.11 L330.39,55.26 C329.709997,56.1600045 328.985004,57.0899952 328.215,58.05 C327.444996,59.0100048 326.670004,59.889996 325.89,60.69 C325.069996,61.5300042 324.275004,62.1849976 323.505,62.655 C322.734996,63.1250024 321.950004,63.36 321.15,63.36 C320.249996,63.36 319.575002,63.0950026 319.125,62.565 C318.674998,62.0349973 318.45,61.3500042 318.45,60.51 C318.45,59.7899964 318.644998,59.1050032 319.035,58.455 C319.425002,57.8049968 319.859998,57.1950029 320.34,56.625 C320.820002,56.0549971 321.254998,55.5300024 321.645,55.05 C322.035002,54.5699976 322.23,54.1200021 322.23,53.7 C322.23,53.1399972 321.960003,52.86 321.42,52.86 C321.059998,52.86 320.620003,53.0449981 320.1,53.415 C319.579997,53.7850019 319.020003,54.269997 318.42,54.87 C317.819997,55.470003 317.210003,56.1399963 316.59,56.88 C315.969997,57.6200037 315.385003,58.3599963 314.835,59.1 C314.284997,59.8400037 313.805002,60.5399967 313.395,61.2 C312.984998,61.8600033 312.680001,62.3999979 312.48,62.82 L308.4,63 Z M349.44,41.82 C347.759992,44.620014 346.315006,47.0249899 345.105,49.035 C343.894994,51.0450101 342.870004,52.754993 342.03,54.165 C341.189996,55.575007 340.520003,56.7249956 340.02,57.615 C339.519998,58.5050045 339.135001,59.2199973 338.865,59.76 C338.594999,60.3000027 338.415,60.7149986 338.325,61.005 C338.235,61.2950015 338.19,61.5499989 338.19,61.77 C338.19,62.0100012 338.254999,62.2049993 338.385,62.355 C338.515001,62.5050008 338.719999,62.58 339,62.58 C339.340002,62.58 339.819997,62.380002 340.44,61.98 C341.060003,61.579998 341.689997,61.0600032 342.33,60.42 C343.330005,59.419995 344.194996,58.4300049 344.925,57.45 C345.655004,56.4699951 346.219998,55.7000028 346.62,55.14 L346.89,55.29 C346.429998,55.9500033 345.805004,56.8049947 345.015,57.855 C344.224996,58.9050053 343.300005,59.9499948 342.24,60.99 C341.379996,61.8300042 340.590004,62.4349981 339.87,62.805 C339.149996,63.1750019 338.410004,63.36 337.65,63.36 C336.869996,63.36 336.255002,63.1200024 335.805,62.64 C335.354998,62.1599976 335.13,61.5600036 335.13,60.84 C335.13,60.6199989 335.18,60.3800013 335.28,60.12 L335.22,60.06 C334.519997,60.9600045 333.715005,61.7349968 332.805,62.385 C331.894995,63.0350033 330.820006,63.36 329.58,63.36 C328.639995,63.36 327.940002,63.0500031 327.48,62.43 C327.019998,61.8099969 326.79,61.0800042 326.79,60.24 C326.79,59.0799942 327.074997,57.9900051 327.645,56.97 C328.215003,55.9499949 328.949996,55.0600038 329.85,54.3 C330.750005,53.5399962 331.754994,52.9400022 332.865,52.5 C333.975006,52.0599978 335.069995,51.84 336.15,51.84 C336.790003,51.84 337.309998,52.0299981 337.71,52.41 C338.110002,52.7900019 338.379999,53.2699971 338.52,53.85 L345.12,42.12 L349.44,41.82 Z M337.62,53.73 C337.62,53.2699977 337.535001,52.9000014 337.365,52.62 C337.194999,52.3399986 336.880002,52.2 336.42,52.2 C335.819997,52.2 335.185003,52.499997 334.515,53.1 C333.844997,53.700003 333.225003,54.4299957 332.655,55.29 C332.084997,56.1500043 331.615002,57.0549952 331.245,58.005 C330.874998,58.9550048 330.69,59.7799965 330.69,60.48 C330.69,60.9400023 330.769999,61.3149985 330.93,61.605 C331.090001,61.8950014 331.359998,62.04 331.74,62.04 C332.220002,62.04 332.694998,61.8900015 333.165,61.59 C333.635002,61.2899985 334.089998,60.8950024 334.53,60.405 C334.970002,59.9149976 335.374998,59.3600031 335.745,58.74 C336.115002,58.1199969 336.439999,57.505003 336.72,56.895 C337.000001,56.284997 337.219999,55.7000028 337.38,55.14 C337.540001,54.5799972 337.62,54.1100019 337.62,53.73 Z M370.2,44.49 C370.019999,44.6700009 369.820001,44.9399982 369.6,45.3 C369.379999,45.6600018 369.27,46.1199972 369.27,46.68 C369.27,47.4200037 369.499998,48.0199977 369.96,48.48 C370.420002,48.9400023 370.989997,49.17 371.67,49.17 C372.310003,49.17 372.899997,48.9950018 373.44,48.645 C373.980003,48.2949983 374.444998,47.8500027 374.835,47.31 C375.225002,46.7699973 375.524999,46.1800032 375.735,45.54 C375.945001,44.8999968 376.05,44.3000028 376.05,43.74 C376.05,42.9999963 375.845002,42.4750016 375.435,42.165 C375.024998,41.8549984 374.470004,41.7 373.77,41.7 C372.709995,41.7 371.625006,41.9249978 370.515,42.375 C369.404994,42.8250022 368.335005,43.4399961 367.305,44.22 C366.274995,45.0000039 365.305005,45.9149948 364.395,46.965 C363.484995,48.0150053 362.695003,49.1499939 362.025,50.37 C361.354997,51.5900061 360.825002,52.8549935 360.435,54.165 C360.044998,55.4750066 359.85,56.7799935 359.85,58.08 C359.85,58.7200032 359.934999,59.3299971 360.105,59.91 C360.275001,60.4900029 360.519998,60.9999978 360.84,61.44 C361.160002,61.8800022 361.534998,62.2299987 361.965,62.49 C362.395002,62.7500013 362.869997,62.88 363.39,62.88 C364.170004,62.88 364.924996,62.6950018 365.655,62.325 C366.385004,61.9549982 367.039997,61.470003 367.62,60.87 C368.200003,60.269997 368.664998,59.5800039 369.015,58.8 C369.365002,58.0199961 369.54,57.2100042 369.54,56.37 C369.54,55.9299978 369.495,55.5050021 369.405,55.095 C369.315,54.6849979 369.175001,54.3250015 368.985,54.015 C368.794999,53.7049984 368.555001,53.4550009 368.265,53.265 C367.974999,53.0749991 367.620002,52.98 367.2,52.98 C366.399996,52.98 365.750003,53.2449973 365.25,53.775 C364.749998,54.3050026 364.365001,54.9199965 364.095,55.62 C363.824999,56.3200035 363.640001,56.9999967 363.54,57.66 C363.44,58.3200033 363.39,58.7899986 363.39,59.07 L363.03,59.07 C363.03,58.2899961 363.134999,57.4800042 363.345,56.64 C363.555001,55.7999958 363.884998,55.0250035 364.335,54.315 C364.785002,53.6049965 365.364996,53.0250023 366.075,52.575 C366.785004,52.1249978 367.629995,51.9 368.61,51.9 C369.150003,51.9 369.649998,51.9899991 370.11,52.17 C370.570002,52.3500009 370.969998,52.6049984 371.31,52.935 C371.650002,53.2650017 371.919999,53.6549977 372.12,54.105 C372.320001,54.5550023 372.42,55.0499973 372.42,55.59 C372.42,56.5500048 372.145003,57.5049953 371.595,58.455 C371.044997,59.4050048 370.315005,60.2499963 369.405,60.99 C368.494995,61.7300037 367.450006,62.3299977 366.27,62.79 C365.089994,63.2500023 363.870006,63.48 362.61,63.48 C360.209988,63.48 358.450006,62.8950059 357.33,61.725 C356.209994,60.5549941 355.65,58.9000107 355.65,56.76 C355.65,55.5199938 355.929997,54.2750062 356.49,53.025 C357.050003,51.7749938 357.794995,50.5800057 358.725,49.44 C359.655005,48.2999943 360.724994,47.235005 361.935,46.245 C363.145006,45.2549951 364.409993,44.3950036 365.73,43.665 C367.050007,42.9349963 368.369993,42.3650021 369.69,41.955 C371.010007,41.544998 372.239994,41.34 373.38,41.34 C373.980003,41.34 374.579997,41.3849996 375.18,41.475 C375.780003,41.5650004 376.309998,41.7349988 376.77,41.985 C377.230002,42.2350012 377.604999,42.5849977 377.895,43.035 C378.185001,43.4850023 378.33,44.0699964 378.33,44.79 C378.33,45.4100031 378.175002,46.014997 377.865,46.605 C377.554998,47.195003 377.130003,47.7149978 376.59,48.165 C376.049997,48.6150022 375.425004,48.9749987 374.715,49.245 C374.004996,49.5150013 373.250004,49.65 372.45,49.65 C371.989998,49.65 371.545002,49.5950005 371.115,49.485 C370.684998,49.3749995 370.305002,49.2000012 369.975,48.96 C369.644998,48.7199988 369.385001,48.4150019 369.195,48.045 C369.004999,47.6749982 368.91,47.2300026 368.91,46.71 C368.91,46.309998 368.994999,45.9000021 369.165,45.48 C369.335001,45.0599979 369.599998,44.6700018 369.96,44.31 L370.2,44.49 Z M393.36,55.29 C393.28,55.3700004 393.150001,55.504999 392.97,55.695 C392.789999,55.8850009 392.565001,56.0749991 392.295,56.265 C392.024999,56.4550009 391.720002,56.6249993 391.38,56.775 C391.039998,56.9250007 390.670002,57 390.27,57 C389.749997,57 389.285002,56.8750012 388.875,56.625 C388.464998,56.3749988 388.090002,56.0400021 387.75,55.62 L387.69,55.62 C387.69,56.6600052 387.445002,57.6499953 386.955,58.59 C386.464998,59.5300047 385.815004,60.3549965 385.005,61.065 C384.194996,61.7750036 383.270005,62.334998 382.23,62.745 C381.189995,63.1550021 380.110006,63.36 378.99,63.36 C378.329997,63.36 377.690003,63.2900007 377.07,63.15 C376.449997,63.0099993 375.900002,62.7800016 375.42,62.46 C374.939998,62.1399984 374.555001,61.7200026 374.265,61.2 C373.974999,60.6799974 373.83,60.0400038 373.83,59.28 C373.83,58.1399943 374.099997,57.1100046 374.64,56.19 C375.180003,55.2699954 375.874996,54.4850033 376.725,53.835 C377.575004,53.1849967 378.534995,52.6900017 379.605,52.35 C380.675005,52.0099983 381.729995,51.84 382.77,51.84 C383.630004,51.84 384.339997,51.9599988 384.9,52.2 C385.460003,52.4400012 385.934998,52.7349983 386.325,53.085 C386.715002,53.4350017 387.044999,53.8199979 387.315,54.24 C387.585001,54.6600021 387.854999,55.0449982 388.125,55.395 C388.395001,55.7450018 388.694998,56.0399988 389.025,56.28 C389.355002,56.5200012 389.769998,56.64 390.27,56.64 C390.730002,56.64 391.204998,56.5050014 391.695,56.235 C392.185002,55.9649986 392.659998,55.5700026 393.12,55.05 L393.36,55.29 Z M383.25,52.2 C382.769998,52.2 382.285002,52.3649984 381.795,52.695 C381.304998,53.0250017 380.830002,53.4549973 380.37,53.985 C379.909998,54.5150026 379.480002,55.1149967 379.08,55.785 C378.679998,56.4550033 378.330002,57.1299966 378.03,57.81 C377.729999,58.4900034 377.495001,59.1499968 377.325,59.79 C377.154999,60.4300032 377.07,60.9899976 377.07,61.47 C377.07,61.9300023 377.174999,62.2999986 377.385,62.58 C377.595001,62.8600014 377.889998,63 378.27,63 C378.750002,63 379.234998,62.8350017 379.725,62.505 C380.215002,62.1749983 380.689998,61.7450027 381.15,61.215 C381.610002,60.6849974 382.039998,60.0850034 382.44,59.415 C382.840002,58.7449966 383.189999,58.0700034 383.49,57.39 C383.790002,56.7099966 384.024999,56.0450033 384.195,55.395 C384.365001,54.7449967 384.45,54.1900023 384.45,53.73 C384.45,53.2699977 384.345001,52.9000014 384.135,52.62 C383.924999,52.3399986 383.630002,52.2 383.25,52.2 Z" id="Seven-Seas-and-Co"></path>
        </g>
    </g>
</svg>