<?xml version="1.0" encoding="UTF-8"?>
<svg width="109px" height="120px" viewBox="0 0 109 120" version="1.1" xmlns="http://www.w3.org/2000/svg" xmlns:xlink="http://www.w3.org/1999/xlink">
    <!-- Generator: Sketch 52.1 (67048) - http://www.bohemiancoding.com/sketch -->
    <title>noun_Angola_410498</title>
    <desc>Created with Sketch.</desc>
    <defs>
        <linearGradient x1="12.0998348%" y1="72.7425357%" x2="88.1853453%" y2="13.5814785%" id="linearGradient-1">
            <stop stop-color="#34CDFA" offset="0%"></stop>
            <stop stop-color="#E8D9F1" offset="100%"></stop>
        </linearGradient>
    </defs>
    <g id="Page-1" stroke="none" stroke-width="1" fill="none" fill-rule="evenodd">
        <g id="Home-Copy" transform="translate(-265.000000, -2968.000000)" fill="url(#linearGradient-1)" fill-rule="nonzero">
            <g id="Offices" transform="translate(-275.000000, 2067.000000)">
                <g id="Reason-Copy-8" transform="translate(410.000000, 851.000000)">
                    <g id="Group-2" transform="translate(20.000000, 20.000000)">
                        <g id="noun_Angola_410498" transform="translate(110.000000, 30.000000)">
                            <path d="M1.17647059,107.882353 L1.29411765,107.882353 L0.941176471,107.176471 L0.823529412,106.941176 L0.823529412,106.352941 L0.823529412,106 L0.823529412,105.764706 L0.705882353,105.647059 L0.588235294,105.647059 L0.470588235,105.764706 L0.352941176,105.882353 L0.352941176,106 L0.352941176,106.235294 L0.941176471,107.764706 L1.17647059,107.882353 Z M105.176471,61.4117647 L105.294118,61.2941176 L105.529412,61.0588235 L105.647059,60.9411765 L105.647059,60.8235294 L105.294118,60 L105.294118,59.7647059 L105.294118,58.5882353 L105.176471,58.5882353 L105.176471,58.4705882 L105.176471,58.1176471 L105.176471,57.6470588 L105.176471,57.5294118 L105.176471,57.4117647 L105.176471,57.2941176 L105.058824,57.0588235 L105.058824,56.9411765 L104.941176,56.4705882 L104.823529,56.5882353 L104.705882,56.7058824 L104.705882,56.9411765 L104.588235,57.0588235 L104.470588,57.1764706 L104.235294,57.2941176 L104.117647,57.4117647 L104.117647,57.5294118 L104,57.7647059 L104,57.8823529 L103.764706,58 L103.411765,57.8823529 L103.058824,57.7647059 L102.705882,57.7647059 L102.352941,57.7647059 L102.117647,57.7647059 L101.411765,57.5294118 L100.823529,57.4117647 L100.470588,57.4117647 L100.117647,57.4117647 L99.7647059,57.5294118 L99.1764706,57.8823529 L98.2352941,58.3529412 L97.5294118,58.4705882 L96.7058824,58.5882353 L96.3529412,58.5882353 L96,58.5882353 L95.8823529,58.4705882 L95.5294118,58.2352941 L95.4117647,58.1176471 L95.1764706,58.1176471 L94.9411765,58.2352941 L94.7058824,58.3529412 L94.4705882,58.4705882 L94.1176471,58.4705882 L93.7647059,58.4705882 L93.4117647,58.3529412 L93.0588235,58.2352941 L92.3529412,58 L92,58 L91.7647059,58.7058824 L91.5294118,58.9411765 L90.7058824,59.1764706 L90.5882353,59.2941176 L90.2352941,59.6470588 L90.1176471,59.7647059 L89.8823529,59.7647059 L90,59.4117647 L90,59.0588235 L89.8823529,58.3529412 L89.8823529,58.2352941 L89.7647059,58 L89.7647059,57.8823529 L89.6470588,57.7647059 L89.6470588,57.4117647 L89.4117647,56.8235294 L89.2941176,56.7058824 L89.2941176,56.5882353 L89.4117647,56.3529412 L89.6470588,56.1176471 L89.7647059,56 L90.1176471,55.8823529 L90.3529412,55.7647059 L90.4705882,55.7647059 L90.5882353,55.6470588 L90.5882353,55.5294118 L90.5882353,55.1764706 L90.4705882,54.9411765 L90.4705882,54.5882353 L90.4705882,54.2352941 L90.4705882,53.8823529 L90.3529412,53.6470588 L90.2352941,53.5294118 L90.1176471,53.4117647 L90.1176471,53.1764706 L90.2352941,52.9411765 L90.4705882,52.5882353 L90.4705882,52.4705882 L90.4705882,52.3529412 L90.4705882,52.2352941 L90.4705882,52.1176471 L90.4705882,52 L90.3529412,51.8823529 L90.2352941,51.6470588 L90,51.2941176 L89.8823529,50.9411765 L89.6470588,50.5882353 L89.5294118,50.2352941 L89.5294118,50 L89.5294118,49.8823529 L89.4117647,49.5294118 L89.2941176,49.0588235 L89.1764706,48.7058824 L89.0588235,48.4705882 L88.9411765,48.3529412 L88.5882353,48.1176471 L88.4705882,48 L88.3529412,48 L88.2352941,48.1176471 L88.1176471,48.1176471 L88,48.1176471 L87.5294118,47.5294118 L87.4117647,47.2941176 L87.4117647,47.0588235 L87.2941176,47.0588235 L87.1764706,46.7058824 L86.5882353,46.1176471 L86.3529412,45.7647059 L86.2352941,45.4117647 L86.1176471,44.7058824 L86,44.3529412 L86,44.2352941 L85.8823529,44.1176471 L85.8823529,44 L85.8823529,43.8823529 L86,43.7647059 L86,43.4117647 L86.2352941,42.8235294 L86.3529412,42.4705882 L86.3529412,42.1176471 L86.2352941,41.2941176 L86.3529412,40.3529412 L86.3529412,39.8823529 L86.4705882,39.1764706 L86.5882353,38.9411765 L86.7058824,38.7058824 L86.8235294,38.7058824 L86.9411765,38.1176471 L87.0588235,37.5294118 L87.1764706,37.2941176 L87.2941176,37.0588235 L87.1764706,37.0588235 L87.4117647,36.3529412 L87.4117647,36 L87.2941176,35.6470588 L87.0588235,35.2941176 L86.9411765,35.0588235 L86.9411765,34.9411765 L87.0588235,34.8235294 L86.9411765,34.7058824 L86.7058824,34.4705882 L86.5882353,34.3529412 L86.4705882,34 L86.4705882,33.6470588 L86.4705882,33.5294118 L86.4705882,33.4117647 L86.2352941,33.1764706 L86.1176471,33.0588235 L86.1176471,32.9411765 L86.1176471,32.7058824 L86.1176471,32.5882353 L85.8823529,32.4705882 L85.7647059,32.3529412 L85.7647059,32.2352941 L85.7647059,31.6470588 L85.7647059,31.5294118 L85.8823529,31.4117647 L85.8823529,31.2941176 L85.8823529,31.1764706 L85.8823529,30.9411765 L85.8823529,30.5882353 L85.8823529,30.4705882 L86,30.2352941 L86.1176471,30 L86.2352941,29.6470588 L86.3529412,29.4117647 L86.4705882,29.1764706 L86.4705882,29.0588235 L86.5882353,28.9411765 L86.5882353,28.8235294 L86.5882353,28.4705882 L86.5882353,28.3529412 L86.5882353,28.2352941 L86.5882353,28.1176471 L86.7058824,28 L86.7058824,27.8823529 L86.5882353,27.7647059 L86.5882353,27.6470588 L86.5882353,27.5294118 L86.5882353,27.4117647 L86.5882353,27.2941176 L86.5882353,27.1764706 L86.5882353,27.0588235 L86.5882353,26.9411765 L86.5882353,26.8235294 L86.3529412,26.4705882 L86.3529412,26.3529412 L86.2352941,26.3529412 L86.1176471,26.3529412 L85.8823529,26.3529412 L85.2941176,26.3529412 L84.7058824,26.3529412 L84.1176471,26.3529412 L83.5294118,26.3529412 L82.9411765,26.3529412 L82.3529412,26.3529412 L81.7647059,26.3529412 L81.1764706,26.3529412 L80.5882353,26.3529412 L80,26.3529412 L79.4117647,26.3529412 L78.8235294,26.3529412 L78.2352941,26.3529412 L77.6470588,26.3529412 L77.0588235,26.3529412 L76.4705882,26.3529412 L76.1176471,26.3529412 L76.1176471,25.8823529 L76.1176471,25.5294118 L76.1176471,25.1764706 L76.3529412,24.7058824 L76.4705882,24.3529412 L76.7058824,23.7647059 L76.9411765,23.2941176 L76.4705882,23.2941176 L75.7647059,23.2941176 L75.0588235,23.2941176 L74.5882353,23.2941176 L74.4705882,23.2941176 L74.3529412,23.2941176 L74.2352941,23.4117647 L74.2352941,23.5294118 L74.2352941,23.7647059 L74.2352941,23.8823529 L67.6470588,23.8823529 L67.7647059,24.2352941 L67.7647059,24.3529412 L67.7647059,24.4705882 L67.5294118,24.8235294 L67.4117647,24.9411765 L67.2941176,25.1764706 L67.1764706,26.5882353 L67.1764706,26.8235294 L67.2941176,27.0588235 L67.5294118,27.6470588 L67.5294118,27.8823529 L67.2941176,28.1176471 L67.1764706,28.2352941 L67.0588235,28.5882353 L66.9411765,28.7058824 L66.8235294,28.7058824 L66.2352941,28.7058824 L66.2352941,28.9411765 L66.3529412,29.1764706 L66.4705882,29.4117647 L66.5882353,29.6470588 L66.5882353,29.8823529 L66.5882353,30.1176471 L66.4705882,30.5882353 L66.3529412,30.8235294 L66.2352941,31.1764706 L66.2352941,31.4117647 L66.2352941,31.6470588 L66.4705882,32.3529412 L61.5294118,32.3529412 L61.4117647,32.1176471 L61.4117647,32 L61.4117647,31.7647059 L61.2941176,31.7647059 L60,31.7647059 L59.4117647,31.7647059 L59.2941176,31.8823529 L59.2941176,32 L59.2941176,32.3529412 L59.1764706,32.3529412 L58.7058824,32.3529412 L58.5882353,32.3529412 L58.3529412,32.4705882 L58.2352941,32.4705882 L58.1176471,32.4705882 L57.7647059,32.3529412 L57.2941176,32.3529412 L56.7058824,32.3529412 L56.5882353,32.3529412 L56.2352941,32.4705882 L56.1176471,32.4705882 L56,32.5882353 L55.8823529,32.8235294 L55.8823529,33.0588235 L55.8823529,33.2941176 L55.1764706,33.2941176 L54.9411765,33.2941176 L54.4705882,32.9411765 L54.2352941,32.8235294 L54,32.8235294 L53.8823529,32.8235294 L53.4117647,33.0588235 L53.2941176,33.0588235 L53.0588235,32.9411765 L52.8235294,32.9411765 L52.1176471,33.1764706 L51.8823529,33.1764706 L51.4117647,33.0588235 L51.2941176,32.9411765 L51.1764706,32.8235294 L51.2941176,32.5882353 L51.2941176,32.4705882 L51.1764706,32.3529412 L50.9411765,32.2352941 L50.8235294,32.1176471 L50.8235294,32 L50.7058824,31.7647059 L50.7058824,31.6470588 L50.7058824,31.5294118 L50.4705882,31.4117647 L50.3529412,31.4117647 L50.3529412,31.2941176 L50.4705882,31.1764706 L50.4705882,31.0588235 L50.3529412,30.9411765 L50.2352941,30.9411765 L50.2352941,30.8235294 L50.2352941,30.7058824 L50.2352941,30.5882353 L50.1176471,30.5882353 L50,30.5882353 L50.1176471,30.4705882 L50,30.4705882 L50,30.3529412 L50,30.2352941 L50,30.1176471 L49.8823529,30.1176471 L49.6470588,30.1176471 L49.6470588,30 L49.5294118,29.8823529 L49.5294118,29.7647059 L49.5294118,29.6470588 L49.5294118,29.5294118 L49.5294118,29.4117647 L49.4117647,29.2941176 L49.4117647,29.1764706 L49.2941176,29.2941176 L49.2941176,29.1764706 L49.2941176,28.9411765 L49.2941176,28.8235294 L49.2941176,28.7058824 L49.1764706,28.5882353 L48.7058824,28.3529412 L48.5882353,28.1176471 L48.4705882,27.7647059 L48.3529412,27.5294118 L48.2352941,27.4117647 L48.1176471,27.4117647 L48.1176471,27.2941176 L48.1176471,27.1764706 L48.2352941,27.1764706 L48.3529412,27.1764706 L48.3529412,27.0588235 L48.2352941,27.0588235 L48,27.0588235 L47.8823529,27.0588235 L47.7647059,27.1764706 L47.6470588,27.0588235 L47.6470588,26.9411765 L47.6470588,26.5882353 L47.6470588,26.4705882 L47.5294118,26.3529412 L47.2941176,26.2352941 L47.0588235,26 L46.8235294,25.8823529 L46.8235294,25.7647059 L46.8235294,25.6470588 L46.8235294,25.5294118 L46.7058824,25.2941176 L46.5882353,25.1764706 L46.4705882,25.1764706 L46.4705882,25.0588235 L46.4705882,24.5882353 L46.3529412,24 L46.3529412,23.7647059 L46.5882353,23.8823529 L46.5882353,23.6470588 L46.7058824,23.5294118 L46.7058824,23.4117647 L46.5882353,23.2941176 L46.5882353,23.1764706 L46.5882353,23.0588235 L46.4705882,23.0588235 L46.3529412,23.0588235 L46.3529412,22.9411765 L46.3529412,22.8235294 L46.2352941,22.3529412 L46.1176471,22.1176471 L45.8823529,22 L45.7647059,22 L45.5294118,22 L45.4117647,22 L45.2941176,21.8823529 L45.2941176,21.7647059 L45.2941176,21.6470588 L45.2941176,21.5294118 L44.8235294,20.8235294 L44.7058824,20.7058824 L44.7058824,20.5882353 L44.7058824,20.2352941 L44.7058824,20.1176471 L44.5882353,19.8823529 L44.5882353,19.7647059 L44.5882353,19.6470588 L44.7058824,19.4117647 L44.7058824,19.2941176 L44.5882353,19.1764706 L44.4705882,19.0588235 L44.4705882,18.9411765 L44.4705882,18.8235294 L44.4705882,18.7058824 L44.2352941,18.7058824 L44.2352941,18.5882353 L44.3529412,18.4705882 L44.3529412,18.3529412 L44.3529412,18.2352941 L44.3529412,18.1176471 L44.3529412,17.7647059 L44.3529412,17.6470588 L44.4705882,17.6470588 L44.5882353,17.6470588 L44.5882353,17.5294118 L44.5882353,17.4117647 L44.5882353,17.2941176 L44.5882353,17.1764706 L44.5882353,16.5882353 L44.5882353,16.4705882 L44.7058824,16.3529412 L44.7058824,16.2352941 L44.5882353,16.1176471 L44.4705882,16 L44.4705882,15.8823529 L44.3529412,15.8823529 L44.2352941,15.8823529 L44.1176471,15.8823529 L44,15.6470588 L43.8823529,15.5294118 L43.7647059,15.5294118 L44,15.2941176 L44,15.1764706 L43.8823529,15.1764706 L43.7647059,15.1764706 L43.7647059,15.0588235 L43.7647059,14.4705882 L43.7647059,14.3529412 L43.7647059,14.2352941 L43.6470588,14.1176471 L43.7647059,14 L43.7647059,13.8823529 L43.4117647,13.7647059 L43.2941176,13.7647059 L42.9411765,13.6470588 L42.8235294,13.6470588 L42.7058824,13.6470588 L42.5882353,13.6470588 L42.3529412,13.7647059 L42.2352941,13.7647059 L42.1176471,13.7647059 L41.8823529,13.6470588 L41.7647059,13.5294118 L41.6470588,13.4117647 L41.4117647,13.4117647 L40.9411765,13.4117647 L40.1176471,13.4117647 L39.2941176,13.4117647 L38.4705882,13.4117647 L37.6470588,13.4117647 L36.8235294,13.4117647 L36,13.4117647 L35.1764706,13.4117647 L34.3529412,13.4117647 L33.5294118,13.4117647 L32.7058824,13.4117647 L31.8823529,13.4117647 L31.0588235,13.4117647 L30.2352941,13.4117647 L29.4117647,13.4117647 L28.5882353,13.4117647 L27.7647059,13.4117647 L26.9411765,13.4117647 L25.8823529,13.6470588 L25.6470588,13.6470588 L25.0588235,13.5294118 L24.7058824,13.6470588 L23.8823529,13.6470588 L22.9411765,13.6470588 L22.8235294,13.6470588 L22.3529412,13.4117647 L22.1176471,13.4117647 L21.0588235,13.5294118 L20.9411765,13.5294118 L20.7058824,13.4117647 L20.3529412,13.2941176 L19.1764706,13.4117647 L17.7647059,13.5294118 L17.0588235,13.4117647 L16.9411765,13.4117647 L16.8235294,13.5294118 L16.7058824,13.5294118 L16.4705882,13.4117647 L15.7647059,13.4117647 L15.5294118,13.4117647 L15.4117647,13.6470588 L15.2941176,13.7647059 L15.0588235,13.6470588 L14.7058824,13.5294118 L14,13.4117647 L13.8823529,13.4117647 L13.5294118,13.6470588 L13.4117647,13.6470588 L13.2941176,13.6470588 L12.9411765,13.5294118 L12.8235294,13.5294118 L12.5882353,13.5294118 L12.4705882,13.5294118 L12.3529412,13.5294118 L12.2352941,13.5294118 L12.1176471,13.6470588 L12,13.7647059 L11.8823529,14 L11.7647059,14.1176471 L11.6470588,14.2352941 L10.9411765,14.5882353 L10.8235294,14.5882353 L10.2352941,14.5882353 L10.1176471,14.5882353 L10,14.5882353 L9.88235294,14.4705882 L9.76470588,14.4705882 L9.64705882,14.4705882 L9.41176471,14.7058824 L9.29411765,14.7058824 L8.82352941,14.7058824 L8.70588235,14.7058824 L8.58823529,14.8235294 L8.47058824,14.8235294 L8.35294118,14.8235294 L7.52941176,15.0588235 L7.05882353,15.0588235 L6.82352941,15.1764706 L6.70588235,15.1764706 L6.58823529,15.1764706 L6.35294118,15.2941176 L6.23529412,15.2941176 L6.35294118,15.2941176 L6.35294118,15.1764706 L6.11764706,15.0588235 L6.23529412,15.0588235 L6.35294118,15.0588235 L6.47058824,15.0588235 L6.58823529,14.9411765 L6.23529412,14.9411765 L6,15.0588235 L6,15.2941176 L6.11764706,15.5294118 L6.82352941,16.3529412 L6.94117647,16.4705882 L7.05882353,16.8235294 L7.29411765,17.1764706 L7.41176471,17.5294118 L7.88235294,18.2352941 L8.58823529,19.6470588 L9.29411765,20.2352941 L10,21.1764706 L10.5882353,22 L10.7058824,22.1176471 L10.9411765,22 L10.9411765,22.1176471 L10.9411765,22.2352941 L10.9411765,22.3529412 L10.9411765,22.4705882 L11.0588235,22.7058824 L11.1764706,24.3529412 L11.2941176,24.5882353 L11.4117647,24.8235294 L11.5294118,24.9411765 L11.7647059,25.1764706 L11.8823529,25.2941176 L12.5882353,27.2941176 L13.6470588,29.8823529 L14.2352941,30.9411765 L14.3529412,31.2941176 L14.4705882,31.6470588 L14.5882353,31.7647059 L14.7058824,32 L14.8235294,32.1176471 L14.9411765,32.2352941 L15.0588235,32.5882353 L15.1764706,32.7058824 L16,33.8823529 L16.1176471,34.1176471 L16.1176471,34.3529412 L16.1176471,34.9411765 L16.1176471,35.0588235 L16,35.1764706 L15.8823529,35.1764706 L15.7647059,35.1764706 L15.6470588,35.1764706 L15.7647059,35.4117647 L15.8823529,36 L16,36.2352941 L16.2352941,36.5882353 L16.2352941,36.7058824 L16.2352941,36.8235294 L16.1176471,37.1764706 L16,37.6470588 L15.7647059,37.7647059 L15.2941176,37.6470588 L15.1764706,37.6470588 L15.1764706,37.7647059 L15.1764706,37.8823529 L15.0588235,37.8823529 L14.9411765,38 L14.7058824,38.1176471 L14.5882353,38.2352941 L14.7058824,38.1176471 L15.1764706,37.6470588 L15.0588235,37.6470588 L14.9411765,37.7647059 L14.7058824,38 L14.7058824,38.1176471 L14.7058824,38.3529412 L14.7058824,38.4705882 L14.7058824,38.5882353 L14.4705882,38.8235294 L14.3529412,38.9411765 L14.2352941,39.1764706 L14.1176471,39.2941176 L14,39.2941176 L13.8823529,39.2941176 L13.7647059,39.2941176 L13.7647059,39.4117647 L13.7647059,39.5294118 L13.2941176,40.3529412 L13.1764706,40.4705882 L13.0588235,40.3529412 L13.0588235,40.1176471 L13.4117647,39.4117647 L14,38.9411765 L14.2352941,38.7058824 L13.7647059,38.9411765 L13.2941176,39.5294118 L12.9411765,40.2352941 L12.9411765,40.7058824 L13.0588235,40.9411765 L13.2941176,41.5294118 L13.8823529,42.5882353 L14.1176471,42.7058824 L14.1176471,42.9411765 L14.2352941,43.2941176 L14.2352941,43.4117647 L14.2352941,43.7647059 L14.2352941,43.8823529 L14.4705882,44.7058824 L14.4705882,44.8235294 L14.5882353,44.9411765 L14.7058824,45.0588235 L14.7058824,45.1764706 L14.7058824,45.2941176 L14.7058824,45.4117647 L14.4705882,45.6470588 L14.4705882,45.7647059 L14.5882353,45.8823529 L15.2941176,46.7058824 L15.5294118,47.0588235 L15.7647059,47.4117647 L15.8823529,47.7647059 L15.8823529,48 L15.7647059,48.1176471 L15.7647059,48.2352941 L16.2352941,49.0588235 L16.5882353,49.4117647 L16.7058824,49.5294118 L16.8235294,50 L16.9411765,50.2352941 L17.4117647,50.8235294 L17.5294118,51.0588235 L17.5294118,51.2941176 L17.5294118,51.8823529 L17.5294118,52 L17.6470588,52.1176471 L18.2352941,52.5882353 L19.0588235,53.5294118 L19.0588235,53.6470588 L19.0588235,53.7647059 L19.4117647,54 L19.5294118,54.1176471 L19.5294118,54.2352941 L19.5294118,54.3529412 L19.2941176,54.7058824 L19.1764706,54.8235294 L19.1764706,54.9411765 L19.2941176,55.0588235 L20,56.2352941 L20.1176471,56.4705882 L20.1176471,56.8235294 L20.1176471,57.4117647 L20.1176471,57.8823529 L19.8823529,59.0588235 L19.8823529,59.2941176 L19.8823529,59.4117647 L19.7647059,59.6470588 L19.7647059,59.7647059 L19.7647059,59.8823529 L19.7647059,60.3529412 L19.7647059,60.4705882 L19.7647059,60.5882353 L19.7647059,60.7058824 L19.8823529,60.8235294 L19.7647059,60.9411765 L19.7647059,61.1764706 L19.7647059,62.1176471 L19.8823529,63.6470588 L19.8823529,63.8823529 L19.7647059,64.1176471 L19.6470588,64.9411765 L19.5294118,65.1764706 L19.4117647,65.2941176 L19.2941176,65.4117647 L19.1764706,65.5294118 L19.0588235,65.6470588 L18.9411765,66.2352941 L18.8235294,66.4705882 L18.5882353,66.9411765 L18.3529412,67.6470588 L18.2352941,67.7647059 L18,68.1176471 L17.8823529,68.3529412 L17.7647059,68.4705882 L17.7647059,68.3529412 L17.7647059,68.2352941 L17.8823529,68.2352941 L17.8823529,68.1176471 L17.2941176,68.5882353 L17.1764706,68.8235294 L17.0588235,68.9411765 L17.0588235,69.0588235 L17.0588235,69.4117647 L17.0588235,69.5294118 L16.9411765,69.6470588 L16.7058824,69.7647059 L16.3529412,70.1176471 L16.1176471,70.3529412 L15.7647059,70.3529412 L15.6470588,70.3529412 L15.5294118,70.2352941 L15.4117647,70.2352941 L15.2941176,70.2352941 L15.0588235,70.4705882 L14.9411765,70.4705882 L14.7058824,70.4705882 L14.5882353,70.4705882 L14.4705882,70.5882353 L14.2352941,70.8235294 L14.2352941,70.9411765 L14.1176471,71.1764706 L14,71.2941176 L13.7647059,71.4117647 L13.1764706,72 L12.9411765,72.1176471 L12.5882353,72.4705882 L12.4705882,72.7058824 L12.5882353,72.9411765 L12.7058824,73.1764706 L12.8235294,73.4117647 L12.8235294,73.6470588 L12.7058824,73.8823529 L12.2352941,74.4705882 L12.1176471,74.7058824 L12,74.8235294 L11.7647059,74.9411765 L11.1764706,75.6470588 L11.0588235,75.7647059 L10.9411765,75.8823529 L10.8235294,76 L10.7058824,76 L10.7058824,76.1176471 L10.7058824,76.2352941 L10.4705882,76.3529412 L10.4705882,76.4705882 L10.4705882,76.5882353 L10.3529412,76.7058824 L10.3529412,76.8235294 L10.3529412,76.9411765 L10.3529412,77.0588235 L10.3529412,77.1764706 L10.2352941,77.2941176 L10.1176471,77.2941176 L10,77.2941176 L9.88235294,77.4117647 L9.76470588,77.5294118 L9.76470588,77.6470588 L9.64705882,77.6470588 L9.52941176,77.6470588 L9.41176471,77.6470588 L9.29411765,77.7647059 L9.29411765,77.8823529 L9.29411765,78 L9.29411765,78.1176471 L9.41176471,78.3529412 L9.41176471,78.4705882 L9.41176471,78.7058824 L9.41176471,78.8235294 L9.52941176,78.9411765 L9.52941176,79.0588235 L9.41176471,79.2941176 L9.41176471,79.4117647 L9.41176471,80.2352941 L9.29411765,81.1764706 L9.29411765,81.5294118 L9.17647059,81.7647059 L9.05882353,81.7647059 L8.94117647,81.6470588 L8.82352941,81.6470588 L8.58823529,81.7647059 L8.47058824,81.8823529 L8.47058824,82 L8.47058824,82.3529412 L8.47058824,82.4705882 L8.35294118,82.7058824 L8.35294118,82.8235294 L8.35294118,82.9411765 L8.35294118,83.0588235 L8.23529412,83.2941176 L8.23529412,83.5294118 L8.11764706,83.7647059 L8.11764706,83.8823529 L8.23529412,84 L8.35294118,84.1176471 L8.35294118,84.2352941 L8.35294118,84.3529412 L8.35294118,84.4705882 L8.35294118,84.5882353 L8.23529412,84.5882353 L8.11764706,84.5882353 L8.11764706,84.7058824 L8.11764706,84.8235294 L8.11764706,84.9411765 L8.11764706,85.0588235 L8.23529412,85.1764706 L8.35294118,85.4117647 L8.35294118,85.6470588 L8.35294118,86.2352941 L8.23529412,86.8235294 L8.11764706,87.1764706 L8,87.4117647 L8,87.5294118 L8,88.2352941 L7.88235294,88.8235294 L7.76470588,89.0588235 L7.76470588,89.1764706 L7.76470588,89.2941176 L7.76470588,89.4117647 L7.76470588,89.5294118 L7.64705882,89.7647059 L7.52941176,90 L7.41176471,90.1176471 L7.29411765,90.1176471 L7.17647059,90.2352941 L7.17647059,90.3529412 L7.17647059,90.4705882 L7.05882353,90.9411765 L7.05882353,91.0588235 L6.94117647,91.1764706 L6.82352941,91.2941176 L6.70588235,91.4117647 L6.70588235,91.5294118 L6.70588235,91.8823529 L6.47058824,92.3529412 L6.35294118,92.5882353 L6.35294118,92.8235294 L6.47058824,92.8235294 L6.58823529,92.9411765 L6.58823529,93.0588235 L6.58823529,93.1764706 L6.58823529,93.2941176 L6.47058824,93.4117647 L6.35294118,93.4117647 L6.23529412,93.2941176 L6.11764706,93.2941176 L5.88235294,93.5294118 L5.76470588,93.6470588 L5.76470588,93.7647059 L5.64705882,94.8235294 L5.52941176,95.2941176 L5.52941176,95.5294118 L5.64705882,95.7647059 L5.52941176,96 L5.41176471,96.7058824 L5.41176471,96.9411765 L5.29411765,97.1764706 L4.82352941,97.5294118 L4.70588235,97.7647059 L4.70588235,97.8823529 L4.70588235,98.1176471 L4.70588235,98.2352941 L4.58823529,98.3529412 L4.11764706,98.7058824 L4,98.7058824 L3.88235294,98.7058824 L3.88235294,98.5882353 L3.76470588,98.5882353 L3.64705882,98.7058824 L3.41176471,98.8235294 L3.29411765,98.9411765 L3.17647059,99.4117647 L3.41176471,99.8823529 L3.76470588,100.352941 L3.88235294,100.823529 L3.64705882,101.176471 L3.64705882,101.294118 L3.64705882,101.411765 L4,104.705882 L3.88235294,105.647059 L4,106.470588 L4,106.705882 L4,107.411765 L3.88235294,107.764706 L3.64705882,107.764706 L3.76470588,108.470588 L3.76470588,108.705882 L3.64705882,109.647059 L3.64705882,110.823529 L3.64705882,111.176471 L3.64705882,111.294118 L3.64705882,111.411765 L3.64705882,111.529412 L3.76470588,111.529412 L3.76470588,111.647059 L3.88235294,111.647059 L4,111.764706 L4.11764706,111.764706 L4.23529412,111.764706 L4.23529412,111.647059 L4.35294118,111.529412 L4.70588235,111.411765 L5.05882353,111.058824 L5.41176471,110.941176 L5.76470588,110.823529 L6.11764706,110.823529 L6.23529412,110.823529 L6.35294118,110.823529 L6.47058824,110.823529 L6.70588235,110.941176 L6.82352941,110.941176 L6.94117647,110.941176 L6.94117647,111.058824 L6.94117647,111.176471 L6.94117647,111.294118 L7.05882353,111.411765 L7.17647059,111.411765 L7.29411765,111.411765 L7.41176471,111.411765 L7.41176471,111.529412 L7.41176471,111.647059 L8,111.529412 L8.58823529,111.529412 L8.70588235,111.529412 L8.82352941,111.411765 L8.94117647,111.411765 L9.17647059,111.529412 L9.29411765,111.529412 L9.76470588,111.529412 L10.1176471,111.647059 L10.2352941,111.647059 L10.4705882,111.529412 L10.8235294,111.176471 L11.0588235,111.058824 L11.2941176,111.058824 L11.4117647,110.941176 L11.7647059,110.705882 L12.1176471,110.470588 L12.3529412,110.352941 L12.3529412,110.235294 L12.4705882,110.117647 L12.5882353,110 L12.7058824,110 L12.8235294,110 L12.9411765,110 L12.9411765,109.882353 L12.9411765,109.764706 L12.9411765,109.647059 L13.1764706,109.647059 L13.2941176,109.529412 L13.5294118,109.411765 L14,109.176471 L14.9411765,109.058824 L15.1764706,108.941176 L15.4117647,108.941176 L15.5294118,109.058824 L15.6470588,108.941176 L15.7647059,108.941176 L15.7647059,109.058824 L15.8823529,109.058824 L16.1176471,109.058824 L16.2352941,109.058824 L16.3529412,109.058824 L16.3529412,109.176471 L16.5882353,109.058824 L16.7058824,109.058824 L16.8235294,109.058824 L17.1764706,108.941176 L17.2941176,108.941176 L17.6470588,109.176471 L17.7647059,109.176471 L18,109.176471 L18.2352941,109.294118 L18.3529412,109.411765 L18.4705882,109.764706 L18.5882353,109.882353 L18.7058824,110 L18.5882353,110.235294 L19.2941176,110.588235 L20,111.176471 L20.8235294,111.647059 L21.6470588,112.117647 L21.7647059,112.235294 L22.1176471,112.705882 L22.2352941,112.823529 L22.4705882,112.823529 L22.5882353,112.823529 L22.7058824,112.705882 L22.8235294,112.705882 L22.9411765,112.705882 L23.0588235,112.705882 L23.2941176,112.705882 L23.4117647,112.705882 L23.5294118,112.705882 L23.6470588,112.705882 L23.7647059,112.588235 L23.8823529,112.588235 L24.2352941,112.705882 L24.4705882,112.705882 L24.5882353,112.588235 L27.4117647,112.588235 L29.6470588,112.588235 L36.2352941,112.588235 L38.4705882,112.588235 L53.7647059,112.588235 L56,112.588235 L60.8235294,112.588235 L60.9411765,112.588235 L60.9411765,112.705882 L61.0588235,113.058824 L61.0588235,113.176471 L61.2941176,113.294118 L61.5294118,113.882353 L61.5294118,114 L61.6470588,114.117647 L62.1176471,114.470588 L62.1176471,114.588235 L62.1176471,114.705882 L62.1176471,114.823529 L62.2352941,114.941176 L62.3529412,115.058824 L62.4705882,115.058824 L62.9411765,115.529412 L63.0588235,115.764706 L63.1764706,115.882353 L63.5294118,116 L64.2352941,116.352941 L65.2941176,116.588235 L66,116.588235 L66.2352941,116.470588 L66.4705882,116.470588 L66.5882353,116.470588 L66.8235294,116.470588 L67.1764706,116.470588 L67.2941176,116.588235 L68.5882353,116.941176 L70,116.941176 L70.4705882,116.823529 L70.7058824,116.823529 L70.8235294,116.823529 L70.9411765,116.941176 L71.0588235,117.058824 L71.1764706,117.176471 L71.4117647,117.294118 L71.5294118,117.294118 L71.6470588,117.176471 L72.9411765,117.176471 L73.2941176,117.411765 L73.6470588,117.529412 L73.7647059,117.529412 L74.2352941,117.529412 L74.4705882,117.529412 L74.5882353,117.529412 L74.7058824,117.529412 L74.8235294,117.647059 L74.9411765,117.529412 L75.1764706,117.529412 L75.4117647,117.529412 L75.6470588,117.647059 L75.8823529,117.411765 L76,117.529412 L76.1176471,117.529412 L76.3529412,117.529412 L76.4705882,117.529412 L76.8235294,117.764706 L77.0588235,117.764706 L77.2941176,117.882353 L77.5294118,118 L77.6470588,118.235294 L77.7647059,118.352941 L78,118.470588 L78.2352941,118.705882 L78.3529412,118.705882 L78.5882353,118.705882 L78.9411765,118.705882 L79.2941176,118.705882 L79.4117647,118.823529 L79.5294118,118.941176 L79.6470588,119.058824 L79.7647059,119.058824 L79.8823529,119.058824 L80,118.941176 L80.1176471,118.941176 L80.3529412,119.058824 L80.5882353,119.176471 L80.8235294,119.176471 L81.0588235,119.058824 L81.2941176,119.058824 L81.4117647,118.823529 L82.2352941,118.588235 L83.0588235,118.352941 L83.1764706,118.470588 L83.2941176,118.470588 L83.4117647,118.352941 L83.5294118,118.352941 L83.6470588,118.352941 L84,118.352941 L84.1176471,118.352941 L84.4705882,118.588235 L84.9411765,118.705882 L85.1764706,118.823529 L85.2941176,119.058824 L85.4117647,119.058824 L86,118.941176 L88.1176471,118.588235 L90.2352941,118.235294 L92.3529412,117.882353 L94.4705882,117.529412 L96.2352941,117.176471 L98,116.823529 L99.7647059,116.470588 L101.529412,116.117647 L102.235294,116 L102.235294,115.882353 L102.235294,115.764706 L102.352941,115.647059 L102.117647,115.529412 L102,115.294118 L101.882353,115.176471 L101.764706,115.058824 L101.647059,115.058824 L101.411765,115.058824 L101.294118,115.058824 L101.176471,115.058824 L101.058824,115.058824 L100.941176,115.058824 L100.823529,114.941176 L100.823529,114.823529 L100.823529,114.705882 L100.823529,114.588235 L100.705882,114.470588 L100.352941,114.352941 L100.117647,114.235294 L99.8823529,114 L99.7647059,113.764706 L99.6470588,113.529412 L99.6470588,113.411765 L99.2941176,113.058824 L99.1764706,112.941176 L98.8235294,112.823529 L98.3529412,112.588235 L98.1176471,112.470588 L97.7647059,112.117647 L97.5294118,112 L97.4117647,111.882353 L97.2941176,111.764706 L97.1764706,111.411765 L97.0588235,111.176471 L96.9411765,110.941176 L96.5882353,110.588235 L96.4705882,110.470588 L96,110.235294 L95.8823529,110.235294 L95.8823529,110.117647 L95.8823529,110 L95.8823529,109.882353 L95.7647059,109.764706 L95.5294118,109.647059 L95.4117647,109.529412 L95.2941176,109.411765 L95.1764706,109.176471 L94.5882353,108.235294 L94.4705882,108.117647 L94.3529412,108.117647 L94.2352941,108.117647 L94.2352941,108 L94.1176471,107.764706 L94.1176471,107.647059 L94,107.529412 L93.7647059,107.529412 L93.6470588,107.411765 L93.5294118,107.411765 L93.4117647,107.411765 L93.2941176,107.411765 L93.1764706,107.411765 L92.4705882,106.823529 L92.4705882,106.705882 L92.4705882,106.588235 L92.4705882,106.470588 L92.3529412,106.470588 L92.2352941,106.470588 L92.2352941,106.352941 L92.2352941,106.235294 L92.2352941,106.117647 L92.2352941,106 L92.1176471,105.764706 L92.1176471,105.647059 L92.1176471,105.529412 L92.1176471,105.411765 L92.2352941,105.294118 L92.3529412,105.176471 L92.3529412,105.058824 L92.2352941,104.941176 L92,104.823529 L92,104.588235 L92,104.470588 L91.8823529,104.352941 L91.8823529,104.235294 L91.8823529,104.117647 L91.8823529,104 L91.7647059,103.882353 L91.8823529,103.882353 L92.1176471,103.882353 L91.7647059,103.411765 L91.5294118,103.176471 L91.5294118,102.941176 L91.5294118,101.764706 L91.5294118,101.411765 L91.5294118,100.470588 L91.5294118,99.5294118 L91.5294118,98.5882353 L91.5294118,95.1764706 L91.5294118,93.8823529 L91.5294118,89.8823529 L91.5294118,88.5882353 L91.5294118,86 L91.5294118,84.7058824 L91.5294118,80 L91.5294118,78.7058824 L91.5294118,76.1176471 L91.5294118,74.8235294 L108.705882,74.8235294 L108.588235,74.4705882 L108.470588,74.2352941 L108.235294,74 L107.764706,73.5294118 L107.647059,73.2941176 L107.529412,73.0588235 L107.529412,72.7058824 L107.647059,72.3529412 L107.764706,71.7647059 L107.882353,71.1764706 L108,70.9411765 L108.352941,70.3529412 L108.588235,69.8823529 L108.705882,69.7647059 L108.705882,69.6470588 L108.588235,69.2941176 L108.588235,68.8235294 L108.470588,68.5882353 L108.235294,68.3529412 L108,68.1176471 L108,67.7647059 L108,66.5882353 L108,65.5294118 L108.235294,65.0588235 L108.235294,64.9411765 L108.235294,64.7058824 L108.235294,64.1176471 L108.117647,63.8823529 L108,63.7647059 L107.882353,63.6470588 L107.882353,63.4117647 L107.882353,63.2941176 L108,62.9411765 L108.235294,62.5882353 L108.235294,62.4705882 L108.235294,62.3529412 L108.235294,62.1176471 L105.176471,61.4117647 Z M3.52941176,6.47058824 L3.76470588,6.58823529 L3.88235294,6.58823529 L4,6.35294118 L4.11764706,6.35294118 L4.11764706,6.47058824 L4.11764706,6.58823529 L4,6.70588235 L3.88235294,6.70588235 L3.76470588,6.70588235 L3.64705882,6.70588235 L3.52941176,6.70588235 L3.52941176,6.82352941 L3.88235294,7.41176471 L4.23529412,8 L4.70588235,8.94117647 L4.94117647,9.52941176 L5.05882353,9.88235294 L5.17647059,10.1176471 L5.29411765,10.4705882 L5.29411765,10.5882353 L5.29411765,10.8235294 L5.29411765,10.9411765 L5.17647059,11.0588235 L5.05882353,11.0588235 L4.94117647,11.0588235 L4.82352941,11.0588235 L4.70588235,11.1764706 L4.47058824,11.7647059 L4.58823529,12.3529412 L5.05882353,13.0588235 L5.41176471,12.8235294 L6.11764706,12.7058824 L6.94117647,12.7058824 L7.52941176,12.7058824 L7.52941176,11.8823529 L7.52941176,11.2941176 L7.52941176,10.2352941 L7.52941176,9.17647059 L7.52941176,8.47058824 L7.52941176,7.76470588 L7.52941176,7.52941176 L7.41176471,7.41176471 L6.94117647,7.17647059 L6.94117647,7.05882353 L6.94117647,6.94117647 L6.94117647,6.82352941 L6.94117647,6.70588235 L7.05882353,6.70588235 L7.17647059,6.70588235 L7.88235294,6.47058824 L8.23529412,6.23529412 L8.35294118,5.88235294 L8.35294118,5.76470588 L8.47058824,5.76470588 L8.82352941,5.76470588 L9.05882353,5.64705882 L9.17647059,5.52941176 L9.17647059,5.41176471 L9.29411765,5.17647059 L9.41176471,5.05882353 L9.76470588,4.82352941 L9.88235294,4.70588235 L9.88235294,4.47058824 L9.88235294,4.23529412 L10,4 L10.1176471,3.88235294 L10.3529412,3.76470588 L12,3.41176471 L12.3529412,3.29411765 L12.4705882,3.05882353 L12.1176471,2.82352941 L11.5294118,2.11764706 L11.1764706,1.88235294 L11.0588235,1.64705882 L10.9411765,1.29411765 L10.8235294,1.17647059 L10.7058824,1.05882353 L10.5882353,1.05882353 L10.4705882,1.05882353 L10.3529412,1.05882353 L10.2352941,1.05882353 L10,0.941176471 L9.88235294,0.941176471 L9.64705882,1.05882353 L9.52941176,1.29411765 L9.41176471,1.52941176 L9.29411765,1.64705882 L9.17647059,1.76470588 L9.05882353,1.88235294 L8.94117647,2 L8.70588235,2.35294118 L8.58823529,2.47058824 L8.47058824,2.47058824 L7.52941176,2.58823529 L6.94117647,2.82352941 L6.82352941,2.82352941 L6.58823529,2.82352941 L6.47058824,2.94117647 L6.47058824,3.29411765 L6.47058824,3.41176471 L6.11764706,4.11764706 L6,4.23529412 L5.88235294,4.23529412 L5.64705882,4.23529412 L5.52941176,4.23529412 L5.41176471,4.23529412 L5.29411765,4.35294118 L5.17647059,4.11764706 L5.05882353,4 L4.94117647,4 L4.82352941,4 L4.58823529,4.82352941 L4.35294118,5.17647059 L3.41176471,6 L3.52941176,6 L3.52941176,6.47058824 Z" id="Shape"></path>
                        </g>
                    </g>
                </g>
            </g>
        </g>
    </g>
</svg>