<?xml version="1.0" encoding="UTF-8"?>
<svg width="79px" height="119px" viewBox="0 0 79 119" version="1.1" xmlns="http://www.w3.org/2000/svg" xmlns:xlink="http://www.w3.org/1999/xlink">
    <!-- Generator: Sketch 52.1 (67048) - http://www.bohemiancoding.com/sketch -->
    <title>noun_UK_672416</title>
    <desc>Created with Sketch.</desc>
    <defs>
        <linearGradient x1="12.0998348%" y1="72.7425357%" x2="88.1853453%" y2="13.5814785%" id="linearGradient-1">
            <stop stop-color="#34CDFA" offset="0%"></stop>
            <stop stop-color="#E8D9F1" offset="100%"></stop>
        </linearGradient>
    </defs>
    <g id="Page-1" stroke="none" stroke-width="1" fill="none" fill-rule="evenodd">
        <g id="Home-Copy" transform="translate(-681.000000, -3588.000000)" fill="url(#linearGradient-1)">
            <g id="Offices" transform="translate(-275.000000, 2067.000000)">
                <g id="Reason-Copy-12" transform="translate(810.000000, 1471.000000)">
                    <g id="Group-2" transform="translate(20.000000, 20.000000)">
                        <g id="noun_UK_672416" transform="translate(126.000000, 30.000000)">
                            <path d="M64.9683052,108.66427 C65.5256053,108.783125 66.0129127,109.356273 66.60719,109.302128 C67.2265591,109.246662 67.5025679,108.569186 67.9964784,108.262803 C68.5920763,107.891709 69.3448276,107.833602 69.9734409,107.517975 C70.5967718,107.204989 70.87146,106.956713 71.5621423,107.004255 C73.029347,107.105943 72.2898019,107.071607 72.802201,105.98474 C73.1666911,105.209538 74.6840792,104.524138 75.5371974,104.611299 C75.4711665,104.590169 76.0852531,103.721203 76.1222304,103.39237 C76.1539252,103.117682 76.1143067,102.166838 75.7141599,102.104769 C75.8977256,101.845928 76.4510638,101.836684 76.4391783,101.452384 C76.4180484,100.781511 75.5200293,101.115627 75.1344094,101.171093 C73.8732208,101.352018 72.7308877,101.48672 71.4881878,101.465591 C71.8606016,101.406163 72.4086574,101.346735 72.4126192,101.245048 C72.6225972,100.567572 71.2253852,100.411739 70.8595745,100.358914 C70.899193,100.537197 70.6878944,100.797359 70.7671313,100.645488 C70.2785033,100.646809 70.9256053,101.093177 70.4765957,101.165811 C70.5492296,101.128833 70.5637564,101.077329 70.5228173,101.011299 C70.1754952,101.522377 69.9853265,101.139398 70.007777,101.085253 C69.770066,101.275422 69.2629494,100.613793 69.1269259,101.058841 C69.3633162,100.461922 71.2174615,100.533236 70.1715334,99.9957447 C69.1374908,99.4648569 68.2949376,99.9402788 68.6779164,99.7197359 C69.0793837,99.488628 69.7251651,99.6378577 70.0526779,99.392223 C69.8849596,99.2812913 69.701394,99.2046955 69.5046222,99.1637564 C69.8796772,99.1360235 71.3983859,99.3684519 72.00719,98.80719 C72.3571533,98.483639 72.5895818,97.7599413 71.8606016,98.3132795 C71.762876,97.8906823 72.829934,97.575055 72.6595745,96.9741746 C72.4218635,96.1355833 71.2953778,96.8698459 70.9123991,97.1973588 C71.2663243,96.9160675 70.8741012,96.8883346 70.6284666,96.904182 C70.8278797,96.8064563 70.6086574,96.7707997 70.4633896,96.7602348 C70.7011005,96.8804109 71.8460748,96.4855466 71.9847395,96.3865004 C71.8843727,96.34292 71.8011739,96.2782098 71.7338225,96.1936904 C71.927953,96.3323551 71.9424798,96.2016141 72.1432135,96.2253852 C72.0983125,96.1699193 71.8539985,95.9282465 72.2435803,95.9097579 C71.9873808,96.3125459 72.6582539,96.2174615 72.8008804,96.0325752 C73.2115921,95.5003668 71.938518,96.0959648 72.3848863,95.6680851 C72.4060161,95.7156273 72.3941306,95.7605282 72.3492296,95.8014674 C72.3967718,95.757887 72.5710932,95.6469552 72.8444607,95.7446809 C72.7493764,95.6258254 72.6265591,95.5624358 72.4746882,95.5518709 C72.7969186,95.6179017 72.7823918,95.5043287 72.6661775,95.1926632 C72.8035216,95.4581071 73.432135,96.1065297 73.1231108,95.9573001 C73.5034483,97.1339692 75.6824652,95.0883346 74.987821,94.7370506 C75.2268525,94.9787234 74.5691856,94.7911959 74.4978723,94.770066 C74.8253852,94.5125459 75.0300807,94.3276596 75.2123258,93.9341159 C74.7012472,94.0331621 73.852091,94.202201 73.387234,93.8905356 C73.4889215,93.8799707 75.0287601,93.8522377 75.022157,93.8601614 C75.3470286,93.4679384 74.3248716,93.1074101 74.1875275,92.8644167 C74.6735143,93.2513573 75.4170213,93.3873808 75.4434336,94.1427733 C75.6124725,93.8363903 76.3084373,93.4600147 75.755099,93.12854 C75.8990462,93.1840059 75.9941306,93.2856933 76.0390315,93.434923 C76.3520176,93.2500367 76.3718269,92.8578136 76.6412326,92.6346295 C76.9159208,92.4074835 77.3015407,92.3691856 77.5405723,92.0918562 C77.9248716,91.6441673 77.8060161,90.9812179 77.8548789,90.4450477 C78.0159941,88.6820249 79.0711665,87.4261189 78.7436537,85.5917828 C78.3025679,83.1129861 75.4302274,79.9699193 72.6186354,80.5179751 C72.6767425,80.7015407 72.9831255,80.5325018 73.187821,80.6394718 C72.2911225,80.6751284 71.6242113,80.642113 70.7671313,80.5509905 C70.8239178,80.52854 70.8820249,80.5074101 70.9388114,80.4849596 C70.7011005,80.3766691 70.4541453,80.3436537 70.1979457,80.3859134 C70.2639765,80.4308144 70.3300073,80.4308144 70.3973588,80.3859134 C70.0262656,80.7609685 69.4782098,80.4110051 69.0701394,80.6870139 C68.7862069,80.8785033 68.7109318,81.2944974 68.617168,81.5916361 C68.548496,81.8108584 68.5445341,82.101394 68.424358,82.300807 C68.2355099,82.6151137 67.8089508,82.5913426 67.9423331,83.0654439 C67.7548056,82.7471753 66.8079237,82.4856933 66.4632428,82.2228907 C65.925752,81.8134996 65.6391783,81.4820249 64.9075569,81.7236977 C65.6088041,81.4041086 65.8240646,80.3938371 66.3892883,79.8933236 C67.0601614,79.2977256 67.7402788,79.1115187 67.8287601,78.1197359 C67.9423331,76.8374175 67.1248716,75.1892883 66.5675715,74.4484226 C66.4236244,74.009978 66.3192957,73.7669846 66.0129127,73.7933969 C65.9865004,73.5754952 65.9019809,73.4988995 65.8795304,73.703595 C65.4146735,73.5807777 65.2760088,73.1172414 64.9128393,72.8808511 C64.6024945,72.6787968 64.4955246,72.7065297 64.2261189,72.5916361 C64.3793103,72.5467351 63.3796038,71.8058694 63.2845194,71.7015407 C62.8183419,71.1865004 62.9068232,70.7374908 62.0748349,70.7876742 C61.7129861,70.8101247 61.4118855,71.0676449 61.0487161,71.0821717 C60.7542186,71.0940572 60.5191489,70.8920029 60.247102,70.898606 C59.3200293,70.9170946 59.8641233,71.1283933 59.2804109,71.7438004 C59.6066031,71.3344094 59.3490829,70.6582539 58.770653,70.9567131 C59.5617021,70.4482759 60.3844461,70.8801174 61.234923,70.7295671 C62.0431401,70.5869406 62.570066,70.0362436 63.2541453,70.733529 C63.8325752,71.3238445 63.6754219,71.772854 64.6275862,71.7715334 C64.9815114,71.7702128 65.1994131,71.5364637 65.5731475,71.7015407 C65.9574468,71.8719002 66.2915627,72.2641233 65.8412326,72.6233309 C66.9848863,71.9524578 64.8309611,69.8988995 64.4347762,69.3402788 C63.7071167,68.3154806 62.3191489,65.8353632 64.2789435,65.322964 C64.3938371,65.2925899 63.3518709,64.6983125 63.3743213,64.7115187 C63.1511372,64.5847395 62.3376376,64.2268525 62.859281,63.9072634 C61.2322817,63.4014674 61.3366104,60.9953045 60.0965517,60.0325752 C59.3081438,59.4211299 56.1545121,59.0645635 55.948496,58.0344828 C55.8824652,58.4966985 55.7477623,58.7159208 55.3462949,58.9655172 C55.5747616,58.8545855 55.817755,58.5746148 55.7094644,58.2972854 C55.6236244,58.3342627 55.5377843,58.3712399 55.4519442,58.4068966 C55.9181218,58.1533382 55.4202494,57.6290536 55.6368305,57.3781365 C54.705796,56.8829054 54.4245048,55.6877476 54.2567865,54.7316214 C54.1894351,54.3446809 54.2132062,52.9501101 53.5066764,53.1614087 C54.0534116,52.8972854 52.888628,50.916361 52.4884813,50.9084373 C53.3561262,51.2623624 52.661482,48.5973588 52.1979457,48.4137931 C52.3300073,48.338518 52.4356566,48.3688921 52.5148936,48.5075569 C51.9879677,48.1668379 52.303595,46.5451211 52.1121056,45.9072634 C52.0275862,45.6246515 51.9417461,45.1465884 51.7291269,44.9352898 C51.5165077,44.7239912 50.923551,44.7530448 50.8218635,44.6104182 C50.9143067,44.5866471 51.0067498,44.562876 51.1005136,44.5404255 C50.9446809,44.3898753 50.8165811,44.2181952 50.7162142,44.0253852 C50.7056493,44.7807777 49.8829054,43.4139398 49.7772561,43.3558327 C49.8591343,43.4311079 49.9647836,43.4548789 50.094204,43.427146 C49.5844461,43.2818782 49.4286134,42.4710198 48.8647102,42.4644167 C48.9663977,42.4432869 49.0667645,42.4432869 49.1684519,42.4644167 C48.7326486,41.0962583 48.1027146,40.4729274 46.7794571,40.1005136 C46.1957447,39.9367572 45.8748349,39.5683052 45.3426266,39.338518 C45.1524578,39.2566398 44.9187087,39.2328687 44.7430668,39.1483492 C43.922964,38.760088 44.6466618,39.4388848 44.3508437,38.8881878 C44.370653,38.9542186 44.4036684,39.014967 44.4472487,39.0677916 C44.1144534,38.5382245 43.6680851,38.2318415 43.0183419,38.316361 C42.7489362,38.3520176 41.9446809,38.5712399 42.3303008,38.9727073 C41.9433602,38.9462949 41.4877476,39.6382979 41.0915627,39.7347029 C40.5223771,39.8733676 40.1618489,39.6264123 39.7194424,39.2856933 C39.7590609,39.3371974 39.7986794,39.3887014 39.8382979,39.4402054 C39.5583272,39.5234043 38.9825385,39.3292737 38.5282465,39.2962583 C37.9630227,39.2539985 37.4176082,39.1655172 36.8589875,39.0849596 C36.619956,39.014967 36.375642,38.9859134 36.1260455,38.997799 C35.7272194,39.2315481 35.6096845,39.1325018 35.7707997,38.7019809 C35.6281731,38.7191489 35.632135,38.8234776 35.6017608,38.8683786 C35.8051357,38.560675 34.5505503,37.99281 34.4211299,37.5160675 C34.6429934,37.7352898 35.081438,38.1011005 35.3561262,38.2384446 C35.632135,38.3771093 36.1445341,38.3440939 36.3716801,38.5646368 C36.5776963,38.3467351 36.9382245,38.6029347 37.3449743,38.7680117 C37.9181218,39.0017608 37.7636097,38.9053558 38.3209098,38.7482025 C39.0274395,38.5501101 39.4896552,38.299193 39.9914894,37.7564197 C40.419369,37.2928833 40.9212032,36.3842993 41.6303742,36.3011005 C42.133529,36.2416728 42.3065297,36.5612619 42.8862803,36.419956 C43.2626559,36.3275128 43.9823918,35.9854732 44.1461482,35.6130594 C44.6440205,34.4852531 42.8413793,34.7784299 42.6023478,33.9636097 C42.4478357,34.2145268 42.0754219,34.0058694 41.8680851,34.148496 C42.1705062,33.9160675 42.6300807,33.8500367 42.673661,33.4115921 C42.7317682,32.8212766 42.2840792,32.7327953 41.809978,32.7724138 C40.6306676,32.87146 39.8435803,34.131328 38.6352164,34.2369773 C38.7870873,34.0005869 38.2588408,33.8368305 38.165077,33.7536317 C39.0129127,34.1128393 39.3602348,33.6994864 39.9954512,33.2412326 C40.8683786,32.6126192 41.5009538,32.7090242 42.5244314,32.5914894 C43.9929567,32.4237711 45.3360235,30.548496 45.6384446,29.1460015 C45.3056493,29.2252384 45.0124725,29.1605282 44.8183419,28.8937638 C44.9002201,29.0773294 45.2501834,28.9373441 45.3003668,28.9109318 C45.3848863,28.8660308 45.4403522,28.8739545 45.6358034,28.7273661 C45.7256053,28.6085106 45.7216434,28.5068232 45.6252384,28.4223037 C45.7295671,28.3721203 45.8338958,28.3219369 45.9369039,28.2704329 C46.2274395,27.9455613 46.5615554,27.732942 46.8137931,27.3539252 C47.244314,26.7094644 47.3803375,26.0161409 47.629934,25.3003668 C47.9336757,24.4274395 48.5028613,23.6601614 48.7590609,22.7713866 C48.538518,22.5614087 48.4817315,22.8849596 48.52135,22.4174615 C48.5490829,22.099193 48.6283199,21.9156273 48.7432135,21.6118855 C48.9347029,21.100807 49.2873074,20.5342627 49.1433602,19.9611152 C49.1605282,20.0588408 49.1790169,20.157887 49.1961849,20.2556126 C49.6372707,19.6441673 50.2473955,19.0934703 50.5801908,18.4107117 C50.7267792,18.1096112 50.7743213,17.4360968 50.9354365,17.4994864 C50.6990462,16.4192223 50.1734409,14.5980924 48.8211299,14.4911225 C48.2136464,14.4435803 47.5295671,14.7327953 46.8996332,14.740719 C46.0557594,14.7512839 45.4020543,14.9176816 44.5317682,14.8067498 C43.2507704,14.6429934 42.343507,14.4462216 41.0545855,14.7631695 C40.7270726,14.8437271 40.4035216,14.8754219 40.3137197,14.8582539 C40.0139398,14.802788 39.7181218,14.6377109 39.4460748,14.5109318 C39.2876009,14.4369773 38.9851798,14.1200293 39.0446075,14.3762289 C38.9191489,13.9523111 37.6922964,14.2652971 37.4255319,14.4118855 C37.0425532,14.6218635 37.0755686,15.2108584 36.2264123,15.0325752 C36.4165811,15.0840792 36.5077036,15.1910492 36.5011005,15.353485 C36.409978,15.4406456 36.1577403,15.4010271 36.0481291,15.3970653 C36.4588408,15.0682318 35.6876009,15.0827586 35.4987528,15.1804842 C35.5581805,15.1699193 35.6176082,15.160675 35.677036,15.1501101 C35.5674248,15.3336757 35.4102715,15.4591343 35.2068966,15.5264857 C35.2795304,15.4538518 35.3521643,15.3825385 35.4247982,15.3099046 C34.695818,15.6849596 34.1319149,16.5169479 33.2365371,15.9834189 C33.2497432,16.0560528 33.395011,16.0996332 33.553485,16.1683052 C33.1823918,16.052091 32.9684519,16.034923 32.6079237,16.2488628 C33.2048423,16.4020543 32.3649303,17.1785767 32.1747616,17.3146001 C31.4748349,17.8111519 30.6547322,17.7187087 29.8438738,17.5866471 C29.8201027,17.5826853 30.2677916,17.370066 30.3417461,17.3568599 C30.641526,17.3040352 30.8409391,17.5338225 31.1512839,17.4017608 C31.4708731,17.2657373 31.9066764,16.7757887 31.2648569,16.7361702 C31.7627293,16.9065297 32.014967,16.2 32.5141599,16.3716801 C31.9951577,15.9266324 32.7769626,15.6796772 32.9618489,15.3746148 C33.3012472,14.8159941 33.2616288,14.9388114 32.8297872,14.8793837 C32.7016875,14.8622157 32.4058694,15.0180484 32.2513573,15.0286134 C32.014967,15.0444607 31.7931034,14.9031548 31.5567131,14.9427733 C30.8435803,15.0603081 30.1766691,15.8909758 29.7448276,16.4033749 C30.3602348,15.9253118 30.3853265,15.1184153 31.1261922,14.7512839 C31.4629494,14.5848863 31.8683786,14.6469552 32.2170213,14.4831988 C32.548496,14.3286867 32.7452678,14.0051357 33.1374908,13.9615554 C32.7901687,14.837124 33.3884079,14.3933969 33.7383712,14.0856933 C34.2745415,13.6155539 35.0061629,12.7452678 34.9955979,12.0057227 C34.7724138,12.0506236 33.8387381,12.6937638 33.6459281,12.8390315 C33.718562,12.7545121 33.7911959,12.668672 33.8651504,12.5841526 C33.298606,12.2170213 32.6541453,13.0793837 32.1523111,12.3543654 C32.1681585,12.4296405 32.2104182,12.4903888 32.2777696,12.5339692 C31.9859134,12.6488628 30.4117388,12.0426999 30.459281,11.7072634 C30.6983125,11.9674248 31.8604549,12.3319149 32.1245781,11.9568599 C32.2658841,12.3649303 31.9568599,12.0849596 32.4626559,12.1641966 C32.713573,12.2038151 32.7914894,11.8974321 33.1295671,12.1060895 C33.0239178,11.7323551 33.150697,11.4167278 33.037124,11.0469552 C32.9710932,10.8330154 32.6303742,11.0641233 32.5683052,10.669259 C32.8522377,10.9386647 33.3025679,10.5411592 33.0688188,10.9677183 C33.6472487,10.9413059 34.5320616,9.53352898 34.9097579,9.16639765 C35.6902421,8.40572267 36.67146,7.92369773 37.3713866,7.07190022 C37.7239912,6.64269993 37.9537784,6.21746148 38.4225972,5.89258988 C38.8451944,5.60073368 39.3377843,5.47659574 39.7247249,5.12134996 C40.1909024,4.69347029 40.8234776,3.49038885 40.770653,2.79574468 C39.6230374,3.26456346 40.8181952,0.664269993 40.9819516,0.310344828 C40.4761555,0.141305943 39.624358,0.235069699 39.101394,0.166397652 C39.0895084,0.170359501 38.2297872,0.0198092443 38.3195891,0 C37.4308144,0.202054292 38.7619956,0.640498899 38.0673514,0.929713866 C37.2789435,1.25722671 36.4707263,0.488628026 35.5740279,0.937637564 C35.098606,1.1753485 33.0701394,2.21863536 33.0661775,0.919148936 C32.8826119,1.14761555 32.7465884,1.40117388 32.6567865,1.67982392 C32.5392517,1.60851064 32.4230374,1.53455613 32.3081438,1.45663977 C32.1417461,1.55040352 31.9766691,1.64548789 31.8129127,1.7432135 C31.4946442,1.83169479 31.2133529,1.83961849 31.4404989,2.26353632 C31.3559795,2.06940572 31.2410858,2.04959648 31.0971387,2.20014674 C31.2569332,1.71151871 30.5517241,1.9294204 30.3483492,2.02978723 C29.8636831,2.27146001 29.6893617,2.89875275 29.4437271,3.33851798 C29.5150404,2.63727073 30.1476156,2.23448276 29.5005136,1.59398386 C28.5483492,0.653705062 28.6447542,1.74849596 28.3396919,2.26881878 C28.3291269,2.21203228 28.318562,2.15524578 28.3066764,2.09845928 C27.7837124,2.34013206 27.7625825,3.03477623 27.2026412,3.2434336 C27.4126192,2.9027146 28.0716067,2.31239912 27.9884079,1.90168745 C27.9395451,1.66001467 27.1735877,0.966691123 26.9305943,0.944240646 C27.1669846,1.16082172 26.9609685,2.04695525 26.7853265,2.23844461 C26.7998533,2.08789435 26.7443874,2.05619956 26.6202494,2.14203962 C27.7282465,1.30873074 25.4277329,0.719735877 25.2652971,0.550696992 C25.1583272,0.859721203 25.2098313,1.21892883 25.0460748,1.51078503 C24.8823184,1.79735877 24.4438738,1.98092443 24.3976522,2.34145268 C24.3421864,2.77593544 24.8691123,2.91195891 24.6802641,3.11137197 C25.0434336,3.21702128 25.1939839,3.26192223 25.3617021,3.61056493 C25.1583272,3.3081438 24.3844461,3.04402054 24.3699193,3.63565664 C24.4874541,3.64225972 24.5931034,3.68055759 24.6868672,3.75055026 C24.5851798,3.76771827 24.4848129,3.78356566 24.3831255,3.80073368 C24.5917828,3.83374908 24.8004402,3.84827586 25.0104182,3.84431401 C24.9153338,3.8839325 24.8215701,3.92487161 24.7264857,3.9644901 C24.8598679,4.05165077 24.9655172,4.16522377 25.0434336,4.3052091 C24.8743947,4.22729274 24.2761555,3.94600147 24.0846662,4.0622157 C23.6647102,4.31709464 24.185033,4.54820249 23.8403522,4.73308877 C23.9909024,4.99985326 23.8628026,5.29038885 24.1771093,5.11738811 C24.3633162,5.37490829 24.1269259,5.40264123 24.0912693,5.513573 C24.3131328,5.55319149 24.4782098,5.967865 24.6789435,6.06426999 C25.0579604,6.24783566 25.4990462,6.11709464 25.9031548,6.17916361 C25.7050624,6.16727806 25.5109318,6.19236977 25.3220836,6.25443874 C25.4356566,6.37725605 25.547909,6.50007337 25.6588408,6.62553191 C25.3511372,6.58855466 25.3352898,6.29141599 25.1332355,6.2029347 C25.0988995,6.18708731 24.73573,6.18708731 24.6380044,6.17388114 C24.3316214,6.13294204 23.9327953,5.82655906 23.9275128,6.38650037 C23.617168,6.03389582 23.0400587,6.38253852 22.8287601,6.66382979 C22.753485,6.37725605 22.4523844,6.30990462 22.3203228,6.06559061 C21.9122524,6.36933236 22.5897285,7.66353632 23.0479824,7.54732208 C22.6042553,7.7757887 23.2051357,7.80484226 23.3596478,7.72956713 C23.2645635,7.91709464 23.111372,7.99501101 22.9027146,7.9619956 C23.2672047,8.14159941 23.2579604,8.23404255 22.8763023,8.23668379 C22.9476156,8.33705062 23.014967,8.44005869 23.0809978,8.54438738 C22.9766691,8.7570066 22.8895084,9.31694791 22.5923698,8.81907557 C22.4695525,8.89963316 22.4246515,9.01188555 22.4603081,9.15715334 C22.3823918,8.94057227 22.0971387,8.3595011 21.8330154,8.70418195 C21.5094644,9.12809978 22.1658107,9.47938371 22.3374908,9.64974321 C22.5012472,9.81217902 23.5683052,11.1195891 23.8826119,10.748496 C23.8429934,10.9624358 23.7188555,11.1037417 23.5128393,11.1724138 C24.0358034,11.447102 24.8440205,12.0532649 24.7159208,12.7399853 C24.3025679,11.8749817 23.889215,11.6425532 23.0796772,11.3295671 C23.0585473,11.3216434 21.9769626,10.958474 22.1011005,11.1605282 C22.447102,11.7204696 23.2539985,11.7640499 23.5458547,12.3860602 C22.8432869,12.1060895 21.9914894,10.9439472 21.7009538,12.2553191 C21.2176082,12.0506236 20.6721937,10.8911225 20.2641233,11.4101247 C19.8494497,11.9383712 20.5216434,12.180044 20.647102,12.5854732 C20.7289802,12.8522377 20.47146,13.4372707 20.4635363,13.0820249 C20.392223,13.2233309 20.419956,13.3408657 20.5493764,13.4359501 C20.0290536,13.6683786 19.9762289,11.5487894 19.091416,11.9568599 C18.7005136,12.1377843 18.6278797,13.2233309 18.7903155,13.5548056 C19.0359501,14.0539985 19.9894351,13.9958914 19.8798239,14.6680851 C19.2789435,14.1464417 18.7823918,14.7975055 18.9250183,15.3917828 C18.9857667,15.6440205 19.2644167,15.8949376 19.414967,16.0811445 C19.5060895,16.1933969 20.1043287,16.5446809 19.72135,16.4350697 C20.0277329,17.0755686 20.6959648,16.3809244 21.1304475,16.8114453 C21.0446075,16.7269259 20.4529714,17.2551724 20.0779164,16.8550257 C20.1003668,17.0108584 20.1214967,17.1666911 20.1439472,17.3225238 C19.8837858,17.1653705 19.7253118,16.9395451 19.6672047,16.6450477 C19.562876,16.7123991 19.562876,16.7863536 19.6672047,16.8669112 C19.0095378,16.575055 18.802201,16.052091 18.4575202,16.9989729 C18.3175348,17.3819516 18.2145268,18.4358034 18.8801174,18.375055 C18.7216434,18.5942773 18.7137197,18.8174615 18.8603081,19.0446075 C18.7876742,18.8980191 18.7837124,19.424945 18.8404989,19.5160675 C18.9236977,19.0419663 18.819369,19.6362436 19.0227439,19.6547322 C19.2076302,19.6705796 19.3198826,19.6085106 19.4955246,19.5662509 C19.8111519,19.4883346 20.3288335,19.0274395 20.4490095,18.7250183 C20.5599413,18.9389582 20.2773294,19.5002201 20.4278797,19.5200293 C20.3433602,19.6547322 20.9587674,19.4751284 20.9772561,19.4645635 C21.3325018,19.2876009 21.3998533,18.8002935 21.765664,18.6325752 C21.7735877,19.3589142 20.7131328,19.862069 20.1122524,19.8950844 C20.1373441,19.8356566 20.1611152,19.7775495 20.1862069,19.7181218 C19.6909758,19.8647102 19.5760822,20.4378577 19.9075569,20.7165077 C20.1082905,20.8855466 20.8425532,20.7587674 21.1304475,20.867058 C21.5173881,21.0136464 21.6851064,21.4745415 22.1763756,21.4124725 C21.476449,21.9539252 21.6626559,20.9925165 20.9376376,20.9278063 C20.3763756,20.8776229 20.062069,21.4190756 20.0013206,21.9156273 C19.9220836,22.5653705 20.1016875,22.553485 20.6140866,22.8611886 C20.8227439,22.9866471 21.0630961,23.2547322 21.3047689,23.3194424 C21.6256787,23.4039618 21.8831988,23.0526779 22.2159941,23.2309611 C21.8462216,23.1926632 21.5847395,23.5690389 21.2545855,23.5624358 C20.9336757,23.5558327 20.8702861,23.3181218 20.5995598,23.1979457 C20.1228173,22.9866471 19.1349963,22.9853265 19.1046222,23.7658107 C19.0848129,24.2768892 19.6024945,24.2267058 19.9366104,24.5093177 C20.1188555,24.6625092 20.0026412,24.9055026 20.3314747,25.0111519 C20.6431401,25.1115187 20.960088,24.6162876 21.2506236,24.8962583 C20.6114453,24.9622891 20.5467351,25.2898019 19.9326486,25.0428467 C19.4585473,24.8526779 18.6754219,24.1250183 18.5658107,25.2224505 C18.9078503,25.4416728 18.7903155,25.3796038 18.7903155,25.3796038 C18.4258254,25.2765957 18.137931,26.1495231 18.5658107,26.1548056 C18.3558327,26.2432869 18.1762289,26.3713866 18.0256787,26.5417461 C18.1643434,26.2895084 19.3740279,26.4268525 19.545708,26.494204 C19.2987528,26.5087307 19.1270726,26.6302274 19.029347,26.8573734 C19.52854,27.0435803 19.5192957,26.6447542 19.955099,26.6275862 C19.5826853,26.9458547 17.4168745,27.7078503 19.3476156,27.9217902 C19.2380044,27.925752 18.2158474,28.0947909 18.2145268,28.0789435 C18.2277329,28.2968452 18.5341159,28.3470286 18.5737344,28.5794571 C18.3743213,28.5688921 18.268672,28.4645635 18.2567865,28.266471 C17.8804109,28.634923 18.0375642,27.9653705 17.7311812,27.9455613 C17.5555393,27.9349963 16.9440939,28.1502568 16.7327953,28.1911959 C16.2045488,28.2955246 15.0569332,28.5847395 15.8968452,29.3282465 C16.0117388,29.429934 17.2557594,29.46427 17.4366838,29.4827586 C17.904182,29.5303008 18.2699927,29.5421864 18.7256053,29.3889949 C19.125752,29.2529714 19.1825385,29.1143067 19.6236244,29.1169479 C19.8481291,29.1182685 20.8584006,29.3044754 21.0274395,29.3942773 C20.5295671,29.4167278 17.6162876,29.1710932 18.6925899,30.3028613 C16.1424798,28.5530448 18.4231842,32.8529714 19.380631,31.1559795 C18.0534116,32.9361702 22.6227439,31.0120323 21.1066764,30.3807777 C21.7683052,30.6581071 21.9333822,29.9093177 22.2925899,29.577843 C22.4735143,29.4114453 22.7561262,29.3440939 22.9159208,29.1895818 C23.1840059,28.9294204 23.1892883,28.6362436 23.4019076,28.3470286 C23.6066031,28.0683786 24.3448276,27.5150404 24.2735143,27.2971387 C24.1810712,27.0158474 22.9845928,27.244314 22.6214233,26.8666178 C23.2711665,27.0211299 23.9473221,27.0396185 24.5851798,27.2469552 C24.037124,27.7316214 23.5247249,28.3985326 23.3028613,29.106383 C24.1493764,29.2133529 24.3804842,29.2754219 25.2600147,28.9862069 C24.4227439,29.4629494 23.2790902,29.2080704 22.6980191,30.0083639 C22.3916361,30.4296405 22.3190022,31.0648569 21.99281,31.4874541 C22.192223,31.4214233 22.3097579,31.5865004 22.5118122,31.5917828 C22.804989,31.5997065 23.0823184,31.3131328 23.32135,31.1929567 C23.0717535,31.6340426 21.8924431,31.8823184 22.1050624,31.5297139 C21.8673514,31.5138665 21.6996332,32.0883346 21.5292737,32.3260455 C21.5966251,32.3247249 21.6468085,32.2956713 21.6811445,32.2362436 C21.6771827,32.2969919 21.6719002,32.3564197 21.6679384,32.417168 C21.7933969,32.2851064 21.8858401,32.1332355 21.9452678,31.9615554 C22.0377109,32.1887014 22.0667645,32.3273661 22.0535583,32.5716801 C22.7944241,32.3471753 23.4719002,32.9612619 24.0688188,32.2771827 C24.3223771,31.9866471 24.3818048,31.0529714 24.9417461,31.116361 C24.4636831,31.1110785 24.395011,32.0275862 24.1705062,32.3101981 C23.7980924,32.7803375 23.531328,32.7565664 22.9198826,32.7143067 C22.412766,32.6799707 21.9848863,32.5016875 21.5754952,32.9044754 C21.3721203,33.1052091 20.9719736,33.9781365 21.1462949,34.2250917 C21.3311812,34.0124725 21.5530448,34.1603815 21.720763,33.9464417 C21.493617,34.2726339 21.0644167,34.1590609 20.8412326,34.4561996 C20.5705062,34.8140866 20.6655906,35.2432869 20.5361702,35.6460748 C21.0657373,35.5206163 21.0961115,35.387234 21.4368305,35.562876 C21.2162876,35.6473955 20.9957447,35.7305943 20.7752018,35.8124725 C21.1542186,36.1201761 20.5982392,37.0591343 20.392223,37.3219369 C20.6827586,37.1727073 20.8980191,36.4727806 21.2915627,36.5269259 C21.118562,36.8927366 20.7276596,37.2757153 20.8214233,37.7194424 C21.0723404,37.4606016 21.0314013,38.0628026 21.0789435,38.1169479 C20.6074835,37.3945708 19.6355099,39.5392517 19.6170213,39.9327953 C19.6804109,39.8284666 19.7094644,39.8020543 19.817755,39.7452678 C19.6922964,39.9103448 19.6513573,39.9895818 19.7887014,40.1810712 C19.9366104,39.8284666 19.9062362,39.4652971 20.158474,39.1536317 C20.1228173,39.2487161 20.0884813,39.3424798 20.0528247,39.4375642 C20.1452678,39.3834189 20.602201,38.8036684 20.6708731,38.7283933 C20.6933236,38.7033015 20.505796,38.7587674 20.4873074,38.7495231 C20.5771093,38.6887748 20.6774762,38.6478357 20.7884079,38.6280264 C20.8148202,38.6095378 20.7065297,38.8142333 20.5242847,38.9713866 C20.6140866,38.9146001 20.7052091,38.856493 20.795011,38.7997065 C20.4701394,39.2896552 19.52854,40.1533382 19.8824652,40.832135 C20.0356566,40.5336757 20.4054292,40.2484226 20.6761555,40.0648569 C20.6338958,40.3461482 19.4717535,42.5634629 20.4582539,42.1448276 C20.3895818,42.2861335 20.3631695,42.4353632 20.3790169,42.5911959 C21.0446075,42.5000734 21.4289068,41.6773294 21.7881145,41.2085106 C21.4619222,42.1725605 20.6008804,42.7945708 20.1360235,43.6754219 C19.5311812,44.8230374 19.7847395,46.1832722 19.3106383,47.3744681 C18.9619956,48.2513573 18.4561996,49.1256053 19.7979457,48.9829787 C20.7091709,48.8865737 21.982245,47.8208364 20.4978723,47.2846662 C21.0749817,47.3322084 21.4566398,45.8478357 21.5305943,45.4358034 C21.7075569,44.4519442 21.3668379,43.7691856 22.095818,42.9094644 C22.3639032,42.5938371 22.7191489,42.4749817 22.7297139,42.019369 C22.7402788,41.5003668 22.1605282,41.3577403 22.0205429,41.0539985 C21.8145268,40.6063096 21.6085106,39.1589142 21.8132062,38.7033015 C21.8660308,38.8789435 21.9452678,39.0400587 22.0509171,39.1892883 C22.4101247,38.9885547 22.6966985,38.6768892 22.6253852,38.2358034 C22.7310345,38.3533382 23.7862069,37.1779897 23.9393984,37.0327219 C24.3276596,36.6629494 24.4676449,36.0303742 24.8347762,35.7068232 C25.0024945,35.8454879 25.1741746,35.8441673 25.3471753,35.7028613 C25.5294204,35.5721203 25.7129861,35.4440205 25.899193,35.3198826 C25.1860602,36.5388114 23.7016875,37.2638298 22.987234,38.5553925 C22.6319883,39.1985326 22.5131328,39.7465884 22.6214233,40.4676449 C22.7574468,41.3643434 22.9304475,41.2137931 23.6369773,41.67865 C23.6884813,41.3049156 23.4230374,40.9826853 23.4428467,40.6102715 C23.4586941,40.3170946 23.7109318,39.8324285 23.7558327,39.4719002 C23.7360235,39.8297872 24.4702861,40.7251651 24.6142333,40.6419663 C24.7581805,40.5587674 24.1929567,39.6937638 24.298606,39.0704329 C24.3236977,39.5234043 24.877036,41.0856933 25.2626559,41.1094644 C25.8146735,41.1741746 26.1355833,39.537931 25.5624358,39.3015407 C26.3640499,39.486427 25.9718269,37.2281731 26.0510638,36.7421864 C26.2134996,37.0287601 25.9388114,37.5953045 26.3297139,37.7498166 C26.6585473,37.294204 26.7707997,36.5599413 27.3082905,36.2680851 C26.9253118,36.7963316 25.4528247,38.9040352 26.5832722,39.4032282 C27.5658107,39.8363903 26.4498899,38.4378577 26.5991196,38.0548789 C26.7509905,38.4101247 26.7879677,38.7680117 27.0507704,39.0519442 C27.1775495,39.1879677 28.0148202,39.4111519 27.6120323,39.5762289 C28.2591343,39.9776963 29.3143067,40.0582539 29.8201027,40.6261189 C29.4120323,40.0529714 28.2459281,40.1982392 27.6318415,40.0556126 C26.7985326,39.861482 26.2768892,39.7267792 26.1923698,40.7436537 C26.1646368,41.0817315 26.2729274,41.4198092 26.2821717,41.7565664 C26.2980191,42.2636831 25.9823918,42.7879677 26.0365371,43.2581071 C26.1355833,44.1165077 27.1141599,44.3634629 27.6833456,44.7675715 C27.6397652,44.6381511 28.2406456,45.6616288 27.7771093,45.516361 C28.3304475,46.737931 28.1389582,46.5411592 27.3452678,47.532942 C26.5991196,48.4652971 26.4974321,49.7066764 25.8582539,50.7103448 C25.2969919,51.5938371 24.7212032,52.2567865 25.0236244,53.3278063 C25.1371974,53.7305943 25.4475422,55.0327219 24.6802641,54.0211299 C24.5891416,53.8996332 24.6300807,52.472047 23.9354365,53.2274395 C23.6409391,53.5483492 23.9618489,54.5955979 24.1123991,54.925752 C24.4755686,55.7234043 25.2930301,56.1869406 25.5624358,57.0506236 C25.7222304,57.5643434 25.5967718,58.5680117 26.4617755,58.2114453 C26.0669112,58.1071167 26.3376376,57.9261922 26.3046222,57.7294204 C26.2768892,57.5643434 26.1619956,57.3834189 26.0669112,57.1443874 C25.9018342,56.7310345 25.5175348,56.0641233 25.7671313,55.6164343 C26.2491563,54.7501101 26.8275862,55.2083639 27.3888481,55.6732208 C28.0438738,56.2173147 28.6658841,56.9410125 29.4318415,57.3319149 C29.6497432,57.4428467 29.9785767,57.6726339 30.2360968,57.5352898 C30.669259,57.304182 30.1555393,55.9994131 30.4738078,56.1195891 C30.5530448,55.7564197 29.9983859,55.6164343 29.9112252,55.3272194 C29.7923698,54.9349963 30.1053558,54.743507 30.0512106,54.3618489 C30.3338225,55.2585473 30.7603815,55.4579604 31.6055759,55.0472487 C31.0601614,55.8330154 32.1364637,55.9901687 32.4903888,56.4352164 C32.6924431,56.1090242 32.4481291,55.7154806 32.7743213,55.407777 C32.6026412,55.8990462 32.7848863,56.3929567 33.3118122,56.4629494 C33.5653705,56.4972854 34.0302274,56.1671313 34.1834189,56.0139398 C34.5096112,55.6851064 34.7618489,55.7947175 34.3022744,55.345708 C34.3577403,55.3589142 34.565077,55.3126926 34.6760088,55.3826853 C34.6231842,55.2413793 34.6112986,54.8108584 34.627146,54.7540719 C34.7895818,55.1951577 34.8252384,55.1093177 35.081438,55.1027146 C35.2689655,55.0895084 36.0930301,54.9812179 36.0639765,54.9917828 C36.8431401,54.7091709 36.6767425,53.8230374 36.506383,53.0966985 C36.6146735,53.4849596 37.6922964,54.0818782 37.6038151,53.3383712 C37.9973588,53.7477623 38.7989729,53.6209831 39.3074101,53.6038151 C39.5451211,53.5958914 40.5831255,53.3898753 40.7851798,53.5509905 C40.5487894,53.5734409 40.4167278,53.7068232 40.3876742,53.955099 C40.6016141,53.8811445 40.7244314,53.9445341 40.9489362,53.9841526 C40.5593544,53.9326486 40.2014674,54.1505503 39.8118855,54.1214967 C39.5319149,54.1003668 39.4883346,53.8771827 39.1713866,53.9260455 C38.4014674,54.0435803 38.85708,54.4437271 39.3562729,54.5427733 C39.0300807,54.4622157 38.839912,54.7104916 38.9191489,55.0142333 C38.409391,54.1545121 38.0132062,55.1819516 37.8269993,55.6560528 C37.4889215,56.5197359 37.012179,57.3134263 36.6873074,58.1797506 C36.4377109,58.8440205 36.0573734,59.6812913 36.2594277,60.3838591 C36.444314,61.024358 37.2327219,61.881438 37.7622891,62.2710198 C37.8573734,62.1151871 37.7530448,62.108584 37.6830521,61.9421864 C37.7438004,61.9844461 37.8507704,62.1297139 37.8943507,62.1693324 C37.659281,62.704182 37.8573734,63.9865004 38.5084373,64.2466618 C38.9099046,64.4064563 39.6203962,63.9125459 39.3430668,63.4212766 C39.6956713,63.8689655 39.3721203,64.1832722 39.2783566,64.6256787 C39.232135,64.8435803 39.2466618,65.9647836 39.4830521,65.4748349 C39.4355099,65.5250183 39.6758621,65.8868672 39.958474,66.0479824 C39.9214967,65.2939105 41.259281,64.5702128 40.7455613,63.795011 C41.3173881,63.9508437 40.9212032,64.8013206 41.6303742,64.755099 C41.9195891,64.7366104 42.73573,63.8544387 42.6498899,63.5797506 C43.0606016,63.8438738 42.3289802,64.1396919 42.2880411,64.3549523 C42.2510638,64.5477623 42.5191489,65.2054292 42.8215701,65.1618489 C42.3923698,65.7931034 41.3979457,66.3292737 42.1018342,67.0265591 C42.3355833,66.8126192 42.3633162,66.6066031 42.4253852,66.2672047 C42.525752,66.5141599 42.0397652,67.2352164 42.3474688,67.3567131 C41.5009538,67.6644167 41.1166544,67.7238445 41.4481291,68.7380778 C41.207777,68.5003668 41.0519442,68.2085106 41.1311812,67.8625092 C40.804989,67.8255319 39.9254585,71.2987528 42.4874541,70.3439472 C42.3104916,70.4760088 42.326339,70.5975055 42.5336757,70.7071167 C41.9090242,70.3716801 41.2870139,71.0531181 41.0347762,71.4083639 C40.4629494,72.2139398 40.3242847,72.698606 40.6478357,73.6283199 C40.8644167,74.2516508 41.1562729,75.1126926 41.6911225,75.5286867 C42.4729274,76.1374908 42.866471,75.4481291 43.6971387,75.5141599 C43.2137931,75.6264123 42.7330888,76.2933236 42.2550257,76.2999266 C41.503595,76.3118122 41.3754952,75.5471753 41.0268525,75.0955246 C40.7772561,74.7719736 40.1763756,74.0812913 39.782832,74.7508437 C39.5305943,75.1787234 40.0760088,75.7862069 40.3044754,76.0939105 C40.2582539,76.0516508 40.7112252,76.9153338 40.543507,77.1332355 C40.1103448,76.8598679 39.6705796,76.5666911 39.3060895,76.2048423 C39.1278063,76.0265591 38.9270726,75.5788701 38.6774762,75.4956713 C38.4014674,75.4032282 36.9857667,75.7954512 37.222157,76.2272927 C37.0676449,75.8588408 36.1683052,76.3184153 35.8922964,76.2906823 C35.2874541,76.2325752 34.8054292,75.5603815 34.1609685,75.7452678 C34.4699927,75.9710932 34.9533382,76.5798973 34.6826119,76.990609 C34.7314747,75.9169479 33.6459281,76.6908291 33.2484226,76.8849596 C32.4613353,77.2705796 30.5490829,77.547909 30.7075569,78.8817315 C30.6969919,78.7919296 30.0485693,79.9593544 29.8663243,80.160088 C29.6933236,80.3502568 28.9471753,81.357887 28.7305943,80.8771827 C28.5668379,81.1360235 26.6691123,82.8977256 27.4073368,83.07865 C27.6067498,82.4196625 28.8719002,82.476449 29.0211299,83.1446809 C29.5401321,82.7022744 29.2469552,81.8755686 30.0934703,81.732942 C30.5253118,81.5216434 32.1826853,81.5084373 32.765077,81.2284666 C32.5986794,81.4397652 32.3517241,81.6523844 32.0572267,81.5955979 C32.1417461,81.8636831 32.2090976,82.8145268 32.190609,82.504182 C31.8921497,82.6877476 32.2157007,83.2688188 32.3754952,83.4286134 C32.7796038,83.8314013 33.0159941,83.6319883 33.5138665,83.6425532 C33.570653,83.6029347 32.5801908,84.2843727 32.8456346,83.952898 C32.7796038,84.5339692 32.0189288,85.2035216 32.4428467,85.8136464 C32.7848863,86.3049156 33.2338958,85.9126926 33.7251651,86.0724872 C33.429347,86.1490829 33.0873074,86.6628026 32.7597946,86.355099 C32.8258254,88.0890682 32.0255319,89.61438 30.5398386,90.499193 C30.022157,90.8068966 29.4569332,91.3602348 28.8917095,91.5239912 C28.4334556,91.6560528 27.5671313,91.3087307 27.8206897,92.1592076 C27.6120323,91.0115921 26.4010271,92.7561262 26.6572267,92.9766691 C26.1976522,93.0677916 25.7948643,93.1140132 25.3405723,93.2183419 C25.3617021,93.1338225 25.4145268,93.094204 25.4990462,93.100807 C25.1200293,92.3176816 24.6366838,93.2949376 24.4782098,93.4613353 C24.1705062,93.7875275 23.7545121,93.9697726 23.3702128,94.1876742 C23.1602348,94.2959648 22.952898,94.4095378 22.7468819,94.5270726 C22.9198826,94.6961115 22.9198826,94.8677916 22.7468819,95.042113 C23.2870139,94.980044 24.45708,94.7951577 24.4966985,95.7037417 C24.5165077,96.1672781 23.7320616,96.7404255 23.2632428,96.6466618 C23.3239912,96.6876009 23.9618489,97.4416728 24.0529714,97.2356566 C24.1176816,97.0890682 23.8984593,96.9055026 23.9644901,96.7641966 C24.133529,97.1339692 24.4636831,96.9451211 24.525752,96.6400587 C24.3025679,97.2303742 25.9123991,97.1194424 26.1659574,96.8843727 C25.8674982,97.0362436 25.8503302,97.1432135 26.1144534,97.2052825 C26.0365371,97.1643434 25.4673514,97.1088775 25.4752751,97.2818782 C25.6179017,97.313573 25.7103448,97.313573 25.9084373,97.3914894 C25.5901687,97.358474 24.6868672,97.0745415 24.9430668,97.3914894 C24.7093177,97.3624358 24.5165077,97.1537784 24.2946442,97.3597946 C24.7713866,97.5552458 24.8849596,98.267058 25.4092443,98.3687454 C25.6984593,98.4242113 25.8358034,98.239325 26.0510638,98.1548056 C26.2966985,98.0584006 26.5753485,97.9685987 26.8487161,97.8721937 C27.5975055,97.609391 27.3082905,97.3782832 27.8338958,96.9028613 C28.4347762,96.3587674 29.2548789,97.0230374 29.8372707,96.5264857 C29.7144534,96.3297139 29.5863536,96.1382245 29.4529714,95.9493764 C29.6721937,96.0497432 29.6510638,96.3217902 29.9099046,96.3521643 C30.1938371,96.3851798 30.32854,95.9203228 30.5702128,95.8476889 C29.970653,96.1276596 30.4473955,96.5661042 30.7881145,96.8038151 C29.9455613,96.4815847 30.5160675,97.3809244 30.9096112,97.5169479 C31.0429934,97.5631695 31.3639032,97.3492296 31.6333089,97.3716801 C31.9845928,97.4007337 31.9845928,97.767865 32.5683052,97.5988261 C32.1245781,97.8312546 31.481438,98.4532649 31.3308877,97.7744681 C31.2318415,97.9989729 30.9545121,98.0729274 30.8765957,98.3172414 C30.8092443,98.52854 31.0126192,98.676449 30.7749083,98.8613353 C31.1988261,98.965664 31.6267058,99.044901 32.0519442,99.1426266 C31.8195158,98.6883346 33.2510638,98.8454879 33.4346295,98.80719 C32.7703595,98.3093177 34.4818782,98.2340426 34.565077,98.0134996 C34.5703595,98.3093177 34.5769626,98.6130594 34.9744681,98.5985326 C34.6680851,98.5615554 35.0220103,99.3222304 35.2280264,99.5718269 C35.4155539,99.7989729 35.6545855,99.8082172 35.8685253,99.970653 C35.9622891,99.9772561 36.0573734,99.9838591 36.1511372,99.9904622 C36.1234043,100.203081 36.1973588,100.357594 36.3743213,100.452678 C36.8603081,100.916214 38.6167278,101.530301 39.0683786,100.941306 C39.1859134,100.912252 39.1964784,100.94923 39.1000734,101.050917 C39.5517241,100.838298 40.0680851,100.583419 39.8475422,99.9957447 C39.9743213,100.102715 40.0126192,100.122524 40.0469552,100.080264 C40.4246515,99.612766 41.6264123,99.295818 41.2962583,98.6090976 C41.4111519,98.772854 41.417755,98.9418929 41.3160675,99.1148936 C41.8746882,99.3129861 44.0893617,98.8824652 43.809391,97.9818048 C43.9982392,98.3938371 44.0972854,97.8378577 44.4459281,97.5011005 C44.7655172,97.1933969 45.7322084,96.3363169 45.7797506,96.1791636 C45.8088041,96.0853999 45.5380778,96.0180484 45.5605282,95.9837124 C45.8669112,95.5214967 45.8167278,96.0563463 46.3278063,95.819956 C46.2947909,95.7499633 46.2617755,95.6812913 46.2287601,95.6112986 C46.6645635,96.2306676 45.7969186,95.7512839 45.6820249,95.916361 C45.7256053,96.0457814 45.7427733,96.0708731 45.8378577,96.1712399 C46.1732942,96.3614087 45.1458547,96.9992663 45.0652971,97.0903888 C44.4181952,97.8365371 44.0774762,98.8111519 43.4435803,99.5718269 C43.4290536,99.5599413 43.5030081,99.7369039 43.6284666,99.8372707 C42.7885547,99.2694057 40.5131328,101.622744 41.3807777,102.285693 C41.293617,102.058547 41.1470286,101.868379 40.8776229,101.863096 C41.5220836,102.180044 40.9449743,103.425385 41.0162876,103.232575 C39.8950844,104.366985 37.6672047,103.339545 36.4509171,103.214087 C35.4604549,103.112399 34.451504,102.972414 33.4531181,103.05033 C32.9763756,103.087307 32.1668379,103.126926 31.7732942,103.438591 C31.3744681,103.487454 31.288628,103.636684 31.5170946,103.88628 C31.5210565,104.109464 31.4074835,104.200587 31.175055,104.160968 C31.3955979,104.476596 31.2793837,104.9573 31.6993397,105.103888 C32.0585473,105.229347 31.7970653,105.270286 31.6372707,105.729861 C31.867058,105.103888 31.3969186,105.447249 31.2476889,105.488188 C31.106383,105.526486 31.0311079,105.794571 30.8871607,105.865884 C30.3998533,106.107557 30.5200293,105.94248 30.0789435,105.933236 C29.5599413,105.92135 29.2628026,105.637417 28.8930301,106.180191 C28.6447542,106.546001 28.7820983,107.160088 28.7847395,107.569479 C28.7953045,108.847836 28.012179,109.520029 27.2105649,110.456346 C27.024358,110.674248 26.9187087,110.89347 26.6519442,111.032135 C26.4895084,111.116654 26.0576669,111.051944 25.9480558,111.173441 C25.4726339,111.705649 26.2782098,111.74923 26.5370506,112.019956 C26.4076302,111.906383 25.8846662,111.837711 25.7631695,111.994864 C25.7909024,111.803375 25.7737344,111.615847 25.7103448,111.432282 C25.5201761,111.659428 25.2441673,111.773001 24.9496698,111.72942 C25.4237711,112.248423 24.718562,113.221717 24.2761555,113.381511 C24.395011,113.415847 24.5138665,113.450183 24.6327219,113.48584 C24.0358034,113.319442 23.765077,114.344241 23.4877476,114.669112 C23.2447542,114.954365 22.9542186,115.060015 22.6636831,115.292443 C22.2701394,115.60675 22.1460015,115.939545 21.8237711,116.285547 C21.2096845,115.140572 19.1389582,116.687014 19.7438004,117.66427 C20.0422597,118.146295 20.4265591,117.948202 20.7831255,117.632575 C21.3721203,117.109611 20.9151871,116.894351 21.8118855,117.141306 C22.2384446,117.258841 22.7376376,117.445048 22.9898753,117.817461 C23.2262656,118.166104 23.0796772,118.786794 23.634336,118.856787 C23.9671313,118.899046 24.6314013,118.280998 24.6683786,117.977256 C24.787234,117.027733 24.0767425,117.694644 23.6475422,117.338078 C23.9618489,117.466178 24.0767425,117.400147 23.992223,117.141306 C24.009391,117.658988 24.8215701,116.709464 24.9641966,116.723991 C24.8625092,116.562876 24.7172414,116.462509 24.5270726,116.424211 C24.6459281,116.426853 24.7647836,116.428173 24.8823184,116.430814 C24.8242113,116.244607 25.1200293,115.752018 24.9496698,115.670139 C25.1371974,115.771827 25.076449,116.220836 25.0553191,116.580044 C25.1464417,116.557594 25.224358,116.510051 25.286427,116.440059 C25.2164343,116.557594 25.2283199,116.65796 25.20719,116.791343 C25.6495965,116.517975 26.1831255,115.087748 26.8658841,115.774468 C26.9649303,115.626559 27.5869406,113.392076 27.8774762,114.620249 C27.9910492,114.500073 28.125752,114.411592 28.2815847,114.356126 C28.2287601,114.377256 28.1746148,114.398386 28.1217902,114.418195 C28.5047689,114.504035 31.6478357,113.345855 31.4154072,114.634776 C31.7640499,114.543654 31.7838591,114.354806 31.8195158,114.028613 C31.7165077,114.072194 32.0057227,114.057667 32.3543654,114.0854 C32.3675715,114.093324 32.1985326,114.659868 32.8033749,114.624211 C32.3913426,114.797212 33.6261189,114.990022 33.73573,114.402348 C33.5310345,114.75099 33.9840059,115.190756 34.3115187,114.914747 C33.8360968,115.293764 34.6469552,116.001614 34.9256053,115.848423 C35.2068966,115.69391 35.047102,115.144534 34.9916361,115.024358 C35.0563463,115.34923 35.1236977,115.353191 35.3825385,115.184153 C35.2306676,115.248863 34.9837124,115.553925 35.3283933,115.483933 C35.177843,115.52091 34.9150404,115.752018 35.2108584,115.855026 C35.5066764,115.958034 35.7747616,115.740132 36.069259,115.752018 C35.5304475,115.180191 37.3436537,113.718269 35.8975789,113.608657 C36.3399853,113.553191 36.2581071,113.687894 36.557887,113.640352 C36.4086574,113.796185 36.5552458,114.180484 36.8233309,114.17124 C37.0029347,114.164637 37.2380044,113.63639 37.3251651,113.537344 C37.1680117,113.555833 36.6622157,113.558474 36.7559795,113.237564 C36.8286134,112.987968 37.0702861,112.789875 37.3383712,112.770066 C36.819369,112.43595 37.3608217,111.709611 36.5182685,111.803375 C36.9659574,111.644901 37.7543654,111.598679 37.7887014,110.897432 C37.790022,110.860455 37.4294938,110.09978 37.3727073,109.932062 C37.7992663,110.922524 37.8983125,111.074395 38.7818048,110.473514 C39.60719,109.910932 40.7997065,109.451357 41.8179017,109.419663 C42.911372,109.385326 46.0187821,110.546148 45.4218635,112.083346 C46.0016141,111.872047 45.4231842,111.080998 45.6595745,111.08496 C45.2330154,110.756126 47.017168,110.761409 47.2245048,110.799707 C47.6920029,110.885547 48.1291269,111.234189 48.5953045,111.268525 C49.3903155,111.325312 49.1882612,110.923844 49.6940572,110.501247 C49.4497432,110.416728 49.3837124,110.256933 49.4959648,110.021864 C49.1842993,110.326926 49.0601614,109.854145 48.7352898,110.161849 C48.9439472,109.961115 48.9241379,109.924138 48.6758621,110.053558 C48.8158474,110.004696 48.9030081,109.909611 48.9413059,109.772267 C48.7498166,109.753778 48.5820983,109.809244 48.4394718,109.938665 C48.4407924,109.926779 48.7696258,109.472487 48.6903888,109.45796 C48.6758621,109.484373 49.1988261,109.657373 49.1935437,109.657373 C49.1275128,109.559648 49.061482,109.461922 48.9954512,109.365517 C49.1895818,109.666618 49.7349963,109.605869 49.4787968,109.975642 C49.9436537,109.551724 50.696405,109.938665 51.150697,109.52135 C51.009391,109.583419 52.1094644,109.389288 52.6522377,109.724725 C52.0368305,109.30741 53.7589142,108.948202 53.9028613,108.821423 C53.7694791,108.747469 53.7100514,108.633896 53.7245781,108.482025 C53.8381511,109.055172 54.461482,108.537491 54.495818,108.315627 C54.5393984,108.030374 53.7074101,107.617021 53.5396919,107.193103 C53.7245781,107.214233 53.8355099,107.315921 53.8698459,107.496845 C53.9979457,107.226119 54.8682318,108.466178 54.6239178,107.517975 C54.7797506,107.795304 54.7440939,108.174321 55.0597212,108.437124 C55.2776229,108.619369 55.7319149,108.820103 55.9141599,108.726339 C56.096405,108.633896 55.7253118,108.068672 55.6170213,107.966985 C56.2205429,108.285253 57.2136464,107.817755 57.6468085,108.15055 C57.3985326,107.965664 57.6639765,108.439765 57.7062362,108.501834 C57.7458547,108.349963 57.7405723,108.200734 57.6930301,108.051504 C57.8,108.158474 57.9030081,108.268085 58.0046955,108.381658 C58.0350697,108.276009 58.0522377,108.167718 58.0575202,108.056787 C58.0746882,108.421277 58.3612619,108.49391 58.5144534,108.146588 C58.4669112,108.703888 57.5860602,108.314307 57.8264123,108.970653 C57.9597946,109.336464 58.8498899,109.580778 58.9832722,109.104035 C58.9040352,109.076302 58.8247982,109.048569 58.7455613,109.020836 C58.918562,108.791049 58.9278063,108.931034 58.9898753,109.068379 C59.6105649,108.462216 60.7951577,108.537491 61.582245,108.446368 C61.7961849,108.421277 63.0903888,108.067351 62.7272194,108.162436 C63.5037417,108.118855 64.2419663,108.435803 64.9683052,108.66427 M9.41658107,10.6296405 L9.39016875,10.5807777 C9.60278797,10.8 9.90256787,10.8858401 10.1970653,10.7920763 C10.0861335,11.1209098 10.5087307,11.0852531 10.693617,11.1103448 C10.6275862,11.1261922 10.5615554,11.1433602 10.494204,11.1592076 C10.5826853,11.3190022 10.7094644,11.4352164 10.8785033,11.5078503 C10.6619222,11.5210565 10.1349963,11.2225972 9.94482759,11.4589875 C9.74277329,11.708584 9.80484226,11.8815847 10.1508437,11.980631 C10.0557594,12.100807 9.77182685,11.9317682 9.61731475,11.9911959 C9.34790902,12.0928833 8.9002201,12.5498166 8.84871607,12.844314 C8.82758621,12.5933969 8.64005869,12.3715334 8.36537051,12.4785033 C8.48026412,13.1256053 9.27527513,13.6366838 9.66881878,14.1094644 C9.74277329,13.7885547 10.4704329,13.6366838 10.0584006,13.3844461 C10.0716067,13.3765224 10.3713866,13.3289802 10.14292,13.298606 C10.3159208,13.3223771 10.2604549,13.4385913 10.4426999,13.4214233 C10.3502568,12.9710932 10.6223037,13.0873074 10.5219369,12.8628026 C10.7662509,13.0146735 10.6804109,12.8060161 10.6619222,12.5590609 C10.7015407,12.679237 10.9815114,12.9605282 11.130741,12.9248716 C11.1016875,12.7941306 11.0739545,12.6647102 11.044901,12.5339692 C11.1571533,12.6541453 11.2997799,12.7347029 11.375055,12.582832 C11.3882612,12.6198092 11.4014674,12.6581071 11.4159941,12.6950844 C11.4873074,12.5960382 11.0435803,11.6319883 11.0118855,11.5831255 C11.2548789,11.5527513 11.5691856,11.901394 11.8042553,11.7983859 C12.1159208,11.6597212 12.1251651,11.4167278 11.7144534,11.3097579 C12.3681585,11.2437271 11.8016141,10.6705796 11.4899486,10.7366104 C11.9798973,10.555686 11.3658107,10.3668379 11.4080704,10.1819516 C11.4952311,9.79501101 11.7646368,9.59955979 12.0525312,9.29449743 C11.7461482,9.79765224 11.9970653,11.5870873 12.5609685,11.27146 C12.4553191,11.0588408 12.3602348,10.8409391 12.277036,10.617755 C12.3364637,10.7366104 12.7220836,11.2873074 12.8330154,11.3903155 C12.8290536,11.3190022 12.8237711,11.2490095 12.8198092,11.1776963 C13.1644901,11.4114453 13.0561996,10.7801908 13.0324285,10.703595 C13.1842993,11.3876742 13.8472487,10.9386647 13.7997065,10.4645635 C13.7402788,9.87028613 13.1803375,10.067058 12.748496,9.97461482 C13.3269259,9.80689655 13.873661,9.75935437 14.2751284,10.0300807 C14.6039618,9.567865 14.3424798,9.40278797 13.8855466,9.2997799 C14.5762289,9.51768158 14.3860602,8.60777696 14.2170213,8.74908291 C14.3134263,8.56155539 14.2275862,8.55363169 14.1826853,8.35553925 C13.7151871,8.53118122 13.2873074,8.96698459 12.748496,8.68701394 C12.8105649,8.67909024 14.1417461,8.31195891 13.8815847,8.11782832 C13.6900954,8.15612619 13.5527513,8.08217168 13.4682318,7.89200293 C13.5250183,7.92501834 14.3266324,8.21555393 14.4137931,7.97520176 C14.3807777,7.92633896 14.21438,7.88275862 14.0176082,7.94878944 C14.4679384,7.66749817 14.3477623,7.45884079 14.4402054,7.1590609 C14.3702128,7.09699193 14.2434336,7.25942773 14.1681585,7.22112986 C14.1351431,7.086427 14.1655172,6.95832722 14.2606016,6.83815114 C14.7862069,7.73881145 16.1675715,6.84739545 16.2454879,6.07219369 C15.8532649,6.12501834 15.8057227,6.46969919 15.4874541,6.60704329 C15.0569332,6.79325018 14.8509171,6.7219369 14.372854,6.65590609 C15.037124,6.52648569 15.219369,4.97212032 16.0658841,4.87043287 C15.3844461,4.59970653 16.0157007,3.36360968 15.7476156,2.83404255 C15.3184153,1.9862069 14.8799707,2.75348496 14.4164343,3.17608217 C13.9027146,3.64490095 13.3639032,4.20352164 12.7498166,4.54159941 C12.056493,4.92325752 11.3895818,5.08173147 10.7887014,5.76316948 C10.8943507,5.79222304 11,5.8212766 11.1056493,5.85165077 C10.5496698,5.97446809 12.0314013,7.48525312 11.5282465,7.51034483 C11.5044754,7.22773294 11.017168,6.99002201 11.1254585,7.02699927 C11.1809244,6.73910492 10.6209831,6.08804109 10.3053558,6.12237711 C10.2921497,6.30594277 10.3436537,6.46441673 10.4598679,6.59515774 C10.4783566,6.6162876 10.3106383,7.02831988 10.7477623,6.95832722 C10.3317682,7.32017608 10.2921497,7.53675715 10.477036,8.20630961 C10.3132795,7.9619956 10.3106383,6.95304475 9.86823184,7.05209098 C10.2974321,6.86456346 9.95671313,6.69684519 9.74937638,6.48554659 C9.60278797,6.71401321 9.23433602,6.74834923 9.23301541,6.34820249 C9.02303742,6.51724138 8.79589142,6.99002201 9.10227439,7.20264123 C9.28848129,6.97813646 9.23829787,7.21056493 9.27395451,7.13925165 C9.50902421,7.41658107 8.79325018,7.25414527 8.76419663,7.28848129 C8.59251651,7.49053558 8.56214233,7.81408657 8.53705062,8.06368305 C8.49082905,8.51401321 8.60572267,9.59427733 9.18811445,8.82567865 C9.11812179,8.96038151 9.03888481,9.08980191 8.94908291,9.21261922 C9.05077036,9.21261922 9.15245781,9.21261922 9.25414527,9.21261922 C9.13925165,9.25884079 9.02435803,9.30506236 8.91078503,9.34996332 C9.13925165,9.69332355 9.63580337,9.27732942 9.91577403,9.27468819 C9.36639765,9.48466618 8.69684519,9.74746882 8.51327953,10.1991196 C8.65722671,10.1845928 9.35979457,10.8594277 9.41658107,10.6296405 M17.3521643,20.7442406 C17.1699193,20.5118122 16.8674982,20.7376376 16.6971387,20.8366838 C17.4208364,20.46427 16.4805576,20.0139398 16.0487161,20.4444607 C16.5241379,20.044314 16.5056493,18.6167278 15.7713866,19.0472487 C15.8242113,18.5652238 16.2045488,18.1954512 16.2890682,17.7068232 C16.3630227,17.2710198 16.3300073,16.6292003 16.1887014,16.2092443 C16.0183419,15.7087307 15.1295671,14.3854732 14.5352898,14.3696258 C14.747909,14.933529 14.2619222,14.67865 14.1509905,15.0167278 C14.0308144,15.3812179 14.0506236,16.2633896 14.4758621,16.1445341 C14.1945708,16.812766 14.6396185,17.5034483 14.6105649,17.5774028 C14.5973588,17.6130594 14.6224505,17.7794571 14.6488628,17.7820983 C14.4705796,17.5774028 14.3741746,17.1680117 14.190609,17.0491563 C14.1694791,17.3634629 13.8498899,17.5245781 13.9132795,17.8613353 C13.7983859,17.6196625 13.822157,17.3911959 13.9859134,17.1785767 C13.2278797,17.9141599 12.9505503,15.9649303 12.2928833,15.8830521 C12.3166544,16.2052825 12.2730741,16.5182685 12.1608217,16.8206897 C12.3615554,16.4944974 12.8779164,17.3476156 12.8290536,17.5404255 C12.6917095,17.3238445 12.5134263,17.2815847 12.294204,17.4110051 C12.4223037,17.6011739 12.4539985,17.80719 12.3866471,18.0264123 C12.6336023,18.1347029 12.748496,18.3222304 12.7300073,18.5916361 C12.7128393,18.4358034 12.6388848,18.3169479 12.5055026,18.2350697 C12.476449,18.2984593 12.4487161,18.3618489 12.4196625,18.4252384 C12.2559061,18.2601614 12.0142333,17.3581805 11.726339,17.3515774 C11.2812913,17.3436537 11.4384446,17.9709464 11.6325752,18.1848863 C11.2429934,17.9603815 11.0699927,18.2812913 11.0898019,18.6286134 C11.3790169,18.419956 12.0525312,19.6560528 12.4302274,19.7247249 C12.930741,19.8158474 12.6283199,19.7194424 12.8924431,19.4856933 C12.8382979,19.5332355 13.07865,18.8161409 13.0944974,18.7685987 C13.2331621,18.9574468 13.2648569,19.1608217 13.1869406,19.3826853 C13.3388114,19.2545855 13.4338958,19.0934703 13.4708731,18.8980191 C13.5421864,19.2083639 13.6187821,19.5173881 13.7019809,19.8237711 C13.8881878,19.7696258 14.049303,19.6732208 14.1840059,19.5358767 C14.0506236,19.9201761 14.5960382,20.316361 14.8984593,20.4061629 C14.4560528,20.4893617 14.3002201,19.9505503 13.952898,19.8118855 C13.8287601,20.2014674 13.4272927,20.2120323 13.7099046,20.8406456 C13.8644167,21.1813646 14.3966251,21.696405 14.634336,21.12854 C14.5801908,21.4639765 14.1523111,21.6396185 14.4969919,21.9763756 C14.7148936,22.1903155 15.0120323,21.7637564 15.122964,21.9473221 C15.1876742,22.0529714 14.8575202,22.395011 14.7994131,22.4544387 C15.0833456,22.4042553 16.1451211,22.4359501 16.042113,21.9050624 C16.4871607,22.202201 16.3564197,22.7476156 16.6905356,22.9536317 C16.9467351,22.5217902 17.2676449,22.0146735 17.0735143,21.4890682 C17.5344094,22.1757887 17.7853265,22.5270726 18.6278797,22.0569332 C18.0666178,22.8347762 16.7261922,23.1966251 17.2187821,24.5225238 C18.1260455,24.2900954 19.029347,23.1992663 18.9118122,22.2338958 C19.7094644,23.0090976 20.6972854,20.5289802 19.5074101,20.9753485 C19.8600147,20.7349963 18.8088041,21.0294938 18.5948643,21.2117388 C18.506383,21.2883346 17.5911959,20.9713866 17.3521643,20.7442406 M17.3389582,30.8522377 C17.0352164,30.0743947 16.4052825,29.7548056 15.6802641,30.1140132 C15.7132795,30.1602348 15.7462949,30.2064563 15.7793103,30.2526779 C15.7132795,30.1813646 15.6314013,30.1391049 15.5349963,30.1272194 C15.5653705,30.2473955 15.5970653,30.3675715 15.6274395,30.4877476 C15.3619956,30.4454879 15.0820249,30.6396185 14.7875275,30.5062362 C14.7518709,30.7109318 14.8390315,31.0001467 15.1123991,30.9446809 C14.2632428,31.5442406 15.4861335,31.8215701 15.9258988,32.0236244 C16.1807777,32.1411592 16.2890682,32.3564197 16.5663977,32.3669846 C16.7275128,32.3735877 17.2214233,31.9774028 17.3521643,32.1570066 C17.4710198,32.320763 16.0632428,33.1078503 15.9536317,33.3046222 C15.4280264,34.251504 16.5030081,34.2039618 16.837124,33.859281 C16.9916361,33.649303 17.1989729,33.5542186 17.4591343,33.5727073 C17.1831255,33.7470286 17.2201027,33.9992663 16.7526045,34.2184886 C16.3339692,34.4139398 15.7845928,34.4218635 15.3421864,34.313573 C15.4068966,34.7018342 15.4808511,34.7625825 15.037124,34.5882612 C15.1110785,34.5499633 15.1031548,34.6014674 15.2088041,34.5882612 C15.1810712,34.1577403 14.372854,34.1933969 14.355686,34.7969186 C15.1493764,35.5813646 15.2735143,35.2023478 16.2639765,35.0584006 C16.6812913,34.9976522 18.3228173,34.0666178 18.5618489,34.2726339 C18.6278797,34.3294204 18.137931,34.602788 18.2409391,34.7203228 C18.6873074,35.2380044 19.7015407,34.0454879 19.8045488,33.7470286 C19.5166544,33.7536317 19.2472487,33.8302274 18.9976522,33.9741746 C19.1270726,33.8223037 19.5536317,33.6030814 19.3542186,33.3283933 C19.6368305,33.246515 19.693617,33.7747616 19.9735877,33.5172414 C20.1994131,33.3099046 20.0303742,33.0074835 19.7913426,33.1012472 C19.8256787,33.0391783 19.8600147,32.9771093 19.8943507,32.916361 C20.0898019,32.9084373 20.2350697,33.0259721 20.0105649,32.7077036 C19.9418929,32.609978 19.2961115,32.1649303 19.1389582,32.0711665 C18.7454145,31.8374175 18.2224505,31.8743947 17.8487161,31.6115921 C17.5911959,31.4280264 17.5383712,31.0952311 17.3389582,30.8522377 M5.04534116,15.9702128 C5.16287601,16.1894351 5.32134996,16.2303742 5.52208364,16.0930301 C5.46397652,16.4733676 6.0054292,16.5724138 5.95128393,16.1986794 C6.14409391,16.4205429 6.49405723,16.6608951 6.79779897,16.6793837 C6.73573001,16.6873074 6.67366104,16.6965517 6.61291269,16.7044754 C6.68818782,16.7837124 7.45414527,17.903595 7.55319149,17.2591343 C7.64959648,17.3000734 7.72223037,17.3344094 7.81731475,17.370066 C7.76977256,17.3251651 7.71166544,17.2908291 7.63903155,17.2287601 C7.7895818,17.2947909 8.06294938,17.3436537 8.28745415,17.2895084 C8.22142333,17.2895084 8.15539252,17.2895084 8.0893617,17.2895084 C8.92002935,16.802201 7.63639032,16.8286134 7.65355833,16.5380778 C8.03521643,16.7203228 8.57006603,16.5314747 8.60572267,16.069259 C8.48422597,16.1088775 8.13558327,16.148496 8.01804842,16.0877476 C8.36537051,15.9319149 7.98503302,15.9490829 8.22274395,15.8104182 C7.6760088,15.7298606 8.05766691,15.5885547 7.7077036,15.4023478 C8.30726339,15.212179 7.98107117,15.6374175 8.48158474,15.4829054 C8.28481291,15.6096845 8.32839325,15.7404255 8.61364637,15.8777696 C8.90418195,15.5885547 8.94512106,15.1857667 8.46045488,15.1184153 C8.50931768,15.1593544 8.55685987,15.2002935 8.60572267,15.2412326 C8.25840059,15.3283933 8.14482759,15.2716067 7.8780631,15.1421864 C8.57402788,15.1553925 7.86881878,14.6654439 7.95730007,14.5730007 C7.82920029,14.5241379 6.84930301,15.1421864 7.46735143,15.1540719 C7.31151871,15.1514307 7.20322817,15.2201027 7.14247982,15.3587674 C7.08437271,15.2029347 6.97212032,15.1303008 6.80572267,15.1421864 C6.95231108,14.9797506 6.99060895,14.7961849 6.91797506,14.5914894 C6.70799707,14.8556126 6.38708731,15.1104916 6.37520176,15.4815847 C6.05561262,15.3217902 5.88525312,14.9625825 5.49567131,15.212179 C5.259281,15.3640499 5.42435803,15.790609 5.2104182,15.938518 C5.11005136,15.7232575 5.15099046,15.9438004 5.04534116,15.9702128 M5.78488628,21.2883346 C6.7027146,21.7452678 5.68716067,23.2600147 7.16360968,23.2811445 C8.39838591,23.2983125 7.03815114,22.7938371 6.5323551,22.5548056 C6.64064563,22.6063096 7.20851064,22.6512106 6.91005136,22.4359501 C7.33132795,22.8677916 7.30227439,22.1810712 7.20851064,21.9261922 C7.07776963,21.5722671 6.56801174,21.4785033 6.5402788,21.2394718 C6.72516508,21.6475422 7.29831255,21.3504035 7.45810712,21.1879677 C8.06030814,20.5752018 7.513573,20.3190022 7.10946442,19.8937638 C7.34981658,20.0284666 7.5624358,19.9531915 7.66544387,19.6983125 C7.53866471,19.7881145 7.41056493,19.7920763 7.28114453,19.7101981 C7.35774028,19.7154806 7.43565664,19.7168012 7.513573,19.7154806 C7.46999266,19.5979457 7.13983859,19.3615554 7.01702128,19.3179751 C7.1081438,19.3325018 7.19794571,19.3470286 7.28906823,19.3615554 C7.12663243,18.612766 6.16126192,19.0498899 6.03976522,19.5200293 C5.90242113,20.0495965 6.67630227,21.0202494 5.78488628,21.2883346 M28.5351431,76.5059428 C28.9643434,76.9998533 29.419956,77.5611152 29.6801174,78.1685987 C29.8306676,78.0101247 29.987821,77.8582539 30.1489362,77.7116654 C29.9838591,77.9256053 29.8993397,78.1685987 29.8980191,78.439325 C30.1542186,78.3217902 30.3866471,78.3614087 30.5926632,78.5555393 C30.5358767,78.4419663 30.4460748,78.2610418 30.7986794,78.1408657 C31.0482759,77.9295671 31.2873074,77.7077036 31.515774,77.4752751 C31.9832722,77.0183419 32.4164343,76.5270726 32.9011005,76.0873074 C32.424358,75.9829787 32.0110051,76.2708731 31.5448276,76.2920029 C31.6082172,75.9697726 31.3863536,75.1245781 30.8898019,75.3570066 C31.5316214,74.6134996 29.9415994,74.560675 29.5454145,74.6372707 C29.2601614,74.6927366 28.9973588,74.7508437 28.80719,74.9885547 C28.6698459,75.1615554 28.4030814,76.2114453 28.8811445,76.1863536 C28.7649303,76.2920029 28.6500367,76.3989729 28.5351431,76.5059428 M13.1803375,43.5473221 C13.6333089,44.4189288 14.5260455,42.0708731 15.2048423,42.2544387 C14.6105649,42.0933236 15.0133529,43.785033 15.0159941,43.8365371 C15.0410858,44.4902421 14.276449,45.4331621 15.4478357,44.869259 C15.7225238,44.7371974 16.0896552,44.5060895 16.3590609,44.352898 C16.672047,44.1746148 17.0972854,43.8088041 17.1342627,43.5169479 C17.1818048,43.1432135 16.8265591,42.4010271 16.7327953,42.0206897 C16.5743213,41.3762289 16.4264123,40.73573 16.3669846,40.0727806 C15.9391049,40.1176816 15.3831255,40.5653705 15.1308877,40.8849596 C15.0331621,41.007777 14.696405,41.7024211 14.6541453,41.706383 C14.6475422,41.3722671 14.6779164,41.042113 14.7465884,40.7159208 C14.1760822,41.0513573 13.6953778,41.355099 13.5236977,42.0220103 C13.3837124,42.5661042 13.6557594,43.0903888 13.1803375,43.5473221 M17.3521643,39.3358767 C17.3297139,39.4190756 17.308584,39.5022744 17.2861335,39.5854732 C17.7866471,39.6105649 18.1458547,39.6699927 18.5024211,39.3477623 C18.4575202,39.87865 17.7919296,39.6858401 17.4617755,39.8258254 C16.8939105,40.0661775 16.4607483,40.7000734 16.59281,41.331328 C16.7182685,41.9282465 17.2504769,42.2927366 17.6994864,41.7988261 C17.8830521,41.5967718 17.7536317,41.2732208 17.9055026,41.0526779 C18.0203962,40.8862803 18.2369773,41.0196625 18.2831988,40.7476156 C18.2726339,40.8044021 18.262069,40.8611886 18.2501834,40.9179751 C18.444314,40.1427733 20.0739545,38.1658107 19.7055026,37.4368305 C19.3330888,36.6972854 17.6691123,38.9344094 17.3521643,39.3358767 M26.8949376,66.0572267 C26.9266324,66.0677916 28.3053558,65.447102 28.204989,66.1589142 C28.4123258,66.0532649 28.4453412,65.7165077 28.676449,65.4840792 C29.0924431,65.0641233 29.5797506,64.8488628 29.9587674,64.3377843 C30.283639,63.8993397 30.6983125,63.2733676 30.6203962,62.7055026 C30.6032282,62.5840059 30.2400587,62.4743947 30.2017608,62.3344094 C30.0908291,61.9316214 30.4051357,61.6159941 30.3404255,61.2198092 C29.1056493,61.7256053 28.704182,62.3225238 28.039912,63.4688188 C27.6318415,64.1740279 27.4905356,65.5369039 26.8949376,66.0572267 M52.3696258,110.246368 C52.9757887,110.22788 53.4036684,110.392957 53.893617,110.727073 C54.2118855,110.943654 54.4628026,111.305503 54.8920029,111.272487 C55.4308144,111.231548 55.2855466,110.964784 55.5826853,110.683492 C55.7332355,110.540866 56.3869406,110.127513 56.4410858,109.951871 C56.4344828,109.938665 56.0977256,109.516067 55.9986794,109.476449 C55.7913426,109.39193 55.4202494,109.302128 55.2181952,109.45796 C55.2895084,109.197799 54.767865,108.780484 54.7031548,109.207043 C54.6252384,108.684079 53.9253118,109.423624 53.7443874,109.473808 C53.8302274,109.517388 53.9160675,109.560968 54.0019076,109.604549 C53.6651504,109.546442 53.8619222,109.583419 53.632135,109.698313 C53.6651504,109.623037 53.6981658,109.549083 53.7311812,109.473808 C53.4459281,109.520029 53.0167278,109.612472 52.9969186,109.980924 C52.9982392,109.448716 52.5030081,110.169773 52.3696258,110.246368 M6.12956713,18.0026412 C6.55084373,18.8042553 6.62611886,18.5982392 7.4,18.9482025 C7.29303008,18.8438738 7.16757153,18.7725605 7.02362436,18.7342627 C7.53206163,19.0683786 7.65619956,18.567865 7.82259721,18.6048423 C7.75392517,18.4569332 7.63639032,18.38562 7.4726339,18.3895818 C7.513573,18.4556126 7.57300073,18.4899486 7.65091709,18.4939105 C6.73573001,18.4014674 7.34057227,18.4846662 7.31415994,18.1809244 C7.3432135,18.2641233 7.39735877,18.2944974 7.47923698,18.272047 C7.46338958,18.2126192 7.4488628,18.1531915 7.43301541,18.0937638 C7.54130594,18.1782832 7.48187821,18.289215 7.6839325,18.2773294 C7.63639032,18.2231842 7.57696258,18.19281 7.50432869,18.1848863 C7.55979457,18.0409391 7.66016141,18.0079237 7.80807043,18.0871607 C7.62054292,17.948496 7.39603815,17.6922964 7.43169479,18.0316948 C7.01966251,17.6236244 6.55216434,17.5681585 6.12956713,18.0026412 M9.42318415,31.9866471 C9.57769626,32.2203962 9.61731475,32.4713133 9.54203962,32.7420396 C9.75333822,32.6046955 10.1046222,32.7341159 10.3278063,32.6245048 C10.1957447,32.689215 10.562876,32.1847395 10.5470286,32.2045488 C10.7239912,31.9721203 11.9482025,31.5508437 11.3473221,31.2391783 C11.0211299,32.0090976 9.881438,31.3633162 9.42318415,31.9866471 M5.32267058,24.8209831 C5.31210565,24.7364637 4.82876009,25.8114453 5.30946442,25.6159941 C5.37945708,25.5882612 6.43859134,25.4852531 6.07674248,24.9543654 C6.1757887,25.0771827 6.29464417,25.1009538 6.43462949,25.0269993 C6.4029347,24.9926632 6.054292,24.8289068 6.05825385,24.7734409 C6.07278063,24.5595011 6.09787234,24.9068232 6.07146001,24.6691123 L6.27615554,24.7721203 C6.05693324,24.6426999 6.11636097,23.9176816 5.7862069,23.9705062 C5.96845194,24.3812179 5.59867938,24.6559061 5.21702128,24.6136464 C5.33983859,24.6387381 5.37549523,24.7074101 5.32267058,24.8209831 M11.698606,30.9552458 C11.7580337,31.0212766 11.8174615,31.0873074 11.8768892,31.1533382 C11.9931034,30.7373441 12.2862803,31.1401321 12.3668379,30.7333822 C12.2704329,31.0727806 13.2067498,30.6316948 13.1671313,30.1747616 C13.3665444,30.441526 14.2460748,29.1393984 13.1011005,29.4563463 C12.4962583,29.6240646 12.1542186,30.5788701 11.698606,30.9552458 M22.1209098,44.6487161 C22.4867205,45.4569332 22.4325752,46.9148936 23.5115187,47.1433602 C24.07146,47.2622157 24.7317682,46.913573 24.6630961,46.2809978 C24.6380044,46.0512106 24.3303008,46.0155539 24.2906823,45.8068966 C24.2721937,45.7104916 24.5904622,45.5097579 24.6155539,45.5559795 C24.4887748,45.3090242 24.2933236,45.147909 24.0265591,45.0699927 C24.7476156,44.5694791 22.543507,41.6535583 22.1209098,44.6487161 M27.6358034,76.1625825 C27.7295671,76.3857667 28.704182,76.9932502 28.8137931,76.9589142 C28.5879677,76.7621423 28.1825385,75.2751284 27.6358034,76.1625825 M23.5101981,40.6063096 C23.6039618,40.9641966 23.9776963,40.990609 24.1295671,41.2798239 C24.326339,41.6535583 24.3421864,42.0035216 24.3170946,42.4314013 C24.8162876,42.1923698 24.6802641,43.120763 25.0751284,43.0956713 C25.3960382,43.0758621 25.2164343,41.9876742 25.1200293,41.8001467 C24.9509905,41.4673514 23.8799707,39.7492296 23.5101981,40.6063096 M15.1242847,38.6795304 C15.5125459,38.5369039 15.4848129,38.7997065 15.8400587,38.4761555 C16.0130594,38.3190022 16.3973588,37.5015407 16.1226706,37.2981658 C15.6710198,37.686427 15.4966985,38.2397652 15.1242847,38.6795304 M15.4676449,24.8209831 C15.3659574,24.7562729 15.26427,24.6915627 15.1625825,24.6268525 C15.6551724,24.4432869 14.0030814,23.4039618 13.8459281,24.700807 C13.7006603,25.915774 15.1440939,25.7731475 15.4676449,24.8209831 M19.1178283,43.8523844 C19.1495231,43.9712399 19.1785767,44.0900954 19.2036684,44.2089508 C19.318562,44.1376376 19.7200293,43.0771827 19.5298606,43.0798239 C19.3053558,43.0851064 19.1587674,43.6899486 19.1178283,43.8523844 M17.3521643,19.6917095 C17.5423331,19.2677916 17.081438,18.7699193 17.1646368,18.3288335 C17.2253852,18.0052825 17.8130594,17.7200293 17.3719736,17.3885547 C17.3746148,17.642113 17.0827586,17.8058694 17.2134996,18.0647102 C15.8545855,17.7517241 16.9810712,20.5078503 17.3521643,19.6917095 M20.5203228,32.5967718 C21.0551724,32.4699927 21.669259,31.6644167 21.8831988,31.1705062 C21.4487161,31.2655906 20.715774,32.1345561 20.5203228,32.5967718 M4.8459281,25.7797506 C4.93837124,25.8101247 4.98195158,25.8774762 5.09684519,25.8774762 C5.032135,25.9448276 5.03741746,25.9514307 4.93837124,25.9738811 C5.0730741,26.222157 5.27776963,26.1508437 5.40851064,25.943507 C5.33191489,25.9501101 5.25399853,25.9553925 5.17740279,25.9619956 C5.34776229,25.8563463 5.22626559,25.8365371 5.53396919,25.8404989 C5.44020543,25.7097579 5.02553191,25.5658107 4.87366104,25.5618489 C4.86441673,25.6344828 4.85517241,25.7071167 4.8459281,25.7797506 M56.9798973,108.736904 C57.1542186,108.806897 57.3483492,108.831988 57.5292737,108.804255 C57.5305943,108.825385 57.0327219,108.336757 57.3509905,108.169039 C57.1911959,108.336757 57.0129127,108.483346 56.8161409,108.604842 C56.8689655,108.649743 56.9244314,108.693324 56.9798973,108.736904 M9.41658107,11.7270726 C9.87483492,10.8026412 8.57931034,11.532942 8.82098313,11.901394 C8.98606016,11.6451944 9.1432135,11.6108584 9.41658107,11.7270726 M20.5863536,33.7575935 C20.6867205,33.8157007 20.8716067,33.6981658 20.8385913,33.9015407 C21.039325,33.6902421 21.2915627,33.4208364 21.3536317,33.1250183 C21.1040352,33.3931034 20.7170946,33.3614087 20.5863536,33.7575935 M15.2035216,32.3933969 C15.4438738,32.5056493 15.8994864,32.8001467 16.1371974,32.4858401 C16.1609685,32.4541453 15.4478357,31.7383712 15.2035216,32.3933969 M17.3719736,16.9078503 C17.3825385,17.0478357 17.4459281,17.1614087 17.5634629,17.2472487 C17.6294938,16.9659574 17.8724872,16.4944974 17.6162876,16.2237711 C17.4498899,16.4179017 17.6136464,16.7005136 17.3719736,16.9078503 M15.6921497,26.4334556 C16.0038151,26.8111519 16.644314,26.4849596 16.4501834,26.0068966 C16.2454879,25.5024211 15.6683786,26.0940572 15.6921497,26.4334556 M20.0831988,34.9738811 C20.1333822,35.0887748 20.2878944,35.2710198 20.340719,35.4202494 C20.5176816,35.1482025 20.4978723,34.8761555 20.66427,34.5684519 C20.4569332,34.7929567 20.3948643,34.8325752 20.4793837,34.6873074 C20.2878944,34.6463683 20.1439472,34.7718269 20.0831988,34.9738811 M56.113573,108.512399 C56.1690389,108.859721 56.5084373,108.861042 56.7884079,108.680117 C56.732942,108.302421 56.3486427,107.873221 56.113573,108.512399 M19.9907557,36.0937638 C20.0290536,36.2060161 20.1492296,36.3842993 20.261482,36.5031548 C20.2324285,36.0475422 20.4648569,35.7226706 20.2218635,35.3383712 C20.0660308,35.5760822 20.0779164,35.8005869 19.9907557,36.0937638 M7.76977256,17.6209831 C7.89523111,17.6698459 7.92956713,17.7530448 7.87542186,17.8679384 C8.12633896,17.8547322 8.17256053,17.4123258 7.88202494,17.4308144 C7.99823918,17.9432135 7.90183419,17.1798973 7.76977256,17.6209831 M4.10638298,27.7276596 C4.40616288,27.8478357 4.5699193,27.5665444 4.40484226,27.2746882 C4.29655172,27.3327953 4.13411592,27.6101247 4.10638298,27.7276596 M6.18239178,16.8206897 C6.37123991,17.0187821 6.47292737,17.3119589 6.59970653,17.5047689 C6.60630961,17.352898 6.51782832,16.5143067 6.32237711,16.9131328 C6.32898019,16.9184153 6.08862803,16.5592076 6.18239178,16.8206897 M19.3040352,36.8187821 C20.3275128,37.6045488 19.6315481,35.4532649 19.3040352,36.8187821 M7.22831988,17.4994864 C7.28246515,17.6275862 7.65884079,17.869259 7.82391783,17.8309611 C7.60073368,17.3119589 7.64959648,17.4426999 7.22831988,17.4994864 M7.61129861,14.4132062 C8.57798973,14.7829787 8.11973588,13.1810712 7.61129861,14.4132062 M15.122964,27.2205429 C15.2893617,27.3156273 15.3091709,27.2746882 15.4861335,27.3592076 C15.8506236,26.9273661 15.2233309,27.1677183 15.122964,27.2205429 M12.5187087,24.0801174 C12.8779164,24.239912 13.07865,23.8965517 13.4774762,24.0008804 C13.402201,23.5835657 12.7273661,23.8635363 12.5187087,24.0801174 M15.3223771,22.6802641 C15.5627293,23.0104182 15.7449743,22.9470286 15.7066764,22.6195158 C16.1768158,22.439912 15.5785767,22.3223771 15.3223771,22.6802641 M18.1775495,27.8874541 C18.3862069,27.9904622 18.5975055,27.9983859 18.812766,27.9112252 C18.6331621,27.7342627 18.3452678,27.6101247 18.1775495,27.8874541 M15.1361702,38.9040352 C15.3210565,38.918562 15.3765224,39.0110051 15.3025679,39.1826853 C15.4134996,39.049303 15.5521643,38.9608217 15.718562,38.9172414 C15.6657373,38.7059428 15.281438,38.8168745 15.1361702,38.9040352 M14.8852531,32.2969919 C15.1374908,32.5082905 15.1427733,32.4264123 15.3223771,32.1411592 C15.1374908,32.0830521 14.992223,32.1345561 14.8852531,32.2969919 M17.3521643,20.5963316 C17.5964784,20.9779897 18.1471753,20.6359501 17.8777696,20.2384446 C17.6268525,19.8660308 16.9295671,20.175055 17.3521643,20.5963316 M5.91826853,15.0933236 C6.1916361,15.3125459 6.36463683,15.2716067 6.43330888,14.9705062 C6.16126192,14.9876742 6.11768158,14.9652238 5.91826853,15.0933236 M6.92325752,23.6667645 C6.98532649,23.8899486 6.96155539,24.143507 7.20058694,23.8978723 C7.14776229,23.8741012 7.09493764,23.8490095 7.04211299,23.8252384 C7.22303742,23.7829787 7.30227439,23.6694057 7.27982392,23.4831988 C7.02494497,23.348496 6.90608951,23.4105649 6.92325752,23.6667645 M7.57168012,19.0723404 C7.63639032,19.1027146 7.70242113,19.1330888 7.76713133,19.1634629 C7.78561996,19.1595011 7.93088775,18.8016141 7.92956713,18.7897285 C7.75260455,18.812179 7.63374908,18.9059428 7.57168012,19.0723404 M13.7746148,34.7110785 C14.1047689,34.9408657 14.2513573,34.5671313 14.3160675,34.234336 C13.9251651,34.2277329 14.014967,34.5275128 13.7746148,34.7110785 M25.6522377,42.7721203 C26.0933236,42.904182 26.1857667,42.4472487 26.0682318,42.1316214 C25.7737344,42.1936904 25.67865,42.5159208 25.6522377,42.7721203 M7.32076302,13.446515 C7.91504035,14.1596478 7.77901687,12.6831988 7.32076302,13.446515 M20.3618489,36.2350697 C20.3776963,36.2931768 20.392223,36.3499633 20.4080704,36.4080704 C20.5176816,36.3209098 20.5731475,35.886427 20.4635363,35.9815114 C20.4292003,36.0660308 20.3948643,36.1505503 20.3618489,36.2350697 M25.5201761,43.182832 C25.7037417,43.3782832 25.7882612,43.3030081 25.7710932,42.9596478 C25.6575202,43.0005869 25.5743213,43.0758621 25.5201761,43.182832 M7.02890682,14.3260455 C7.1160675,14.417168 7.05267792,14.5267792 7.24020543,14.4871607 C7.22435803,14.1807777 7.17945708,14.2811445 7.02890682,14.3260455 M4.63462949,27.0026412 C4.82215701,27.0092443 4.90535583,27.0501834 4.97931034,26.9049156 C4.73895818,26.7609685 4.75084373,26.886427 4.63462949,27.0026412 M23.9327953,42.1250183 C23.9948643,42.239912 23.9314747,42.3231108 24.07146,42.3666911 C24.0688188,42.2095378 24.0476889,42.1369039 23.992223,41.9546588 C23.889215,42.0088041 23.9909024,42.0510638 23.9327953,42.1250183 M6.94966985,15.081438 C7.02890682,15.1144534 7.1081438,15.1474688 7.18738078,15.1804842 C7.19926632,14.9546588 7.12002935,14.9216434 6.94966985,15.081438 M8.64269993,13.508584 C8.71665444,13.6129127 8.7377843,13.6921497 8.84079237,13.7317682 C8.82362436,13.6208364 8.80513573,13.508584 8.78796772,13.3976522 C8.74042553,13.4346295 8.69156273,13.4716067 8.64269993,13.508584 M8.65590609,13.8796772 C8.75759354,13.9206163 8.85796038,13.962876 8.95964784,14.0038151 C8.89361702,13.8136464 8.79325018,13.7713866 8.65590609,13.8796772 M6.69875275,24.5172414 C6.75289802,24.5476156 6.80968452,24.5687454 6.87043287,24.5793103 C6.82817315,24.229347 6.84798239,24.5119589 6.69875275,24.5172414 M8.28613353,15.2161409 C8.33631695,15.1501101 8.41555393,15.2068966 8.41819516,15.0444607 C8.27953045,15.0497432 8.34556126,15.1382245 8.28613353,15.2161409" id="Shape" fill-rule="nonzero"></path>
                            <path d="M21.868672,60.2940572 C20.9231108,59.8635363 21.5675715,58.4491563 20.8240646,57.8390315 C20.1109318,57.2526779 18.5473221,57.7743213 18.1854732,58.5653705 C18.2475422,58.3461482 18.2092443,58.332942 18.0745415,58.525752 C18.086427,58.4887748 18.182832,58.2008804 18.069259,58.4544387 C18.3003668,58.2801174 18.0600147,58.1308877 18.3835657,57.7043287 C18.8035216,57.1496698 19.7530448,56.980631 19.7517241,56.1499633 C19.7517241,55.9386647 19.449303,55.1502568 19.1680117,55.1462949 C18.7176816,55.1396919 19.5602348,56.2305209 19.5351431,56.3361702 C18.6688188,55.3166544 18.1617021,54.5559795 17.6862803,53.5140132 C17.5832722,53.2868672 17.6030814,52.9012472 17.4934703,52.7044754 C17.4406456,52.609391 17.1382245,52.4403522 17.1342627,52.4337491 C16.9242847,52.0111519 17.1012472,51.6796772 17.0167278,51.160675 C16.837124,50.0619222 15.6300807,50.0051357 14.7082905,49.9641966 C13.3322084,49.9021277 12.5015407,50.565077 11.2456346,50.8925899 C11.3129861,50.9110785 11.3790169,50.9308877 11.4463683,50.9493764 C10.8547322,50.8120323 10.2142333,50.8239178 9.6780631,50.5030081 C9.70843727,50.7341159 9.25282465,51.6360968 9.59354365,51.7483492 C9.06793837,51.6255319 8.76683786,52.5526045 8.27820983,52.5644901 C8.04710198,52.5697726 7.71826853,52.3809244 7.46867205,52.4707263 C5.59339692,53.2247982 6.32105649,55.9043287 4.64915627,56.7772561 C4.05223771,57.0889215 2.69200293,56.6993397 2.28789435,57.2553191 C1.76757153,57.9710932 3.17402788,58.8757153 3.76038151,58.3699193 C4.02186354,59.042113 0.689948643,60.5898753 0.18943507,60.6572267 C0.474688188,61.3003668 1.06632428,61.6529714 1.51665444,62.1587674 C1.96434336,62.6606016 2.14922964,63.4925899 2.69200293,63.8927366 C3.07762289,64.1766691 3.66001467,64.2928833 4.08525312,64.5517241 C4.91195891,65.0561996 5.27248716,65.0482759 6.19955979,64.7471753 C6.25766691,64.8845194 6.21276596,64.9743213 6.06485693,65.0165811 C8.25047689,65.1341159 7.64695525,63.2377109 8.5027146,61.9897285 C9.73749083,60.1884079 10.6038151,63.3288335 11.2707263,64.0406456 C11.5018342,64.2876009 11.795011,64.4368305 11.987821,64.7260455 C12.1595011,64.9848863 12.1713866,65.3348496 12.3338225,65.5765224 C12.6903888,66.1074101 12.913573,66.1325018 13.5857667,66.014967 C14.0743947,65.9291269 14.5405723,65.6201027 15.0133529,65.5461482 C15.4359501,65.481438 16.3339692,65.7548056 16.7367572,66.1932502 C16.6522377,66.2381511 16.5677183,66.2830521 16.4831988,66.3266324 C17.8487161,67.7964784 18.3848863,63.5137197 18.8114453,63.0633896 C18.8391783,63.2231842 18.7863536,63.3473221 18.6529714,63.4384446 C18.9369039,63.8412326 20.0330154,63.1360235 20.034336,63.8623624 C20.3367572,63.2812913 20.9310345,63.1465884 20.94292,62.4070433 C20.960088,61.3465884 20.4252384,62.1059428 19.8705796,61.8523844 C20.2984593,61.6701394 20.3288335,60.9847395 20.2997799,60.5951577 C20.2641233,60.3944241 19.9471753,60.1725605 20.0198092,60.0035216 C19.9933969,60.0418195 20.3433602,60.0484226 20.3869406,60.0101247 C20.0990462,60.0259721 19.7794571,59.7248716 19.5655172,59.5663977 C19.982832,59.2322817 20.7355833,58.9153338 20.6444607,59.7776963 C20.8795304,59.4898019 21.2915627,60.5238445 20.8478357,60.683639 C21.3668379,60.81438 20.7712399,60.9464417 20.7936904,61.1722671 C20.839912,61.6410858 20.9310345,62.0267058 21.2783566,62.4044021 C21.6468085,61.8827586 21.8118855,60.9134263 21.7154806,60.2900954 C21.7352898,60.4010271 21.8858401,60.3349963 21.868672,60.2940572 Z" id="Path"></path>
                        </g>
                    </g>
                </g>
            </g>
        </g>
    </g>
</svg>