<?xml version="1.0" encoding="UTF-8"?>
<svg width="380px" height="142px" viewBox="0 0 380 142" version="1.1" xmlns="http://www.w3.org/2000/svg" xmlns:xlink="http://www.w3.org/1999/xlink">
    <!-- Generator: Sketch 52.1 (67048) - http://www.bohemiancoding.com/sketch -->
    <title>Logotype Copy</title>
    <desc>Created with Sketch.</desc>
    <g id="Page-1" stroke="none" stroke-width="1" fill="none" fill-rule="evenodd">
        <g id="Logotype-Copy">
            <g id="Logo" opacity="0.1" transform="translate(117.000000, 0.000000)">
                <g id="Group" transform="translate(0.000000, 0.767568)" fill-rule="nonzero" stroke="#000000" stroke-width="0.769999981">
                    <g id="Row" transform="translate(64.475676, 0.000000)">
                        <g id="Arrrow">
                            <path d="M6.14054054,3.29506915 L0.432949311,51.8095946 L11.8481318,51.8095946 L6.14054054,3.29506915 Z" id="Rectangle" fill="#FFFFFF"></path>
                            <path d="M6.37114268,5.25518736 L5.00189541,51.8095946 L11.8481318,51.8095946 L6.37114268,5.25518736 Z" id="Rectangle-Copy" fill="#000000"></path>
                        </g>
                        <g id="Arrrow-Copy" transform="translate(6.140541, 104.389189) scale(-1, -1) translate(-6.140541, -104.389189) translate(0.000000, 68.313514)">
                            <path d="M6.14054054,3.29506915 L0.432949311,51.8095946 L11.8481318,51.8095946 L6.14054054,3.29506915 Z" id="Rectangle" fill="#FFFFFF"></path>
                            <path d="M6.37114268,5.25518736 L5.00189541,51.8095946 L11.8481318,51.8095946 L6.37114268,5.25518736 Z" id="Rectangle-Copy" fill="#000000"></path>
                        </g>
                    </g>
                    <g id="Row-Copy" transform="translate(70.616216, 70.232432) rotate(-90.000000) translate(-70.616216, -70.232432) translate(64.475676, 0.000000)">
                        <g id="Arrrow">
                            <path d="M6.14054054,3.29506915 L0.432949311,51.8095946 L11.8481318,51.8095946 L6.14054054,3.29506915 Z" id="Rectangle" fill="#FFFFFF"></path>
                            <path d="M6.37114268,5.25518736 L5.00189541,51.8095946 L11.8481318,51.8095946 L6.37114268,5.25518736 Z" id="Rectangle-Copy" fill="#000000"></path>
                        </g>
                        <g id="Arrrow-Copy" transform="translate(6.140541, 104.389189) scale(-1, -1) translate(-6.140541, -104.389189) translate(0.000000, 68.313514)">
                            <path d="M6.14054054,3.29506915 L0.432949311,51.8095946 L11.8481318,51.8095946 L6.14054054,3.29506915 Z" id="Rectangle" fill="#FFFFFF"></path>
                            <path d="M6.37114268,5.25518736 L5.00189541,51.8095946 L11.8481318,51.8095946 L6.37114268,5.25518736 Z" id="Rectangle-Copy" fill="#000000"></path>
                        </g>
                    </g>
                    <g id="Row-Copy-2" transform="translate(70.616216, 70.232432) rotate(-110.000000) translate(-70.616216, -70.232432) translate(64.475676, 0.000000)">
                        <g id="Arrrow">
                            <path d="M6.14054054,3.29506915 L0.432949311,51.8095946 L11.8481318,51.8095946 L6.14054054,3.29506915 Z" id="Rectangle" fill="#FFFFFF"></path>
                            <path d="M6.37114268,5.25518736 L5.00189541,51.8095946 L11.8481318,51.8095946 L6.37114268,5.25518736 Z" id="Rectangle-Copy" fill="#000000"></path>
                        </g>
                        <g id="Arrrow-Copy" transform="translate(6.140541, 104.389189) scale(-1, -1) translate(-6.140541, -104.389189) translate(0.000000, 68.313514)">
                            <path d="M6.14054054,3.29506915 L0.432949311,51.8095946 L11.8481318,51.8095946 L6.14054054,3.29506915 Z" id="Rectangle" fill="#FFFFFF"></path>
                            <path d="M6.37114268,5.25518736 L5.00189541,51.8095946 L11.8481318,51.8095946 L6.37114268,5.25518736 Z" id="Rectangle-Copy" fill="#000000"></path>
                        </g>
                    </g>
                    <g id="Row-Copy-3" transform="translate(70.616216, 70.232432) rotate(-134.000000) translate(-70.616216, -70.232432) translate(64.475676, 0.000000)">
                        <g id="Arrrow">
                            <path d="M6.14054054,3.29506915 L0.432949311,51.8095946 L11.8481318,51.8095946 L6.14054054,3.29506915 Z" id="Rectangle" fill="#FFFFFF"></path>
                            <path d="M6.37114268,5.25518736 L5.00189541,51.8095946 L11.8481318,51.8095946 L6.37114268,5.25518736 Z" id="Rectangle-Copy" fill="#000000"></path>
                        </g>
                        <g id="Arrrow-Copy" transform="translate(6.140541, 104.389189) scale(-1, -1) translate(-6.140541, -104.389189) translate(0.000000, 68.313514)">
                            <path d="M6.14054054,3.29506915 L0.432949311,51.8095946 L11.8481318,51.8095946 L6.14054054,3.29506915 Z" id="Rectangle" fill="#FFFFFF"></path>
                            <path d="M6.37114268,5.25518736 L5.00189541,51.8095946 L11.8481318,51.8095946 L6.37114268,5.25518736 Z" id="Rectangle-Copy" fill="#000000"></path>
                        </g>
                    </g>
                    <g id="Row-Copy-4" transform="translate(70.616216, 70.232432) rotate(-156.000000) translate(-70.616216, -70.232432) translate(64.475676, 0.000000)">
                        <g id="Arrrow">
                            <path d="M6.14054054,3.29506915 L0.432949311,51.8095946 L11.8481318,51.8095946 L6.14054054,3.29506915 Z" id="Rectangle" fill="#FFFFFF"></path>
                            <path d="M6.37114268,5.25518736 L5.00189541,51.8095946 L11.8481318,51.8095946 L6.37114268,5.25518736 Z" id="Rectangle-Copy" fill="#000000"></path>
                        </g>
                        <g id="Arrrow-Copy" transform="translate(6.140541, 104.389189) scale(-1, -1) translate(-6.140541, -104.389189) translate(0.000000, 68.313514)">
                            <path d="M6.14054054,3.29506915 L0.432949311,51.8095946 L11.8481318,51.8095946 L6.14054054,3.29506915 Z" id="Rectangle" fill="#FFFFFF"></path>
                            <path d="M6.37114268,5.25518736 L5.00189541,51.8095946 L11.8481318,51.8095946 L6.37114268,5.25518736 Z" id="Rectangle-Copy" fill="#000000"></path>
                        </g>
                    </g>
                    <g id="Row-Copy-5" transform="translate(70.616216, 70.232432) rotate(-21.000000) translate(-70.616216, -70.232432) translate(64.475676, 0.000000)">
                        <g id="Arrrow">
                            <path d="M6.14054054,3.29506915 L0.432949311,51.8095946 L11.8481318,51.8095946 L6.14054054,3.29506915 Z" id="Rectangle" fill="#FFFFFF"></path>
                            <path d="M6.37114268,5.25518736 L5.00189541,51.8095946 L11.8481318,51.8095946 L6.37114268,5.25518736 Z" id="Rectangle-Copy" fill="#000000"></path>
                        </g>
                        <g id="Arrrow-Copy" transform="translate(6.140541, 104.389189) scale(-1, -1) translate(-6.140541, -104.389189) translate(0.000000, 68.313514)">
                            <path d="M6.14054054,3.29506915 L0.432949311,51.8095946 L11.8481318,51.8095946 L6.14054054,3.29506915 Z" id="Rectangle" fill="#FFFFFF"></path>
                            <path d="M6.37114268,5.25518736 L5.00189541,51.8095946 L11.8481318,51.8095946 L6.37114268,5.25518736 Z" id="Rectangle-Copy" fill="#000000"></path>
                        </g>
                    </g>
                    <g id="Row-Copy-6" transform="translate(70.616216, 70.232432) rotate(-43.000000) translate(-70.616216, -70.232432) translate(64.475676, 0.000000)">
                        <g id="Arrrow">
                            <path d="M6.14054054,3.29506915 L0.432949311,51.8095946 L11.8481318,51.8095946 L6.14054054,3.29506915 Z" id="Rectangle" fill="#FFFFFF"></path>
                            <path d="M6.37114268,5.25518736 L5.00189541,51.8095946 L11.8481318,51.8095946 L6.37114268,5.25518736 Z" id="Rectangle-Copy" fill="#000000"></path>
                        </g>
                        <g id="Arrrow-Copy" transform="translate(6.140541, 104.389189) scale(-1, -1) translate(-6.140541, -104.389189) translate(0.000000, 68.313514)">
                            <path d="M6.14054054,3.29506915 L0.432949311,51.8095946 L11.8481318,51.8095946 L6.14054054,3.29506915 Z" id="Rectangle" fill="#FFFFFF"></path>
                            <path d="M6.37114268,5.25518736 L5.00189541,51.8095946 L11.8481318,51.8095946 L6.37114268,5.25518736 Z" id="Rectangle-Copy" fill="#000000"></path>
                        </g>
                    </g>
                    <g id="Row-Copy-7" transform="translate(70.616216, 70.232432) rotate(-66.000000) translate(-70.616216, -70.232432) translate(64.475676, 0.000000)">
                        <g id="Arrrow">
                            <path d="M6.14054054,3.29506915 L0.432949311,51.8095946 L11.8481318,51.8095946 L6.14054054,3.29506915 Z" id="Rectangle" fill="#FFFFFF"></path>
                            <path d="M6.37114268,5.25518736 L5.00189541,51.8095946 L11.8481318,51.8095946 L6.37114268,5.25518736 Z" id="Rectangle-Copy" fill="#000000"></path>
                        </g>
                        <g id="Arrrow-Copy" transform="translate(6.140541, 104.389189) scale(-1, -1) translate(-6.140541, -104.389189) translate(0.000000, 68.313514)">
                            <path d="M6.14054054,3.29506915 L0.432949311,51.8095946 L11.8481318,51.8095946 L6.14054054,3.29506915 Z" id="Rectangle" fill="#FFFFFF"></path>
                            <path d="M6.37114268,5.25518736 L5.00189541,51.8095946 L11.8481318,51.8095946 L6.37114268,5.25518736 Z" id="Rectangle-Copy" fill="#000000"></path>
                        </g>
                    </g>
                </g>
                <g id="Group-2" transform="translate(45.286486, 48.356757)" fill="#FFFFFF" fill-rule="nonzero" stroke="#000000" stroke-width="0.769999981">
                    <circle id="Oval" cx="24.5621622" cy="24.5621622" r="24.5621622"></circle>
                    <circle id="Oval-Copy" cx="24.5621622" cy="24.5621622" r="21.4918919"></circle>
                </g>
                <g id="Group-3" transform="translate(0.000000, 0.767568)" fill-rule="nonzero" stroke="#000000" stroke-linecap="square" stroke-width="0.769999981">
                    <path d="M70.6162162,0 L68.6972973,71.7675676" id="Line"></path>
                    <path d="M72.9189189,68.3135135 L71,140.081081" id="Line" transform="translate(71.767568, 104.389189) scale(-1, -1) translate(-71.767568, -104.389189) "></path>
                    <path d="M37.227027,35.3081081 L35.3081081,107.075676" id="Line" transform="translate(36.267568, 71.191892) rotate(-90.000000) translate(-36.267568, -71.191892) "></path>
                    <path d="M105.924324,33.3891892 L104.005405,105.156757" id="Line" transform="translate(104.964865, 69.272973) scale(-1, -1) rotate(-90.000000) translate(-104.964865, -69.272973) "></path>
                    <path d="M39.6266585,46.9981754 L37.7077395,118.765743" id="Line" transform="translate(38.667199, 82.881959) rotate(-110.000000) translate(-38.667199, -82.881959) "></path>
                    <path d="M103.524693,21.6991219 L101.605774,93.4666895" id="Line" transform="translate(102.565233, 57.582906) scale(-1, -1) rotate(-110.000000) translate(-102.565233, -57.582906) "></path>
                    <path d="M47.5338222,58.8994023 L45.6149032,130.66697" id="Line" transform="translate(46.574363, 94.783186) rotate(-134.000000) translate(-46.574363, -94.783186) "></path>
                    <path d="M95.6175292,9.79789497 L93.6986103,81.5654625" id="Line" transform="translate(94.658070, 45.681679) scale(-1, -1) rotate(-134.000000) translate(-94.658070, -45.681679) "></path>
                    <path d="M58.4813315,66.1179479 L56.5624125,137.885515" id="Line" transform="translate(57.521872, 102.001732) rotate(-156.000000) translate(-57.521872, -102.001732) "></path>
                    <path d="M84.6700199,2.57934938 L82.751101,74.3469169" id="Line" transform="translate(83.710560, 38.463133) scale(-1, -1) rotate(-156.000000) translate(-83.710560, -38.463133) "></path>
                    <path d="M58.3704883,2.62526211 L56.4515694,74.3928297" id="Line" transform="translate(57.411029, 38.509046) rotate(-21.000000) translate(-57.411029, -38.509046) "></path>
                    <path d="M84.780863,66.0720352 L82.8619441,137.839603" id="Line" transform="translate(83.821404, 101.955819) scale(-1, -1) rotate(-21.000000) translate(-83.821404, -101.955819) "></path>
                    <path d="M47.4482494,9.88198709 L45.5293305,81.6495547" id="Line" transform="translate(46.488790, 45.765771) rotate(-43.000000) translate(-46.488790, -45.765771) "></path>
                    <path d="M95.703102,58.8153102 L93.784183,130.582878" id="Line" transform="translate(94.743642, 94.699094) scale(-1, -1) rotate(-43.000000) translate(-94.743642, -94.699094) "></path>
                    <path d="M39.8063764,21.2543044 L37.8874575,93.021872" id="Line" transform="translate(38.846917, 57.138088) rotate(-66.000000) translate(-38.846917, -57.138088) "></path>
                    <path d="M103.344975,47.4429929 L101.426056,119.21056" id="Line" transform="translate(102.385515, 83.326777) scale(-1, -1) rotate(-66.000000) translate(-102.385515, -83.326777) "></path>
                </g>
                <circle id="Oval-Copy-2" stroke="#000000" stroke-width="0.769999981" fill="#BDBDBD" fill-rule="nonzero" cx="69.8486486" cy="72.9189189" r="13.0486486"></circle>
                <path d="M70.9992171,2.3027027 C33.1210159,2.3027027 2.3027027,33.1194502 2.3027027,70.9992171 C2.3027027,108.878984 33.1210159,139.697297 70.9992171,139.697297 C108.88055,139.697297 139.697297,108.878984 139.697297,70.9992171 C139.697297,33.1194502 108.88055,2.3027027 70.9992171,2.3027027 Z M70.9992536,142 C31.8497976,142 0,110.149868 0,71 C0,31.8501325 31.8497976,0 70.9992536,0 C110.150202,0 142,31.8501325 142,71 C142,110.149868 110.150202,142 70.9992536,142 Z" id="Fill-232" fill="#FFFFFF"></path>
            </g>
            <path d="M26.6242676,84.2651367 C28.3589768,82.6492432 29.7490996,80.48683 30.7946777,77.777832 C31.8402559,75.0688341 32.5174952,71.8846212 32.826416,68.2250977 C32.9689949,66.7993093 33.1234529,64.6487774 33.2897949,61.7734375 C33.6937683,54.3593379 34.4898215,48.8344908 35.6779785,45.1987305 C34.4898215,46.5294663 33.5393102,48.5730656 32.826416,51.3295898 C32.1135218,54.086114 31.5788592,57.7693454 31.2224121,62.3793945 C31.198649,62.7833679 31.1630048,63.4012003 31.1154785,64.2329102 C30.5926894,72.5975353 29.0956341,79.2748774 26.6242676,84.2651367 Z M12.6872559,65.6586914 C9.45546887,67.6072689 7.01978359,69.8825553 5.38012695,72.4846191 C3.74047032,75.0866829 2.9206543,77.9679204 2.9206543,81.128418 C2.9206543,84.4077312 3.83552145,86.9562897 5.6652832,88.7741699 C7.49504496,90.5920501 10.0495442,91.5009766 13.3288574,91.5009766 C18.5092219,91.5009766 22.4419625,89.3088598 25.1271973,84.9245605 C27.812432,80.5402613 29.4520641,73.6312321 30.0461426,64.1972656 C30.5689317,56.0465087 31.8164778,49.9335327 33.7888184,45.8581543 C35.761159,41.7827758 38.4582348,39.7451172 41.880127,39.7451172 C43.5435467,39.7451172 44.826737,40.0837368 45.7297363,40.7609863 C46.6327356,41.4382358 47.0842285,42.4065692 47.0842285,43.6660156 C47.0842285,44.4264361 46.8763042,45.0205057 46.4604492,45.4482422 C46.0445943,45.8759787 45.4683468,46.0898438 44.7316895,46.0898438 C44.2801898,46.0898438 43.9237481,46.006674 43.6623535,45.840332 C43.400959,45.6739901 43.1752125,45.3888367 42.9851074,44.9848633 C43.4366071,44.8422844 43.769286,44.6046566 43.9831543,44.2719727 C44.1970226,43.9392887 44.3039551,43.4996772 44.3039551,42.953125 C44.3039551,42.3115202 44.0722679,41.7946797 43.6088867,41.4025879 C43.1455055,41.0104961 42.5217324,40.8144531 41.7375488,40.8144531 C38.3394199,40.8144531 36.3552275,46.2323677 35.7849121,57.0683594 C35.6898596,58.9218843 35.6066898,60.371414 35.5354004,61.4169922 C35.1789533,67.334014 34.5730023,71.7717137 33.7175293,74.7302246 C32.8620563,77.6887355 31.5907474,80.3561079 29.9035645,82.7324219 C27.6698293,85.8929194 25.1034487,88.3107826 22.2043457,89.986084 C19.3052427,91.6613853 16.2754878,92.4990234 13.1149902,92.4990234 C9.38417731,92.4990234 6.32471897,91.3762319 3.93652344,89.1306152 C1.5483279,86.8849985 0.354248047,83.9918797 0.354248047,80.4511719 C0.354248047,76.8391746 1.44733607,73.6252582 3.63354492,70.8093262 C5.81975377,67.9933941 8.76633889,66.0270238 12.4733887,64.9101562 L12.6872559,65.6586914 Z M43.1730957,91.4296875 C42.8641749,91.001951 42.6384284,90.532636 42.4958496,90.0217285 C42.3532708,89.510821 42.2819824,88.8751666 42.2819824,88.1147461 C42.2819824,86.8315366 42.5611951,85.5483463 43.1196289,84.2651367 C43.6780627,82.9819272 44.8840239,81.0809045 46.7375488,78.5620117 C44.7889714,79.8689844 43.2800346,81.3006921 42.2106934,82.8571777 C41.1413521,84.4136634 40.6066895,85.9523036 40.6066895,87.4731445 C40.6066895,88.4711964 40.8264952,89.3028938 41.2661133,89.9682617 C41.7057314,90.6336296 42.3413858,91.1207667 43.1730957,91.4296875 Z M44.5632324,86.0830078 C47.2009409,85.2988242 49.3574135,84.2770245 51.0327148,83.0175781 C52.7080162,81.7581317 53.5456543,80.5699926 53.5456543,79.453125 C53.5456543,78.8828096 53.2902044,78.4194354 52.7792969,78.0629883 C52.2683894,77.7065412 51.5970907,77.5283203 50.7653809,77.5283203 C49.7198027,77.5283203 48.7989949,78.0392202 48.0029297,79.0610352 C47.2068645,80.0828502 46.0603102,82.4234843 44.5632324,86.0830078 Z M52.1555176,88.7919922 C51.0861763,90.0989649 50.0049697,91.0435355 48.9118652,91.6257324 C47.8187608,92.2079293 46.5830961,92.4990234 45.204834,92.4990234 C43.4938879,92.4990234 42.1512907,92.0653526 41.177002,91.197998 C40.2027132,90.3306434 39.7155762,89.1365636 39.7155762,87.6157227 C39.7155762,85.0493036 40.9453002,82.5720334 43.4047852,80.1838379 C45.8642701,77.7956424 48.3890658,76.6015625 50.979248,76.6015625 C52.2862207,76.6015625 53.3317832,76.9104787 54.1159668,77.5283203 C54.9001504,78.1461619 55.2922363,78.9778594 55.2922363,80.0234375 C55.2922363,81.2353576 54.4724203,82.3819119 52.8327637,83.4631348 C51.193107,84.5443576 48.3653358,85.785963 44.3493652,87.1879883 C44.2067864,87.7583036 44.1057946,88.2395 44.0463867,88.6315918 C43.9869789,89.0236836 43.9572754,89.3623033 43.9572754,89.6474609 C43.9572754,90.336592 44.1117335,90.8296697 44.4206543,91.126709 C44.7295751,91.4237482 45.2642377,91.5722656 46.0246582,91.5722656 C46.8801312,91.5722656 47.7534135,91.2989936 48.6445312,90.7524414 C49.535649,90.2058892 50.4564568,89.3860732 51.4069824,88.2929688 L52.1555176,88.7919922 Z M73.0529785,79.6669922 C73.0529785,80.0234393 73.1539703,80.2967113 73.355957,80.4868164 C73.5579437,80.6769215 73.825275,80.7719727 74.157959,80.7719727 C74.5856955,80.7719727 74.9243152,80.5878111 75.1738281,80.2194824 C75.4233411,79.8511538 75.5480957,79.3461946 75.5480957,78.7045898 C75.5480957,78.2293271 75.4708667,77.8907074 75.3164062,77.6887207 C75.1619458,77.486734 74.8946145,77.3857422 74.5144043,77.3857422 C74.0866678,77.3857422 73.7361667,77.5936665 73.4628906,78.0095215 C73.1896145,78.4253764 73.0529785,78.9778611 73.0529785,79.6669922 Z M66.4943848,77.9916992 L63.0012207,87.0454102 C62.8348787,87.4256204 62.7160648,87.7582994 62.6447754,88.043457 C62.573486,88.3286147 62.5378418,88.6018867 62.5378418,88.8632812 C62.5378418,89.4335966 62.6804185,89.9266744 62.9655762,90.3425293 C63.2507338,90.7583842 63.7022267,91.1207667 64.3200684,91.4296875 C64.2250158,91.168293 64.1477868,90.9247244 64.0883789,90.6989746 C64.0289711,90.4732248 63.9992676,90.2771818 63.9992676,90.1108398 C63.9992676,89.6831033 64.0170897,89.3207209 64.0527344,89.0236816 C64.0883791,88.7266424 64.1537267,88.4474297 64.2487793,88.1860352 L68.1696777,77.9916992 L66.4943848,77.9916992 Z M70.3083496,77.1005859 L65.9240723,88.578125 L65.8884277,88.6494141 C65.5557438,89.5286502 65.3894043,90.1346012 65.3894043,90.4672852 C65.3894043,90.8237323 65.5260403,91.0970043 65.7993164,91.2871094 C66.0725925,91.4772145 66.4468563,91.5722656 66.9221191,91.5722656 C69.1558543,91.5722656 71.2410385,90.4851183 73.1777344,88.310791 C75.1144303,86.1364637 76.1659334,83.5760238 76.3322754,80.6293945 C75.9995914,81.0808942 75.6669125,81.3957511 75.3342285,81.5739746 C75.0015446,81.7521982 74.6094586,81.8413086 74.157959,81.8413086 C73.5401174,81.8413086 73.058921,81.6274435 72.7143555,81.199707 C72.3697899,80.7719705 72.1975098,80.1660195 72.1975098,79.3818359 C72.1975098,78.5263629 72.4232562,77.8253608 72.8747559,77.2788086 C73.3262555,76.7322564 73.8965623,76.4589844 74.5856934,76.4589844 C75.5599821,76.4589844 76.2788063,76.7738413 76.7421875,77.4035645 C77.2055687,78.0332877 77.4372559,79.0016211 77.4372559,80.3085938 C77.4372559,83.5166176 76.2966423,86.3503295 74.0153809,88.8098145 C71.7341195,91.2692994 69.0608063,92.4990234 65.9953613,92.4990234 C64.6170992,92.4990234 63.5537147,92.1782259 62.8051758,91.5366211 C62.0566369,90.8950163 61.682373,90.003912 61.682373,88.8632812 C61.682373,88.5305973 61.7477207,88.1325707 61.878418,87.6691895 C62.0091152,87.2058082 62.2051582,86.6295607 62.4665527,85.9404297 L65.8527832,77.1005859 L70.3083496,77.1005859 Z M87.213623,91.4296875 C86.9047022,91.001951 86.6789558,90.532636 86.536377,90.0217285 C86.3937981,89.510821 86.3225098,88.8751666 86.3225098,88.1147461 C86.3225098,86.8315366 86.6017225,85.5483463 87.1601562,84.2651367 C87.71859,82.9819272 88.9245513,81.0809045 90.7780762,78.5620117 C88.8294987,79.8689844 87.320562,81.3006921 86.2512207,82.8571777 C85.1818794,84.4136634 84.6472168,85.9523036 84.6472168,87.4731445 C84.6472168,88.4711964 84.8670225,89.3028938 85.3066406,89.9682617 C85.7462587,90.6336296 86.3819132,91.1207667 87.213623,91.4296875 Z M88.6037598,86.0830078 C91.2414683,85.2988242 93.3979408,84.2770245 95.0732422,83.0175781 C96.7485435,81.7581317 97.5861816,80.5699926 97.5861816,79.453125 C97.5861816,78.8828096 97.3307317,78.4194354 96.8198242,78.0629883 C96.3089167,77.7065412 95.6376181,77.5283203 94.8059082,77.5283203 C93.7603301,77.5283203 92.8395222,78.0392202 92.043457,79.0610352 C91.2473919,80.0828502 90.1008376,82.4234843 88.6037598,86.0830078 Z M96.1960449,88.7919922 C95.1267036,90.0989649 94.045497,91.0435355 92.9523926,91.6257324 C91.8592882,92.2079293 90.6236234,92.4990234 89.2453613,92.4990234 C87.5344153,92.4990234 86.191818,92.0653526 85.2175293,91.197998 C84.2432406,90.3306434 83.7561035,89.1365636 83.7561035,87.6157227 C83.7561035,85.0493036 84.9858275,82.5720334 87.4453125,80.1838379 C89.9047975,77.7956424 92.4295932,76.6015625 95.0197754,76.6015625 C96.3267481,76.6015625 97.3723105,76.9104787 98.1564941,77.5283203 C98.9406777,78.1461619 99.3327637,78.9778594 99.3327637,80.0234375 C99.3327637,81.2353576 98.5129477,82.3819119 96.873291,83.4631348 C95.2336344,84.5443576 92.4058632,85.785963 88.3898926,87.1879883 C88.2473137,87.7583036 88.1463219,88.2395 88.0869141,88.6315918 C88.0275062,89.0236836 87.9978027,89.3623033 87.9978027,89.6474609 C87.9978027,90.336592 88.1522608,90.8296697 88.4611816,91.126709 C88.7701025,91.4237482 89.3047651,91.5722656 90.0651855,91.5722656 C90.9206586,91.5722656 91.7939409,91.2989936 92.6850586,90.7524414 C93.5761763,90.2058892 94.4969842,89.3860732 95.4475098,88.2929688 L96.1960449,88.7919922 Z M121.121338,77.5283203 C121.21639,77.7421886 121.287679,77.9560536 121.335205,78.1699219 C121.382731,78.3837901 121.406494,78.6095366 121.406494,78.847168 C121.406494,79.0610362 121.388672,79.2689606 121.353027,79.4709473 C121.317383,79.672934 121.263916,79.8570955 121.192627,80.0234375 L118.341064,86.902832 C118.07967,87.5206737 117.895508,88.0256328 117.788574,88.4177246 C117.68164,88.8098164 117.628174,89.1246733 117.628174,89.3623047 C117.628174,90.098962 117.76481,90.6514467 118.038086,91.0197754 C118.311362,91.3881041 118.733151,91.5722656 119.303467,91.5722656 C119.350993,91.5722656 119.434163,91.5603842 119.552979,91.5366211 C119.671794,91.512858 119.754964,91.5009766 119.80249,91.5009766 C119.541096,91.1920557 119.356934,90.9069023 119.25,90.6455078 C119.143066,90.3841133 119.0896,90.1108413 119.0896,89.8256836 C119.0896,89.5642891 119.143066,89.2316101 119.25,88.8276367 C119.356934,88.4236633 119.517333,87.9721705 119.731201,87.4731445 L122.511475,80.7006836 C122.606527,80.4630522 122.677816,80.2432465 122.725342,80.0412598 C122.772868,79.8392731 122.796631,79.6669929 122.796631,79.5244141 C122.796631,78.9778619 122.671876,78.5560724 122.422363,78.2590332 C122.17285,77.961994 121.73918,77.7184254 121.121338,77.5283203 Z M106.435791,90.9663086 L107.825928,90.9663086 L112.067627,79.8808594 C112.186443,79.5244123 112.263672,79.2808438 112.299316,79.1501465 C112.334961,79.0194492 112.352783,78.9184574 112.352783,78.847168 C112.352783,78.3956683 112.23991,78.0748707 112.01416,77.8847656 C111.78841,77.6946605 111.390384,77.587728 110.820068,77.5639648 C110.915121,77.75407 110.986409,77.9382315 111.033936,78.1164551 C111.081462,78.2946786 111.105225,78.4194332 111.105225,78.4907227 C111.105225,78.7045909 111.033936,79.0253885 110.891357,79.453125 C110.867594,79.5481776 110.843831,79.6194659 110.820068,79.6669922 L106.435791,90.9663086 Z M105.295166,92 L109.9646,79.7739258 C110.083415,79.5125312 110.172526,79.2867848 110.231934,79.0966797 C110.291341,78.9065746 110.321045,78.7521165 110.321045,78.6333008 C110.321045,78.4194325 110.27946,78.2590337 110.196289,78.1520996 C110.113118,78.0451655 109.988363,77.9916992 109.822021,77.9916992 C109.418048,77.9916992 108.4913,78.7164641 107.041748,80.1660156 L106.578369,80.6293945 L105.936768,79.9521484 C107.053635,78.6689389 107.998206,77.7897159 108.770508,77.3144531 C109.54281,76.8391903 110.380448,76.6015625 111.283447,76.6015625 C112.067631,76.6015625 112.721107,76.8570124 113.243896,77.3679199 C113.766686,77.8788274 114.028076,78.550126 114.028076,79.3818359 C114.028076,79.5481779 114.022135,79.6788732 114.010254,79.7739258 C113.998372,79.8689783 113.98055,79.9521481 113.956787,80.0234375 C115.239997,78.9303331 116.457839,78.0867543 117.610352,77.4926758 C118.762864,76.8985973 119.766841,76.6015625 120.622314,76.6015625 C121.762945,76.6015625 122.689694,76.8926566 123.402588,77.4748535 C124.115482,78.0570504 124.471924,78.8115188 124.471924,79.7382812 C124.471924,80.4274123 124.18677,81.4373306 123.616455,82.7680664 L123.509521,82.9819336 L121.050049,88.9345703 C120.931233,89.1959648 120.842123,89.427652 120.782715,89.6296387 C120.723307,89.8316254 120.693604,90.0157869 120.693604,90.1821289 C120.693604,90.372234 120.729248,90.5266921 120.800537,90.6455078 C120.871827,90.7643235 120.978759,90.8237305 121.121338,90.8237305 C121.358969,90.8237305 121.661945,90.7167979 122.030273,90.5029297 C122.398602,90.2890614 123.046138,89.8138058 123.9729,89.0771484 L124.543213,89.7543945 C123.68774,90.6336307 122.83822,91.31087 121.994629,91.7861328 C121.151037,92.2613956 120.372806,92.4990234 119.659912,92.4990234 C118.780676,92.4990234 118.085615,92.2613956 117.574707,91.7861328 C117.0638,91.31087 116.80835,90.6573935 116.80835,89.8256836 C116.80835,89.3741839 116.873697,88.8989283 117.004395,88.3999023 C117.135092,87.9008764 117.366779,87.2236371 117.699463,86.3681641 L120.301514,80.1660156 C120.444093,79.8333317 120.556966,79.5422376 120.640137,79.2927246 C120.723308,79.0432116 120.764893,78.8709315 120.764893,78.7758789 C120.741129,78.3719055 120.681722,78.1164556 120.58667,78.0095215 C120.491617,77.9025874 120.25399,77.8491211 119.873779,77.8491211 C118.59057,77.8491211 117.182625,78.4907162 115.649902,79.7739258 C114.11718,81.0571353 112.994388,82.625479 112.281494,84.4790039 L109.429932,92 L105.295166,92 Z M177.494873,84.2651367 C179.229582,82.6492432 180.619705,80.48683 181.665283,77.777832 C182.710861,75.0688341 183.388101,71.8846212 183.697021,68.2250977 C183.8396,66.7993093 183.994058,64.6487774 184.1604,61.7734375 C184.564374,54.3593379 185.360427,48.8344908 186.548584,45.1987305 C185.360427,46.5294663 184.409916,48.5730656 183.697021,51.3295898 C182.984127,54.086114 182.449465,57.7693454 182.093018,62.3793945 C182.069254,62.7833679 182.03361,63.4012003 181.986084,64.2329102 C181.463295,72.5975353 179.96624,79.2748774 177.494873,84.2651367 Z M163.557861,65.6586914 C160.326074,67.6072689 157.890389,69.8825553 156.250732,72.4846191 C154.611076,75.0866829 153.79126,77.9679204 153.79126,81.128418 C153.79126,84.4077312 154.706127,86.9562897 156.535889,88.7741699 C158.36565,90.5920501 160.92015,91.5009766 164.199463,91.5009766 C169.379827,91.5009766 173.312568,89.3088598 175.997803,84.9245605 C178.683038,80.5402613 180.32267,73.6312321 180.916748,64.1972656 C181.439537,56.0465087 182.687083,49.9335327 184.659424,45.8581543 C186.631764,41.7827758 189.32884,39.7451172 192.750732,39.7451172 C194.414152,39.7451172 195.697342,40.0837368 196.600342,40.7609863 C197.503341,41.4382358 197.954834,42.4065692 197.954834,43.6660156 C197.954834,44.4264361 197.74691,45.0205057 197.331055,45.4482422 C196.9152,45.8759787 196.338952,46.0898438 195.602295,46.0898438 C195.150795,46.0898438 194.794354,46.006674 194.532959,45.840332 C194.271564,45.6739901 194.045818,45.3888367 193.855713,44.9848633 C194.307213,44.8422844 194.639892,44.6046566 194.85376,44.2719727 C195.067628,43.9392887 195.174561,43.4996772 195.174561,42.953125 C195.174561,42.3115202 194.942873,41.7946797 194.479492,41.4025879 C194.016111,41.0104961 193.392338,40.8144531 192.608154,40.8144531 C189.210025,40.8144531 187.225833,46.2323677 186.655518,57.0683594 C186.560465,58.9218843 186.477295,60.371414 186.406006,61.4169922 C186.049559,67.334014 185.443608,71.7717137 184.588135,74.7302246 C183.732662,77.6887355 182.461353,80.3561079 180.77417,82.7324219 C178.540435,85.8929194 175.974054,88.3107826 173.074951,89.986084 C170.175848,91.6613853 167.146093,92.4990234 163.985596,92.4990234 C160.254783,92.4990234 157.195324,91.3762319 154.807129,89.1306152 C152.418933,86.8849985 151.224854,83.9918797 151.224854,80.4511719 C151.224854,76.8391746 152.317942,73.6252582 154.50415,70.8093262 C156.690359,67.9933941 159.636944,66.0270238 163.343994,64.9101562 L163.557861,65.6586914 Z M194.043701,91.4296875 C193.73478,91.001951 193.509034,90.532636 193.366455,90.0217285 C193.223876,89.510821 193.152588,88.8751666 193.152588,88.1147461 C193.152588,86.8315366 193.431801,85.5483463 193.990234,84.2651367 C194.548668,82.9819272 195.754629,81.0809045 197.608154,78.5620117 C195.659577,79.8689844 194.15064,81.3006921 193.081299,82.8571777 C192.011958,84.4136634 191.477295,85.9523036 191.477295,87.4731445 C191.477295,88.4711964 191.697101,89.3028938 192.136719,89.9682617 C192.576337,90.6336296 193.211991,91.1207667 194.043701,91.4296875 Z M195.433838,86.0830078 C198.071546,85.2988242 200.228019,84.2770245 201.90332,83.0175781 C203.578622,81.7581317 204.41626,80.5699926 204.41626,79.453125 C204.41626,78.8828096 204.16081,78.4194354 203.649902,78.0629883 C203.138995,77.7065412 202.467696,77.5283203 201.635986,77.5283203 C200.590408,77.5283203 199.6696,78.0392202 198.873535,79.0610352 C198.07747,80.0828502 196.930916,82.4234843 195.433838,86.0830078 Z M203.026123,88.7919922 C201.956782,90.0989649 200.875575,91.0435355 199.782471,91.6257324 C198.689366,92.2079293 197.453702,92.4990234 196.075439,92.4990234 C194.364493,92.4990234 193.021896,92.0653526 192.047607,91.197998 C191.073319,90.3306434 190.586182,89.1365636 190.586182,87.6157227 C190.586182,85.0493036 191.815906,82.5720334 194.275391,80.1838379 C196.734876,77.7956424 199.259671,76.6015625 201.849854,76.6015625 C203.156826,76.6015625 204.202389,76.9104787 204.986572,77.5283203 C205.770756,78.1461619 206.162842,78.9778594 206.162842,80.0234375 C206.162842,81.2353576 205.343026,82.3819119 203.703369,83.4631348 C202.063713,84.5443576 199.235941,85.785963 195.219971,87.1879883 C195.077392,87.7583036 194.9764,88.2395 194.916992,88.6315918 C194.857584,89.0236836 194.827881,89.3623033 194.827881,89.6474609 C194.827881,90.336592 194.982339,90.8296697 195.29126,91.126709 C195.600181,91.4237482 196.134843,91.5722656 196.895264,91.5722656 C197.750737,91.5722656 198.624019,91.2989936 199.515137,90.7524414 C200.406254,90.2058892 201.327062,89.3860732 202.277588,88.2929688 L203.026123,88.7919922 Z M215.261963,91.5009766 C215.024331,91.0970032 214.852051,90.6811545 214.745117,90.253418 C214.638183,89.8256815 214.584717,89.3385444 214.584717,88.7919922 C214.584717,87.0335199 215.04215,85.2394297 215.957031,83.409668 C216.871912,81.5799062 218.196687,79.7976975 219.931396,78.0629883 C218.101635,78.6333036 216.462003,79.8986718 215.012451,81.8591309 C213.5629,83.8195899 212.838135,85.7146718 212.838135,87.5444336 C212.838135,88.5662486 213.040118,89.4038867 213.444092,90.057373 C213.848065,90.7108594 214.454016,91.1920557 215.261963,91.5009766 Z M226.989014,78.0629883 L223.567139,87.1166992 C223.400797,87.591962 223.276042,88.0256328 223.192871,88.4177246 C223.1097,88.8098164 223.068115,89.1721989 223.068115,89.5048828 C223.068115,90.1464876 223.216633,90.6395653 223.513672,90.9841309 C223.810711,91.3286964 224.244382,91.5009766 224.814697,91.5009766 L224.707764,91.2871094 C224.493895,90.8593729 224.386963,90.5385753 224.386963,90.324707 C224.386963,90.0157862 224.422607,89.6831073 224.493896,89.3266602 C224.565186,88.9702131 224.672118,88.6256527 224.814697,88.2929688 L228.593018,78.0629883 L226.989014,78.0629883 Z M225.527588,79.5244141 C225.218667,78.9065724 224.790937,78.4194354 224.244385,78.0629883 C223.697833,77.7065412 223.103763,77.5283203 222.462158,77.5283203 C221.630448,77.5283203 220.501716,78.8709176 219.075928,81.5561523 C218.909586,81.8650732 218.77889,82.1145824 218.683838,82.3046875 C217.875891,83.8017653 217.222415,85.2691172 216.723389,86.7067871 C216.224363,88.1444571 215.974854,89.1840788 215.974854,89.8256836 C215.974854,90.3484727 216.069905,90.7702621 216.26001,91.0910645 C216.450115,91.4118668 216.699624,91.5722656 217.008545,91.5722656 C218.006597,91.5722656 219.069981,91.1920611 220.19873,90.4316406 C221.32748,89.6712202 222.034422,88.8751669 222.31958,88.043457 L225.527588,79.5244141 Z M222.177002,89.9682617 C221.17895,90.8474979 220.234379,91.4772116 219.343262,91.8574219 C218.452144,92.2376321 217.495692,92.4277344 216.473877,92.4277344 C215.119378,92.4277344 214.044112,91.9821822 213.248047,91.0910645 C212.451982,90.1999467 212.053955,88.9939855 212.053955,87.4731445 C212.053955,84.9304886 213.164865,82.4829219 215.386719,80.1303711 C217.608572,77.7778203 219.919503,76.6015625 222.31958,76.6015625 C223.032474,76.6015625 223.685951,76.7560206 224.280029,77.0649414 C224.874108,77.3738622 225.444415,77.8491179 225.990967,78.4907227 L226.418701,77.171875 L230.874268,77.171875 L226.418701,88.9345703 C226.299885,89.1959648 226.210775,89.4632962 226.151367,89.7365723 C226.091959,90.0098484 226.062256,90.2534169 226.062256,90.4672852 C226.062256,90.6336271 226.091959,90.7583817 226.151367,90.8415527 C226.210775,90.9247237 226.299885,90.9663086 226.418701,90.9663086 C226.965253,90.9663086 227.844476,90.2890693 229.056396,88.9345703 L229.270264,88.7207031 L229.840576,89.2910156 C228.842524,90.550462 227.981123,91.3999815 227.256348,91.8395996 C226.531572,92.2792177 225.717697,92.4990234 224.814697,92.4990234 C224.006751,92.4990234 223.382977,92.2851584 222.943359,91.8574219 C222.503741,91.4296854 222.248291,90.7999716 222.177002,89.9682617 Z M246.032959,91.1801758 C246.769616,91.0613601 247.363686,90.7346218 247.815186,90.1999512 C248.266685,89.6652805 248.492432,89.0296261 248.492432,88.2929688 C248.492432,87.1761012 247.642912,85.8216225 245.943848,84.2294922 C244.244783,82.6373618 243.395264,81.306646 243.395264,80.2373047 C243.395264,79.9759102 243.430908,79.666994 243.502197,79.3105469 C243.573487,78.9540998 243.680419,78.5620139 243.822998,78.1342773 C243.205156,78.2768562 242.72396,78.5798317 242.379395,79.0432129 C242.034829,79.5065941 241.862549,80.1066044 241.862549,80.8432617 C241.862549,82.0076556 242.676424,83.3740156 244.304199,84.9423828 C245.931974,86.51075 246.74585,87.8177031 246.74585,88.8632812 C246.74585,89.2672546 246.686443,89.6593405 246.567627,90.0395508 C246.448811,90.419761 246.27059,90.7999655 246.032959,91.1801758 Z M243.181396,92.4990234 C241.494214,92.4990234 240.09815,92.077234 238.993164,91.2336426 C237.888178,90.3900511 237.335693,89.3860735 237.335693,88.2216797 C237.335693,87.4137329 237.579262,86.7364936 238.066406,86.1899414 C238.553551,85.6433892 239.165442,85.3701172 239.9021,85.3701172 C240.614994,85.3701172 241.191241,85.5602195 241.630859,85.9404297 C242.070477,86.3206399 242.290283,86.8315398 242.290283,87.4731445 C242.290283,88.3048544 241.999189,88.9702123 241.416992,89.4692383 C240.834795,89.9682642 240.543701,90.2771804 240.543701,90.3959961 C240.543701,90.7762063 240.763507,91.0791818 241.203125,91.3049316 C241.642743,91.5306815 242.254635,91.6435547 243.038818,91.6435547 C244.013107,91.6435547 244.743813,91.4356303 245.230957,91.0197754 C245.718101,90.6039204 245.96167,89.9801474 245.96167,89.1484375 C245.96167,88.1741488 245.129973,86.9147213 243.466553,85.3701172 C241.803133,83.8255131 240.971436,82.4116275 240.971436,81.128418 C240.971436,79.7501559 241.535802,78.6511271 242.664551,77.8312988 C243.7933,77.0114705 245.308177,76.6015625 247.209229,76.6015625 C248.848885,76.6015625 250.191482,76.9520636 251.237061,77.6530762 C252.282639,78.3540888 252.80542,79.2392525 252.80542,80.3085938 C252.80542,81.0452511 252.585614,81.6214986 252.145996,82.0373535 C251.706378,82.4532085 251.106368,82.6611328 250.345947,82.6611328 C249.60929,82.6611328 249.021161,82.4888526 248.581543,82.1442871 C248.141925,81.7997216 247.922119,81.342288 247.922119,80.7719727 C247.922119,80.2254204 248.106281,79.6907578 248.474609,79.1679688 C248.842938,78.6451797 249.0271,78.3481449 249.0271,78.2768555 C249.0271,77.9916978 248.884523,77.7837734 248.599365,77.6530762 C248.314208,77.5223789 247.850833,77.4570312 247.209229,77.4570312 C246.448808,77.4570312 245.86662,77.6411928 245.462646,78.0095215 C245.058673,78.3778501 244.856689,78.8828093 244.856689,79.5244141 C244.856689,80.3798871 245.694328,81.6036704 247.369629,83.1958008 C249.04493,84.7879311 249.882568,86.2136981 249.882568,87.4731445 C249.882568,88.922696 249.264736,90.1227166 248.029053,91.0732422 C246.793369,92.0237678 245.1775,92.4990234 243.181396,92.4990234 Z M249.668701,77.8491211 C249.692464,77.9204105 249.722168,78.0214023 249.757812,78.1520996 C249.793457,78.2827969 249.811279,78.3719073 249.811279,78.4194336 C249.811279,78.5144862 249.64494,78.7699361 249.312256,79.185791 C248.979572,79.601646 248.813232,79.9996726 248.813232,80.3798828 C248.813232,80.7838562 248.932046,81.1165352 249.169678,81.3779297 C249.407309,81.6393242 249.692463,81.7700195 250.025146,81.7700195 C250.405357,81.7700195 250.720214,81.6215021 250.969727,81.3244629 C251.21924,81.0274236 251.343994,80.6412784 251.343994,80.1660156 C251.343994,79.6907528 251.201417,79.257082 250.91626,78.8649902 C250.631102,78.4728984 250.215253,78.1342788 249.668701,77.8491211 Z M239.438721,90.324707 C239.414958,90.2058913 239.397135,90.0989588 239.385254,90.0039062 C239.373372,89.9088537 239.367432,89.825684 239.367432,89.7543945 C239.367432,89.3741843 239.587237,88.970217 240.026855,88.5424805 C240.466474,88.114744 240.686279,87.7345394 240.686279,87.4018555 C240.686279,87.0454084 240.591228,86.760255 240.401123,86.5463867 C240.211018,86.3325185 239.949627,86.2255859 239.616943,86.2255859 C239.21297,86.2255859 238.892172,86.3859847 238.654541,86.7067871 C238.41691,87.0275895 238.298096,87.4493789 238.298096,87.972168 C238.298096,88.4236676 238.387206,88.8335756 238.56543,89.2019043 C238.743653,89.570233 239.034747,89.9444968 239.438721,90.324707 Z M284.299072,91.3583984 C283.063389,90.4078729 282.148522,89.3860732 281.554443,88.2929688 C280.960365,87.1998643 280.66333,85.9998438 280.66333,84.6928711 C280.66333,83.6472929 280.900958,82.4710352 281.376221,81.1640625 C281.851483,79.8570898 282.659418,78.2174578 283.800049,76.2451172 C282.207918,77.5996161 280.978194,79.0550866 280.11084,80.6115723 C279.243485,82.1680579 278.809814,83.671054 278.809814,85.1206055 C278.809814,86.8315515 279.308833,88.2513778 280.306885,89.380127 C281.304937,90.5088761 282.635652,91.1682933 284.299072,91.3583984 Z M299.483643,91.4296875 C298.485591,91.2158192 297.689537,90.7405636 297.095459,90.0039062 C296.50138,89.2672489 295.907311,87.9365331 295.313232,86.0117188 L290.786377,70.4707031 C290.524982,69.5439407 290.317058,68.6171921 290.162598,67.6904297 C290.008137,66.7636672 289.930908,66.0151396 289.930908,65.4448242 C289.930908,64.7556932 290.067544,63.9358771 290.34082,62.9853516 C290.614096,62.034826 291.012123,60.9773821 291.534912,59.8129883 C290.513097,60.6446982 289.77051,61.5714467 289.307129,62.5932617 C288.843748,63.6150767 288.612061,64.8269787 288.612061,66.2290039 C288.612061,66.9656612 288.677408,67.7438924 288.808105,68.5637207 C288.938803,69.383549 289.158608,70.3637638 289.467529,71.5043945 L293.994385,86.6533203 C294.63599,88.7920029 295.253822,90.1821257 295.8479,90.8237305 C296.441979,91.4653352 297.238032,91.7861328 298.236084,91.7861328 C298.402426,91.7861328 298.586588,91.7564293 298.788574,91.6970215 C298.990561,91.6376136 299.222248,91.5485032 299.483643,91.4296875 Z M292.532959,70.1142578 C294.790457,69.1874954 296.35286,68.1478736 297.220215,66.9953613 C298.087569,65.8428491 298.52124,64.3042088 298.52124,62.3793945 C298.52124,61.2150007 298.218265,60.2407266 297.612305,59.456543 C297.006345,58.6723594 296.263758,58.2802734 295.384521,58.2802734 C294.172601,58.2802734 293.204268,58.8565209 292.479492,60.0090332 C291.754716,61.1615455 291.392334,62.7001857 291.392334,64.625 C291.392334,65.4329467 291.481444,66.2705849 291.659668,67.1379395 C291.837892,68.0052941 292.128986,68.9973902 292.532959,70.1142578 Z M293.281494,87.8295898 L288.897217,73.1083984 C286.853587,73.892582 285.309006,75.1698316 284.263428,76.9401855 C283.21785,78.7105395 282.695068,80.926419 282.695068,83.5878906 C282.695068,84.9661527 282.932696,86.2731058 283.407959,87.5087891 C283.883222,88.7444723 284.619868,90.0038998 285.61792,91.2871094 C286.996182,91.2395831 288.320957,90.9366076 289.592285,90.3781738 C290.863613,89.81974 292.093337,88.9702205 293.281494,87.8295898 Z M293.56665,88.7207031 C292.164625,89.9563864 290.780443,90.8712535 289.414062,91.465332 C288.047682,92.0594105 286.6635,92.3564453 285.261475,92.3564453 C283.075266,92.3564453 281.322761,91.6970281 280.003906,90.3781738 C278.685052,89.0593196 278.025635,87.3068143 278.025635,85.1206055 C278.025635,82.8393441 278.952383,80.5462355 280.805908,78.2412109 C282.659433,75.9361864 285.261458,73.8807056 288.612061,72.074707 C288.30314,71.052892 288.065512,70.0786179 287.89917,69.1518555 C287.732828,68.225093 287.649658,67.34587 287.649658,66.5141602 C287.649658,63.9952674 288.386304,61.892261 289.859619,60.2050781 C291.332934,58.5178952 293.198312,57.6743164 295.455811,57.6743164 C296.952888,57.6743164 298.206375,58.1614535 299.216309,59.1357422 C300.226242,60.1100309 300.731201,61.3100515 300.731201,62.7358398 C300.731201,64.2566808 300.065843,65.7121513 298.735107,67.1022949 C297.404372,68.4924386 295.443942,69.7815696 292.85376,70.9697266 L297.309326,86.1542969 C297.7133,87.5087958 298.152911,88.5662397 298.628174,89.3266602 C299.103437,90.0870806 299.55493,90.4672852 299.982666,90.4672852 C300.196534,90.4672852 300.463866,90.372234 300.784668,90.1821289 C301.10547,89.9920238 301.52726,89.6712262 302.050049,89.2197266 L302.620361,89.7543945 C302.00252,90.5861044 301.313399,91.2276996 300.552979,91.6791992 C299.792558,92.1306989 298.996505,92.3564453 298.164795,92.3564453 C296.952875,92.3564453 295.97266,92.0594105 295.224121,91.465332 C294.475582,90.8712535 293.923097,89.9563864 293.56665,88.7207031 Z M336.359619,89.5761719 C335.361567,88.1028572 334.624921,86.4097589 334.149658,84.4968262 C333.674395,82.5838934 333.436768,80.3680139 333.436768,77.8491211 C333.436768,72.3598358 334.987289,66.4726063 338.088379,60.1872559 C341.189469,53.9019054 345.282608,48.4661688 350.36792,43.8798828 C348.371816,44.9967504 346.601489,46.2502372 345.056885,47.6403809 C343.512281,49.0305245 342.074632,50.6523345 340.743896,52.5058594 C337.89232,56.4030143 335.670499,60.5733827 334.078369,65.0170898 C332.486239,69.460797 331.690186,73.6668096 331.690186,77.6352539 C331.690186,80.4868307 332.094153,82.9522194 332.9021,85.0314941 C333.710046,87.1107689 334.862541,88.6256463 336.359619,89.5761719 Z M358.174072,80.1660156 C355.655179,84.5146702 353.148206,87.6572983 350.653076,89.5939941 C348.157947,91.53069 345.389582,92.4990234 342.3479,92.4990234 C338.640851,92.4990234 335.765554,91.2336552 333.721924,88.7028809 C331.678294,86.1721065 330.656494,82.6017483 330.656494,77.9916992 C330.656494,73.7856235 331.47631,69.3479237 333.115967,64.6784668 C334.755623,60.0090099 337.001206,55.7376496 339.852783,51.8642578 C342.490492,48.2760237 345.698467,45.3591421 349.476807,43.1135254 C353.255146,40.8679087 356.736394,39.7451172 359.920654,39.7451172 C362.867284,39.7451172 365.237621,40.5589925 367.031738,42.1867676 C368.825855,43.8145426 369.7229,45.9591338 369.7229,48.6206055 C369.7229,51.2107877 369.051602,53.4563707 367.708984,55.3574219 C366.366367,57.258473 364.530692,58.5654261 362.201904,59.2783203 L361.916748,58.5654297 C363.461352,57.5198515 364.697017,56.0168555 365.623779,54.0563965 C366.550542,52.0959375 367.013916,49.9988718 367.013916,47.7651367 C367.013916,45.5789279 366.425787,43.8620668 365.249512,42.614502 C364.073236,41.3669371 362.451426,40.7431641 360.384033,40.7431641 C358.126535,40.7431641 355.910655,41.485751 353.736328,42.9709473 C351.562001,44.4561435 349.25107,46.8027183 346.803467,50.0107422 C343.262759,54.6683176 340.488454,59.6882055 338.480469,65.0705566 C336.472483,70.4529078 335.468506,75.5084399 335.468506,80.2373047 C335.468506,83.9918808 336.092279,86.8077706 337.339844,88.6850586 C338.587409,90.5623466 340.446846,91.5009766 342.918213,91.5009766 C345.389579,91.5009766 347.765858,90.5682873 350.047119,88.7028809 C352.328381,86.8374744 354.728422,83.8730672 357.247314,79.8095703 L358.174072,80.1660156 Z M368.164307,91.4296875 C367.855386,90.9068984 367.629639,90.3781765 367.487061,89.8435059 C367.344482,89.3088352 367.273193,88.6850622 367.273193,87.972168 C367.273193,86.7364847 367.694983,85.2394294 368.538574,83.480957 C369.382166,81.7224847 370.564364,79.8689876 372.085205,77.9204102 C370.184154,78.8709357 368.627692,80.2254144 367.415771,81.9838867 C366.203851,83.7423591 365.5979,85.5245678 365.5979,87.3305664 C365.5979,88.3999077 365.823647,89.2910121 366.275146,90.0039062 C366.726646,90.7168004 367.35636,91.1920561 368.164307,91.4296875 Z M368.948486,89.6474609 C368.948486,90.2890657 369.073241,90.7583807 369.322754,91.0554199 C369.572267,91.3524592 369.958412,91.5009766 370.481201,91.5009766 C372.239674,91.5009766 373.861483,90.2415491 375.34668,87.7226562 C376.831876,85.2037634 377.574463,82.6611456 377.574463,80.0947266 C377.574463,79.2154904 377.360598,78.5679546 376.932861,78.1520996 C376.505125,77.7362447 375.839767,77.5283203 374.936768,77.5283203 C374.057531,77.5283203 373.374351,77.7897109 372.887207,78.3125 C372.400063,78.8352891 371.69312,80.3085816 370.766357,82.7324219 C370.10099,84.4671311 369.631675,85.8631946 369.358398,86.9206543 C369.085122,87.978114 368.948486,88.8870405 368.948486,89.6474609 Z M369.483154,92.4990234 C368.057366,92.4990234 366.922693,92.0594119 366.079102,91.1801758 C365.23551,90.3009396 364.813721,89.1128005 364.813721,87.6157227 C364.813721,84.9067247 365.859283,82.3938104 367.950439,80.0769043 C370.041596,77.7599982 372.322823,76.6015625 374.794189,76.6015625 C376.410083,76.6015625 377.639807,77.0055298 378.483398,77.8134766 C379.32699,78.6214233 379.748779,79.7976811 379.748779,81.3422852 C379.748779,83.7898885 378.673513,86.261218 376.522949,88.7563477 C374.372385,91.2514773 372.02581,92.4990234 369.483154,92.4990234 Z" id="Seven-Seas-&amp;-Co" fill="#FFFFFF"></path>
        </g>
    </g>
</svg>