<?xml version="1.0" encoding="UTF-8"?>
<svg width="64px" height="64px" viewBox="0 0 64 64" version="1.1" xmlns="http://www.w3.org/2000/svg" xmlns:xlink="http://www.w3.org/1999/xlink">
    <!-- Generator: Sketch 52.1 (67048) - http://www.bohemiancoding.com/sketch -->
    <title>user</title>
    <desc>Created with Sketch.</desc>
    <g id="Page-1" stroke="none" stroke-width="1" fill="none" fill-rule="evenodd">
        <g id="Team" transform="translate(-388.000000, -480.000000)">
            <g id="Member" transform="translate(135.000000, 450.000000)">
                <g id="user" transform="translate(253.000000, 30.000000)">
                    <path d="M22.4760755,50.176 L12.928,55.3841509 C12.3676981,55.6896604 11.8641509,56.0652075 11.3956226,56.474566 C16.9624151,61.1683019 24.1485283,64 32,64 C39.7935094,64 46.9337358,61.210566 52.4848302,56.5808302 C51.9728302,56.1485283 51.4173585,55.7596981 50.8015094,55.4529811 L40.5772075,50.341434 C39.2561509,49.6809057 38.4217358,48.3308679 38.4217358,46.8540377 L38.4217358,42.842566 C38.7091321,42.5153208 39.0375849,42.0950943 39.3889811,41.5987925 C40.7824906,39.6304906 41.8366792,37.4653585 42.5672453,35.1939623 C43.8786415,34.789434 44.8446792,33.5782642 44.8446792,32.1388679 L44.8446792,27.8569057 C44.8446792,26.9150189 44.4256604,26.0733585 43.7747925,25.4840755 L43.7747925,19.2941887 C43.7747925,19.2941887 45.0463396,9.66158491 32.0012075,9.66158491 C18.9560755,9.66158491 20.2276226,19.2941887 20.2276226,19.2941887 L20.2276226,25.4840755 C19.5755472,26.0733585 19.1577358,26.9150189 19.1577358,27.8569057 L19.1577358,32.1388679 C19.1577358,33.266717 19.7506415,34.2593208 20.6381887,34.8329057 C21.7080755,39.4904151 24.5095849,42.842566 24.5095849,42.842566 L24.5095849,46.7550189 C24.5083774,48.1799245 23.7283019,49.4925283 22.4760755,50.176 Z" id="Path" fill="#E7ECED"></path>
                    <path d="M32.5470189,0.00483018868 C14.8769811,-0.297056604 0.306716981,13.7829434 0.00483018868,31.4529811 C-0.166641509,41.472 4.29886792,50.4766792 11.4089057,56.4649057 C11.8738113,56.0591698 12.3725283,55.6872453 12.9267925,55.3853585 L22.4748679,50.1772075 C23.7270943,49.4937358 24.5071698,48.1811321 24.5071698,46.7538113 L24.5071698,42.8413585 C24.5071698,42.8413585 21.7044528,39.4892075 20.6357736,34.8316981 C19.749434,34.2581132 19.1553208,33.266717 19.1553208,32.1376604 L19.1553208,27.8556981 C19.1553208,26.9138113 19.5743396,26.0721509 20.2252075,25.4828679 L20.2252075,19.2929811 C20.2252075,19.2929811 18.9536604,9.66037736 31.9987925,9.66037736 C45.0439245,9.66037736 43.7723774,19.2929811 43.7723774,19.2929811 L43.7723774,25.4828679 C44.4244528,26.0721509 44.8422642,26.9138113 44.8422642,27.8556981 L44.8422642,32.1376604 C44.8422642,33.5770566 43.8762264,34.7882264 42.5648302,35.1927547 C41.8342642,37.4641509 40.7800755,39.629283 39.386566,41.5975849 C39.0351698,42.0938868 38.706717,42.5141132 38.4193208,42.8413585 L38.4193208,46.8528302 C38.4193208,48.3296604 39.2537358,49.6809057 40.5747925,50.3402264 L50.7990943,55.4517736 C51.4125283,55.7584906 51.9667925,56.1461132 52.4775849,56.5772075 C59.3726792,50.8268679 63.8273208,42.2291321 63.9927547,32.5470189 C64.2970566,14.8769811 50.2182642,0.306716981 32.5470189,0.00483018868 Z" id="Path" fill="#147B89"></path>
                </g>
            </g>
        </g>
    </g>
</svg>