<?xml version="1.0" encoding="UTF-8"?>
<svg width="159px" height="64px" viewBox="0 0 159 64" version="1.1" xmlns="http://www.w3.org/2000/svg" xmlns:xlink="http://www.w3.org/1999/xlink">
    <!-- Generator: Sketch 52.1 (67048) - http://www.bohemiancoding.com/sketch -->
    <title>noun_Turkey_727400</title>
    <desc>Created with Sketch.</desc>
    <defs>
        <linearGradient x1="50%" y1="0%" x2="50%" y2="100%" id="linearGradient-1">
            <stop stop-color="#FFFFFF" offset="0%"></stop>
            <stop stop-color="#000000" offset="100%"></stop>
        </linearGradient>
        <linearGradient x1="12.0998348%" y1="72.7425357%" x2="88.1853453%" y2="13.5814785%" id="linearGradient-2">
            <stop stop-color="#34CDFA" offset="0%"></stop>
            <stop stop-color="#E8D9F1" offset="100%"></stop>
        </linearGradient>
    </defs>
    <g id="Page-1" stroke="none" stroke-width="1" fill="none" fill-rule="evenodd">
        <g id="Home-Copy" transform="translate(-641.000000, -2406.000000)">
            <g id="Offices" transform="translate(-275.000000, 2067.000000)">
                <g id="Reason-Copy-6" transform="translate(810.000000, 261.000000)">
                    <g id="Group-2" transform="translate(20.000000, 20.000000)">
                        <g id="noun_Turkey_727400" transform="translate(86.000000, 58.000000)">
                            <path d="M3.52622222,14.3111111 L5.36622222,13.8471111 L6.34755556,11.8951111 L5.97777778,10.0568889 L8.18044444,8.71111111 L8.30133333,6.63288889 L6.58755556,5.89511111 L6.95733333,3.57511111 L8.30133333,2.11022222 L9.64533333,1.984 L10.6195556,0.887111111 L13.0711111,0.887111111 L15.3911111,2.72177778 L16.6142222,1.74044444 L18.4968889,2.21155556 L18.7511111,5.232 L21.3128889,7.47733333 L23.1671111,7.73155556 L25.0924444,9.71911111 L26.8222222,10.6844444 L26.8222222,11.7688889 L25.352,13.2462222 L23.2382222,13.0506667 L22.0844444,12.4142222 L20.1591111,12.4142222 L19.3893333,13.1164444 L16.504,13.0524444 L14.7742222,13.7582222 L13.8782222,16.0622222 L9.45511111,18.3093333 L5.928,21.3244444 L5.80177778,20.1653333 L6.63555556,17.6675556 L7.59555556,17.6035556 L9.26133333,16.5191111 L7.65955556,16.7075556 L6.63733333,16.3857778 L5.672,16.64 L4.328,15.8062222 L3.62755556,14.3306667 L3.52622222,14.3111111 Z M127.780444,3.97688889 L127.384,4.52622222 L126.361778,6.70933333 L124.248,7.98577778 L121.428444,9.39911111 L120.916444,10.6862222 L118.285333,10.8746667 L117.263111,11.7084444 L113.8,10.9368889 L112.776,10.2951111 L111.558222,10.2951111 L111.040889,9.97866667 L109.375111,10.4835556 L106.301333,10.6844444 L102.710222,12.1546667 L99.8266667,11.5804444 L97.9013333,10.2311111 L96.8791111,10.9351111 L93.6097778,9.33333333 L91.944,9.08088889 L88.9911111,7.088 L88.0951111,7.088 L87.3253333,8.17777778 L85.9173333,7.856 L84.44,5.87377778 L84.056,3.81866667 L82.712,2.67022222 L81.752,2.85866667 L79.7004444,4.91022222 L78.9946667,4.58666667 L78.2248889,5.104 L75.1457778,2.27733333 L74.8933333,0.609777778 L74.3813333,0.421333333 L72.3297778,1.44355556 L69.6364444,1.44355556 L68.3546667,1.00088889 L66.6888889,1.44355556 L62.5235556,1.25511111 L60.4737778,1.70311111 L56.5608889,3.43822222 L54.7688889,3.62844444 L51.6257778,4.208 L50.7333333,5.42222222 L49.256,5.808 L47.848,7.28355556 L47.0782222,7.73155556 L46.2444444,9.78311111 L45.4746667,10.2933333 L45.6008889,11.1893333 L42.5911111,11.3848889 L38.1057778,9.71733333 L36.6924444,9.71733333 L35.6702222,10.4817778 L33.8088889,10.1031111 L31.2471111,10.7448889 L29.9653333,10.2915556 L27.8515556,10.8711111 L27.4657778,12.0195556 L29.0053333,14.5813333 L31.3733333,14.6506667 L33.3608889,14.9724444 L33.0391111,15.8684444 L29.5813333,15.9324444 L26.5715556,16.8284444 L25.48,18.2417778 L26.0542222,19.0737778 L27.656,18.5582222 L28.2995556,19.5235556 L27.0177778,19.9715556 L23.1048889,20.0337778 L21.4391111,19.1377778 L19.4515556,20.0337778 L18.4915556,18.6204444 L17.4,18.6826667 L15.928,20.3537778 L14.5164444,20.2915556 L12.4648889,18.6826667 L10.4773333,18.6826667 L6.63377778,21.6355556 L6.05777778,23.1786667 L5.41955556,24.6542222 L6.05777778,25.7404444 L5.99377778,27.4702222 L5.41955556,28.1777778 L5.99377778,29.2 L8.23911111,28.4284444 L8.87733333,28.6915556 L10.5431111,28.3022222 L12.5946667,28.3644444 L10.6124444,30.2257778 L10.8666667,31.5075556 L11.6986667,32.8586667 L11.6524444,33.8791111 L11.4888889,34.6133333 L12.0328889,34.9973333 L13.5671111,34.0071111 L13.6986667,34.8711111 L12.6764444,35.9253333 L10.568,37.232 L11.3004444,37.7422222 L12.5128889,37.8702222 L11.3004444,38.6648889 L10.568,40.1404444 L9.672,40.1404444 L8.744,37.9004444 L8.10577778,37.584 L7.816,38.9902222 L8.39022222,40.5511111 L7.65777778,41.3848889 L7.92088889,42.592 L9.32888889,43.4951111 L9.65066667,42.7893333 L11.3164444,44.2008889 L12.5982222,43.9395556 L14.5235556,45.0986667 L15.0355556,47.0808889 L13.6915556,48.4302222 L14.7831111,49.4524444 L14.8471111,50.4746667 L15.9386667,50.544 L18.0524444,52.5937778 L17.2826667,53.9395556 L15.9386667,53.5537778 L15.6168889,54.512 L16.7031111,54.9671111 L19.2702222,54.3235556 L22.856,54.3235556 L22.6017778,55.0293333 L21.7804444,55.904 L19.9404444,56.7004444 L17.1937778,56.5848889 L16.5502222,57.5502222 L17.5617778,57.8133333 L18.9697778,57.3475556 L20.8577778,57.3368889 L21.7626667,56.8888889 L21.7626667,58.112 L22.2746667,58.5546667 L23.2382222,57.3404444 L24.3866667,55.9271111 L25.6044444,55.8648889 L26.44,56.8888889 L27.5315556,56.8888889 L29.1351111,57.8488889 L29.9048889,56.7626667 L31.1866667,56.9528889 L30.9911111,57.8488889 L30.3546667,58.176 L31.1244444,59.3244444 L31.3146667,60.4782222 L33.112,61.9484444 L33.7502222,61.632 L35.6755556,62.4035556 L37.7253333,62.08 L38.6853333,61.3102222 L40.3511111,61.3102222 L41.3111111,60.48 L42.7831111,61.2497778 L43.8106667,60.6773333 L43.6168889,58.688 L43.9386667,57.6604444 L43.6168889,55.8062222 L47.208,55.4826667 L50.2817778,55.7422222 L54.3884444,57.8524444 L55.8586667,57.8524444 L58.5537778,61.4471111 L60.8631111,62.9173333 L68.5555556,61.952 L70.8595556,60.9937778 L71.6293333,60.9937778 L72.0151111,61.3831111 L73.1013333,60.6133333 L73.4853333,59.2 L77.1386667,55.0346667 L78.04,54.8462222 L81.4977778,56.0586667 L83.6115556,57.0186667 L86.2408889,56.512 L86.4311111,55.7422222 L88.2924444,54.3928889 L89.7004444,54.8462222 L89.8942222,56.0586667 L88.6124444,58.1155556 L86.9413333,59.4542222 L87.0106667,60.288 L88.5448889,62.0853333 L88.2088889,63.2622222 L89.8853333,63.5786667 L91.6524444,63.2728889 L93.3022222,62.6595556 L93.1173333,60.7715556 L94.2195556,60.0977778 L94.2764444,56.9226667 L94.7671111,55.5786667 L97.208,56.1902222 L98.6746667,56.5546667 L102.765333,54.9671111 L103.739556,54.8462222 L104.962667,54.1137778 L109.360889,53.6871111 L110.948444,54.1137778 L111.801778,54.9084444 L114.553778,55.4577778 L118.397333,55.5786667 L118.767111,54.8462222 L120.960889,54.1706667 L122.248,52.768 L125.236444,51.8506667 L127.376889,51.8506667 L129.021333,51.5448889 L133.296889,51.792 L136.655111,50.6328889 L139.037333,50.5706667 L139.711111,51.1288889 L142.025778,49.2266667 L144.045333,49.2266667 L144.898667,48.5564444 L148.377778,48.5564444 L151.309333,49.2888889 L153.508444,48.6773333 L154.667556,49.4097778 L154.603556,51.0595556 L156.006222,51.7297778 L157.894222,51.1751111 L158.331556,49.7155556 L157.535111,47.7582222 L155.705778,44.464 L153.444444,43.6106667 L153.629333,42.6346667 L153.508444,40.1866667 L154.605333,37.6266667 L154.056,36.5866667 L152.105778,36.3395556 L152.041778,34.0195556 L152.285333,32.432 L151.494222,29.2568889 L150.576889,27.6071111 L150.512889,26.7537778 L152.895111,26.5742222 L153.748444,24.3128889 L154.665778,23.5164444 L153.684444,21.9342222 L152.224889,20.4693333 L150.575111,20.5848889 L147.949333,20.4693333 L145.503111,19.0044444 L145.382222,15.6391111 L145.936889,13.0133333 L145.019556,11.2426667 L143.490667,10.8782222 L143.369778,9.84 L141.904889,8.25244444 L140.381333,7.888 L136.838222,4.89244444 L135.435556,4.52444444 L134.212444,5.56266667 L133.174222,5.74755556 L130.975111,4.89422222 L130.178667,5.92888889 L129.204444,5.62666667 L128.84,4.09955556 L127.780444,3.97688889 Z M19.7537778,58.8515556 L20.3333333,58.2382222 L21.0355556,58.272 L21.2204444,58.8835556 L20.488,59.1004444 L19.7537778,58.8515556 Z M1.064,21.0168889 L2.376,21.5324444 L4.05777778,21.0737778 L4.30488889,20.1564444 L3.50844444,19.6337778 L2.62311111,20.3093333 L1.39466667,20.3413333 L1.064,21.0168889 Z" id="Shape" fill="url(#linearGradient-1)" fill-rule="nonzero" opacity="0.3"></path>
                            <path d="M37.4888889,38.8568889 L37.4888889,29.3155556 L33.9191111,29.3155556 L33.9191111,28.0355556 L42.4968889,28.0355556 L42.4968889,29.3173333 L38.9164444,29.3173333 L38.9164444,38.8586667 L37.4888889,38.8586667 L37.4888889,38.8568889 Z M54.3031111,28.0355556 L55.7324444,28.0355556 L55.7324444,34.2951111 C55.7324444,35.3795556 55.6115556,36.24 55.3626667,36.8817778 C55.1155556,37.52 54.6728889,38.0373333 54.0293333,38.4373333 C53.3911111,38.8444444 52.5484444,39.0382222 51.5048889,39.0382222 C50.4915556,39.0382222 49.6595556,38.8693333 49.016,38.5226667 C48.3724444,38.1742222 47.9137778,37.6693333 47.64,37.0044444 C47.3608889,36.3413333 47.224,35.4382222 47.224,34.2968889 L47.224,28.0355556 L48.6586667,28.0355556 L48.6586667,34.2826667 C48.6586667,35.2213333 48.7475556,35.9182222 48.9182222,36.3608889 C49.0924444,36.8035556 49.3982222,37.1448889 49.8195556,37.3884444 C50.2462222,37.632 50.7688889,37.7528889 51.3804444,37.7528889 C52.4346667,37.7528889 53.1884444,37.5093333 53.6364444,37.0346667 C54.0808889,36.56 54.3066667,35.6444444 54.3066667,34.2826667 L54.3066667,28.0355556 L54.3031111,28.0355556 Z M61.3715556,38.8568889 L61.3715556,28.0355556 L66.1697778,28.0355556 C67.1351111,28.0355556 67.8675556,28.1351111 68.3742222,28.3306667 C68.8755556,28.5244444 69.2702222,28.864 69.576,29.3582222 C69.8764444,29.8488889 70.024,30.3911111 70.024,30.992 C70.024,31.7582222 69.7768889,32.4053333 69.2808889,32.9333333 C68.7795556,33.4542222 68.0151111,33.7866667 66.9768889,33.9342222 C67.3573333,34.1137778 67.6417778,34.2933333 67.8426667,34.4728889 C68.2586667,34.8568889 68.6551111,35.3368889 69.0284444,35.9128889 L70.9111111,38.8586667 L69.1084444,38.8586667 L67.6791111,36.6026667 C67.2631111,35.9591111 66.9146667,35.456 66.6462222,35.1146667 C66.3724444,34.7733333 66.1342222,34.5297778 65.9191111,34.3928889 C65.7022222,34.2506667 65.4871111,34.1546667 65.2648889,34.1031111 C65.1013333,34.0711111 64.8382222,34.0515556 64.4684444,34.0515556 L62.8062222,34.0515556 L62.8062222,38.8586667 L61.3715556,38.8586667 L61.3715556,38.8568889 Z M62.8062222,32.8106667 L65.8853333,32.8106667 C66.5342222,32.8106667 67.0515556,32.7431111 67.4195556,32.6062222 C67.7893333,32.4746667 68.0684444,32.2577778 68.2568889,31.9626667 C68.4524444,31.6622222 68.5466667,31.3404444 68.5466667,30.992 C68.5466667,30.4764444 68.3617778,30.0551111 67.9884444,29.728 C67.6186667,29.3991111 67.0337778,29.232 66.2266667,29.232 L62.8044444,29.232 L62.8044444,32.8106667 L62.8062222,32.8106667 Z M75.4444444,38.8568889 L75.4444444,28.0355556 L76.8791111,28.0355556 L76.8791111,33.4026667 L82.2515556,28.0355556 L84.1911111,28.0355556 L79.6506667,32.4231111 L84.3902222,38.8586667 L82.4986667,38.8586667 L78.6497778,33.3813333 L76.8791111,35.1057778 L76.8791111,38.8586667 L75.4444444,38.8586667 L75.4444444,38.8568889 Z M88.8524444,38.8568889 L88.8524444,28.0355556 L96.6764444,28.0355556 L96.6764444,29.3173333 L90.2817778,29.3173333 L90.2817778,32.6275556 L96.2711111,32.6275556 L96.2711111,33.8933333 L90.2817778,33.8933333 L90.2817778,37.5822222 L96.9288889,37.5822222 L96.9288889,38.8586667 L88.8524444,38.8586667 L88.8524444,38.8568889 Z M105.184889,38.8568889 L105.184889,34.2702222 L101.019556,28.0337778 L102.76,28.0337778 L104.889778,31.296 C105.286222,31.9093333 105.648889,32.5191111 105.992,33.1306667 C106.313778,32.5635556 106.708444,31.9235556 107.172444,31.2177778 L109.264889,28.0337778 L110.936,28.0337778 L106.617778,34.2702222 L106.617778,38.8568889 L105.184889,38.8568889 Z" id="Shape" fill="#000000" fill-rule="nonzero"></path>
                            <g id="Group" fill="url(#linearGradient-2)">
                                <path d="M43.4444444,60.4444444 C43.4017778,60.2382222 43.3342222,59.0008889 43.256,58.4782222 C43.4657778,58.4213333 43.6471111,58.4693333 43.8551111,58.4124444 C43.9244444,54.9848889 45.2328889,55.6284444 48.3333333,55.7795556 C50.8222222,55.9004444 52.4435556,56.8888889 54.568,57.9253333 C54.7226667,57.7066667 54.8382222,57.5075556 54.9893333,57.2995556 C56.1093333,57.5893333 57.8088889,59.7368889 58.6853333,60.6773333 C59.1137778,61.1395556 59.8782222,62.4551111 60.3795556,62.6346667 C61.8568889,63.1626667 62.1964444,61.8275556 63.224,61.5288889 C64.7297778,61.0915556 66.5555556,61.2906667 68.1128889,60.8782222 C69.5475556,60.4977778 71.7306667,58.96 71.48,61.5217778 C72.1573333,61.4026667 72.8844444,61.0062222 73.4622222,60.4568889 C73.848,60.0906667 73.4284444,59.6213333 73.6542222,59.3208889 C73.9777778,58.8888889 74.6728889,58.7448889 74.968,58.2275556 C76.0933333,56.2595556 77.1066667,54.624 79.8515556,54.4782222 C80.7031111,56.7875556 83.7004444,56.3875556 85.6293333,56.4088889 C85.6542222,56.2791111 85.6808889,56.1493333 85.7111111,56.0213333 C86.584,56.8071111 87.4355556,56.0924444 87.3111111,54.9173333 C91.5137778,54.4142222 89.7822222,59.1608889 87.0408889,59.8168889 C87.0622222,60.7768889 88.0773333,60.8266667 88.984,61.0968889 C88.6924444,61.5182222 88.7724444,62.2684444 88.5911111,62.6328889 C89.6097778,62.8337778 96.2657778,63.5164444 93.2951111,60.7004444 C95.4142222,60.5511111 94.1928889,57.6391111 94.3688889,56.256 C95.704,55.9928889 96.9946667,56.4106667 98.0737778,57.0897778 C98.6924444,54.6328889 102.429333,56.3395556 103.705778,54.4782222 C105.428444,53.9875556 110.127111,52.912 110.589333,55.5235556 C112.511111,55.0773333 114.335111,55.6053333 116.294222,55.4791111 C116.310222,55.0737778 116.594667,54.6275556 116.612444,54.2808889 C117.513778,56.1297778 117.922667,55.3937778 118.944889,55.0631111 C119.908444,54.7502222 121.636444,53.1253333 122.836444,52.6666667 C124.507556,52.032 126.459556,52.3235556 128.793778,51.76 C128.884444,51.7386667 129.663111,51.8524444 129.883556,51.8364444 C130.057778,51.824 130.736889,51.3831111 130.717333,51.3795556 C130.836444,51.4026667 131.823111,51.7191111 131.849778,51.7226667 C131.904889,51.7315556 132.427556,52.544 132.772444,52.6257778 C133.071111,52.6968889 134.027556,51.9466667 134.333333,51.8222222 C136.936,50.7484444 137.462222,50.4942222 139.933333,52.1546667 C141.304,49.4577778 146.486222,47.4186667 149.444444,48.4391111 C149.769778,48.5511111 150.888,49.5128889 150.987556,49.5235556 C151.588444,49.5804444 152.824,48.8782222 152.827556,48.8782222 C153.981333,49.1324444 154.390222,50.3217778 153.465778,51.7315556 C154.786667,51.792 156.132444,51.4595556 157.220444,50.6648889 C158.713778,49.5768889 158.553778,49.1431111 157.899556,47.3315556 C157.366222,45.8542222 157.072889,44.7253333 155.888889,44.0426667 C154.969778,43.5111111 153.359111,44.2471111 153.021333,42.4871111 C154.671111,42.624 153.748444,41.552 153.949333,40.6471111 C153.963556,40.5813333 154.173333,39.0826667 154.166222,38.8924444 C154.111111,37.5448889 153.979556,35.2657778 152.132444,36.6008889 C152.434667,34.2364444 152.653333,32.7733333 151.888889,30.6648889 C151.32,29.0933333 150.333333,27.5004444 149.897778,25.7937778 C151.949333,26.2737778 151.816,27.0862222 153.042667,25.3315556 C154.192889,23.6853333 153.604444,22.9191111 153.183111,21.1431111 C150.672889,20.2044444 147.599111,20.3822222 145.504889,18.5991111 C143.944,17.2693333 147.334222,10.7306667 143.028444,11.5164444 C143.4,10.8088889 144.016889,9.86844444 143.853333,8.91022222 C142.802667,8.92622222 140.411556,8.27377778 139.444444,7.73155556 C138.400889,7.15022222 137.931556,5.57155556 137.005333,5.056 C135.208,4.05333333 134.980444,5.61422222 133.449778,5.84711111 C132.308444,6.01955556 131.611556,4.59555556 129.954667,5.38133333 C130.328,5.66577778 130.351111,5.98933333 130.530667,6.18666667 C130.107556,6.32 129.467556,6.25955556 129.033778,6.18666667 C129.352,1.50222222 126.376,5.92355556 125.442667,7.10933333 C124.678222,8.08 123.337778,8.43555556 122.559111,9.09688889 C121.360889,10.1155556 121.656,10.7288889 120.824,11.5306667 C118.818667,9.69955556 117.892444,12.5528889 116.582222,12.8693333 C116.703111,12.5688889 116.649778,11.9075556 116.747556,11.5875556 C115.321778,11.2675556 114.358222,11.6497778 113,11.3866667 C110.898667,10.9795556 111.193778,10.6115556 108.932444,11.9146667 C107.428444,10.7342222 103.744889,11.5022222 101.833778,11.7706667 C101.184889,11.8631111 100.288889,12.464 99.6115556,12.1848889 C99.0248889,11.9448889 98.9235556,10.8142222 98.6088889,10.7022222 C97.5724444,10.3342222 97.4266667,10.4071111 96.3208889,11.3564444 C95.0426667,10.0533333 93.656,9.73155556 91.9244444,9.15733333 C90.3884444,8.64711111 89.2257778,7.47377778 87.7075556,7.14133333 C87.496,7.648 86.776,8.26844444 86.6071111,8.64711111 C85.9777778,7.85066667 85.1653333,7.35822222 84.7635556,6.44266667 C84.4222222,5.66222222 84.8062222,4.85155556 84.3297778,3.99288889 C83.0515556,1.68888889 82.5111111,2.95288889 81.0017778,3.77066667 C79.4853333,4.592 78.3813333,5.13244444 76.7137778,4.28088889 C75.3004444,3.55733333 74.2533333,1.79733333 74.5182222,0.243555556 C73.4017778,-0.08 72.5822222,0.314666667 72.7457778,1.52177778 C70.5377778,2.01244444 69.0782222,1.35466667 66.9964444,1.11111111 C64.9057778,0.864 63.4426667,1.63022222 61.4906667,1.12711111 C60.9502222,2.608 59.464,1.40977778 58.9555556,2.85155556 C57.1137778,2.79288889 56.7671111,3.86311111 55.3911111,4.18488889 C53.5528889,4.61333333 52.7706667,3.936 50.9733333,5.28355556 C48.7297778,6.96533333 47.1475556,8.68444444 45.24,10.6186667 C45.9173333,10.752 46.4755556,11.2408889 46.9768889,11.5004444 C43.3786667,13.2391111 39.7911111,7.56622222 36.3564444,10.0568889 C36.4826667,10.2062222 36.6622222,10.4995556 36.8044444,10.672 C35.4266667,11.824 33.7448889,11.0791111 32.1164444,10.8408889 C29.5617778,10.4657778 29.2186667,10.3057778 27.2453333,12.2666667 C28.1146667,14.672 28.8773333,14.6453333 30.9946667,14.2168889 C31.9173333,14.032 32.6284444,13.2995556 33.4853333,13.7688889 C34.3813333,14.256 34.5751111,15.2071111 33.8853333,15.8453333 C32.4293333,17.1893333 25.32,15.0737778 25.9155556,19.0791111 C26.7813333,19.1946667 27.5688889,18.9422222 28.2693333,18.4782222 C30.1875556,21.5555556 20.2888889,19.3564444 19.2204444,20.2062222 C19.0106667,19.6515556 18.3511111,19.2035556 18.104,18.6702222 C17.0533333,18.9742222 16.9128889,20.16 16.1146667,20.4568889 C15.256,20.7768889 13.7982222,20.0337778 13.1671111,19.8275556 C12.3493333,19.5644444 11.7591111,18.8088889 10.7724444,19.1502222 C9.65422222,19.5395556 9.99733333,20.5795556 9.448,21.1164444 C8.19644444,22.3466667 6.27822222,22.5617778 5.87111111,24.6542222 C5.65066667,25.7831111 6.34933333,26.0462222 6.35111111,26.8782222 C6.35111111,27.7973333 5.81244444,29.0595556 5.68977778,29.9662222 C7.06044444,30.3022222 7.70222222,28.928 8.77244444,28.4497778 C9.74844444,28.0124444 11.4782222,27.6942222 12.5146667,27.8097778 C12.3813333,29.4257778 10.7493333,30.6542222 10.7617778,32.2328889 C10.7671111,32.9902222 12.0346667,35.7155556 12.7262222,35.7493333 C13.0017778,34.96 13.3715556,34.8231111 13.8426667,34.4711111 C14.1768889,37.1128889 12.1555556,36.7573333 10.7493333,37.776 C11.1137778,38.0942222 11.3342222,38.8497778 11.6382222,39.1146667 C11.0088889,39.6106667 10.4524444,40.1688889 9.88177778,40.6915556 C8.93244444,39.8364444 8.98577778,38.432 8.104,37.5235556 C7.46044444,38.1866667 7.89066667,38.7413333 7.69688889,39.5591111 C7.65422222,39.7404444 8.20177778,40.0871111 8.12177778,40.4568889 C8.04533333,40.8177778 7.20622222,40.9475556 7.19733333,41.2746667 C7.15466667,42.9617778 7.62755556,43.1573333 9.21688889,44.4266667 C9.17955556,43.536 9.42666667,42.8675556 10.28,42.6933333 C10.8328889,44.7573333 12.8044444,43.9004444 14.1004444,44.9368889 C15.3413333,45.9306667 15.6648889,47.9626667 13.6791111,48.2613333 C13.8942222,49.0488889 14.2284444,49.5377778 14.9573333,49.8151111 C14.536,51.9413333 17.6115556,51.136 18.072,53.072 C17.336,53.3742222 16.584,53.3973333 15.9297778,53.1377778 C13.816,56.5635556 21.6062222,55.0684444 22.9111111,54.9208889 C21.5084444,57.7582222 19.144,55.7528889 16.9893333,56.6648889 C13.4871111,58.1493333 19.6151111,57.952 20.5448889,57.9946667 C21.2008889,58.0248889 21.2311111,58.8213333 21.8782222,58.6684444 C22.7422222,58.464 22.4631111,58.0088889 23.1688889,57.6035556 C23.9653333,57.1466667 24.3706667,56.2666667 25.6577778,56.432 C26.6995556,56.5653333 30.5235556,60.2382222 30.3582222,56.6933333 C32.7262222,57.0488889 30.7315556,58.3431111 30.9751111,59.1022222 C31.0462222,59.3208889 32.4542222,61.6142222 32.5911111,61.7297778 C34.4862222,63.3137778 38.6977778,61.4453333 39.6026667,62.6417778 C40.0168889,60.8871111 42.7848889,62.0497778 43.88,60.2204444" id="Path"></path>
                                <path d="M3.44444444,19.7777778 C2.98933333,19.7866667 -0.918222222,20.7288889 1.21155556,22.0035556 C2.76533333,22.9351111 6.14844444,20.2986667 3.44444444,20" id="Path"></path>
                                <path d="M7.66666667,9.11111111 C7.72,8.69866667 7.95111111,7.232 8.08977778,6.46222222 C4.60888889,7.00088889 7.19555556,-0.965333333 9.71644444,2.21511111 C10.7084444,-1.296 13.7662222,2.13155556 15.4515556,2.864 C15.8657778,1.64622222 17.1493333,0.881777778 18.1271111,2.03911111 C18.8613333,2.90844444 18.1662222,4.83733333 18.8222222,5.97866667 C19.8533333,6.08888889 20.4915556,6.63822222 21.3893333,6.46577778 C21.4497778,6.88 21.8835556,7.30666667 21.928,7.75466667 C24.2408889,7.31911111 27.5831111,11.1182222 25.4337778,13.1324444 C24.2426667,14.2488889 23.4782222,13.5946667 22.1111111,13.2657778 C20.392,12.8515556 20.2426667,13.12 18.5555556,13.344 C17.3377778,13.504 16.3848889,13.1004444 15.4017778,13.7706667 C14.488,14.3928889 13.8213333,15.6266667 12.9893333,16.3875556 C10.7404444,18.4408889 8.44888889,19.1395556 5.92266667,20.6524444 C5.85866667,19.6888889 6.00622222,18.2613333 6.55022222,17.5502222 C7.07644444,16.8622222 7.91022222,17.2977778 8.30488889,16.48 C6.44,16.2382222 4.02933333,16.5333333 3.22755556,14.4888889 C4.05244444,14.2151111 4.856,13.8595556 5.63111111,13.5164444 C5.71466667,11.9804444 5.34488889,7.87911111 8.11111111,9.33155556" id="Path"></path>
                            </g>
                        </g>
                    </g>
                </g>
            </g>
        </g>
    </g>
</svg>