<?xml version="1.0" encoding="UTF-8"?>
<svg width="64px" height="53px" viewBox="0 0 64 53" version="1.1" xmlns="http://www.w3.org/2000/svg" xmlns:xlink="http://www.w3.org/1999/xlink">
    <!-- Generator: Sketch 52.1 (67048) - http://www.bohemiancoding.com/sketch -->
    <title>004-captain</title>
    <desc>Created with Sketch.</desc>
    <defs>
        <linearGradient x1="8.75143693%" y1="92.0997125%" x2="92.0846401%" y2="8.76650936%" id="linearGradient-1">
            <stop stop-color="#34CDFA" offset="0%"></stop>
            <stop stop-color="#E8D9F1" offset="100%"></stop>
        </linearGradient>
    </defs>
    <g id="Page-1" stroke="none" stroke-width="1" fill="none" fill-rule="evenodd">
        <g id="Home-Copy" transform="translate(-688.000000, -4640.000000)">
            <g id="Why-us" transform="translate(-290.000000, 4640.000000)">
                <g id="Part-title">
                    <g id="004-captain" transform="translate(978.000000, 0.000000)">
                        <path d="M58.666625,31.8000497 C61.6,28.0900025 63.466625,23.319995 64,18.5499876 C64,10.5999752 40.266625,0 32,0 C23.733375,0 0,10.5999752 0,18.5499876 C0,26.5 4.266625,29.1499627 5.333375,31.8000497 L5.333375,39.7500621 C4.266625,41.0749814 2.4,43.1950261 3.2,45.5800298 C4,47.9650335 13.866625,53 32,53 C50.133375,53 58.933375,50.6149963 60.8,45.5800298 C62.666625,40.5450634 59.733375,41.0749814 58.666625,39.7500621 L58.666625,31.8000497 Z" id="Path" fill="#67D9FB"></path>
                        <path d="M64,18.666625 C64,10.666625 40.266625,0 32,0 C23.733375,0 0,10.666625 0,18.666625 C0,26.666625 4.266625,29.33325 5.333375,32 L58.66675,32 C61.6,28.266625 63.466625,23.466625 64,18.666625 Z" id="Path" fill="#CCF2FE"></path>
                        <path d="M35,0.266625 C33.9231177,0 33.1154244,0 32.3077311,0 C23.9616093,0 0,10.666625 0,18.666625 C0,26.666625 4.30765542,29.33325 5.38466392,32 L10.7693278,32 C9.69231934,29.33325 5.38466392,26.666625 5.38466392,18.666625 C5.38466392,11.466625 25.0384916,1.866625 35,0.266625 Z" id="Path" fill="#B3ECFD"></path>
                        <path d="M10.7426252,32 L5.35218167,32 L5.35218167,39.8750308 C4.2739919,41.1874539 2.3873493,43.2875031 3.19592846,45.6500123 C4.00450762,48.0125215 13.9769418,53 32.3047782,53 L35,53 C18.5589325,52.73754 10.4731409,50.3750308 8.58649832,45.6500123 C6.69985572,40.9249938 9.66456175,41.1874539 10.7427515,39.8750308 L10.7427515,32 L10.7426252,32 Z" id="Path" fill="#4DD3FB"></path>
                        <rect id="Rectangle" fill="#34CDFA" x="5" y="32" width="53" height="8"></rect>
                        <rect id="Rectangle" fill="#1AC6FA" x="5" y="32" width="5" height="8"></rect>
                        <polygon id="Path" fill="url(#linearGradient-1)" points="37.333375 19 36.26675 19 34.66675 19.8 34.66675 16.333375 37.333375 16.333375 37.333375 11 26.66675 11 26.66675 16.333375 29.333375 16.333375 29.333375 20.06675 27.733375 19.26675 24 19.26675 24 24.6 26.133375 24.6 30.933375 27 33.333375 27 38.133375 24.6 40 24.6 40 19"></polygon>
                    </g>
                </g>
            </g>
        </g>
    </g>
</svg>