<?xml version="1.0" encoding="UTF-8"?>
<svg width="64px" height="64px" viewBox="0 0 64 64" version="1.1" xmlns="http://www.w3.org/2000/svg" xmlns:xlink="http://www.w3.org/1999/xlink">
    <!-- Generator: Sketch 52.1 (67048) - http://www.bohemiancoding.com/sketch -->
    <title>019-helm</title>
    <desc>Created with Sketch.</desc>
    <defs>
        <linearGradient x1="14.6464277%" y1="85.3729782%" x2="85.3563172%" y2="14.661422%" id="linearGradient-1">
            <stop stop-color="#34CDFA" offset="0%"></stop>
            <stop stop-color="#E8D9F1" offset="100%"></stop>
        </linearGradient>
    </defs>
    <g id="Page-1" stroke="none" stroke-width="1" fill="none" fill-rule="evenodd">
        <g id="Home-Copy" transform="translate(-688.000000, -920.000000)" fill-rule="nonzero">
            <g id="Our-services" transform="translate(-263.000000, 920.000000)">
                <g id="Part-title" transform="translate(896.000000, 0.000000)">
                    <g id="019-helm" transform="translate(55.000000, 0.000000)">
                        <path d="M64,34.666625 L64,29.33325 L58.4,29.33325 C57.86725,24.150125 55.827625,19.23675 52.533375,15.199875 L56.533375,11.199875 L52.8,7.466625 L48.8,11.466625 C44.76325,8.172375 39.84975,6.13275 34.666625,5.6 L34.666625,0 L29.33325,0 L29.33325,5.6 C24.150125,6.13275 19.23675,8.172375 15.199875,11.466625 L11.199875,7.466625 L7.466625,11.2 L11.466625,15.2 C8.172375,19.23675 6.13275,24.15025 5.6,29.333375 L0,29.333375 L0,34.66675 L5.6,34.66675 C6.13275,39.849875 8.172375,44.76325 11.466625,48.800125 L7.466625,52.800125 L11.2,56.533375 L15.2,52.533375 C19.23675,55.82775 24.15025,57.86725 29.333375,58.4 L29.333375,64 L34.66675,64 L34.66675,58.4 C39.849875,57.86725 44.76325,55.827625 48.800125,52.533375 L52.800125,56.533375 L56.5335,52.8 L52.5335,48.8 C55.827875,44.76325 57.867375,39.84975 58.400125,34.666625 L64,34.666625 Z M53.066625,29.333375 L38.4,29.333375 L48.8,18.933375 C51.126375,21.95625 52.59975,25.547625 53.066625,29.333375 Z M34.133375,37.333375 L29.86675,37.333375 L26.66675,34.133375 L26.66675,29.86675 L29.86675,26.66675 L34.4,26.66675 L37.333375,29.86675 L37.333375,34.4 L34.133375,37.333375 Z M45.066625,15.2 L34.666625,25.6 L34.666625,10.933375 C38.4525,11.40025 42.04375,12.873625 45.066625,15.2 Z M29.333375,10.933375 L29.333375,25.6 L18.933375,15.2 C21.95625,12.873625 25.547625,11.40025 29.333375,10.933375 Z M15.2,18.933375 L25.6,29.333375 L10.933375,29.333375 C11.40025,25.547625 12.873625,21.95625 15.2,18.933375 Z M10.933375,34.666625 L25.6,34.666625 L15.2,45.066625 C12.873625,42.04375 11.40025,38.4525 10.933375,34.666625 Z M18.933375,48.8 L29.333375,38.4 L29.333375,53.066625 C25.547625,52.59975 21.95625,51.126375 18.933375,48.8 Z M34.666625,53.066625 L34.666625,38.4 L45.066625,48.8 C42.04375,51.126375 38.4525,52.59975 34.666625,53.066625 Z M48.8,45.066625 L38.4,34.666625 L53.066625,34.666625 C52.59975,38.4525 51.126375,42.04375 48.8,45.066625 Z" id="Shape" fill="#99E6FD"></path>
                        <path d="M32,24 C27.58175,24 24,27.58175 24,32 C24,36.41825 27.58175,40 32,40 C36.41825,40 40,36.41825 40,32 C40,27.58175 36.41825,24 32,24 Z M32,34.666625 C30.52725,34.666625 29.333375,33.47275 29.333375,32 C29.333375,30.52725 30.52725,29.333375 32,29.333375 C33.47275,29.333375 34.666625,30.52725 34.666625,32 C34.666625,33.47275 33.47275,34.666625 32,34.666625 Z" id="Shape" fill="url(#linearGradient-1)"></path>
                    </g>
                </g>
            </g>
        </g>
    </g>
</svg>