<?xml version="1.0" encoding="UTF-8"?>
<svg width="250px" height="99px" viewBox="0 0 250 99" version="1.1" xmlns="http://www.w3.org/2000/svg" xmlns:xlink="http://www.w3.org/1999/xlink">
    <!-- Generator: Sketch 52.1 (67048) - http://www.bohemiancoding.com/sketch -->
    <title>noun_indonesia_727464</title>
    <desc>Created with Sketch.</desc>
    <defs>
        <linearGradient x1="12.0998348%" y1="72.7425357%" x2="88.1853453%" y2="13.5814785%" id="linearGradient-1">
            <stop stop-color="#34CDFA" offset="0%"></stop>
            <stop stop-color="#E8D9F1" offset="100%"></stop>
        </linearGradient>
    </defs>
    <g id="Page-1" stroke="none" stroke-width="1" fill="none" fill-rule="evenodd">
        <g id="Home-Copy" transform="translate(-195.000000, -4051.000000)" fill="url(#linearGradient-1)">
            <g id="Offices" transform="translate(-275.000000, 2067.000000)">
                <g id="Reason-Copy-14" transform="translate(410.000000, 1924.000000)">
                    <g id="Group-2" transform="translate(20.000000, 20.000000)">
                        <g id="noun_indonesia_727464" transform="translate(40.000000, 40.000000)">
                            <path d="M249.198276,52.0373563 L248.522989,72.2557471 L248.212644,73.7844828 L248.195402,74.6522989 L248.425287,75.1005747 L247.988506,88.1925287 L247.666667,88.1867816 L246.347701,87.7212644 L244.847701,86.0977011 L244.494253,85.3189655 L244.537356,84.9655172 L243.448276,83.9913793 L242.939655,83.683908 L242.747126,82.8448276 L243.232759,82.066092 L243.195402,80.8591954 L242.939655,82.0488506 L242.241379,82.4942529 L240.626437,82.3764368 L239.712644,82.8649425 L238.954023,82.8448276 L238.485632,82.3764368 L237.224138,83.0574713 L236.563218,82.295977 L237.048851,81.9856322 L237.37931,81.1465517 L237.37931,80.5229885 L237.632184,80.1752874 L237.824713,78.7931034 L237.146552,78.5201149 L236.543103,77.7413793 L237.123563,77.6063218 L237.612069,77.7614943 L238.683908,77.3333333 L239.362069,77.2557471 L238.583333,77.0402299 L237.396552,77.2155172 L236.442529,76.7701149 L235.545977,76.0890805 L235.821839,75.3850575 L236.324713,75.3275862 L237.163793,75.4252874 L236.718391,74.8793103 L235.318966,73.8678161 L234.385057,73.2241379 L234.08046,72.5402299 L234.353448,71.4137931 L233.149425,70.1695402 L233.149425,69.704023 L234.235632,68.8103448 L233.227011,68.887931 L232.606322,68.4626437 L232.83908,68.0747126 L232.41092,67.5689655 L233.189655,66.954023 L231.945402,67.1867816 L231.597701,66.7586207 L231.014368,66.9942529 L230.591954,66.683908 L231.482759,65.637931 L230.70977,66.1005747 L229.735632,66.1408046 L228.301724,65.5574713 L227.913793,64.5488506 L226.433908,64.045977 L225.505747,64.1982759 L222.324713,63.1896552 L219.028736,62.1810345 L217.413793,62.0775862 L216.12931,61.4741379 L215.873563,61.0086207 L215.738506,60.5804598 L214.591954,60.3304598 L214.649425,59.5517241 L215.428161,59.433908 L215.856322,59.5517241 L215.795977,59.295977 L214.997126,59.1637931 L214.08046,59.5287356 L213.362069,59.2586207 L213.008621,58.8103448 L212.698276,58.7126437 L212.232759,59.2586207 L212.04023,58.1896552 L211.612069,57.8965517 L211.201149,58.091954 L210.925287,58.5373563 L210.321839,57.8764368 L209.991379,56.5545977 L209.517241,55.4281609 L210.175287,54.5747126 L210.175287,53.295977 L209.632184,54.3448276 L209.20977,55.5086207 L209.051724,56.3218391 L208.586207,56.5574713 L207.772989,58.0316092 L207.887931,58.9252874 L206.798851,60.2816092 L205.712644,60.5172414 L204.744253,60.2068966 L203.931034,58.3850575 L203.968391,57.7241379 L204.433908,57.5316092 L204.551724,56.7931034 L204.396552,56.0574713 L203.738506,56.2902299 L203.347701,55.9051724 L202.807471,54.5862069 L201.833333,54.0804598 L200.594828,53.8850575 L200.204023,53.341954 L200.862069,52.5287356 L202.146552,52.4109195 L202.568966,52.8390805 L203.695402,52.954023 L204.511494,53.3821839 L205.557471,52.7586207 L205.908046,51.4798851 L206.721264,51.2097701 L208.390805,51.9885057 L209.048851,52.9568966 L209.514368,51.9109195 L210.094828,51.1321839 L210.637931,51.3247126 L210.795977,50.1637931 L210.485632,49.4626437 L207.770115,49.1551724 L208.158046,49.6982759 L207.5,49.8505747 L206.956897,49.6982759 L205.29023,50.045977 L204.62931,49.8103448 L204.011494,50.1206897 L203.350575,49.7327586 L202.37931,49.9683908 L201.367816,49.8103448 L200.244253,48.8821839 L199.933908,47.637931 L200.166667,47.3275862 L199.583333,46.3189655 L198.071839,45.4655172 L197.491379,44.8448276 L197.181034,45.2701149 L196.327586,45.7356322 L195.083333,45.5402299 L195.278736,44.8821839 L196.557471,44.0632184 L196.675287,43.2902299 L196.284483,42.5890805 L197.097701,41.8936782 L198.574713,41.8534483 L199.310345,41.1551724 L200.166667,40.9195402 L201.563218,39.8333333 L201.985632,39.4454023 L203.695402,39.0977011 L206.451149,40.1465517 L208.16092,41.3103448 L209.905172,41.2327586 L211.692529,41.387931 L212.114943,41.8534483 L211.767241,42.4367816 L211.767241,43.7557471 L212.698276,44.5316092 L213.045977,45.5028736 L212.387931,46.4712644 L211.804598,47.4798851 L212.195402,48.9166667 L212.275862,51.3994253 L212.971264,52.6034483 L213.591954,53.3821839 L214.020115,53.4195402 L213.902299,52.0632184 L214.405172,51.5201149 L215.028736,51.908046 L214.988506,52.9942529 L215.336207,54.0431034 L215.686782,53.8074713 L216.037356,54.7787356 L217.238506,55.7471264 L217.859195,56.4051724 L218.755747,56.4051724 L219.801724,55.9396552 L220.071839,54.9683908 L220.655172,54.5057471 L221.261494,54.2844828 L221.261494,52.9396552 L221.942529,51.8275862 L222.988506,51.7327586 L224.020115,51.1293103 L224.137931,50.1264368 L224.528736,49.5603448 L225.014368,49.795977 L225.672414,49.7385057 L226.663793,49.3678161 L228.218391,49.1724138 L228.433908,48.3936782 L227.928161,47.4367816 L228.12069,46.9109195 L230.804598,45.3362069 L232.068966,45.4511494 L232.942529,46.2729885 L234.574713,46.9913793 L236.5,47.4195402 L237.511494,48.2758621 L238.600575,48.3735632 L239.962644,48.7614943 L243.074713,50.1867816 L243.87069,50.0287356 L244.609195,50.1465517 L245.951149,50.4798851 L246.925287,50.4396552 L247.724138,51.0057471 L247.563218,51.4712644 L247.606322,52.0545977 L248.284483,52.2902299 L249.181034,52.0402299 L249.198276,52.0402299 L249.198276,52.0373563 Z M185.063218,37.0747126 L187.112069,38.1034483 L187.267241,38.6494253 L185.804598,37.8505747 L185.063218,37.0747126 Z M195.816092,39.2471264 L196.5,39.5028736 L197.393678,39.1925287 L197.201149,38.454023 L195.893678,37.658046 L194.086207,37.658046 L193.267241,38.2787356 L192.195402,38.3017241 L191.864943,38.4942529 L192.215517,38.8649425 L191.474138,39.0747126 L193.034483,39.3103448 L194.025862,39.7557471 L194.922414,39.6206897 L194.902299,39.1724138 L194.022989,38.8247126 L193.887931,38.5890805 L194.258621,38.3735632 L195.816092,39.2471264 Z M194.060345,42.4597701 L192.951149,42.0517241 L191.933908,42.2672414 L192.772989,42.7126437 L194.060345,42.4597701 Z M194.844828,41.6810345 L194.431034,42.3218391 L193.965517,41.816092 L194.844828,41.6810345 Z M194.663793,42.4798851 L193.554598,43.2758621 L193.574713,44.7327586 L194.724138,44.9827586 L195.229885,44.6149425 L195.502874,42.7844828 L194.663793,42.4798851 Z M164.612069,16.1896552 L165.698276,17.433908 L166.045977,18.5603448 L165.58046,19.1034483 L164.612069,18.25 L164.41954,16.8908046 L164.612069,16.1896552 Z M171.181034,12.3045977 L171.568966,13.6091954 L171.686782,14.6178161 L172.232759,14.3850575 L172.658046,13.4281609 L172.405172,12.4195402 L171.683908,11.954023 L171.181034,12.3045977 Z M171.181034,14.9281609 L171.761494,15.0862069 L172.094828,16.0977011 L171.683908,16.0977011 C171.686782,16.0948276 171.181034,14.9454023 171.181034,14.9281609 Z M179.827586,24.9022989 L180.158046,26.612069 L180.761494,26.0890805 L181.557471,26.1465517 L182.336207,25.387931 L182.025862,24.5488506 L181.327586,24.1034483 L180.643678,24.6091954 L179.827586,24.9022989 Z M178.818966,39.3189655 L179.244253,40.8333333 L180.640805,42.0775862 L180.951149,42.5804598 L180.522989,42.7356322 L180.448276,43.3965517 L180.212644,42.545977 L179.281609,42.158046 L178.431034,40.4137931 L177.301724,39.7126437 L176.603448,38.5086207 L177.031609,37.3850575 L176.836207,36.7614943 L176.991379,36.1005747 L175.948276,35.2471264 L176.140805,34.1609195 L176.566092,33.4655172 L175.945402,32.3390805 L175.402299,31.637931 L175.752874,30.2816092 L176.41092,29.7787356 L176.295977,28.4166667 L176.643678,26.8649425 L178.272989,25.2729885 L178.816092,25.1178161 L178.698276,25.9683908 L177.885057,26.8994253 L178.08046,27.4827586 L179.005747,27.8706897 L179.005747,29.5028736 L178.583333,30.8591954 L177.727011,30.8965517 L176.951149,31.6752874 L177.416667,32.566092 L178.037356,32.4511494 L178.385057,31.5977011 L179.316092,31.1695402 L179.781609,30.6264368 L179.241379,30.5890805 L179.359195,29.8534483 L180.985632,29.0373563 L182.695402,28.4137931 L183.316092,29.0718391 L183.390805,29.8505747 L182.577586,31.75 L180.637931,32.408046 L179.936782,33.2212644 L180.364943,33.9597701 L181.063218,34.0373563 L182.422414,35.0086207 L182.612069,35.7873563 L183.12069,36.2126437 L182.071839,36.2902299 L181.333333,35.7068966 L179.936782,35.6695402 L178.695402,35.2816092 L177.916667,35.5517241 L177.916667,37.5689655 L178.818966,39.3189655 Z M174.491379,41.7385057 L174.882184,42.5344828 L173.772989,42.2068966 L174.16092,41.4885057 L174.491379,41.7385057 Z M174.451149,39.5804598 L173.847701,39.5632184 L173.517241,40.612069 L174.178161,40.8649425 L174.471264,40.1436782 L174.451149,39.5804598 Z M175.347701,40.183908 L175.017241,40.4942529 L175.094828,41.1350575 L175.675287,42.0316092 L176.58908,42.0143678 L177.175287,42.5574713 L177.66092,42.0517241 L177.387931,41.6063218 L176.62931,41.2758621 L176.686782,40.4770115 L176.083333,40.0517241 L175.347701,40.183908 Z M175.172414,46.4425287 L176.672414,45.316092 L177.974138,45.3735632 L179.298851,46.7183908 L178.988506,47.3390805 L178.33046,47.3390805 L177.433908,47.3390805 L176.712644,47.4770115 L175.778736,47.0890805 L175.172414,46.4425287 Z M190.70977,46.9281609 L188.727011,47.4137931 L188.025862,47.8821839 L188.494253,48.3275862 L190.206897,48.8908046 L191.689655,48.4454023 L191.261494,48.2097701 L191.183908,47.3965517 L190.70977,46.9281609 Z M181.442529,57.4482759 L182.045977,57.3505747 L182.086207,57.7586207 L181.678161,57.8764368 L181.442529,57.4482759 Z M180.431034,57.5287356 L180.974138,57.5287356 L181.071839,58.0143678 L180.545977,58.0143678 L180.431034,57.5287356 Z M177.663793,58.0718391 L178.931034,57.6810345 L179.456897,57.2931034 L180.020115,57.566092 L179.376437,58.7126437 L179.181034,58.2068966 L178.385057,58.6954023 L177.663793,58.0718391 Z M177.275862,54.7873563 L176.652299,55.3505747 L177.255747,55.4482759 L177.275862,54.7873563 Z M178.425287,53.6781609 L177.491379,53.7356322 L177.706897,54.2011494 L178.247126,54.1637931 L178.425287,53.6781609 Z M178.701149,56.7097701 L179.672414,55.158046 L180.485632,56.0488506 L180.954023,56.7471264 L181.922414,56.6695402 L182.931034,55.6609195 L183.591954,55.6609195 L184.172414,56.6695402 L186.502874,56.9396552 L187.008621,56.2442529 L188.091954,56.2442529 L190.229885,57.5229885 L191.198276,57.7155172 L192.362069,58.9568966 L193.488506,58.9568966 L193.916667,57.9885057 L193.41092,55.9712644 L190.729885,54.4568966 L188.517241,54.0316092 L187.431034,53.137931 L186.267241,53.0229885 L185.293103,53.8735632 L184.16954,53.7586207 L183.390805,53.4482759 L181.798851,53.566092 L179.586207,53.5258621 L179.12069,54.1494253 L179.045977,54.7701149 L178.152299,55.0804598 L177.801724,56.0086207 L178.077586,56.7097701 L178.701149,56.7097701 Z M168.066092,54.9971264 L169.077586,55.4252874 L169.931034,54.6896552 L171.985632,54.8045977 L173.5,55.4281609 L173.574713,56.0488506 L174.505747,57.1350575 L174.431034,57.9482759 L173.537356,57.9109195 L172.448276,58.8793103 L171.204023,58.7643678 L169.928161,58.8793103 L169.45977,58.454023 L167.873563,58.1436782 L167.020115,56.9798851 L167.172414,55.6235632 L168.066092,54.9971264 Z M138.301724,77.1925287 L137.560345,76.8017241 L137.140805,77.1925287 L137.735632,77.6896552 L138.301724,77.1925287 Z M137.178161,69.7183908 L138.034483,71.4310345 L137.606322,72.2298851 L137.198276,73.3563218 L136.965517,72.5603448 L136.497126,71.8017241 L136.87069,71.1206897 L136.945402,70.2672414 L137.178161,69.7183908 Z M167.074713,48.933908 L167.074713,49.7873563 L167.816092,50.9913793 L167.772989,51.4971264 L167.344828,51.3045977 L166.87931,50.0402299 L166.683908,49.1436782 L167.074713,48.933908 Z M164.091954,47.6293103 L164.675287,47.3563218 L165.491379,47.6666667 L166.252874,47.3132184 L168.255747,47.5890805 L169.350575,47.7844828 L168.083333,48.0948276 L165.729885,48.637931 L164.560345,48.3103448 L164.522989,47.8965517 L164.091954,47.6293103 Z M158.755747,47.7270115 L159.45977,47.0258621 L159.982759,47.1637931 L160.643678,46.8908046 L161.715517,47.1637931 L162.396552,47.5316092 L163.074713,47.0258621 L163.775862,47.2787356 L163.795977,48.1896552 L162.962644,48.0948276 L162.005747,48.5402299 L161.244253,48.3448276 L160.08046,49.045977 L159.063218,48.8304598 L158.672414,48.2471264 L158.755747,47.7270115 Z M149.270115,67.6178161 L150.183908,66.045977 L150.675287,64.3735632 L150.770115,62.6810345 L151.215517,62.2701149 L151.977011,62.387931 L151.997126,63.0890805 L152.33046,63.8074713 L152.287356,64.3103448 L152.011494,63.8850575 L151.836207,64.3563218 L151.195402,64.8591954 L150.882184,65.2672414 L151.114943,66.0833333 L151.974138,66.2758621 L152.149425,66.7614943 L151.781609,67.2097701 L151.137931,67.4252874 L150.534483,68.454023 L149.856322,68.8045977 L149.137931,68.4166667 L149.270115,67.6178161 Z M146.798851,66.5316092 C146.83908,66.5114943 146.83908,66.9770115 146.83908,66.9770115 L147.267241,67.3304598 L148.201149,67.2126437 L148.336207,66.7844828 L148.747126,66.6695402 L148.864943,65.7729885 L149.545977,65.0718391 L149.563218,64.5057471 L149.077586,63.5948276 L148.163793,64.0603448 L147.442529,64.7988506 L147.752874,65.4396552 L146.798851,66.5316092 Z M144.442529,65.7528736 L144.385057,66.4310345 L144.074713,66.7586207 L144.465517,67.9281609 L144.931034,68.1178161 L145.729885,67.5747126 L145.474138,66.4856322 L144.83046,65.5545977 C144.83046,65.5574713 144.462644,65.7528736 144.442529,65.7528736 Z M152.310345,48.091954 L151.494253,48.4425287 L152.077586,48.7126437 C152.077586,48.7126437 152.310345,48.1293103 152.310345,48.091954 Z M153.433908,47.433908 L152.968391,47.8591954 L153.747126,47.9770115 L153.433908,47.433908 Z M154.83046,46.3477011 L154.20977,46.8132184 L155.025862,47.0833333 L154.83046,46.3477011 Z M150.321839,45.0833333 L151.528736,44.3649425 L153.008621,44.4856322 L153.126437,44.9511494 L152.775862,45.5718391 L153.591954,45.3764368 L153.979885,44.7183908 L154.755747,45.3017241 L154.563218,46.1178161 L153.594828,46.3534483 L153.284483,45.9655172 L152.778736,46.7011494 L151.885057,46.0431034 L151.186782,46.6637931 L150.373563,46.0833333 L150.321839,45.0833333 Z M144.658046,39.7758621 L145.517241,40.1293103 L145.554598,39.5431034 C145.551724,39.5402299 144.678161,39.7557471 144.658046,39.7758621 Z M143.896552,40.0488506 L144.385057,40.0287356 L145.123563,40.4741379 L144.364943,40.6494253 L143.896552,40.0488506 Z M137.135057,35.3247126 L138.37931,34.8965517 L139.853448,35.5977011 L141.600575,35.6350575 L143.54023,34.6666667 L144.818966,34.8218391 L145.284483,35.4425287 L146.41092,35.4425287 L147.071839,35.1350575 L149.359195,35.3678161 L150.566092,35.2902299 L150.798851,34.9798851 L152.077586,35.0201149 L152.931034,35.4856322 L153.204023,36.0258621 L154.29023,36.3764368 L158.364943,35.4454023 L160.074713,34.2816092 L160.54023,33.3908046 L161.235632,33.3103448 L161.818966,32.6149425 L162.557471,32.1091954 L162.905172,31.1781609 L163.37069,30.4022989 L163.876437,30.0143678 L163.37069,29.4712644 L163.252874,28.8477011 L161.744253,28.5 L160.695402,28.8477011 L160.502874,29.8965517 L159.689655,30.5201149 L159.612069,31.0632184 L158.485632,31.8764368 L157.62931,31.9942529 L157.08908,32.8074713 L155.810345,33.1178161 L153.247126,32.612069 L151.071839,32.4166667 L150.683908,33 L150.181034,33.0775862 L149.132184,32.1465517 L148.318966,32.0689655 L147.387931,32.1063218 L146.373563,31.8735632 L144.979885,31.637931 L144.244253,32.1034483 L143.425287,31.637931 L142.382184,30.6293103 L140.787356,30.3218391 L139.818966,30.3591954 L139.818966,31.5258621 L139.002874,32.0689655 L138.537356,33.0775862 L137.841954,33.6954023 L136.445402,33.2298851 L135.163793,33.5431034 L134.658046,34.1235632 L134.775862,34.5114943 L133.416667,35.795977 L133.416667,37.3477011 L133.689655,38.2413793 L133.609195,40.0287356 L133.33908,40.6494253 L133.87931,41.9281609 L134.037356,42.9396552 L133.609195,42.3936782 L133.304598,41.5775862 L132.603448,41.7729885 L131.896552,42.6206897 L131.04023,43.0862069 L130.847701,44.1350575 L131.005747,45.3764368 L130.614943,46.1925287 L130.887931,48.4454023 L130.614943,48.9482759 L130.45977,49.8390805 L129.761494,50.1522989 L129.798851,51.5086207 L128.557471,52.4770115 L128.16954,53.8735632 L128.362069,54.3017241 L127.896552,54.9195402 L128.517241,56.7816092 L129.100575,57.6350575 L129.488506,57.3994253 L130.301724,57.3994253 L130.885057,56.9741379 L131.428161,57.2442529 L131.775862,58.6034483 L132.706897,61.0890805 L132.316092,61.7097701 L132.008621,63.1063218 L131.229885,64.2327586 L131.112069,66.5632184 L131.272989,68.3850575 L131.850575,68.3850575 L132.58908,68.8505747 L133.715517,68.8103448 L134.224138,68.2270115 L135.232759,68.4626437 L136.126437,68.3045977 L136.784483,68.8103448 L136.977011,67.9568966 L136.859195,66.8706897 L136.123563,66.3678161 L135.968391,64.9683908 L136.545977,64 L136.781609,62.2155172 L136.58908,60.5431034 L136.163793,60.0775862 L137.212644,58.5258621 L137.560345,57.1293103 L137.25,55.4597701 L136.548851,54.841954 L136.548851,54.3390805 L137.715517,53.6034483 L138.181034,52.862069 L139.267241,52.6293103 L140.356322,53.0172414 L140.238506,53.5603448 L140.741379,54.454023 L140.741379,55.5373563 L139.890805,56.5086207 L139.658046,57.4827586 L140.241379,58.5718391 L140.979885,58.6867816 L141.637931,59.5028736 L142.87931,60.2413793 L143.071839,61.25 L142.646552,61.1724138 L142.376437,63.1494253 L142.764368,64.2385057 L143.54023,64.5114943 L144.123563,64.316092 L145.327586,64.8189655 L146.218391,64.6637931 L146.143678,64.2758621 L145.836207,63.4971264 L146.764368,62.6465517 L147.695402,62.4109195 L148.977011,61.6752874 L150.568966,61.7931034 L151.149425,61.1724138 L151.577586,61.4051724 L152.353448,61.4051724 L152.818966,60.6293103 L152.663793,60.1637931 L151.267241,60.045977 L150.833333,60.2413793 L150.37069,60.0833333 L149.356322,60.2011494 L149.281609,59.4252874 L148.778736,59.3448276 L148.816092,58.841954 L148.353448,58.7241379 L147.885057,58.9971264 L147.847701,58.4137931 L146.916667,58.1436782 L146.606322,57.4827586 L147.229885,56.862069 L147.45977,56.3591954 L147.850575,56.5143678 L147.54023,55.8534483 L148.005747,55.7787356 L148.238506,55.2356322 L147.732759,54.7298851 L146.994253,54.4971264 L147.304598,53.9913793 L147.186782,53.408046 L146.255747,52.7873563 L145.632184,52.7471264 L145.364943,51.7385057 L143.885057,50.0689655 L142.994253,49.4482759 L142.451149,48.4798851 L142.568966,48.0517241 L142.994253,48.091954 L143.227011,48.6350575 L144.195402,48.6724138 L145.051724,48.0143678 L145.281609,47.3563218 L147.456897,46.5775862 L149.008621,45.3735632 L149.747126,44.1321839 L150.718391,43.6264368 L150.755747,42.887931 L151.922414,42.6178161 L152.965517,43.1609195 L153.626437,43.2385057 L154.557471,41.9195402 L154.557471,41.0689655 L153.428161,40.6408046 L151.022989,40.8764368 L149.977011,41.612069 L148.390805,41.612069 L147.612069,41.8448276 L146.681034,42.816092 L145.672414,42.7356322 L144.893678,42.933908 L143.882184,42.3103448 L142.913793,42.0373563 L141.864943,43.3965517 L141.12931,45.183908 L140.08046,45.7270115 L138.956897,45.5718391 L138.683908,45.0689655 L137.287356,43.5143678 L135.890805,42.3132184 L135.152299,40.4137931 L135.307471,38.316092 L136.163793,36.2988506 L137.135057,35.3247126 Z M138.172414,0.5 L137.494253,1.31896552 L138.137931,1.53448276 L138.431034,1.00862069 L138.172414,0.5 Z M139.517241,4.08045977 L140.451149,4.10057471 L140.899425,3.79022989 L141.385057,4.08333333 L142.143678,3.6954023 L142.126437,3.22701149 L140.899425,2.99425287 L139.614943,3.24712644 L139.204023,3.71264368 L139.517241,4.08045977 Z M131.367816,9.63505747 L131.152299,10.2988506 L131.623563,11.2701149 L131.623563,10.4137931 L131.367816,9.63505747 Z M133.247126,8.5 L135.028736,7.0316092 L135.867816,6.87356322 L135.954023,7.69252874 L134.695402,8.5862069 L133.537356,8.8362069 L133.247126,8.5 Z M122.158046,14.3821839 L122.468391,14.9252874 L121.931034,14.683908 L122.158046,14.3821839 Z M122.192529,13.7787356 L122.155172,14.0028736 L122.465517,14.5258621 L123.353448,14.566092 L123.333333,14.2068966 L122.192529,13.7787356 Z M122.795977,16.7844828 L121.698276,17.0545977 L122.505747,17.2758621 L122.795977,16.7844828 Z M121.652299,17.8793103 L122.166667,18.1810345 L122.158046,19.137931 L121.807471,19.0287356 L121.652299,17.8793103 Z M114.902299,56.7471264 L115.183908,57.0086207 L115.057471,58.4367816 L114.764368,58.5258621 L114.706897,57.1724138 L114.902299,56.7471264 Z M114.442529,56.8045977 L114.502874,58.6810345 L114.221264,59.7586207 L113.393678,60.3333333 L112.965517,59.8074713 L113.12931,58.2557471 L113.683908,56.6982759 L114.181034,56.387931 L114.442529,56.8045977 Z M77.1551724,39.7758621 L78.4683908,40.1609195 L78.6609195,40.4568966 L78.1091954,40.7643678 L77.1436782,40.4252874 L76.9511494,39.9195402 L77.1551724,39.7758621 Z M77.6695402,42.1149425 L79.0488506,42.3591954 L79.6436782,42.9310345 L80.0689655,43.0574713 L80.1005747,43.4454023 L78.8362069,43.387931 L78.3074713,43.4137931 L77.5488506,42.5316092 L77.6695402,42.1149425 Z M78.7787356,43.8189655 L80.112069,43.8764368 L80.8908046,44.4281609 L79.8534483,45.5172414 L79.1810345,45.7097701 L78.7327586,45.137931 L78.8908046,44.4482759 C78.8850575,44.4511494 78.7873563,43.8275862 78.7787356,43.8189655 Z M76.2068966,30.9367816 L77.0603448,29.4626437 L78.3390805,27.7528736 L78.8821839,26.9396552 L79.7183908,26.6781609 L80.816092,28.6465517 L82.545977,29.8735632 L82.7212644,30.3218391 L83.9482759,31.4712644 L84.3936782,32.3678161 L85.1896552,32.4655172 L86.7442529,32.0373563 L86.9224138,31.4137931 L88.2614943,31.5114943 L89.0201149,31.1235632 L91.9770115,31.2816092 L94.9712644,30.0718391 L95.7672414,29.3706897 L98.3821839,29.2902299 L99.7385057,29.9482759 L100.166667,30.6091954 L101.445402,30.5689655 L103.66092,29.3678161 L106.221264,28.9798851 L106.066092,28.1637931 L108.201149,24.9425287 L109.054598,22.6551724 L110.681034,20.2097701 L111.847701,16.0545977 L111.847701,15.2442529 L112.390805,14.3132184 L112.313218,13.612069 L113.439655,12.2557471 L114.333333,12.6408046 L116.043103,12.4856322 L118.408046,12.5229885 L118.991379,12.9511494 L120.505747,12.9109195 L121.666667,13.2614943 L121.609195,13.5574713 L121.066092,13.6724138 L121.143678,14.1781609 L120.793103,14.7212644 L121.922414,15.1465517 L122.965517,16.3908046 L121.764368,16.7011494 L120.560345,16.5057471 L120.057471,16.816092 L120.908046,17.8218391 L121.364943,18.0747126 L121.491379,18.6666667 L121.025862,18.7931034 L120.635057,19.6063218 L121.531609,20.3850575 L121.87931,21.5114943 L123.666667,23.3706897 L124.479885,24.1091954 L123.939655,25.1206897 L122.543103,25.4281609 L122.347701,26.091954 L122.813218,26.4770115 L123.045977,27.408046 L123.862069,27.8735632 L126.152299,30.0086207 L126.928161,30.0086207 L127.821839,31.0172414 L128.12931,31.6781609 L128.985632,31.8706897 L128.712644,32.841954 L128.054598,33.112069 L127.356322,32.841954 L126.543103,33.4224138 L125.298851,33.2672414 L123.554598,31.5574713 L123.902299,32.9942529 L123.591954,33.5373563 L123.08908,32.8764368 L121.962644,34.0028736 L121.962644,34.7816092 L121.45977,35.362069 L121.264368,37.4195402 L120.798851,38.158046 L120.41092,40.0201149 L118.977011,41.1465517 L119.517241,42.5431034 L118.856322,43.5114943 L117.928161,44.4827586 L117.477011,43.4712644 L116.931034,43.1982759 L117.224138,43.9166667 L117.149425,45.0632184 L116.235632,46.112069 L116.057471,47.066092 L115.163793,47.433908 L114.364943,47.316092 L114.560345,47.8017241 L114.132184,48.4252874 L115.436782,48.3477011 L115.649425,48.5632184 L115.494253,49.5143678 L114.87069,49.9597701 L115.221264,50.1954023 L115.841954,50.137931 L115.979885,50.8764368 L115.649425,51.7155172 L114.793103,51.4597701 L114.635057,51.25 L114.577586,51.6752874 L115.063218,52.1408046 L115.393678,52.4511494 L114.577586,54.183908 L114.011494,54.183908 L113.775862,53.7586207 L113.468391,55.1149425 L113.468391,55.8505747 L112.341954,57.908046 L110.520115,59.1522989 L108.965517,59.4224138 L106.75,60.4683908 L105.706897,60.6264368 L105.396552,59.1522989 L105.58908,58.3333333 L105.048851,57.5201149 L104.853448,57.1321839 L104.347701,57.3678161 L103.764368,56.5890805 L103.261494,56.8591954 L102.405172,56.6293103 L101.942529,55.7758621 L101.563218,56.6293103 L101.933908,57.3477011 L100.933908,57.066092 L100.505747,56.5143678 L100.505747,55.6609195 L99.9252874,55.158046 L99.3045977,55.5431034 L98.3304598,54.9597701 L97.75,55.0402299 L96.933908,55.9310345 L95.6178161,56.1264368 L95.3965517,56.6551724 L94.6005747,56.7701149 L94.0344828,56.2643678 L93.4109195,56.4425287 L92.1637931,57.9770115 L91.3793103,57.9770115 L91.4971264,57.1034483 L91.3390805,55.2931034 L90.8936782,53.9741379 L91.1034483,53.0402299 L90.7758621,52.3218391 L90.8735632,52.9051724 L90.3821839,53.933908 L89.704023,54.3821839 L89.0402299,53.9109195 L88.1264368,54.5747126 L86.7672414,54.6925287 L85.9454023,54.3965517 L84.816092,54.3189655 L84.4885057,53.6178161 L83.6494253,54.3390805 L83.045977,54.3390805 L82.4224138,52.841954 L82.4022989,51.5603448 L82.1091954,49.1494253 L81.1752874,48.5488506 L80.9195402,47.887931 L81.5028736,47.1695402 L82.2442529,46.1005747 L82.1091954,45.1465517 L81.5804598,44.1925287 L80.045977,42.6609195 L78.7270115,41.887931 L77.454023,41.5890805 L77.4137931,41.1609195 L78.387931,41.0431034 L79.2270115,40.3045977 L81.112069,39.8563218 L82.3793103,38.8678161 L83.408046,38.9454023 L82.433908,38.6522989 L80.9913793,39.5431034 L79.3218391,39.7988506 L78.6206897,39.954023 L77.5316092,39.6206897 L76.8477011,38.3735632 L77.1781609,38.045977 L77.8017241,38.3563218 L77.316092,37.5373563 L75.7183908,35.5344828 L75.5632184,33.4942529 L76.3045977,33.0488506 L76.4195402,32.4051724 L76.1494253,31.6867816 L76.2068966,30.9367816 Z M215.724138,42.5431034 L215.066092,42.7327586 L215.686782,43.3936782 L216.385057,43.2385057 L215.724138,42.5431034 Z M218.908046,46.3074713 C218.908046,46.2672414 219.255747,46.7327586 219.255747,46.7327586 L220.965517,47.433908 L223.448276,47.7816092 L225.695402,47.433908 L226.318966,47.0833333 L224.497126,46.6954023 L223.600575,46.9281609 L221.974138,46.4626437 L220.882184,47.0086207 L218.908046,46.3074713 Z M218.908046,41.1465517 L219.801724,42.0373563 L219.761494,41.4195402 L220.304598,41.4568966 L221.235632,42.7011494 L221.077586,43.3994253 L221.893678,43.5574713 L222.201149,43.5574713 L222.666667,43.7902299 L223.91092,43.5574713 L223.448276,43.0862069 L222.66954,42.6982759 L221.974138,41.5718391 L221.077586,40.9913793 L220.224138,40.9913793 L218.712644,40.7155172 L218.908046,41.1465517 Z M203.272989,68.1034483 L203.566092,69.1321839 L203.606322,69.9913793 L203.997126,70.3965517 L204.034483,69.1522989 L203.272989,68.1034483 Z M206.172414,67.0344828 L205.103448,67.5977011 L204.637931,69.8534483 L204.247126,70.4942529 L204.965517,70.2241379 L205.686782,68.0086207 L206.172414,67.0344828 Z M214.62069,74.2643678 L214.206897,74.7327586 L214.482759,74.9655172 L214.732759,74.6954023 L214.62069,74.2643678 Z M211.474138,72.3505747 L211.054598,72.0201149 L211.172414,72.4798851 L211.204023,73.5890805 L211.62069,73.9827586 L211.873563,74.5862069 L211.494253,74.2155172 L211.135057,74.1867816 L211.045977,75.1781609 L211.554598,75.6724138 L212.091954,75.5948276 L213.083333,74.7011494 L213.278736,74.2155172 L212.79023,73.9051724 L212.451149,73.1752874 L211.474138,72.3505747 Z M213.413793,72.7298851 C213.413793,72.7011494 213.100575,72.954023 213.100575,72.954023 L213.152299,73.4683908 L213.58908,73.8103448 L214.132184,73.704023 L213.951149,73.1695402 L213.413793,72.7298851 Z M211.931034,71.0977011 L211.307471,70.9511494 L211.221264,71.4885057 L212.025862,72.3994253 L212.681034,72.7413793 L212.991379,72.5373563 L212.094828,71.6810345 L211.931034,71.0977011 Z M213.936782,70.3103448 L213.022989,70.6494253 L212.261494,71.3189655 L212.445402,71.6091954 L213.577586,72.2212644 L214.011494,72.5431034 L214.568966,71.8735632 L214.675287,71.2787356 L214.451149,71.1408046 L214.548851,70.8505747 L214.215517,70.3649425 L213.936782,70.3103448 Z M211.844828,69.1149425 L211.551724,69.1235632 L211.413793,69.4913793 L211.841954,69.4827586 L211.841954,69.1149425 L211.844828,69.1149425 Z M213.537356,67.5775862 L214.043103,68.1609195 L214.454023,68.1810345 L214.005747,67.5402299 L213.537356,67.5775862 Z M213.33908,67.9310345 L212.833333,67.8505747 L212.367816,68.6666667 L211.87931,68.8045977 L212.445402,68.9597701 L212.520115,69.387931 L213.025862,69.2902299 L212.287356,69.8132184 L212.445402,70.4568966 L212.833333,70.4166667 L213.574713,69.8908046 L214.198276,69.9109195 L214.451149,69.4051724 L214.408046,68.4741379 L213.985632,68.4166667 L213.33908,67.9310345 Z M199.201149,76.4051724 L200.08046,75.9597701 L199.784483,75.7844828 L199.201149,76.4051724 Z M198.287356,76.8534483 L199.632184,77.5545977 L199.264368,77.0086207 L198.287356,76.8534483 Z M193.672414,79.1264368 L193.048851,79.362069 L193.494253,79.4597701 C193.497126,79.4597701 193.672414,79.0689655 193.672414,79.1264368 Z M195.017241,78.5258621 L193.612069,78.6235632 L194.295977,78.9166667 L194.859195,78.7787356 L195.017241,78.5258621 Z M195.112069,82.433908 L194.508621,82.3735632 L193.534483,83.0373563 L193.37931,83.4626437 L194.158046,83.3074713 L194.859195,82.7614943 L195.112069,82.433908 Z M196.827586,78 L195.364943,79.3045977 L195.307471,79.8074713 L195.5,80.1781609 L194.916667,80.6637931 L194.896552,81.4597701 L195.675287,82.1206897 L196.359195,81.9252874 L197.586207,80.387931 L197.994253,79.0689655 L197.781609,78.3103448 L198.074713,77.7471264 L197.977011,77.3591954 L197.353448,77.2011494 L196.847701,77.591954 L196.827586,78 Z M188.686782,72.7298851 L189.428161,72.2844828 L188.882184,72.0143678 L188.686782,72.7298851 Z M186.215517,74.3649425 L185.66954,74.7729885 L186.41092,74.8132184 L186.215517,74.3649425 Z M188.181034,82.4712644 L187.071839,83.0574713 L187.718391,83.0574713 L188.181034,82.4712644 Z M186.387931,80.8965517 L187.011494,80.5890805 L187.715517,80.9942529 L187.925287,81.8505747 L187.112069,82.0258621 L186.428161,81.4626437 L186.387931,80.8965517 Z M180.568966,77.2241379 L181.054598,76.8362069 L181.597701,77.2241379 L181.327586,77.6522989 L180.741379,77.6293103 L180.568966,77.2241379 Z M181.795977,83.5229885 L182.787356,83.4425287 L183.235632,83.7155172 L182.33908,83.7931034 L181.795977,83.5229885 Z M173.517241,79.8074713 L174.531609,79.0890805 L173.890805,78.7787356 L173.462644,79.1666667 L173.517241,79.8074713 Z M176.362069,82.862069 L177.956897,82.9770115 L178.836207,82.8017241 L178.836207,83.3649425 L177.571839,83.8132184 L176.520115,83.3074713 L176.362069,82.862069 Z M174.862069,83.3103448 L175.603448,83.0948276 L175.560345,83.6781609 L174.862069,83.3103448 Z M172.408046,82.9568966 L173.08908,82.6091954 L173.632184,83.0574713 L172.968391,83.4051724 L172.408046,82.9568966 Z M152.29023,94.3132184 L151.95977,95.4195402 L152.505747,95.8477011 L154.255747,95.75 L155.793103,94.7413793 L156.75,94.4482759 L157.62931,94.5258621 L158.640805,93.7844828 L159.298851,92.7758621 L161.324713,91.2586207 L161.813218,90.6149425 L162.362069,90.3764368 L161.063218,89.1724138 L159.951149,87.9137931 L159.485632,88.1408046 L158.574713,88.4051724 L158.5,89.7873563 L157.531609,89.9454023 L156.405172,90.5258621 L155.603448,89.5862069 L155.295977,89.8850575 L154.252874,90.5028736 L153.862069,91.6293103 L152.853448,93.2988506 L152.689655,93.7528736 L153.126437,94.1609195 L153.304598,94.6063218 L152.729885,94.6063218 L152.29023,94.3132184 Z M151.218391,95.5 L151.62931,94.4109195 L151.218391,94.3908046 L150.655172,95.2873563 L151.218391,95.5 Z M151.33908,96.2528736 L150.33046,96.7183908 L150.522989,96.9137931 L148.853448,97.7270115 L148.04023,98.4626437 L148.816092,98.7356322 L151.264368,97.7270115 L151.612069,96.8735632 L151.33908,96.2528736 Z M143.333333,96.0229885 L143.916667,96.4109195 L144.054598,96.9367816 L143.353448,97.2873563 L142.37931,97.2298851 L142.905172,96.3563218 L143.333333,96.0229885 Z M127.744253,90.2787356 L130.071839,89.0718391 L131.508621,90.1982759 L132.479885,90.1982759 L133.448276,89.658046 L134.729885,90.2816092 L135.077586,91.25 L136.126437,91.25 L137.020115,92.6063218 L137.913793,93.4597701 L137.954023,94.1609195 L136.594828,94.8591954 L135.08046,95.0143678 L133.83908,94.4712644 L132.942529,93.1925287 L132.048851,92.9971264 L131.198276,91.9511494 L129.991379,92.1465517 L128.517241,91.8362069 L127.663793,91.0574713 L127.744253,90.2787356 Z M111.074713,77.9195402 L111.864943,77.9482759 L112.117816,77.8908046 L112.037356,78.1982759 L111.270115,78.1810345 L111.074713,77.9195402 Z M107.95977,76.2988506 L108.689655,76.9942529 L109.37931,76.2270115 L109.896552,76.316092 L110.247126,76.316092 L110.054598,76.0143678 L109.376437,75.7212644 L108.367816,75.5948276 L107.939655,75.9856322 L107.95977,76.2988506 Z M165.885057,81.7356322 L167.054598,81.0545977 L168.75,81.4224138 L169.333333,81.887931 L169.583333,81.4022989 L170.362069,80.7988506 L171.181034,80.3735632 L170.965517,79.7902299 L170.086207,79.4195402 L169.25,80.0431034 L167.439655,80.1982759 L166.876437,79.7327586 L166.04023,80.1436782 L165.649425,81.2729885 L165.885057,81.7356322 Z M164.091954,83.2126437 L163.778736,83.658046 L163.974138,83.8936782 L164.385057,83.5804598 L164.091954,83.2126437 Z M159.224138,83.0948276 L158.152299,83.5603448 L158.58046,83.8706897 L158.227011,84.2586207 L158.324713,84.6695402 L159.278736,84.9051724 L161.109195,84.2614943 L161.715517,83.5603448 L161.172414,83.1925287 L159.689655,83.3448276 L159.224138,83.0948276 Z M155.310345,85.1954023 L156.051724,85.1752874 L156.58046,85.6781609 L157.413793,84.5517241 L157.316092,84.0862069 L156.793103,84.5718391 L155.795977,84.6896552 L155.310345,85.1954023 Z M151.979885,85.3706897 L153.051724,84.6091954 L152.818966,84.1264368 L153.284483,83.9482759 L154.045977,84.066092 L154.787356,83.637931 L155.195402,83.9137931 L154.086207,84.9425287 L153.58046,85.545977 L152.465517,85.7816092 L151.979885,85.3706897 Z M151.083333,85.0775862 L149.974138,85.2931034 L149.603448,86.1465517 L150.204023,85.5028736 L151.083333,85.0775862 Z M151.646552,83.4827586 L150.945402,84.0862069 L151.491379,84.3965517 L151.821839,83.9310345 L151.646552,83.4827586 Z M132.525862,85.7385057 C132.477011,85.658046 132.787356,84.7672414 132.787356,84.7672414 L134.41954,83.8764368 L137.057471,83.2931034 L138.376437,83.954023 L139.114943,83.7586207 L140.511494,84.1063218 L141.985632,85.0373563 L143.112069,84.5718391 L144.663793,84.6494253 L145.364943,85.1954023 L146.568966,85.0775862 L147.186782,84.341954 L148.158046,84.0316092 L148.781609,83.1005747 L148.356322,82.8678161 L149.284483,82.2442529 L150.41092,82.7097701 L150.528736,83.6810345 L150.022989,84.5718391 L149.324713,84.8821839 L148.545977,85.9310345 L147.385057,86.0862069 L146.91954,86.5890805 L146.140805,86.3189655 L144.511494,86.2816092 L143,86.9798851 L141.272989,86.6551724 L140.083333,87.1609195 L139.850575,87.454023 L139.071839,87.433908 L138.468391,87.1005747 L137.497126,87.5114943 L136.873563,86.9856322 L136.034483,86.8706897 L135.272989,87.0057471 L134.456897,86.7902299 L133.735632,86.8706897 L132.83908,86.658046 L132.525862,85.7385057 Z M131.804598,85.6609195 L131.433908,86.7298851 L132.155172,86.5948276 L132.270115,85.954023 L131.804598,85.6609195 Z M131.298851,85.0775862 L130.382184,84.7844828 L129.991379,86.0086207 L130.557471,86.7873563 L130.887931,85.5028736 L131.298851,85.0775862 Z M115.905172,85.816092 L115.75,86.4770115 L116.140805,86.862069 L115.83046,87.3275862 L116.295977,87.9109195 L117.267241,88.3362069 L118.663793,88.0287356 L119.439655,88.3362069 L120.603448,87.9511494 L121.068966,87.3275862 L122.037356,87.6781609 L123.204023,87.1724138 L124.29023,87.3649425 L125.451149,86.3563218 L125.798851,87.0948276 L126.813218,86.9396552 L128.324713,87.1293103 L127.626437,86.5488506 L129.022989,86.5488506 L129.140805,85.3821839 L128.75,85.8477011 L128.439655,84.8793103 L128.557471,84.066092 L127.431034,83.7557471 L127.586207,84.6091954 L127.043103,84.841954 L126.928161,83.9109195 L125.841954,83.2528736 L124.755747,83.637931 L123.744253,83.0201149 L122.847701,82.6321839 L121.531609,83.4454023 L121.568966,84.0287356 L123.744253,84.841954 L124.600575,85.6954023 L123.163793,85.887931 L122.307471,86.2758621 L121.028736,85.4626437 L120.755747,84.5287356 L120.017241,84.3735632 L119.126437,84.6091954 L118.155172,84.3735632 L116.603448,84.9568966 C116.606322,84.9597701 115.83046,85.816092 115.905172,85.816092 Z M112.758621,84.4971264 L113.890805,83.6781609 L115.583333,84.2241379 L115.350575,85.4856322 L114.864943,86.183908 L114.95977,87.0804598 L114.218391,86.8074713 L113.189655,87.2183908 L111.454023,86.6954023 L111.103448,86.2068966 L111.571839,85.8936782 L112.505747,85.933908 L112.758621,84.4971264 Z M109.272989,86.183908 L109.798851,85.6609195 L110.152299,86.2442529 L109.586207,86.5373563 L109.272989,86.183908 Z M104.149425,82.8678161 L104.149425,83.6810345 L104.652299,84.3793103 L106.126437,84.6896552 L107.445402,85.6982759 L107.721264,86.3189655 L108.186782,85.658046 L109.04023,85.2327586 L109.387931,84.8448276 L110.356322,84.6494253 L110.62931,84.0316092 L109.468391,82.6350575 L108.031609,82.3218391 L106.551724,82.8275862 L105.347701,82.5172414 L104.149425,82.8678161 Z M234.985632,83.6408046 L235.433908,83.7385057 L236.442529,84.0890805 L236.752874,83.7787356 L236.364943,82.5517241 L235.994253,82.454023 L235.433908,82.8017241 L234.985632,83.6408046 Z M229.66092,83.8362069 C229.62069,83.8764368 231.508621,83.7183908 231.508621,83.7183908 L232.247126,83.566092 L233.626437,83.7787356 L234.5,83.3505747 L235.336207,82.3764368 L236.172414,82.1637931 L236.583333,81.6178161 L236.583333,81.0517241 L236.836207,80.7816092 L237.048851,79.8850575 L237.241379,79.4971264 L236.445402,78.8735632 L236.097701,78.5431034 L234.16954,78.4597701 L232.979885,79.0258621 L232.41954,80.5632184 L231.856322,81.6522989 L229.66092,83.8362069 Z M95.9310345,75.6724138 L95.1522989,76.7816092 L96.2413793,77.8936782 L97.0373563,78.0086207 L97.7155172,77.6034483 L99.5632184,77.6982759 L100.54023,77.2701149 L101.724138,77.1149425 L102.189655,76.4712644 L101.646552,76.2212644 L100.20977,76.4367816 L99.3908046,76.1609195 L96.4942529,76.0632184 L95.9310345,75.6724138 Z M55.3563218,73.8994253 L55.4741379,74.4454023 L55.862069,74.4051724 L55.8994253,73.8994253 L55.3563218,73.8994253 Z M56.1522989,74.6609195 L56.5775862,75.1091954 L57.3936782,74.8132184 L57.4913793,73.7241379 L58.6206897,73.566092 L59.1235632,72.4568966 L59.0488506,71.3275862 L60.137931,70.0603448 L60.6235632,70.5488506 L61.8850575,70.5287356 L63.6149425,70.8017241 L64.433908,71.4655172 L64.8821839,71.0775862 L65.3678161,70.5316092 L67.0201149,70.6293103 L68.066092,71.4683908 L69.9942529,71.933908 L72.3448276,72.1867816 L72.9655172,73.316092 L72.7729885,74.3678161 L73.2011494,74.8132184 L75.0488506,75.6522989 L78.295977,75.5948276 L81.1752874,76.0603448 L83.6264368,75.6522989 L84.2844828,74.7758621 L84.5948276,72.6522989 L85.6034483,72.5948276 L86.9281609,73.9942529 L87.7844828,73.9770115 L88.7557471,73.7988506 L89.4971264,74.2471264 L90.6235632,75.2385057 L91.5574713,75.1810345 L92.3189655,76.0143678 L93.0172414,75.6666667 L94.454023,75.6867816 L94.5143678,77.1264368 L95.5431034,78.4913793 L95.6235632,79.2902299 L96.3591954,80.1264368 L97.566092,80.6925287 L98.7327586,80.2643678 L99.566092,80.7701149 L100.445402,80.7327586 L101.143678,80.2844828 L102.020115,80.2643678 L102.272989,80.6178161 L103.204023,80.7729885 L103.807471,81.4367816 L103.479885,83.7931034 L102.933908,84.4741379 L103.537356,84.8821839 L103.847701,86.5 L103.204023,86.6925287 L102.41092,85.8735632 L101.204023,86.0086207 L99.8247126,84.862069 L98.7155172,84.5689655 L97.6867816,83.4770115 L96.8706897,83.4568966 L95.3362069,84.2557471 L93.7212644,84.316092 L92.3649425,83.5373563 L90.8534483,83.2270115 L89.6091954,84.2758621 L88.25,83.3074713 L86.387931,83.1896552 L85.2614943,83.8103448 L82.4281609,82.7241379 L79.8304598,81.0948276 L78.1206897,81.1321839 L76.841954,80.2413793 L76.0632184,80.2787356 L75.4051724,81.0574713 L74.3936782,80.8649425 L73.5804598,80.0114943 L72.8390805,80.0718391 L71.8678161,81.2011494 L69.4770115,80.5201149 L67.8045977,79.2528736 L66.1724138,79.1350575 L65.4310345,78.7471264 L64.4396552,79.3304598 L63.1752874,78.8850575 L61.7557471,78.6494253 L61.2729885,78.183908 L62.0114943,76.841954 L62.4770115,76.3908046 L61.7183908,76.3505747 L61.0747126,76.704023 L60.3563218,76.2557471 L59.8706897,75.3189655 L58.7011494,75.7902299 L56.5258621,75.75 L55.8275862,75.341954 L55.7844828,74.7183908 L56.1522989,74.6609195 Z M70.1293103,14.0977011 L71.1982759,15.1293103 L71.8017241,15.1293103 L71.5689655,15.9683908 L72.362069,15.9683908 L72.8103448,14.4511494 L71.5833333,12.795977 L70.6724138,13.3390805 L70.1293103,14.0977011 Z M61.1637931,20.6781609 L61.1436782,21.5545977 L61.7298851,21.2471264 L61.1637931,20.6781609 Z M61.1436782,18.4166667 L61.7298851,17.7931034 L61.0689655,17.4827586 L61.1436782,18.4166667 Z M61.2816092,18.9051724 L60.954023,19.5488506 L61.6724138,19.6465517 L61.2816092,18.9051724 Z M57.908046,19.9224138 L57.7931034,20.8534483 L58.3764368,21.2155172 L59.4252874,20.0948276 L58.5488506,19.7528736 L57.908046,19.9224138 Z M48.6666667,31.7787356 L49.8132184,32.1465517 L50.3390805,31.0948276 L50.1264368,30.3333333 L48.6666667,31.7787356 Z M51.3074713,30.7643678 L50.8218391,31.8563218 L51.9683908,32.1666667 L52.2988506,33.5114943 L52.9971264,33.2557471 L53.3247126,31.6206897 L52.8017241,31.0545977 L53.2270115,30.2155172 L52.6436782,30.3534483 L52.137931,30.8218391 L51.3074713,30.7643678 Z M75.1666667,46.8908046 L75.2413793,47.4425287 L76.0488506,47.8045977 L76.4022989,47.3448276 L75.9626437,46.8678161 L75.1666667,46.8908046 Z M68.1293103,51.9051724 L68.5143678,52.8448276 L68.4568966,53.3678161 L67.3591954,53.6321839 L66.9971264,54.1781609 L67.8534483,54.2155172 L67.8247126,53.8649425 L68.5316092,53.5028736 L68.5057471,55.0316092 L69.3189655,55.8591954 L70.2327586,54.4482759 L70.795977,55.295977 L71.6235632,55.4597701 L71.9425287,54.7011494 L72.7672414,54.3103448 L72.2701149,53.2413793 L70.4712644,52.0833333 L68.6637931,51.7413793 L68.1293103,51.9051724 Z M64.6465517,53.9396552 L64.4913793,54.8534483 L65.1321839,54.2873563 L64.6465517,53.9396552 Z M56.9109195,47.045977 L56.8908046,47.9195402 L55.8764368,48.6982759 L56.5373563,49.5775862 L58.5,49.7155172 L59.0258621,50.2413793 L59.0689655,51.3103448 L59.6724138,51.7011494 L60,53.137931 L61.2068966,53.9166667 L62.2758621,53.7787356 L62.6264368,54.8534483 L63.1321839,55.2816092 L63.6752874,54.4856322 L63.3045977,53.3936782 L63.8678161,52.0718391 L62.1005747,51.6637931 L60.954023,50.3965517 L60.5258621,47.9626437 L60.0977011,47.5718391 L59.9655172,46.658046 L59.1867816,46.2902299 L58.5028736,46.2902299 L58.6005747,47.2442529 L58.9913793,47.9454023 L57.9626437,47.591954 L57.2586207,46.8505747 L56.9109195,47.045977 Z M51.7183908,40.4252874 L51.1724138,41.1436782 L52.0488506,41.9798851 L52.9827586,41.4367816 L52.6321839,40.4252874 L51.7183908,40.4252874 Z M52.5747126,38.0890805 L51.9913793,39.137931 L52.5316092,39.7988506 L53.408046,39.5086207 L54.6551724,40.1666667 L55.0833333,39.8189655 L53.4482759,38.295977 L52.5747126,38.0890805 Z M41.8189655,30.8821839 L41.0258621,32.2241379 L41.2183908,33.2385057 L43.0689655,33.454023 L44.3304598,34.0775862 L44.7413793,33.7270115 L44.387931,32.1695402 L43.2068966,31.158046 L41.8189655,30.8821839 Z M38.7672414,29.2270115 L39.3304598,29.1896552 L40.7327586,29.6954023 L41.3132184,30.5143678 L40.6350575,31.683908 L40.1063218,31.2126437 L38.7672414,29.2270115 Z M35.0517241,26.5977011 L35.6350575,28.2126437 L36.6091954,28.0574713 L37.5833333,26.9454023 L36.6293103,25.8563218 L35.9683908,26.4224138 L35.0517241,26.5977011 Z M38.7873563,66.9454023 L40.1494253,67.9396552 L40.1321839,67.1781609 L39.4511494,66.6724138 L38.7873563,66.9454023 Z M28.8275862,53.3908046 L28.1264368,54.3591954 L30.1063218,56.183908 L29.8706897,55.137931 L29.9511494,54.2442529 L28.8275862,53.3908046 Z M27.2385057,52.341954 L28.2068966,52.7672414 L27.3908046,53.5028736 L27.2385057,52.341954 Z M25.2557471,48.9281609 L24.7126437,49.545977 L25.3333333,50.3591954 L26.5373563,50.7471264 L25.2557471,48.9281609 Z M19.3965517,44.0373563 L19.3965517,44.887931 L20.5603448,45.316092 L21.9568966,47.4109195 L23.3132184,47.8362069 L23.3132184,45.8189655 L21.7212644,43.5316092 L20.5172414,43.1436782 L19.3965517,44.0373563 Z M18.683908,40.0373563 L18.137931,41.204023 L18.7844828,41.9454023 L19.5402299,41.183908 L19.5229885,40.4051724 L18.683908,40.0373563 Z M19.4051724,37.1149425 L20.6666667,37.1350575 L21.1321839,37.4626437 L21.25,36.7614943 L19.9856322,36.316092 L19.4051724,37.1149425 Z M11.704023,29.8477011 L12.75,29.8103448 L13.2787356,29.2442529 L13.9770115,29.4942529 L14.7758621,31.0172414 L16.0201149,31.9885057 L15.6925287,32.75 L15.4683908,34.158046 L14.9913793,34.3793103 L13.9712644,32.4942529 L13.2126437,32.2988506 L12.9367816,31.1005747 L11.704023,29.8477011 Z M11.6465517,25.7614943 L12.908046,26.1724138 L12.4425287,25.4913793 L11.6465517,25.7614943 Z M4.31321839,21.0287356 L3.8908046,21.4741379 L3.57758621,22.137931 L4.60632184,22.7816092 L5.87068966,22.6034483 L5.12931034,21.612069 L4.31321839,21.0287356 Z M1.23275862,5.88505747 L1.01149425,6.46264368 L1.28448276,8.04022989 L2.63218391,10.9683908 L3.48563218,11.3563218 L5.81609195,13.9166667 L6.51436782,13.9166667 L7.95114943,15.704023 L8.76436782,16.0143678 L9.46551724,15.7442529 L11.2068966,17.2183908 L13.1063218,20.2442529 L15.0086207,22.066092 L15.5517241,22.066092 L15.5517241,23.4626437 L16.0574713,23.8908046 L16.25,25.2701149 L16.9310345,25.8936782 L18.0603448,25.8735632 L19.4971264,27.683908 L20.2356322,28.112069 L20.8793103,28.0143678 L21.0747126,28.5804598 L20.6465517,29.3362069 L21.3247126,30.0977011 L21.8534483,31.4626437 L21.8017241,31.8045977 L22.887931,34.6781609 L23.3936782,36.2327586 L24.7873563,36.658046 L26.3793103,37.7413793 L26.3793103,38.6724138 L27.6982759,41.0028736 L28.9396552,41.933908 L29.1752874,44.5718391 L31.1925287,48.3017241 L31.0747126,49.8132184 L31.5804598,51.1695402 L33.5229885,52.6436782 L35.5028736,55.091954 L36.0431034,56.4109195 L37.5545977,56.7212644 L38.0977011,57.341954 L39.4137931,58.1954023 L39.6091954,59.7471264 L40.7729885,60.4856322 L42.1695402,62.0373563 L44.5775862,63.5517241 L45.1178161,64.7155172 L46.6695402,65.1436782 L49.8505747,67.933908 L50.1235632,69.0603448 L50.8218391,69.3706897 L51.5574713,70.6091954 L51.9482759,70.1465517 L51.9482759,69.0977011 L51.637931,68.5545977 L51.637931,67.9712644 L52.6091954,68.1637931 L54.704023,70.1034483 L55.1321839,69.7557471 L55.1695402,68.3591954 L55.5977011,67.6206897 L56.4913793,67.816092 L57.4626437,69.3304598 L58.0833333,69.6005747 L58.8218391,68.8591954 L58.704023,66.454023 L59.25,63.5057471 L58.6666667,61.5287356 L59.5603448,59.3936782 L59.0948276,58.5804598 L59.1695402,56.8706897 L60.1408046,56.4425287 L60.566092,55.6666667 L60.4109195,54.658046 L59.5977011,54.2701149 L58.6264368,53.4913793 L58.2011494,52.2528736 L57.5431034,51.8994253 L57.2327586,51.0488506 L56.2212644,50.6206897 L54.5977011,50.8275862 L53.5488506,50.6724138 L53.3936782,49.0804598 L52.6149425,48.0316092 L51.9195402,48.4597701 L52.4224138,47.4109195 L51.9971264,46.25 L51.8390805,43.6091954 L50.5603448,44.1149425 L50.0172414,43.6091954 L47.9224138,43.5689655 L46.0948276,42.3275862 L46.137931,41.4367816 L47.2212644,40.9310345 L48.4741379,40.2298851 L47.658046,39.8017241 L46.4913793,39.9770115 L45.8477011,39.7212644 L44.6810345,40.1494253 L45.5201149,39.3908046 L46.8017241,38.433908 L48.3965517,38.183908 L48.0862069,37.0718391 L46.4367816,35.2413793 L45.4798851,35.1235632 L44.2356322,35.9626437 L43.1264368,36.6436782 L41.7643678,36.7241379 L42.5431034,36.566092 L43.0517241,36.1005747 L43.5574713,35.9626437 L44.0804598,35.2212644 L43.8304598,34.5402299 L42.6063218,33.954023 L40.7183908,34.0143678 L39.3764368,32.9022989 L39.3764368,32.183908 L39.1982759,30.7816092 L36.9454023,28.5632184 L36.2068966,28.4051724 L35.5086207,28.6206897 L34.6321839,27.9396552 L34.3793103,25.9511494 L32.8275862,24.3994253 L30.8074713,23.2701149 L29.5287356,23.1925287 L29.2557471,23.6982759 L28.6350575,23.2701149 L28.3247126,21.8362069 L27.5862069,22.5747126 L27.0431034,21.795977 L26.9683908,20.204023 L25.9942529,18.9626437 L24.8333333,18.7270115 L24.408046,17.9885057 L21.3017241,15.933908 L20.2557471,15.816092 L18.9770115,14.3793103 L17.6954023,14.1867816 L17.3477011,13.3678161 L17.0747126,11.6609195 L15.9856322,11.0775862 L15.3649425,9.75862069 L14.8994253,9.60344828 L14.1264368,8.20689655 L12.8793103,7.74137931 L11.7528736,7.74137931 L11.0172414,8.01436782 L10.4310345,7.63218391 L9.07183908,7.59482759 L7.47988506,8.02011494 L6.70114943,7.51436782 L4.2183908,5.80747126 L2.00574713,5.49712644 L1.23275862,5.88505747 Z" id="Shape" fill-rule="nonzero" opacity="0.3"></path>
                            <g id="Group" transform="translate(0.000000, 4.747126)">
                                <path d="M8.86206897,10.4942529 C7.23563218,11.3764368 7.65804598,8.63793103 6.03735632,9.26149425 C4.73563218,7.25287356 2.47701149,6.42241379 1.48850575,4.2816092 C-0.563218391,-0.172413793 2.79022989,0.617816092 5.33045977,1.81896552 C8.14367816,3.14942529 17.4971264,1.1091954 17.0402299,7.10632184 C17.2643678,7.17816092 17.4683908,7.08333333 17.6867816,7.17528736 C17.295977,8.50287356 17.9827586,9.32471264 18.4770115,10.4568966 C20.7787356,10.2643678 22.4310345,12.3505747 24.6321839,12.6896552 C24.3821839,13.8218391 27.1293103,17.8850575 28.4626437,18.1321839 C28.5316092,17.8994253 28.4568966,17.6867816 28.545977,17.4597701 C29.0373563,17.9683908 29.5258621,18.5316092 29.7442529,19.3218391 C35.2672414,17.8965517 33.5316092,23.2126437 36.1609195,24.8735632 C37.8304598,25.9252874 38.9022989,24.7787356 40.2327586,26.7758621 C40.6896552,27.4655172 40.1695402,28.4597701 40.6925287,29 C41.0747126,29.3936782 42.7643678,29.5114943 43.3132184,29.6896552 C43.3017241,30.4712644 43.0574713,31.3218391 42.6609195,31.9798851 C44.8563218,33.2557471 47.1465517,28.5057471 48.7586207,32.7183908 C47.5373563,33.316092 45.5086207,33.887931 46.0143678,35.5977011 C46.8304598,35.8362069 47.7097701,35.9137931 48.5747126,35.908046 C48.5718391,37.4655172 45.9022989,37.387931 47.1724138,38.6982759 C48.066092,39.6235632 49.9856322,38.637931 51.0057471,39.5028736 C51.2068966,39.3965517 51.2471264,39.1436782 51.4252874,39.0632184 C52.0402299,40.2787356 51.862069,42.3189655 51.3275862,43.5 C51.7758621,43.2701149 52.1522989,43.3994253 52.6321839,43.0632184 C53.0862069,44.8304598 53.0804598,45.9856322 54.8362069,46.6666667 C55.4396552,46.8994253 56.4770115,46.6005747 56.9971264,46.8706897 C57.8678161,47.3247126 58.3448276,48.1954023 59.0977011,48.8017241 C60.9425287,50.2844828 60.8304598,49.5143678 60.1609195,51.7586207 C59.795977,52.9971264 59.0143678,53.9885057 59.6091954,55.6810345 C58.1293103,56.704023 59.316092,60.7442529 59.1465517,62.4511494 C58.7988506,65.9109195 57.4511494,63.3189655 55.1293103,63.4396552 C55.137931,64.0603448 54.7471264,64.3189655 54.9913793,65.0488506 C54,64.9109195 53.1494253,64.1494253 52.2011494,63.7327586 C52.204023,64.137931 51.8965517,64.6005747 51.933908,65.0517241 C50.1724138,65.3448276 49.591954,61.9942529 48.3706897,60.9396552 C47.1350575,59.8764368 44.408046,59.9913793 44.7471264,57.9195402 C42.6494253,57.6867816 37.9913793,56.0316092 39,53.1494253 C35.7241379,52.2212644 33.7672414,48.9137931 31.8390805,46.5775862 C30.4109195,44.841954 31.5057471,44.0948276 30.4683908,41.8304598 C29.9109195,40.6149425 27.1465517,38.5402299 29.0057471,37.066092 C26.0747126,35.2413793 26.7155172,32.4022989 22.7931034,31.7270115 C22.6752874,30.1034483 19.112069,25.0718391 21.295977,24.3333333 C20.7672414,23.0833333 19.8678161,23.5948276 19.2126437,22.8908046 C18.2672414,21.8678161 18.2844828,21.3793103 17.9224138,19.9022989 C16.2126437,21.158046 14.6982759,16.6034483 13.9626437,15.5143678 C13.3218391,14.5689655 12.0775862,12.9051724 11.2643678,12.158046 C10.5775862,11.5287356 9.52586207,11.5603448 8.86494253,10.7270115 L8.86206897,10.4942529 Z M55.5574713,70.3591954 C57.1465517,71.387931 58.1350575,69.6264368 57.9885057,68 C60.0431034,68.3045977 59.8017241,66.637931 61.0603448,66.0373563 C61.6695402,65.7442529 64.0718391,65.8591954 64.8965517,65.8591954 C67.6034483,65.8591954 70.3103448,67.4971264 72.9942529,67.9971264 C72.8821839,68.4367816 73.1810345,69.1436782 73.066092,69.5948276 C75.7672414,70.0804598 85.0172414,73.362069 83.6091954,68.2356322 C86.4712644,67.6005747 89.341954,69.5488506 91.7011494,70.6005747 C94.1091954,71.6752874 93.2212644,71.6896552 94.5747126,73.6637931 C95.3304598,74.7672414 97.6063218,76.5373563 98.4195402,74.9626437 C99.7557471,76.6005747 106.712644,75.433908 102.985632,79.6465517 C104.178161,79.908046 104.474138,80.954023 104.12931,82.0517241 C100.488506,82.6005747 99.8591954,79.2557471 96.9942529,79.2155172 C95.4195402,79.1925287 94.9051724,79.1637931 93.3908046,78.9712644 C91.8074713,78.7701149 90.8850575,78.933908 89.6063218,79.6637931 C88.7614943,76.8706897 86.0833333,78.8247126 84.2902299,78.7413793 C82.3390805,78.6522989 79.3477011,75.7586207 77.8045977,76.7988506 C77.3649425,75.6091954 76.8965517,76.2270115 76.0948276,76.045977 C75.7241379,75.9626437 73.5373563,75.6321839 73.1350575,75.6752874 C71.3017241,75.8649425 71.0258621,77.5804598 68.8994253,76.1666667 C67.2557471,75.0747126 67.4626437,74.0862069 65.3706897,73.7126437 C63.7385057,73.4195402 62.0804598,74.1752874 60.6063218,73.1724138 C61.1178161,72.5402299 60.8505747,72.0545977 61.0258621,71.3591954 C59.4396552,70.4597701 57.3591954,71.4166667 55.9224138,70.362069 C56.2672414,70.816092 56.4252874,71.3448276 56.7528736,71.795977 L55.5574713,70.3591954 Z M79.2643678,21.9885057 L78.7701149,24.387931 C78.8821839,23.7902299 79.2931034,23.0028736 79.4942529,22.4367816 C80.1551724,24.1264368 82.4741379,24.7528736 83.5545977,25.8304598 C84.2097701,26.4856322 84.091954,27.5488506 85.25,27.7614943 C86.4252874,27.9770115 85.9626437,25.8936782 87.5890805,26.9367816 C87.7155172,26.7068966 87.5833333,26.5028736 87.8534483,26.3304598 C89.2844828,26.6637931 92.6522989,27.2844828 94.0977011,26.7442529 C96.3477011,25.9051724 97.3850575,23.6551724 99.1695402,26.6982759 C101.58046,24.9971264 103.772989,25.5804598 106.517241,24.8362069 C106.954023,22.6264368 108.807471,20.2442529 108.071839,17.908046 C112.261494,16.2183908 110.497126,9.20977011 114.020115,7.37643678 C114.977011,6.87931034 119.083333,7.47701149 119.908046,7.91666667 C121.33908,8.67816092 121.172414,9.82183908 122.33908,11.4051724 C121.583333,11.4482759 120.925287,11.8793103 120.465517,12.1781609 C120.916667,12.2528736 121.33908,12.6034483 121.841954,12.6867816 C121.192529,14.8563218 121.525862,15.1063218 122.663793,17.1494253 C123.382184,18.4367816 124.609195,19.9166667 124.238506,21.4741379 C123.864943,21.3247126 123.008621,21.4712644 122.626437,21.3017241 C122.201149,23.9885057 126.658046,24.3735632 127.689655,25.75 C129.933908,28.7385057 124.566092,29.908046 123.071839,27.2816092 C122.658046,28.2902299 122,29.0344828 122.327586,30.0833333 C120.887931,30.3304598 120.91092,33.6235632 120.204023,34.7298851 C119.514368,35.8074713 119.114943,36.7097701 118.833333,37.5 C118.511494,38.4051724 118.979885,39.1724138 117.795977,39.9827586 C117.712644,39.7385057 117.393678,39.3850575 117.29023,39.0316092 C116.37931,39.0373563 115.617816,39.5545977 115.195402,40.3908046 C116.048851,40.2816092 116.517241,40.7298851 117.126437,40.908046 C116.614943,41.1954023 116.485632,41.4655172 115.862069,41.566092 C115.649425,41.2614943 116.068966,41.7643678 116.117816,41.8189655 C115.022989,41.6293103 113.847701,41.7873563 113.772989,43.0258621 C114.16954,42.9425287 114.741379,43.1551724 115.143678,43.0977011 C114.982759,43.9971264 115.327586,44.0948276 114.474138,44.6896552 C115.689655,45.2672414 115.663793,46.4252874 114.126437,46.3936782 C114.137931,46.3994253 114.278736,46.841954 114.270115,46.8505747 C114.721264,46.7586207 115.408046,46.9224138 115.876437,46.9281609 C115.827586,47.2758621 115.79023,47.6982759 115.62069,48.0545977 C114.801724,48.4655172 114.83046,48.3850575 114.221264,49.2758621 C114.008621,49.2729885 113.965517,49.0172414 113.801724,49.0689655 C113.439655,51.4626437 107.928161,54.5603448 106.103448,55.5057471 C105.936782,52.6465517 103.494253,53.8045977 102.971264,51.7413793 C102.16092,53.5172414 100.928161,52.6695402 101.258621,50.9885057 C99.9856322,51.5603448 99.5344828,50.1408046 98.6666667,50.2931034 C97.6350575,50.4770115 97.1752874,51.3074713 96.2586207,51.7298851 C94.341954,52.6178161 92.545977,50.4626437 91.6982759,53.0517241 C91.9022989,51.4712644 91.4626437,50.3994253 90.7643678,49.0718391 C90.5,49.0977011 90.045977,49.0747126 89.7988506,49.1235632 C89.5977011,49.4166667 89.2844828,49.683908 89.0833333,50 C88.8735632,49.7844828 88.545977,49.6637931 88.3017241,49.3103448 C87.3189655,50.1293103 87.0258621,49.1925287 85.9683908,49.2931034 C84.5373563,49.4281609 84.2356322,49.2672414 82.8448276,50.2241379 C81.9454023,48.9942529 82.3247126,47.4741379 81.7212644,46.1724138 C81.295977,45.2586207 80.433908,44.637931 79.9971264,43.7729885 C82.4511494,42.1781609 80.9568966,37.5833333 78.4310345,36.8333333 C79.8936782,36.0258621 81.3563218,35.1149425 82.5431034,33.7586207 C80.566092,33.6091954 78.8074713,35.045977 76.8994253,33.908046 C76.9655172,32.545977 76.2758621,31.6264368 75.9626437,30.5545977 C75.6321839,29.4224138 74.6522989,28.8448276 76.3678161,27.9741379 C75.1494253,26.6264368 76.8247126,26.1982759 77.3591954,25.1666667 C77.9597701,24.0114943 77.7672414,22.3362069 79.2643678,21.9885057 Z M131.227011,63.8936782 C131.287356,64.0775862 131.649425,63.9195402 131.433908,64.341954 C130.215517,64.0948276 129.002874,61.9281609 129.597701,60.5890805 C129.933908,59.8304598 131.178161,59.8247126 131.758621,58.9137931 C133.106322,56.8017241 131.083333,54.4626437 131.189655,51.954023 C130.310345,51.9712644 129.471264,52.1637931 128.600575,52.3764368 C128.66092,50.8304598 127.91954,49.5028736 128.152299,47.887931 C129.485632,47.7902299 129.422414,46.3706897 129.356322,45.2586207 C131.988506,43.5 129.155172,34.0488506 134.051724,38.0114943 C134.548851,36.2471264 131.936782,33.2356322 133.12931,31.0316092 C133.928161,29.5517241 134.488506,30.4741379 135.787356,29.8908046 C137.166667,29.2701149 137.025862,28.5 137.87931,27.4425287 C140.560345,24.1206897 143.313218,28.9454023 146.744253,26.5632184 C147.479885,27.5373563 152.106322,30.0862069 151.873563,27.2758621 C153.847701,30.1235632 157.893678,27.25 159.554598,25.5804598 C160.270115,24.862069 162.181034,22.4971264 163.62931,24.0747126 C165.252874,25.841954 161.517241,28.0977011 160.399425,28.9224138 C158.686782,30.183908 157.965517,30.7557471 156.137931,31.0229885 C155.818966,31.0718391 154.218391,31.3333333 154.031609,31.2844828 C153.537356,31.1609195 153.175287,30.1752874 152.557471,30.1206897 C150.988506,29.9741379 145.238506,31.4051724 144.600575,29.9166667 C142.298851,31.7643678 141.548851,29.3678161 139.373563,29.8764368 C138.12069,30.1695402 134.890805,33.4971264 134.818966,34.6810345 C134.706897,36.4971264 137.275862,38.5747126 138.353448,39.7068966 C139.100575,40.4885057 139.022989,42.0804598 140.649425,41.1637931 C141.715517,40.5632184 141.428161,38.1925287 141.810345,37.112069 C143.33908,36.7873563 143.795977,37.933908 144.882184,37.9856322 C146.83046,38.0804598 146.899425,36.6551724 148.465517,36.1005747 C150.764368,35.2902299 152.997126,35.7097701 154.247126,37.316092 C153.571839,38.6925287 152.637931,38.1149425 152.077586,38.4425287 C151.770115,38.6206897 150.965517,38.954023 150.425287,39.2844828 C150.206897,39.4166667 150.33908,40.3793103 149.91954,40.683908 C148.350575,41.8218391 144.482759,41.4310345 144.117816,44.2270115 C143.724138,43.8936782 141.784483,42.9166667 142.244253,44.5057471 C142.502874,45.4022989 143.652299,45.2672414 144.408046,45.8821839 C145.183908,46.5172414 147.287356,48.5862069 147.525862,49.5287356 C148.166667,52.0632184 145.827586,51.8908046 147.824713,54.2586207 C148.431034,54.9770115 148.439655,55.4195402 149.425287,55.8132184 C150.548851,56.2643678 151.181034,55.0028736 152.232759,56.2931034 C150.094828,57.4137931 145.635057,56.5574713 145.382184,59.8448276 C145.764368,60.0833333 145.902299,60.3936782 146.04023,60.5086207 C144.614943,60.2097701 143.137931,58.8850575 141.795977,58.8362069 C141.971264,58.1925287 142.060345,57.362069 142.451149,56.7787356 C142.063218,55.841954 140.867816,55.6264368 140.566092,54.9856322 C140.117816,54.0488506 140.33908,52.7212644 140.33046,51.6293103 C140.313218,49.1609195 139.109195,47.4511494 137.278736,50.2385057 C136.560345,51.3333333 136.83046,52.4195402 136.505747,53.6609195 C136.451149,53.8678161 135.775862,54.7988506 135.775862,54.8362069 C135.758621,55.6724138 136.393678,55.9137931 136.462644,56.4568966 C136.735632,58.5833333 135.566092,61.4798851 136.706897,63.1206897 C135.821839,63.7729885 131.695402,64.1781609 131.471264,63.8936782 L131.227011,63.8936782 Z M247.367816,83.7701149 L247.37931,84.7183908 C247.793103,83.7298851 244.942529,81.3477011 244.462644,79.7270115 C243.908046,79.8017241 243.359195,79.4137931 242.91954,79.4022989 C243.327586,78.6954023 243.132184,78.0402299 243.270115,77.3333333 C242.62931,77.2126437 241.968391,77.6896552 241.433908,77.5833333 C242.091954,77.7097701 239.979885,77.5574713 240.497126,77.5229885 C239.632184,77.5804598 237.893678,77.6063218 236.859195,77.5 C237.474138,76.2902299 237.729885,75.2068966 236.626437,74.2385057 C237.712644,73.8218391 239.198276,73.6752874 239.692529,72.545977 C237.867816,72.3706897 236.718391,73.6350575 235.614943,71.545977 C236.017241,71.3247126 236.729885,70.5431034 237.060345,70.3965517 C235.066092,70.387931 233.051724,67.3132184 233.451149,65.6005747 C233.221264,65.545977 233.017241,65.5890805 232.79023,65.5201149 C233.393678,65.2270115 233.824713,64.5229885 234.175287,64.1724138 C233.333333,64.112069 232.442529,64.1522989 231.597701,64.0833333 C231.979885,63.6810345 232.183908,62.841954 232.511494,62.4367816 C231.445402,61.6695402 230.293103,62.1954023 229.215517,62.4195402 C229.494253,56.8505747 215.103448,60.295977 214.109195,54.816092 C213.882184,54.9856322 213.413793,55.0862069 213.140805,55.2988506 C213.034483,55.0402299 212.474138,54.6178161 212.364943,54.1494253 C211.933908,54.4741379 211.594828,54.341954 211.252874,54.5143678 C210.761494,52.5316092 209.778736,51.7298851 209.79023,49.408046 C209.485632,50.2011494 208.735632,51.1867816 208.563218,51.9051724 C208.318966,52.9310345 208.885057,53.6982759 208.16954,54.8390805 C206.477011,57.5488506 204.29023,55.2816092 203.336207,53.1494253 C203.744253,53.2212644 204.301724,53.0201149 204.712644,53.0775862 C205.028736,51.4281609 201.011494,49.0229885 199.925287,48.5747126 C200.893678,45.6982759 203.272989,48.2729885 205.135057,48.1005747 C204.16092,45.2442529 207.982759,46.3189655 209.057471,47.5201149 C213.813218,45.1781609 206.477011,43.5862069 204.261494,44.0057471 C202.543103,44.3304598 200.781609,46.6781609 199.471264,44.7298851 C199.094828,44.1695402 199.66092,42.9252874 199.307471,42.2729885 C199.077586,41.8477011 198.172414,41.2385057 197.801724,40.8764368 C197.057471,41.6982759 195.859195,42.0287356 195.135057,40.8936782 C196.275862,39.7931034 197.175287,38.9195402 196.87931,37.1063218 C199.356322,36.3821839 201.758621,33.1178161 204.729885,34.4367816 C205.974138,34.9856322 206.275862,36.4166667 207.617816,36.8390805 C208.632184,37.158046 211.413793,36.3045977 212.252874,35.887931 C212.031609,36.5775862 211.666667,37.5201149 211.727011,38.2212644 C211.764368,38.6293103 212.609195,38.4885057 212.655172,39.158046 C212.735632,40.4022989 212.057471,41.1551724 211.913793,42.137931 C211.497126,45.0114943 212.724138,46.4971264 213.738506,49.0229885 C213.477011,48.4137931 213.37931,46.6264368 214.557471,46.6264368 C215.715517,46.6264368 215.396552,48.9942529 215.795977,49.7614943 C216.882184,51.8390805 219.313218,52.0086207 219.876437,49.3132184 C220.192529,49.454023 220.931034,49.362069 221.229885,49.4856322 C220.902299,47.0402299 222.465517,46.7356322 224.146552,45.704023 C225.031609,45.158046 225.066092,44.9051724 226.241379,44.5488506 C227.071839,44.3017241 227.439655,45.3505747 228.425287,44.1896552 C227.186782,42.6666667 229.267241,40.7758621 230.833333,40.4798851 C232.534483,40.158046 232.244253,40.9798851 233.528736,41.612069 C235.12069,42.3936782 235.103448,41.841954 236.784483,42.1551724 C238.62931,42.5 241.224138,44.1637931 243.060345,44.9683908 C244.103448,45.4252874 245.158046,45.5488506 246.172414,45.9281609 C247.117816,46.2816092 247.387931,47.1695402 248.531609,47.1666667 C248.692529,50.5287356 248.235632,53.8534483 248.514368,57.2528736 C248.772989,60.4281609 249.074713,63.7126437 248.278736,66.7729885 C248.137931,67.3189655 247.37069,68.1034483 247.399425,68.683908 C247.428161,69.3706897 248.37069,69.8505747 248.566092,70.6005747 C248.922414,71.9597701 248.566092,73.9252874 248.566092,75.3362069 C248.566092,77.841954 248.468391,82.0747126 247.367816,83.7701149 Z M152.301724,89.5172414 C152.298851,89.5114943 152.008621,89.158046 152.109195,88.5833333 C152.287356,88.7068966 152.517241,88.9195402 152.721264,89.0172414 C153.272989,87.5862069 152.991379,85.6206897 154.931034,85.2011494 C156.126437,84.9425287 158.571839,87.0833333 158.324713,83.7988506 C160.873563,82.7413793 160.221264,85.4195402 162.037356,86.1637931 C160.479885,86.9856322 158.968391,88.2528736 158,89.7327586 C156.215517,88.4195402 156.385057,90.3390805 155.126437,90.4281609 C153.810345,90.5201149 153.014368,89.2758621 152.066092,89.7586207 L152.301724,89.5172414 Z M130.270115,83.7701149 L130.034483,84.25 C130.408046,84.8362069 131.33046,85.9913793 132.62931,85.6494253 C132.603448,83.8994253 134.149425,84.6350575 135.025862,85.5086207 C134.735632,86.7816092 137.014368,87.2385057 137.905172,88.1350575 C137.353448,90.5057471 132.971264,90.8908046 133.123563,88.1293103 C131.939655,87.3563218 131.183908,88.0344828 130.086207,87.7931034 C129.143678,87.5833333 128.528736,86.908046 127.439655,86.8534483 C126.324713,84.6666667 129.508621,84.3275862 130.270115,83.7701149 Z M132.905172,80.4166667 C132.666667,76.9051724 139.945402,79.8563218 140.548851,78.704023 C141.41092,79.6522989 142.091954,79.8908046 143.215517,80.1350575 C142.982759,80.0833333 145.795977,80.2327586 145.778736,80.2356322 C147.568966,79.9971264 148.425287,77.045977 150.344828,77.5862069 C152.658046,81.4856322 144.295977,81.3764368 142.718391,81.6091954 C139.735632,82.0488506 134.821839,83.2212644 132.655172,80.1522989 C132.701149,79.6235632 132.712644,80.8390805 132.666667,80.658046 L132.905172,80.4166667 Z M172.655172,50.7241379 L171.698276,50.2471264 C171.741379,50.2011494 172.221264,49.8103448 171.887931,50.0172414 C171.698276,50.4511494 171.798851,50.7729885 171.732759,51.1666667 C172.770115,51.1063218 173.258621,51.6408046 172.606322,52.6522989 C171.988506,53.612069 171.471264,53.0718391 170.488506,53.1206897 C168.994253,53.1925287 166.735632,53.0258621 167.183908,51.0057471 C168.867816,49.9798851 171.364943,50.8908046 172.655172,50.7241379 Z M179.600575,48.3304598 L177.681034,49.5258621 C177.735632,49.9224138 177.902299,50.112069 178.181034,50.0890805 C178.508621,47.7011494 182.721264,48.2011494 183.715517,49.7471264 C185.816092,48.0402299 186.698276,49.3649425 188.637931,50.295977 C189.997126,50.9482759 193.508621,51.454023 193.307471,52.9310345 C192.91092,55.8189655 189.985632,53.5143678 188.890805,52.8678161 C186.778736,51.6178161 186.091954,51.8908046 183.956897,52.6091954 C183.761494,52.1293103 183.41954,52.1465517 183.232759,51.8821839 C183.16092,51.6609195 183.192529,51.454023 183.155172,51.2270115 C182.241379,51.8793103 180.123563,53.066092 180.287356,50.9942529 C179.051724,50.8994253 178.166667,51.7126437 177.048851,51.8850575 C177.741379,50.6925287 178.617816,49.0804598 179.600575,48.3304598 Z M198.037356,72.7557471 L197.318966,73.2356322 C197.560345,74.1005747 197.020115,78.9396552 195.146552,77.5086207 C194.014368,76.6436782 197.287356,73.0775862 198.037356,72.7557471 Z M178.163793,21.2701149 L178.885057,20.3074713 C178.465517,20.7270115 178.123563,21.6005747 177.945402,22.1810345 C178.488506,22.3706897 178.824713,22.9626437 179.333333,23.1695402 C179.198276,24.9367816 177.479885,25.7356322 177.908046,27.658046 C179.813218,27.3247126 180.158046,22.7902299 182.014368,23.9367816 C184.683908,25.5804598 179.936782,27.9195402 179.327586,28.7011494 C180.37931,29.6781609 182.390805,30.2586207 182.198276,32.0028736 C180.715517,31.9798851 178.727011,32.0201149 177.482759,31.1005747 C177.465517,32.2729885 177.471264,33.8678161 177.971264,34.9224138 C178.54023,36.1178161 179.971264,36.7729885 180.043103,38.0114943 C177.965517,36.5373563 176.117816,33.9913793 176.686782,31.3563218 C176.135057,31.25 175.821839,30.7442529 175.327586,30.5603448 C176.497126,28.2270115 174.488506,26.9166667 176.479885,24.8965517 C176.178161,24.9022989 175.853448,24.8275862 175.551724,24.8275862 C175.448276,22.9367816 177.149425,21.7557471 178.163793,21.2701149 Z M111.112069,80.8965517 C113.066092,81.816092 112.485632,78.5775862 114.224138,78.4971264 C116.724138,78.3821839 114.899425,80.7528736 114.66092,81.8132184 C113.764368,82.2155172 112.747126,82.2068966 111.795977,81.8563218 C111.462644,81.6005747 111.991379,81.7844828 112.071839,81.6178161 L111.112069,80.8965517 Z M68.7270115,50.4856322 C67.7327586,49.9971264 67.8936782,48.1465517 68.2729885,46.9310345 C69.3390805,46.6321839 72.6781609,48.1034483 72.816092,49.0431034 C73.1235632,51.1896552 70.7557471,50.8706897 69.9195402,49.7385057 C69.6206897,49.9942529 68.9856322,50.2298851 68.7586207,50.4655172 C68.6005747,50.0890805 68.8477011,50.0747126 68.9683908,49.7643678 L68.7270115,50.4856322 Z M122.847701,78.2614943 L122.12931,78.7413793 C123.270115,78.1091954 125.925287,78.2327586 126.678161,80.0948276 C127.252874,79.1724138 127.255747,79.8333333 128.071839,79.5028736 C129.508621,81.112069 127.537356,82.1264368 125.95977,81.8678161 C124.405172,81.6091954 123.551724,79.9511494 121.925287,79.6637931 C121.991379,78.9310345 122.425287,78.4798851 122.847701,78.2614943 Z" id="Combined-Shape"></path>
                            </g>
                        </g>
                    </g>
                </g>
            </g>
        </g>
    </g>
</svg>