<?xml version="1.0" encoding="UTF-8"?>
<svg width="120px" height="116px" viewBox="0 0 120 116" version="1.1" xmlns="http://www.w3.org/2000/svg" xmlns:xlink="http://www.w3.org/1999/xlink">
    <!-- Generator: Sketch 52.1 (67048) - http://www.bohemiancoding.com/sketch -->
    <title>noun_greece_727402</title>
    <desc>Created with Sketch.</desc>
    <defs>
        <linearGradient x1="12.0998348%" y1="72.7425357%" x2="88.1853453%" y2="13.5814785%" id="linearGradient-1">
            <stop stop-color="#34CDFA" offset="0%"></stop>
            <stop stop-color="#E8D9F1" offset="100%"></stop>
        </linearGradient>
    </defs>
    <g id="Page-1" stroke="none" stroke-width="1" fill="none" fill-rule="evenodd">
        <g id="Home-Copy" transform="translate(-260.000000, -3590.000000)" fill="url(#linearGradient-1)">
            <g id="Offices" transform="translate(-275.000000, 2067.000000)">
                <g id="Reason-Copy-11" transform="translate(410.000000, 1471.000000)">
                    <g id="Group-2" transform="translate(20.000000, 20.000000)">
                        <g id="noun_greece_727402" transform="translate(105.000000, 32.000000)">
                            <path d="M89.9082381,0.0766259361 L88.2437525,0.0766259361 L84.9672842,2.56413086 L84.7700434,5.73843122 L85.8598345,8.12376823 L84.0761529,9.61655499 L78.2085928,9.22207331 L75.5323611,10.5076862 L73.147024,9.1184864 L70.4622783,9.1184864 L68.5750099,10.6112732 L65.993851,10.4126133 L65.5993693,8.12376823 L62.0220733,8.22593615 L58.6420181,7.62428065 L56.2566811,9.91596374 L52.774458,10.808514 L48.2109578,10.7148601 L46.813244,10.0110367 L45.0295625,11.6059913 L42.5420575,11.7095782 L39.3677572,13.6905006 L32.5139929,13.3882538 L29.6320063,14.9846275 L29.4347655,16.1680725 L25.5580607,17.5586914 L20.0934963,20.9373276 L19.4932598,24.8140323 L17.3150966,28.795743 L11.8505321,30.5794245 L11.6447773,33.7537249 L9.75750887,37.8376035 L7.95538037,38.7627907 L8.24769413,38.9699645 L8.46196295,42.9417422 L13.4724478,46.6978321 L16.3118644,50.7916437 L17.6670083,51.0995664 L17.3491525,52.3525424 L21.2102483,57.7816318 L22.1538825,61.5320457 L23.9219551,62.2699251 L26.2207331,59.4574695 L28.3052424,62.0655893 L31.5391407,62.4770989 L32.8942846,60.3911707 L35.1845487,60.5983445 L38.8384706,62.7864407 L41.0265668,61.7477335 L41.4380765,63.626488 L43.213244,63.5243201 L44.6719748,64.6666141 L47.5979503,65.1888057 L45.5134411,66.4417816 L43.6346866,68.3106031 L41.7559322,66.7497044 L39.2513993,66.1310209 L33.8294048,62.5792669 L31.4355538,63.4122192 L29.1367757,64.775877 L26.7429247,63.625069 L24.7620024,66.1310209 L23.2947576,66.5425305 L22.3596374,68.9434765 L25.2756799,72.2809618 L28.3038234,73.7396926 L31.219866,76.4499803 L31.5377217,78.4309026 L30.3883327,79.7860465 L30.5940875,82.3941663 L33.1000394,85.6280646 L34.773039,87.5054001 L35.5024044,85.7302326 L34.8766259,84.3750887 L35.9153331,81.9741427 L36.8589673,85.0022862 L40.5043752,86.5646039 L41.3458415,88.5455262 L40.822231,90.8343713 L42.3845487,92.7216397 L42.3845487,88.8619629 L43.7396926,85.7302326 L46.0384706,85.7302326 L47.0757588,88.2262515 L51.1426094,90.9379582 L49.4781238,88.1240836 L49.8896334,86.2552621 L48.4309026,83.5435554 L46.5521482,79.0581001 L44.8876626,76.4499803 L44.9912495,75.4126922 L46.6642491,75.1998423 L49.6838786,76.760741 L48.7487584,77.9186441 L49.6838786,78.9559322 L51.2532913,77.2829326 L54.3750887,78.3287347 L54.4786756,77.2829326 L53.2256996,76.3478124 L52.9688609,75.1899093 L51.8705558,74.8805676 L49.5802917,73.4232558 L49.7860465,72.0681119 L47.0743398,69.9836027 L49.6824596,68.8413086 L52.0848246,68.9434765 L53.5435554,67.6905006 L57.2925503,70.2986204 L57.7125739,71.4494285 L60.3206937,71.7587702 L61.0500591,70.1964525 L58.759795,66.8518723 L59.3855735,63.7286559 L58.4419393,61.9534884 L52.0862436,58.0001577 L50.1053212,57.4680331 L49.161687,55.9057154 L47.3936145,56.0078833 L46.2442255,54.5505715 L43.5339377,54.2412298 L40.822231,51.8388648 L43.7396926,51.4188412 L45.4126922,49.4379188 L45.3005912,47.980607 L42.5988175,47.2498226 L44.0575483,45.3724872 L43.9454474,43.8101695 L46.0469846,44.6005518 L47.7625542,46.0067797 L47.0842728,47.5151754 L47.2900276,48.9653922 L48.7998423,48.6049665 L49.7349626,45.3795822 L47.9172251,43.191486 L43.7396926,38.0788333 L41.964525,36.7137564 L41.5530154,34.836421 L38.3191171,32.1261332 L39.4685061,30.6674024 L38.9448955,25.246827 L40.7200631,22.4343713 L44.0575483,21.6950729 L44.4690579,24.4067797 L42.9081592,24.4067797 L43.217501,25.8726054 L47.4986204,27.8535278 L47.9186441,31.191013 L50.6204178,33.3776902 L53.6485613,33.2755223 L51.4604651,31.8182105 L50.3110761,29.7337012 L50.7310997,27.8549468 L53.5449744,28.798581 L55.7330706,31.8182105 L57.611825,32.5475759 L58.6590461,30.7709894 L56.5745369,29.2100907 L54.6957824,28.4807253 L54.7979503,26.9113126 L59.9106031,27.1255814 L61.7808435,29.0043358 L62.6223098,28.0592826 L59.6963343,25.3489949 L56.6681908,24.9374852 L54.1721719,22.0115097 L55.6309026,20.3385101 L58.3411904,21.1799764 L60.5292866,19.9270004 L61.5750887,16.2716594 L63.556011,15.550808 L66.5756405,17.8339771 L68.8744186,18.046827 L71.3803705,15.4387071 L71.4825384,14.0835633 L72.6319275,14.0835633 L74.5021679,16.2702404 L80.1384312,16.2702404 L84.3585337,17.3869925 L87.3526212,16.6306661 L88.9489949,13.4577848 L88.3487584,10.4651163 L91.9345684,8.2770201 L92.1318092,4.89696492 L89.3448955,3.69649192 L89.9082381,0.0766259361 Z M59.1117067,107.006701 L58.2205755,105.316673 L58.0914466,107.281987 L57.2244383,109.023098 L57.4642491,111.099093 L59.4636184,111.991644 L64.0611746,111.391407 L65.956957,111.896571 L67.8016555,111.253764 L70.5389042,112.044147 L73.5244777,113.792353 L73.8678754,115.585968 L77.3075286,115.439811 L80.1384312,113.637682 L83.3297596,113.947024 L88.3998423,113.792353 L91.8905794,113.886007 L93.8800158,112.642964 L94.7214821,110.704612 L94.2759164,108.800315 L94.2759164,107.606937 L93.5295231,108.705242 L93.4358691,110.101537 L91.7458415,111.492156 L90.5439495,110.444935 L89.1022467,110.994088 L87.653449,110.796847 L87.9528577,109.501301 L87.2575483,107.699172 L85.9109184,107.750256 L82.1803705,107.252188 L79.245881,105.956642 L75.3606622,106.104218 L72.1267639,108.153252 L69.639259,108.797477 L67.5547497,107.699172 L66.5600315,106.609381 L64.9125739,106.857706 L66.053449,105.811904 L65.0587308,104.164446 L62.9231376,104.319117 L63.3176192,105.366338 L64.0214426,105.563579 L63.2239653,106.257469 L61.182026,106.361056 L60.6839574,104.319117 L60.032637,104.113362 L59.7843122,105.262751 L60.1362239,106.651951 L59.1117067,107.006701 Z M3.94387071,37.4700828 L3.8402838,40.1548285 L5.38415451,41.9044541 L7.17776902,42.5557745 L7.47008277,43.5008277 L6.82585731,43.9974773 L4.58667718,42.9516752 L2.15025621,40.3620024 L1.94450138,39.564525 L0.502798581,38.9728025 L0.305557745,37.5665747 L2.69940875,36.6740244 L3.94387071,37.4700828 Z M14.6402838,57.0536855 L14.4856129,56.1284982 L15.7031139,53.9134411 L16.6552621,53.7431612 L17.0497438,56.0845093 L16.2096965,57.1303114 L15.3611352,57.3275522 L14.6402838,57.0536855 Z M14.8375246,61.5490737 L14.8886086,58.2044935 L16.4324793,59.5085534 L17.2810406,61.4469058 L16.9291289,62.5977138 L18.1210879,63.8407568 L18.4729996,65.1363027 L19.0221521,65.8812771 L18.1721719,67.227907 L16.5332282,66.3353567 L14.6374458,66.0785179 L14.6374458,64.5332282 L13.9946393,63.8393378 L13.9421364,65.2370516 L13.246827,65.974931 L12.003784,64.6893181 L12.003784,61.7903035 L13.6427276,61.3447379 L14.8375246,61.5490737 Z M19.9161214,71.3628695 L20.9633425,72.5647615 L19.2733149,72.3164367 L18.9214032,73.217501 L17.3775325,72.8130863 L15.4902641,70.9173039 L15.8847458,69.4245171 L16.9830508,68.8753646 L18.6730784,69.6728419 L19.9161214,71.3628695 Z M105.62365,101.576192 L105.229168,100.975956 L105.975562,99.7314939 L105.975562,101.078124 L105.62365,101.576192 Z M105.023413,108.601655 L104.577848,105.813323 L103.736382,104.1162 L105.229168,102.278597 L105.572566,103.91754 L106.868112,105.606149 L105.873394,108.205755 L105.023413,108.601655 Z M112.246117,100.3743 L111.396137,99.4817501 L112.091447,97.9903823 L111.645881,97.4412298 L111.843122,95.991013 L114.828695,93.5035081 L117.967521,92.2079622 L119.710051,91.4530548 L119.563894,92.8521876 L118.611746,93.597162 L118.113678,95.0899488 L117.375798,96.2918408 L117.418368,97.184391 L116.122822,97.234056 L114.631454,98.6856918 L113.388412,100.178479 L112.246117,100.3743 Z M93.7253449,91.3594009 L92.4808829,90.4072527 L93.1322034,89.4125345 L95.2677966,88.6150572 L96.3661017,89.1117067 L95.4749704,90.5605045 C95.4749704,90.5605045 93.6827749,91.3083169 93.7253449,91.3594009 Z M93.4770201,71.7658652 L95.7672842,69.9211667 L97.3636579,70.0758376 L99.0026015,71.4139535 L99.4566811,70.8633819 L100.203074,71.0166338 L100.495388,72.0638549 L98.9600315,72.8088293 L98.3087111,73.6063067 L96.9620812,73.5552227 L95.8212061,72.2596768 L94.3284194,72.3618447 L92.8867166,72.7563264 L93.4770201,71.7658652 Z M88.852503,57.2083563 L89.4442255,60.5969255 L88.9461569,62.8361056 L87.0588885,63.7371699 L85.5661017,62.5962948 L85.5150177,61.4979898 L86.7580607,60.9999212 L86.7069767,58.9579819 L84.9133622,57.602838 L84.9133622,56.7117067 L86.5097359,55.8617264 L88.1997635,56.5570359 L88.852503,57.2083563 Z M85.1205361,49.229326 L83.0800158,47.5322034 L84.3230587,45.4377611 L87.4022862,44.34797 L88.9035869,43.3958218 L91.7855735,42.9502562 L92.2311391,43.6540796 L91.6819866,45.1979503 L92.3333071,45.2916043 L92.7788727,47.2909736 L92.7263697,50.1729602 L89.99054,50.378715 L88.1032716,49.4861648 L88.849665,48.3892787 L89.99054,47.4371305 L90.1962948,45.7485219 L88.1969255,45.7896728 L87.554119,47.3860465 L87.2532913,49.0320851 L85.9577454,49.3329129 L85.1205361,49.229326 Z M78.1986598,24.0619629 L78.6967284,23.1083957 L80.5414269,22.8600709 L82.2314545,23.3056366 L82.2825384,24.5586125 L80.7897517,25.1077651 L78.1986598,24.0619629 Z M72.2275128,31.233583 L74.415609,31.182499 L75.3592432,31.9884903 L76.756957,30.6844304 L78.1461569,31.4393378 L76.4561293,33.2741033 L76.1127316,35.9162791 L74.5177769,35.2309026 L73.4194718,35.4196295 L72.1764289,34.3724084 L71.5322034,32.2793851 L72.2275128,31.233583 Z M65.5624754,19.3778479 L66.6522665,18.9748522 L68.5480489,19.9270004 L68.7963737,21.4197872 L67.0467481,22.2612534 L66.3003547,21.8156878 L64.764998,21.8667718 L65.5624754,19.3778479 Z M53.1150177,47.1902247 L53.964998,46.9404809 L55.4067008,47.4385495 L55.8522665,49.18108 L55.4067008,50.1318092 L53.1150177,47.1902247 Z M50.5750099,47.2398896 L51.622231,46.4949153 L52.2224675,47.0866378 L51.5186441,48.4417816 L50.5750099,47.2398896 Z M66.2577848,50.3290501 L67.201419,49.9870713 L68.342294,51.2301143 L69.7400079,51.7196689 L69.9883327,54.018447 L69.0872684,54.3703587 L68.340875,52.816555 L67.6455656,52.6278281 L66.2577848,50.3290501 Z M88.6552621,76.5961372 L87.7541979,75.4552621 L88.1571935,73.9539614 L91.0391801,73.4048088 L90.5936145,74.8096177 L88.6552621,76.5961372 Z M65.956957,90.4583366 L67.252503,88.5625542 L69.0446985,88.6150572 L68.6417028,90.0638549 L67.148916,90.6130075 L65.956957,90.4583366 Z M67.0467481,81.9315727 L68.2983051,81.0390225 L68.2983051,82.832637 L67.0467481,81.9315727 Z M66.5571935,79.3915648 L66.5571935,77.1027197 L67.8002365,77.4546315 L67.7491525,78.6891604 C67.7491525,78.6891604 66.6522665,79.3915648 66.5571935,79.3915648 Z M65.2105637,76.2016555 L64.764998,75.3091052 L65.6064643,74.2618841 L66.6011825,75.6 L65.2105637,76.2016555 Z M77.6495073,84.3765077 L76.4575483,83.3307056 L77.0067008,81.1440284 L78.3448167,81.1440284 L78.9450532,82.5332282 L77.6495073,84.3765077 Z M80.9869925,83.8358691 L80.0433583,82.2820654 L81.9817107,80.5934568 L83.2247536,80.8332676 L83.5255814,82.2820654 L82.2811194,83.8784391 L80.9869925,83.8358691 Z M80.2405991,77.7455262 L80.2916831,76.6486401 L81.4836421,77.0005518 L80.2405991,77.7455262 Z M76.2588885,74.3058731 L77.5544344,73.8603074 L78.7463934,75.0011825 L78.9436342,76.3052424 L77.3997635,75.601419 L76.2588885,74.3058731 Z M70.1855735,68.8753646 L71.4286165,68.7717777 L72.5269216,70.4703193 L74.8611746,72.5647615 L74.8186047,74.0575483 L73.6692156,74.0064643 L70.7347261,71.1244777 L69.4916831,70.0786756 L70.1855735,68.8753646 Z M44.450611,52.1212456 L46.3988963,50.432637 L49.8811194,49.8820654 L51.9656287,52.1723295 L54.3594797,53.0733938 L56.7008277,54.3178557 L56.9931415,54.8670083 L58.786756,54.9606622 L59.0861648,54.5150966 L62.371147,57.8085928 L63.5205361,59.9030351 L63.563106,61.0524241 L63.9661017,62.441624 L63.7177769,64.4835633 L65.5624754,66.2856918 L66.3514387,65.6840363 L68.7963737,65.9337801 L67.8016555,68.7221127 L66.5061096,68.0268033 L65.3567205,68.6696098 L63.3147812,67.3314939 L62.5683879,65.9351991 L62.8167127,64.4409933 L61.7269216,63.3866772 L59.98581,60.7445014 L59.2819866,59.6036263 L57.4983051,59.7497832 L55.0022862,58.4116673 L53.9124951,56.7145447 L52.2224675,56.3200631 L51.1241624,54.8173433 L49.8811194,54.2681908 L49.3319669,53.3671265 L48.036421,52.2773354 L45.651084,52.3709894 L44.450611,52.1212456 Z M48.3627907,92.9472605 L48.8353173,92.38108 L49.2808829,94.2172645 L50.6700828,96.0704769 L49.7009066,98.0599133 L48.3627907,97.3901458 L48.4309026,95.9158061 L47.6419393,94.6188412 L48.3627907,92.9472605 Z M48.2081198,90.3802917 L48.9545132,91.5552227 L47.959795,91.5225857 L48.2081198,90.3802917 Z" id="Shape" fill-rule="nonzero" opacity="0.3"></path>
                            <g id="Group">
                                <path d="M8.56129287,42.7473394 C8.45628695,42.3486007 8.31296807,41.1566417 8.53007489,40.2938904 C8.37398502,40.1988175 8.1611352,40.0256996 8.04619629,39.9533307 C8.90894758,39.5219551 8.13417422,39.2679543 8.5215609,38.6975168 C8.6435948,38.5173039 9.0011825,38.2420181 9.26937328,37.9539614 C9.49641309,37.7098936 10.1505715,37.7155696 10.5237682,37.258652 C10.5620812,37.211825 10.811825,35.7772172 10.8657469,35.5813953 C11.0246748,35.0081198 11.4759164,34.2815924 11.5355144,33.7012219 C11.5936933,33.1336224 11.3411115,32.6000788 11.3879385,32.1346472 C11.5426094,30.6021285 11.2729996,30.9512022 12.8069373,30.4588096 C14.7637367,29.8316121 16.4608593,28.6992511 17.999054,27.3540402 C20.0381553,25.5717777 19.8551045,24.039259 19.250611,21.652503 C19.5188017,21.8312968 20.1374852,21.8270398 20.425542,21.9788727 C21.0655104,20.39527 22.6292471,20.373985 23.8254631,19.5523847 C24.3689397,19.180607 24.5931415,18.4980686 25.0642491,18.1163579 C25.5637367,17.7133622 26.0660623,17.7332282 26.6506898,17.3543555 C27.3616082,16.8931809 27.3374852,16.6888451 28.0796216,16.3170674 C28.7181711,15.9963737 29.1381947,16.2688214 29.7937722,15.7409539 C30.9020102,14.8484036 30.6919984,14.0480883 32.3266851,13.4407568 C34.859598,12.4999606 37.22365,14.0693733 39.599054,13.4790698 C40.825069,13.173985 40.9243989,12.1054789 42.2596768,11.6968073 C43.4417028,11.3349626 44.42365,11.8103272 45.6,11.1419787 C45.7050059,10.3317304 46.2201025,9.67899093 47.0189988,9.46046512 C47.5397714,11.9181711 51.1993693,10.9518329 52.8950729,10.6396531 C53.969255,10.4409933 55.6039417,10.2409145 56.4964919,9.62790698 C57.8771778,8.68001577 57.610406,7.52495073 59.4309815,7.64982263 C59.4877414,7.76618053 59.6040993,8.02727631 59.6722113,8.12376823 C60.4484036,8.14931021 60.8712653,7.71225857 61.6091447,7.60725266 C62.1582972,7.52778873 62.351281,8.21600315 63.1757194,7.6767836 C63.1714624,9.53992905 65.3042176,7.4440678 66.2251478,8.31959007 C66.8580213,8.92266456 66.2606228,9.87339377 66.2251478,10.6126922 C67.4639338,10.6737091 68.7694127,10.8766259 69.586756,9.94576271 C69.6789909,10.0379976 69.7485219,10.1458415 69.7939298,10.2678754 C69.8322428,10.2394955 70.85676,9.2433583 70.6722901,9.25612929 C71.2640126,9.21497832 71.5024044,9.62081198 72.021758,9.62223098 C73.4464328,9.62790698 73.3428459,9.93582972 74.5915648,10.4253843 C76.3057154,11.0994088 80.0461963,8.42175798 80.7556957,10.3189594 C81.5347261,9.72723689 82.2243595,10.1940875 83.0573118,9.89325976 C84.2237288,9.47323611 84.5685455,7.88679543 85.7037446,7.77185652 C85.3163579,6.95167521 84.6111155,6.66078045 84.6806464,5.71572724 C84.7686244,4.47836027 86.2614111,4.04556563 85.5973197,2.83090264 C86.7353567,2.17106819 87.3951912,0.404414663 89.1277887,0.703823413 C91.239259,1.06708711 89.3094206,2.6379188 89.6471423,4.22294048 C91.4279858,4.64438313 91.7529365,4.76074103 91.9260544,6.73598739 C92.1715412,9.54702404 91.5713047,8.30965708 89.7932992,8.88718959 C88.5914072,9.27741427 88.1713835,10.9248719 88.1884115,12.0657469 C88.1983445,12.7681514 88.9206149,14.7731967 88.1571935,15.560741 C87.4874261,16.2503745 87.1468664,15.4968861 86.5267639,15.7664959 C85.7803705,16.0900276 85.3745369,16.9953488 84.6536855,17.2152937 C83.7696492,17.4834844 80.7783997,16.9541979 79.7269216,16.847773 C78.4881356,16.7200631 75.9396137,16.810879 74.9378006,16.3184864 C73.6890816,15.7068979 73.6862436,14.443989 72.2331888,13.9884903 C70.9646039,15.0016555 71.2498226,16.9158849 69.3909342,17.1514387 C68.2756011,17.2947576 66.5316516,16.2730784 65.2815136,15.8204178 C63.7575089,15.2712653 62.5712259,14.8938116 61.5523847,16.5228222 C61.0202601,17.3742215 61.20473,18.2568388 60.6740244,19.14797 C59.997162,20.2817501 58.9967678,20.443516 57.8402838,21.2409933 C57.4514781,19.9426094 55.5046117,19.5651557 54.8958613,20.5712259 C54.4332676,21.3360662 55.4450138,23.4815924 56.0523453,24.1286559 C57.2769413,25.4327158 57.9310997,24.8225463 59.4664564,25.3475759 C61.208987,25.9435554 61.2600709,27.9074497 62.5073709,28.7205361 C61.5495467,30.1310209 60.8159243,28.4636973 60.002838,27.8819078 C59.1131257,27.2447773 58.0375246,27.1553804 56.9832085,26.9950335 C55.9785574,26.8417816 54.7156484,26.3394561 54.6688214,27.8435948 C54.6361845,28.8908159 56.2183682,29.4584155 56.9392196,30.006149 C57.6856129,30.5751675 59.0421758,31.4677178 57.6969649,32.6355538 C56.381553,33.7778479 55.8139535,32.409933 55.249192,31.5684667 C53.8245171,29.4442255 53.3590855,28.9390619 50.8006307,28.3998423 C50.1365392,31.4166338 51.9798187,31.2846669 53.4073315,33.1208514 C51.2859283,34.786756 48.3244777,32.2368151 47.7625542,30.3268427 C47.2545526,28.5999212 47.7497832,28.1486795 46.1534095,27.0901064 C45.0962554,26.389121 43.14797,26.4898699 42.8485613,25.0808041 C43.211825,25.0410721 43.6800946,24.7246354 44.1781632,24.8069373 C44.8351596,23.1963737 44.0178163,21.4481671 42.0808829,21.9788727 C41.3798975,22.1718565 38.7121797,24.3826567 38.5702799,25.198581 C38.392905,26.2174222 39.2443043,25.9478124 39.4330311,26.7722507 C39.5380371,27.2263303 39.2769413,28.4026803 39.2386283,28.9475759 C39.2145053,29.3023256 39.6998029,29.8997241 39.623177,30.1508869 C39.4841151,30.6078045 38.6752858,30.7071344 38.5702799,31.0860071 C38.367363,31.8196295 38.439732,32.2055972 38.7419787,32.9675995 C39.4443831,33.3691762 40.3823413,34.0531336 41.0166338,34.5810012 C42.0652739,35.4522665 41.8041782,36.1830508 42.4767836,37.0287741 C42.9464722,37.6190777 44.0320063,38.0759953 44.6137958,38.6592038 C45.3005912,39.3474182 45.7106819,40.6174222 46.6656681,40.823177 C46.752227,42.3117067 47.0800158,42.8651163 48.1116279,43.7690185 C48.9843122,44.5324399 49.9932203,44.7892787 50.0769413,46.3005124 C50.1322822,47.3023256 49.5504927,48.8362633 48.4223886,49.0845881 C47.0431218,49.3882538 46.764998,46.9291289 47.9072921,46.5687032 C47.8108002,45.541348 44.7812377,43.9534884 43.7013796,44.0116673 C44.7556957,45.639259 43.7581395,45.8152148 42.8145053,47.3193536 C43.4502168,47.8032322 44.9529365,47.5974773 45.2835633,48.4119827 C45.7901458,49.6578636 43.9241624,50.2013402 43.6474576,51.0541585 C42.8230193,50.9619235 41.973039,51.0867954 41.4040205,51.643043 C41.2536066,52.4759953 41.8552621,52.9527789 42.0922349,53.6963343 C43.3877808,54.3817107 45.1246354,54.2908948 46.1619235,54.9862042 C46.5847852,55.2700039 46.6259361,55.7723295 47.0104848,56.0887663 C47.1452897,56.2008672 47.1410327,56.6776508 47.2588096,56.7642097 C47.5270004,56.9642885 48.029326,56.7358297 48.1144659,56.7954277 C48.3230587,56.9444225 49.1134411,57.4864801 49.3121009,57.612771 C49.7122586,57.8639338 49.9790304,58.2569965 50.4614899,58.4783603 C51.0234135,58.7394561 51.4292471,58.5918802 52.0181317,58.7096571 C52.8610169,58.8770989 53.0596768,58.830272 53.982026,59.2020497 C55.205203,59.6958613 55.210879,59.986756 56.0537643,60.8778873 C56.7433977,61.6058337 57.9921167,61.8924714 58.5355932,63.0134805 C59.1003547,64.1798975 58.4745763,68.7306267 60.3277887,68.6667718 C60.3632637,69.7381159 61.5906977,71.4139535 60,71.8141112 C59.5260544,70.771147 58.8648009,71.3869925 58.2262515,70.9187229 C57.608987,70.4646433 57.3464722,69.9410327 56.6781238,69.4912101 C55.6039417,68.7689397 53.9181711,68.1743792 52.763106,67.7784785 C52.2040205,69.1236894 50.5948758,68.395743 49.6725266,68.6795428 C48.8991723,68.9179346 47.6135593,69.5224281 46.8884509,70.0942846 C47.3226646,71.1528577 48.3684667,70.8648009 48.9573512,71.5232164 C49.5008277,72.1305479 49.163106,73.170674 49.5348837,73.7836815 C50.2074892,74.8890816 53.1845487,74.5471029 53.2682696,76.0200236 C53.2384706,75.9519117 53.1845487,75.9263697 53.1093417,75.9419787 C54.5084746,77.6816713 55.0945211,77.8051242 52.3643674,77.6859283 C51.8719748,77.6632243 47.7483642,78.7374064 49.2964919,76.750808 C48.7090264,76.2300355 45.9419787,74.8635396 45.2750493,75.3985022 C44.6237288,75.9206937 46.9310209,78.8324793 47.2687426,79.8144265 C47.8235711,81.4249901 48.2577848,82.6297201 48.6494285,84.2487978 C48.9091052,85.3201419 50.3323611,86.8200236 49.3404809,87.9736697 C49.8030745,89.1273157 52.0862436,89.1713047 51.2788333,90.6115885 C50.1209302,90.3703587 48.9999212,89.7757982 48.0775719,89.0379188 C47.2219156,88.3511234 46.3208514,86.1786362 45.4651951,85.8324005 C44.1951912,85.3173039 42.6044935,87.4543161 42.2128498,88.4660623 C41.6608593,89.8878991 42.8556563,91.2799369 42.5832085,92.7443437 C41.6182893,92.1015372 40.6335041,91.2955459 40.4916043,90.1021679 C40.3042964,88.5341742 41.3940875,88.1311786 39.9594797,86.9051636 C38.7192747,85.8451715 37.7997635,86.1076862 36.9441072,84.6035475 C36.1664959,83.2370516 36.0912889,82.6197872 34.84257,81.602365 C34.9433189,82.0053607 34.824123,82.4012613 34.9759559,82.795743 C34.807095,82.845408 34.6510051,82.846827 34.4878203,82.8865589 C34.6126922,83.5747734 34.3459204,83.6684273 34.9759559,84.1196689 C33.3497832,85.3215609 36.6319275,86.1303902 35.1348837,87.0910524 C33.8748128,87.8984628 32.6402838,84.5694915 32.1549862,83.7478912 C31.3929838,82.4608593 30.1300749,81.1468664 30.5855735,79.2695309 C30.7743004,78.4890816 31.6115097,78.9658652 31.6271186,77.4872684 C31.6356326,76.745132 30.9516752,75.64257 30.8963343,74.7074497 C29.5894363,74.364052 27.9689397,73.5381947 27.5134411,72.2156878 C24.3675207,73.3054789 22.9428459,67.6436736 23.6636973,65.6528183 C24.2014978,65.7478912 24.6711864,65.5407174 25.199054,65.7890422 C25.7340166,65.0908948 25.7921955,63.3228222 27.0167915,63.2944423 C27.2424123,63.2887663 28.6259361,64.3076074 29.0033898,64.3884903 C30.3372487,64.6708711 30.1385889,64.0223886 31.1318881,63.6662199 C31.8882144,63.3966102 33.0092235,63.2178163 33.7570359,62.8063067 C34.5020102,64.0777296 36.017501,64.2565235 37.16689,65.0454868 C37.7869925,65.4711864 37.9842333,66.1366969 38.7050847,66.4744186 C40.822231,67.4634608 39.9225857,65.6528183 41.0208908,65.5109184 C43.0628301,65.2498226 42.9294442,68.7746157 45.2409933,67.7103666 C46.6003942,67.0860071 47.5922743,65.7649192 48.6380765,64.775877 C47.6518723,64.7120221 45.8298778,65.1150177 44.9231376,64.74324 C43.8986204,64.3232164 43.8688214,63.1454474 42.4441466,63.1667324 C42.1844698,63.5356721 41.8126922,63.632164 41.5870713,63.8393378 C41.6807253,62.9411115 41.6991723,62.0499803 40.756957,61.6810406 C39.4472211,61.170201 40.2801734,62.2429641 39.2102483,62.407568 C37.4691368,62.6743398 37.2690579,60.8693733 36.1991328,60.1612929 C35.0128498,59.3751675 33.3866772,59.8363421 32.367836,60.5430035 C30.9630272,61.5164367 30.7473394,61.7973985 28.816082,61.6994876 C28.0654316,60.8906583 27.6823019,58.5095782 26.1214032,58.746551 C25.1380371,58.8955459 23.6097753,61.1389831 23.4295625,62.0584943 C22.1893575,61.6824596 22.8761529,60.5557745 22.5781632,59.5979503 C22.2007095,58.3861253 21.4103272,57.9419787 20.41419,57.1147024 C19.4294048,56.2959401 17.5208514,55.0458021 17.3832085,53.6069373 C17.2938116,52.6746551 18.4800946,51.9864407 17.6159243,50.9321246 C17.4541585,50.7348837 16.5105242,50.8980686 16.1940875,50.6880568 C15.8350808,50.451084 15.3171462,49.8650374 15.0759164,49.5258967 C14.4969649,48.7099724 14.3096571,47.6499803 13.6739456,46.8752069 C12.5657075,45.5271581 8.1625542,44.5437919 8.60670083,42.7501774 L8.56129287,42.7473394 Z M57.8715018,111.391407 C56.8469846,112.088136 57.2301143,108.820181 57.0130075,108.225621 C57.3095782,108.273867 57.7679149,108.100749 58.0261726,108.133386 C57.8743398,107.369965 57.8260938,106.531336 57.8984628,105.71825 C58.1907765,106.407883 58.7527,107.080489 59.4636184,107.33449 C60.3093417,106.690264 59.973039,105.173354 60.026961,104.148837 C61.5679937,104.189988 60.5463145,106.365313 61.8134805,106.65337 C63.3644462,107.005282 64.3861253,105.433031 62.5073709,104.800158 C62.6336618,103.132834 64.750808,104.435475 65.6490343,104.49933 C65.7795822,105.549389 65.1154907,106.22767 65.0289318,107.070556 C67.3362239,106.353961 68.7765077,109.270004 71.2129287,108.178794 C71.955065,107.848167 71.997635,107.439495 72.8689003,107.137249 C73.3726449,106.961293 74.1360662,106.942846 74.6738668,106.815136 C75.4060702,106.643437 76.3525424,106.138274 77.2039417,105.943871 C78.3320457,105.685613 77.8978321,105.870083 78.9379582,106.041782 C81.0636184,106.393693 82.6018132,107.562948 84.7317304,107.667954 C85.9222704,107.726133 87.1355144,106.698778 87.8407568,107.663697 C88.3487584,108.359007 87.9642097,111.029562 87.548443,111.399921 C88.3586914,110.954356 89.2767836,110.433583 90.1792669,110.023492 C90.2672448,110.80678 90.3098147,112.25132 91.5741427,111.927789 C92.5802128,111.669531 92.6298778,109.678676 92.6610958,108.763421 C93.3876232,108.700985 93.8530548,108.229878 94.0190777,107.543082 C94.1751675,110.280331 95.2905006,114.443674 91.215136,114.768624 C88.6864801,114.970122 85.9889633,113.471659 83.2715806,113.864722 C81.8568388,114.070477 80.6819078,114.169807 79.3225069,114.625305 C78.1220339,115.028301 76.5966102,115.713678 75.0470635,115.305006 C73.200946,114.81687 74.2027592,113.741269 72.9980292,112.857233 C71.7549862,111.944817 70.768782,112.640126 69.7173039,111.059361 C69.1113914,111.534726 67.7761135,111.328971 67.1006701,111.38715 C66.1996058,111.463776 65.2843516,111.331809 64.4400473,111.343161 L57.8715018,111.391407 Z M44.9231376,51.7934568 L45.2764683,52.6803311 C45.3757982,51.5167521 50.1138352,49.7202996 51.2717383,50.409933 C51.5328341,50.5660229 51.9031927,51.7764289 52.3714624,52.1482065 C52.8808829,52.5526212 53.4413875,52.6363421 54.003311,52.857706 C55.5684667,53.4763894 56.5135199,53.7672842 57.5153331,55.146551 C57.7977138,54.9124162 58.3071344,54.9124162 58.5838392,54.7052424 C59.4976744,55.6432006 60.7052424,56.3200631 61.6006307,57.2807253 C62.7940087,58.5620812 62.9657075,60.006622 63.4126922,61.5476547 C63.7802128,62.8176587 64.0384706,65.0043358 65.0942058,65.982026 C66.6082775,67.3854158 66.4748916,65.6443043 68.4856129,66.008987 C68.6048088,67.6450926 68.2869531,69.0555775 66.4067797,67.7699645 C66.4152937,67.9799764 66.3486007,68.2297201 66.3528577,68.435475 C65.2602286,69.0144265 64.2428065,67.9657864 63.541821,67.16689 C62.6648798,66.1636579 63.0494285,66.2402838 62.6251478,64.9560899 C61.9780844,62.9964525 59.8737091,62.0641703 59.0819078,59.982499 C58.0531336,60.020812 57.3053212,59.8647221 56.448246,59.2800946 C55.5982657,58.7011431 55.3783209,57.6964919 54.5013796,57.0919984 C53.7734332,58.1264486 51.0532125,55.4487978 50.0670083,54.8074103 C49.6484036,54.5363816 49.1389831,54.5860465 48.6891604,54.2355538 C48.2975168,53.9304691 48.5359086,53.2450926 48.0818289,52.8960189 C47.2744186,52.2759164 45.9249507,52.4405203 44.8933386,51.9608987 C44.8933386,51.9623177 44.9529365,52.0502956 44.9231376,51.7934568 Z M53.0823808,47.0043358 L53.2597556,46.4722113 C53.2029957,46.746078 53.1036657,47.0000788 52.9589279,47.2342136 C53.9252661,47.0412298 57.7182499,48.4588096 55.9728814,49.8948364 C54.9611352,50.7263697 52.9589279,47.7138352 53.0823808,47.0043358 Z M68.6913678,51.0839574 C69.7371699,52.6221521 71.6400473,53.1656287 69.4306661,55.3352779 C69.1780844,54.5633425 68.8559716,53.8027592 68.4685849,53.0875838 C68.3295231,53.2805676 68.1337012,53.4324005 68.0258573,53.5530154 C67.3035869,52.5455262 66.6281435,51.2017343 65.6717383,50.436894 C66.2180528,50.1005912 66.7061884,49.6536066 67.1375641,49.186756 C67.8598345,49.6521876 68.3124951,50.4709499 68.6913678,51.0839574 Z M86.6062278,58.7110761 L86.9609775,59.2432006 C86.6814348,58.5649192 83.2304296,56.348443 86.2514781,56.2249901 C87.60946,56.1668112 88.6297201,58.1959795 89.1206937,59.2119827 C89.7166732,59.0672448 90.020339,59.2119827 90.4857706,58.5876232 C90.4219156,60.012298 88.7148601,63.8620418 86.9623965,63.8577848 C84.4081987,63.8506898 85.8442255,59.985337 86.9212456,62.421758 C86.9893575,61.5930627 86.8843516,60.7388254 87.1312574,59.9527 C86.434529,59.6532913 86.352227,59.2871896 86.6062278,58.7110761 Z M74.0126133,35.2975956 C73.6507686,35.5005124 72.9810012,35.5544344 72.4432006,35.4480095 C72.3651557,33.9765077 70.0550256,31.5145447 72.5538825,30.8093023 C74.2566811,30.3296807 73.6905006,31.8352385 74.7221127,32.2836421 C75.635948,32.6823808 75.6728419,31.7061096 76.822231,31.5940087 C76.8761529,32.4638549 77.0379188,33.597635 76.7243201,34.4192353 C76.4575483,35.1188017 75.7636579,35.2507686 75.59054,35.980134 C75.0030745,36.1787939 74.7008277,35.997162 74.365944,35.6523453 L74.0126133,35.2975956 Z M78.9791092,23.4134805 L79.156484,23.0601498 C78.9776902,23.2800946 78.9691762,23.4702404 79.1295231,23.6320063 C80.3030351,23.6305873 81.3814742,23.1864407 82.4953883,23.6192353 C82.6685061,24.2279858 82.5067402,24.8111943 82.0285376,25.191486 C81.3559322,24.5103666 79.4785968,24.9743792 78.4214426,24.1229799 C78.6101695,23.947024 78.7889633,23.5724084 78.9791092,23.4134805 Z M86.7836027,48.7780844 C86.5296019,48.9597162 85.9265274,49.168309 85.5547497,49.2875049 C85.2610169,48.7156484 85.3277099,47.0923138 83.972566,47.1547497 C83.5397714,44.7240047 86.2826961,44.6189988 87.8563658,43.8555775 C89.960741,42.8324793 90.4034687,42.4053607 92.2510051,43.8413875 C92.2524241,44.431691 92.2722901,44.9865195 91.9558534,45.5271581 C92.0665353,45.4462751 92.2084352,45.3057942 92.2864801,45.2391013 C92.5234529,46.3076074 93.7083169,49.1101301 92.9988175,49.8806464 C91.6578636,51.3365392 89.8869531,49.1356721 88.4069373,49.6365786 C88.0607016,48.1225069 90.4247536,48.4843516 90.3481277,46.9944028 C90.2856918,45.7882538 88.763106,45.8308238 87.8790698,45.9571147 C87.4987781,46.784391 86.8744186,47.7280252 87.2986993,48.6035475 C87.0631454,48.6631454 86.377769,48.9512022 86.2514781,48.9554592 L86.7836027,48.7780844 Z M71.5293654,68.4666929 L71.1731967,68.9988175 C71.2072527,68.8001577 71.1192747,68.6398108 71.2044147,68.6100118 C71.987702,70.0644856 76.9683879,72.3916437 74.5447379,74.1639732 C73.6309026,73.4615688 68.7679937,68.6767048 71.5293654,68.4666929 Z M78.9791092,82.1245566 C78.6655104,82.3558534 78.5931415,82.7333071 78.1234529,82.8638549 C78.5491525,85.0164762 76.4745763,85.4989358 76.3184864,83.1888057 C76.1595585,80.8531336 79.0926291,81.1894363 78.9791092,82.1245566 Z M67.6271186,88.1553015 L67.8044935,88.1553015 C70.0067797,87.7111549 68.8701616,90.9493102 66.5898305,90.7889633 C66.4521876,89.6949153 67.0126922,88.5710682 67.6271186,88.1553015 Z M64.4343713,21.639732 L64.6103272,21.8171068 C65.0019708,20.6308238 66.4748916,18.3817107 68.379188,20.345605 C70.8851399,22.9296019 65.5993693,21.9760347 64.3520694,22.0129287 C64.5549862,21.8540008 64.4315333,21.7390619 64.4343713,21.639732 Z M15.3015372,58.5337012 L15.1227434,59.0658258 C17.2994876,59.0374458 16.4083563,61.6753646 16.9319669,62.7665747 C17.0128498,62.6644068 17.4513205,62.401892 17.5662594,62.2713441 C18.0799369,63.2958613 18.7582184,64.2536855 18.8518723,65.4612534 C18.9526212,66.7482854 17.7195112,68.6781238 17.0823808,66.7099724 C16.8638549,66.7894363 16.5389042,66.7809223 16.3515964,66.8476153 C16.1586125,66.1636579 16.0110367,66.001892 15.3313362,66.013244 C15.2121403,66.1934568 15.0347655,66.3765077 14.9453685,66.4971226 C14.4742609,65.6925503 14.5437919,64.760268 14.2018132,63.8648798 C13.4171068,64.7134411 14.2912101,66.8419393 12.7743004,65.4938904 C12.3429247,65.1121797 11.8562081,62.9808435 12.0988569,62.2543161 C12.8012613,60.1513599 13.197162,61.9421364 14.40473,61.5575877 C15.7556169,61.1276311 15.0007095,59.6178163 15.3015372,58.5337012 Z M17.6074103,69.7083169 L17.6074103,70.0630666 C17.6074103,69.8984628 17.6045723,69.7338589 17.5988963,69.570674 C18.3807647,70.7285771 21.8331888,70.4022073 21.3010642,72.5236106 C20.6908948,72.4228616 20.0253843,72.1461569 19.4081198,72.041151 C19.5486007,72.3930627 19.4137958,73.0472211 19.5315727,73.4062278 C18.4332676,73.5183287 16.0677966,72.3504927 15.608041,71.5203784 C14.6743398,69.8374458 16.5332282,69.1435554 17.6074103,69.7083169 Z M48.2932598,93.1217974 L48.1158849,93.4765471 C49.0268821,92.361214 51.7754829,96.5798975 49.8499015,97.9109184 C48.3429247,98.9510445 48.9786362,97.2865589 48.7813953,96.3500197 C48.5245566,95.1310997 47.5312574,94.5791092 48.2932598,93.1217974 Z M80.5754829,82.4793063 L80.7514387,82.6566811 C80.7060307,82.1940875 82.6642491,80.1266062 83.1992117,79.8300355 C84.1655499,81.5172251 83.5000394,84.1324399 81.3232952,84.2473788 C81.2140323,83.6570753 80.9444225,83.1036657 80.5485219,82.6708711 C80.4818289,82.6311391 80.6506898,82.761687 80.5754829,82.4793063 Z M76.3184864,74.6748128 L76.3184864,74.8521876 C78.2809618,70.840678 80.3299961,76.749389 77.944659,76.0668506 C77.7417422,75.2679543 76.798108,74.8465116 76.3184864,74.6748128 Z M6.43279464,42.2152148 C6.52077257,42.5997635 6.40299566,43.17162 6.22420181,43.6072527 C4.57390619,43.7448955 2.73914072,40.6656681 1.96720536,39.4070162 C0.990934174,39.3516752 0.295624754,38.7826567 0.0614899488,37.8092235 C1.01789515,37.6091447 2.14741821,37.1366181 2.75049271,36.3731967 C4.23902247,37.6659046 3.25991328,38.456287 3.90130075,39.9561687 C4.22199448,40.7082381 6.3561687,42.2662988 6.9649192,42.3911707 L6.43279464,42.2152148 Z" id="Combined-Shape"></path>
                            </g>
                        </g>
                    </g>
                </g>
            </g>
        </g>
    </g>
</svg>