<?xml version="1.0" encoding="UTF-8"?>
<svg width="120px" height="96px" viewBox="0 0 120 96" version="1.1" xmlns="http://www.w3.org/2000/svg" xmlns:xlink="http://www.w3.org/1999/xlink">
    <!-- Generator: Sketch 52.1 (67048) - http://www.bohemiancoding.com/sketch -->
    <title>noun_morocco_1012984</title>
    <desc>Created with Sketch.</desc>
    <defs>
        <linearGradient x1="12.0998348%" y1="72.7425357%" x2="88.1853453%" y2="13.5814785%" id="linearGradient-1">
            <stop stop-color="#34CDFA" offset="0%"></stop>
            <stop stop-color="#E8D9F1" offset="100%"></stop>
        </linearGradient>
    </defs>
    <g id="Page-1" stroke="none" stroke-width="1" fill="none" fill-rule="evenodd">
        <g id="Home-Copy" transform="translate(-1060.000000, -2980.000000)" fill="url(#linearGradient-1)">
            <g id="Offices" transform="translate(-275.000000, 2067.000000)">
                <g id="Reason-Copy-10" transform="translate(1210.000000, 851.000000)">
                    <g id="Group-2" transform="translate(20.000000, 20.000000)">
                        <g id="noun_morocco_1012984" transform="translate(105.000000, 42.000000)">
                            <polygon id="Path" points="108.059607 10.453546 108.342552 11.3373613 108.922529 12.0430278 110.990591 13.6535119 112.216844 14.6457504 112.251816 14.9880838 111.857023 15.8020663 111.689329 16.3610363 112.010765 16.9583845 112.768774 17.6780153 112.828159 18.0238653 112.646494 18.4256864 112.25522 19.1976666 113.086691 21.4614701 113.226461 23.6518169 113.009825 25.2064371 113.016863 26.1043239 113.125181 26.8658543 113.830843 28.6230374 113.359194 31.5261936 113.890228 33.1052256 114.620314 34.3838264 115.018616 36.6615964 115.605517 37.741046 116.566191 38.6877633 117.114716 39.0056801 118.173161 39.7882129 118.931284 40.4380131 119.375 41.4091444 118.424769 42.2056436 117.663126 42.9183483 117.446594 43.6869144 117.802897 44.916582 117.802897 45.5768298 117.317276 45.7865333 115.339937 45.7166003 113.788843 45.6642531 112.007246 45.6048679 109.498873 45.4859971 107.947769 45.4126453 105.816803 45.3148841 105.083208 45.3638171 103.130284 45.706148 101.750403 45.9507178 101.516285 46.0170315 101.086636 46.3209818 100.789719 47.2257994 100.524149 48.2564209 100.237684 48.7139986 96.0979272 50.2021979 94.4805146 50.408387 93.5442544 50.2546548 92.8769685 50.3769349 92.3040296 50.6948565 92.1083929 51.1734389 92.0804597 51.788268 92.2027494 52.4066209 92.6010515 53.2660198 92.6708795 54.1254234 92.415867 54.7332191 92.3564818 55.3411198 92.2377206 55.9978533 92.4508383 56.3542556 92.8490354 56.4101219 93.2507421 56.7105531 93.8167479 56.983056 94.2848875 57.5035381 94.263878 58.2441711 93.872614 58.6633683 93.526764 58.883524 91.9756604 59.079156 90.7495212 59.2363025 89.1459656 60.417142 87.4376106 61.674738 85.4184819 62.5062085 84.5276261 62.740326 82.973013 63.3376743 81.1110306 64.3193628 80.1922417 65.8913566 79.0358257 67.7009965 77.9214001 68.9132786 76.4017535 70.0625611 74.983492 70.4992486 73.20179 71.051283 70.9554721 71.4739991 69.3659879 71.6136648 68.8908196 71.7044928 67.489934 71.7324259 66.8052721 71.6451075 66.2917185 71.5962794 66.0855294 71.7255023 66.0157014 72.0084479 65.9877682 72.6582434 65.8934165 73.402405 65.4498006 74.0276816 65.1354029 74.3071083 64.768553 74.4224648 63.5912325 74.2547611 62.6061346 74.0556149 60.2619459 73.7901501 59.793811 73.8530545 59.6191837 73.9299206 58.8889935 74.3560509 57.7641299 75.2504161 56.999078 76.0329536 56.4296629 76.3998035 55.0671579 76.5919213 54.4733287 76.878386 51.9370271 78.8311963 51.3955404 79.3062691 48.7858869 81.0006528 48.0487729 81.5631394 47.4724245 82.1185875 45.9142875 83.3692551 44.9186372 83.9176655 44.7369719 84.2426205 44.6880341 85.004158 44.6880341 86.6879845 44.6880341 88.3019925 44.6880341 90.6426621 44.6880341 92.9832269 44.6880341 95.6732655 43.3710575 95.6732655 43.3710575 95.6766701 43.3640194 95.6732655 0.625 95.7220936 0.63896625 95.6801891 1.96650112 94.4225979 2.86428262 92.8294849 4.38745125 92.120409 7.5734495 91.7779731 12.3071384 90.4539585 16.5552079 88.4522056 17.7569412 87.6557064 19.0425776 86.0556698 21.1805795 83.9701175 25.1735256 81.4617538 27.0110939 80.0574588 29.8128626 76.5325354 31.6749499 73.6084841 33.222532 71.7219829 34.2915341 70.045185 35.042617 68.3438681 35.4653331 65.5979633 35.1823851 64.521923 34.001548 62.7612256 33.2120845 62.2896766 32.9989669 61.4582109 33.4216854 59.9909066 33.4146473 57.4616384 33.6521813 53.4091996 34.9657484 50.1288509 38.1762691 45.8144664 38.7736174 44.0362834 39.1404673 41.2065839 39.1719194 40.2038955 43.1893869 36.1654234 45.5405088 33.0598116 46.3580079 32.2981739 48.4331079 30.8763933 55.6785818 27.7636384 59.7729154 25.5313896 62.1624131 23.9034223 63.5877128 21.9715023 67.5353523 14.3592834 71.4096351 3.543477 71.7344853 2.2857725 73.4672543 1.92254413 74.6935078 1.76529163 75.6821199 1.36698838 76.9048544 0.549592875 78.0786606 0.8779585 77.4917551 1.43340825 77.4917551 2.77490975 78.3232209 4.34349425 79.7695253 6.10419525 82.3965546 8.33654888 84.4437215 9.23081163 87.3677824 9.76877688 90.7774541 8.79060988 92.6848505 8.7732315 93.610668 8.35051538 94.62018 8.96886588 96.5381335 9.16790963 98.3896636 8.84306188 99.790554 7.9067945 100.6814 6.82734488 100.821171 7.35838175 100.863075 7.93120863 101.135569 8.26661113 101.687498 9.6360445 101.977491 10.170598 103.042974 10.083282 103.968792 10.3522659 106.057854 10.2229453"></polygon>
                        </g>
                    </g>
                </g>
            </g>
        </g>
    </g>
</svg>