<?xml version="1.0" encoding="UTF-8"?>
<svg width="120px" height="85px" viewBox="0 0 120 85" version="1.1" xmlns="http://www.w3.org/2000/svg" xmlns:xlink="http://www.w3.org/1999/xlink">
    <!-- Generator: Sketch 52.1 (67048) - http://www.bohemiancoding.com/sketch -->
    <title>noun_russia_76677</title>
    <desc>Created with Sketch.</desc>
    <defs>
        <linearGradient x1="12.0998348%" y1="72.7425357%" x2="88.1853453%" y2="13.5814785%" id="linearGradient-1">
            <stop stop-color="#34CDFA" offset="0%"></stop>
            <stop stop-color="#E8D9F1" offset="100%"></stop>
        </linearGradient>
    </defs>
    <g id="Page-1" stroke="none" stroke-width="1" fill="none" fill-rule="evenodd">
        <g id="Home-Copy" transform="translate(-1060.000000, -3606.000000)" fill="url(#linearGradient-1)">
            <g id="Offices" transform="translate(-275.000000, 2067.000000)">
                <g id="Reason-Copy-13" transform="translate(1210.000000, 1471.000000)">
                    <g id="Group-2" transform="translate(20.000000, 20.000000)">
                        <g id="noun_russia_76677" transform="translate(105.000000, 48.000000)">
                            <polygon id="Path" points="13.4117647 38.1176471 17.7882353 36 24.7058824 25.8352941 26.8235294 24.9882353 29.0823529 35.2941176 26.1176471 35.7176471 23.8588235 31.4823529 22.1647059 38.1176471 29.6470588 38.1176471 37.4117647 40.0941176 40.5176471 38.1176471 45.7411765 43.4823529 48 33.6 51.6705882 37.2705882 53.9294118 34.1647059 57.6 33.1764706 62.9647059 28.2352941 63.8117647 25.8352941 68.1882353 26.5411765 70.0235294 28.9411765 66.7764706 35.7176471 74.8235294 31.6235294 74.8235294 29.6470588 77.9294118 28.9411765 81.3176471 32.3294118 84.7058824 28.2352941 84.7058824 25.4117647 90.2117647 21.6 92.4705882 18.3529412 96 18.3529412 102.211765 5.78823529 107.576471 0.282352941 109.552941 3.38823529 106.447059 7.34117647 107.576471 9.88235294 110.541176 10.4470588 112.941176 20.8941176 112.941176 29.6470588 117.176471 35.4352941 119.294118 43.4823529 111.952941 38.8235294 108.705882 25.4117647 106.729412 25.8352941 106.447059 34.8705882 101.082353 43.4823529 99.5294118 56.6117647 103.2 57.4588235 104.752941 55.6235294 108.282353 59.5764706 110.964706 71.4352941 110.682353 79.0588235 107.294118 79.0588235 106.023529 68.3294118 103.623529 71.5764706 98.4 70.4470588 94.1647059 66.9176471 89.3647059 68.6117647 89.6470588 76.2352941 85.8352941 77.2235294 80.1882353 81.4588235 73.4117647 80.6117647 70.7294118 79.0588235 66.4941176 79.7647059 67.9058824 81.4588235 64.5176471 83.4352941 61.8352941 82.1647059 56.7529412 84.4235294 48.9882353 80.6117647 46.0235294 73.8352941 43.4823529 74.1176471 40.5176471 71.7176471 40.3764706 69.8823529 30.9176471 68.8941176 29.3647059 73.9764706 23.4352941 71.2941176 20.4705882 66.3529412 14.1176471 66.3529412 13.4117647 74.2588235 9.74117647 75.3882353 7.90588235 82.5882353 6.49411765 81.3176471 0.564705882 66.2117647 7.62352941 62.8235294 6.49411765 56.1882353 5.36470588 49.4117647 8.47058824 45.0352941 7.48235294 42.3529412 11.7176471 37.8352941"></polygon>
                            <polygon id="Path" points="107.294118 54.7764706 113.788235 64.3764706 115.905882 63.5294118 113.223529 59.5764706 107.294118 53.3647059"></polygon>
                            <polygon id="Path" points="40.9411765 35.2941176 40.9411765 32.4705882 45.8823529 28.9411765 50.1176471 26.8235294 45.1764706 26.8235294 40.8 29.3647059 38.1176471 31.7647059 38.1176471 35.2941176"></polygon>
                        </g>
                    </g>
                </g>
            </g>
        </g>
    </g>
</svg>